%TF.GenerationSoftware,KiCad,Pcbnew,(5.99.0-2290-gd34f8fd4b)*%
%TF.CreationDate,2020-09-08T20:53:16+02:00*%
%TF.ProjectId,audio-esp32,61756469-6f2d-4657-9370-33322e6b6963,rev?*%
%TF.SameCoordinates,Original*%
%TF.FileFunction,Legend,Top*%
%TF.FilePolarity,Positive*%
%FSLAX46Y46*%
G04 Gerber Fmt 4.6, Leading zero omitted, Abs format (unit mm)*
G04 Created by KiCad (PCBNEW (5.99.0-2290-gd34f8fd4b)) date 2020-09-08 20:53:16*
%MOMM*%
%LPD*%
G01*
G04 APERTURE LIST*
%ADD10C,0.150000*%
G04 APERTURE END LIST*
D10*
%TO.C,J1*%
X131238666Y-90106380D02*
X131238666Y-90820666D01*
X131191047Y-90963523D01*
X131095809Y-91058761D01*
X130952952Y-91106380D01*
X130857714Y-91106380D01*
X132238666Y-91106380D02*
X131667238Y-91106380D01*
X131952952Y-91106380D02*
X131952952Y-90106380D01*
X131857714Y-90249238D01*
X131762476Y-90344476D01*
X131667238Y-90392095D01*
X133865904Y-87384000D02*
X133770666Y-87336380D01*
X133627809Y-87336380D01*
X133484952Y-87384000D01*
X133389714Y-87479238D01*
X133342095Y-87574476D01*
X133294476Y-87764952D01*
X133294476Y-87907809D01*
X133342095Y-88098285D01*
X133389714Y-88193523D01*
X133484952Y-88288761D01*
X133627809Y-88336380D01*
X133723047Y-88336380D01*
X133865904Y-88288761D01*
X133913523Y-88241142D01*
X133913523Y-87907809D01*
X133723047Y-87907809D01*
X133342095Y-85796380D02*
X133342095Y-84796380D01*
X133580190Y-84796380D01*
X133723047Y-84844000D01*
X133818285Y-84939238D01*
X133865904Y-85034476D01*
X133913523Y-85224952D01*
X133913523Y-85367809D01*
X133865904Y-85558285D01*
X133818285Y-85653523D01*
X133723047Y-85748761D01*
X133580190Y-85796380D01*
X133342095Y-85796380D01*
X133842095Y-82256380D02*
X133365904Y-82256380D01*
X133318285Y-82732571D01*
X133365904Y-82684952D01*
X133461142Y-82637333D01*
X133699238Y-82637333D01*
X133794476Y-82684952D01*
X133842095Y-82732571D01*
X133889714Y-82827809D01*
X133889714Y-83065904D01*
X133842095Y-83161142D01*
X133794476Y-83208761D01*
X133699238Y-83256380D01*
X133461142Y-83256380D01*
X133365904Y-83208761D01*
X133318285Y-83161142D01*
%TO.C,U1*%
X160357619Y-71666345D02*
X159548095Y-71666345D01*
X159452857Y-71713964D01*
X159405238Y-71761583D01*
X159357619Y-71856821D01*
X159357619Y-72047297D01*
X159405238Y-72142535D01*
X159452857Y-72190154D01*
X159548095Y-72237773D01*
X160357619Y-72237773D01*
X159357619Y-73237773D02*
X159357619Y-72666345D01*
X159357619Y-72952059D02*
X160357619Y-72952059D01*
X160214761Y-72856821D01*
X160119523Y-72761583D01*
X160071904Y-72666345D01*
%TD*%
M02*
