%TF.GenerationSoftware,KiCad,Pcbnew,(5.99.0-2290-gd34f8fd4b)*%
%TF.CreationDate,2020-09-08T20:53:16+02:00*%
%TF.ProjectId,audio-esp32,61756469-6f2d-4657-9370-33322e6b6963,rev?*%
%TF.SameCoordinates,Original*%
%TF.FileFunction,Soldermask,Bot*%
%TF.FilePolarity,Negative*%
%FSLAX46Y46*%
G04 Gerber Fmt 4.6, Leading zero omitted, Abs format (unit mm)*
G04 Created by KiCad (PCBNEW (5.99.0-2290-gd34f8fd4b)) date 2020-09-08 20:53:16*
%MOMM*%
%LPD*%
G01*
G04 APERTURE LIST*
%ADD10C,0.300000*%
%ADD11O,1.600000X1.600000*%
%ADD12R,1.600000X1.600000*%
%ADD13C,1.700000*%
%ADD14O,1.700000X1.700000*%
%ADD15C,4.500000*%
%ADD16O,2.000000X1.200000*%
G04 APERTURE END LIST*
D10*
X132250571Y-72692285D02*
X130750571Y-72692285D01*
X131822000Y-73192285D01*
X130750571Y-73692285D01*
X132250571Y-73692285D01*
X131250571Y-75049428D02*
X132250571Y-75049428D01*
X131250571Y-74406571D02*
X132036285Y-74406571D01*
X132179142Y-74478000D01*
X132250571Y-74620857D01*
X132250571Y-74835142D01*
X132179142Y-74978000D01*
X132107714Y-75049428D01*
X132179142Y-75692285D02*
X132250571Y-75835142D01*
X132250571Y-76120857D01*
X132179142Y-76263714D01*
X132036285Y-76335142D01*
X131964857Y-76335142D01*
X131822000Y-76263714D01*
X131750571Y-76120857D01*
X131750571Y-75906571D01*
X131679142Y-75763714D01*
X131536285Y-75692285D01*
X131464857Y-75692285D01*
X131322000Y-75763714D01*
X131250571Y-75906571D01*
X131250571Y-76120857D01*
X131322000Y-76263714D01*
X132250571Y-76978000D02*
X131250571Y-76978000D01*
X130750571Y-76978000D02*
X130822000Y-76906571D01*
X130893428Y-76978000D01*
X130822000Y-77049428D01*
X130750571Y-76978000D01*
X130893428Y-76978000D01*
X132250571Y-77692285D02*
X130750571Y-77692285D01*
X131679142Y-77835142D02*
X132250571Y-78263714D01*
X131250571Y-78263714D02*
X131822000Y-77692285D01*
X131464857Y-79406571D02*
X131464857Y-78906571D01*
X132250571Y-78906571D02*
X130750571Y-78906571D01*
X130750571Y-79620857D01*
X132250571Y-80406571D02*
X132179142Y-80263714D01*
X132107714Y-80192285D01*
X131964857Y-80120857D01*
X131536285Y-80120857D01*
X131393428Y-80192285D01*
X131322000Y-80263714D01*
X131250571Y-80406571D01*
X131250571Y-80620857D01*
X131322000Y-80763714D01*
X131393428Y-80835142D01*
X131536285Y-80906571D01*
X131964857Y-80906571D01*
X132107714Y-80835142D01*
X132179142Y-80763714D01*
X132250571Y-80620857D01*
X132250571Y-80406571D01*
X132250571Y-81549428D02*
X130750571Y-81549428D01*
X131679142Y-81692285D02*
X132250571Y-82120857D01*
X131250571Y-82120857D02*
X131822000Y-81549428D01*
X132179142Y-82692285D02*
X132250571Y-82835142D01*
X132250571Y-83120857D01*
X132179142Y-83263714D01*
X132036285Y-83335142D01*
X131964857Y-83335142D01*
X131822000Y-83263714D01*
X131750571Y-83120857D01*
X131750571Y-82906571D01*
X131679142Y-82763714D01*
X131536285Y-82692285D01*
X131464857Y-82692285D01*
X131322000Y-82763714D01*
X131250571Y-82906571D01*
X131250571Y-83120857D01*
X131322000Y-83263714D01*
%TO.C,G\u002A\u002A\u002A*%
G36*
X131242198Y-88568284D02*
G01*
X131304942Y-88549659D01*
X131361893Y-88532928D01*
X131412115Y-88518377D01*
X131454675Y-88506291D01*
X131488639Y-88496954D01*
X131536699Y-88484446D01*
X131609746Y-88467169D01*
X131675255Y-88454106D01*
X131734122Y-88445133D01*
X131787245Y-88440120D01*
X131835517Y-88438943D01*
X131879835Y-88441473D01*
X131899816Y-88443421D01*
X131918665Y-88445064D01*
X131931638Y-88445964D01*
X131936701Y-88445960D01*
X131937182Y-88442443D01*
X131938244Y-88430376D01*
X131939708Y-88411306D01*
X131941449Y-88386872D01*
X131943344Y-88358713D01*
X131943417Y-88357594D01*
X131945529Y-88319123D01*
X131947338Y-88274207D01*
X131948854Y-88223595D01*
X131950083Y-88168034D01*
X131951035Y-88108271D01*
X131951718Y-88045054D01*
X131952140Y-87979131D01*
X131952309Y-87911248D01*
X131952233Y-87842153D01*
X131951921Y-87772595D01*
X131951382Y-87703320D01*
X131950622Y-87635076D01*
X131949652Y-87568611D01*
X131948478Y-87504671D01*
X131947109Y-87444006D01*
X131945554Y-87387361D01*
X131943821Y-87335485D01*
X131941918Y-87289125D01*
X131939853Y-87249028D01*
X131937634Y-87215943D01*
X131935271Y-87190616D01*
X131932770Y-87173796D01*
X131930141Y-87166229D01*
X131928548Y-87165660D01*
X131918956Y-87166080D01*
X131903213Y-87168741D01*
X131883768Y-87173272D01*
X131869780Y-87176706D01*
X131855152Y-87179582D01*
X131839558Y-87181644D01*
X131821190Y-87183024D01*
X131798243Y-87183854D01*
X131768909Y-87184266D01*
X131731382Y-87184390D01*
X131705414Y-87184323D01*
X131670908Y-87183824D01*
X131639546Y-87182677D01*
X131609477Y-87180691D01*
X131578854Y-87177674D01*
X131545825Y-87173434D01*
X131508543Y-87167779D01*
X131465157Y-87160518D01*
X131413819Y-87151458D01*
X131410042Y-87150777D01*
X131364505Y-87142048D01*
X131317369Y-87132151D01*
X131270931Y-87121627D01*
X131227487Y-87111012D01*
X131189334Y-87100846D01*
X131158769Y-87091667D01*
X131134270Y-87083087D01*
X131089124Y-87065149D01*
X131038105Y-87042730D01*
X130982672Y-87016566D01*
X130924281Y-86987391D01*
X130864392Y-86955942D01*
X130804460Y-86922953D01*
X130745943Y-86889161D01*
X130690300Y-86855299D01*
X130689289Y-86854667D01*
X130663545Y-86838941D01*
X130636976Y-86823331D01*
X130612656Y-86809609D01*
X130593658Y-86799550D01*
X130569394Y-86786870D01*
X130544441Y-86771463D01*
X130527045Y-86756640D01*
X130516050Y-86741083D01*
X130510301Y-86723471D01*
X130508641Y-86702486D01*
X130508653Y-86700274D01*
X130509077Y-86692175D01*
X130509705Y-86688739D01*
X130752645Y-86688739D01*
X130756972Y-86697801D01*
X130768673Y-86706344D01*
X130788397Y-86716691D01*
X130795453Y-86720117D01*
X130817154Y-86729763D01*
X130843019Y-86740332D01*
X130871369Y-86751237D01*
X130900527Y-86761890D01*
X130928815Y-86771702D01*
X130954555Y-86780085D01*
X130976069Y-86786451D01*
X130991680Y-86790211D01*
X130999709Y-86790778D01*
X130999805Y-86787151D01*
X130994554Y-86778082D01*
X130984902Y-86765779D01*
X130970768Y-86747888D01*
X130959079Y-86727445D01*
X130952246Y-86705396D01*
X130949487Y-86679049D01*
X130950018Y-86645712D01*
X130954476Y-86601843D01*
X130965015Y-86553418D01*
X130982060Y-86503360D01*
X131006267Y-86449368D01*
X131009605Y-86442670D01*
X131026470Y-86410922D01*
X131041086Y-86387092D01*
X131053170Y-86371554D01*
X131062439Y-86364683D01*
X131068612Y-86366852D01*
X131071189Y-86372796D01*
X131073205Y-86387974D01*
X131072631Y-86410763D01*
X131069437Y-86441838D01*
X131063594Y-86481874D01*
X131060476Y-86503044D01*
X131056197Y-86537577D01*
X131052668Y-86572317D01*
X131050438Y-86602246D01*
X131047311Y-86660106D01*
X131081263Y-86681549D01*
X131115659Y-86702436D01*
X131182552Y-86739306D01*
X131254831Y-86774969D01*
X131329579Y-86808020D01*
X131403880Y-86837053D01*
X131413830Y-86840687D01*
X131441601Y-86851024D01*
X131467548Y-86860940D01*
X131489137Y-86869457D01*
X131503837Y-86875598D01*
X131508483Y-86877567D01*
X131528863Y-86884119D01*
X131553939Y-86888886D01*
X131586353Y-86892408D01*
X131603588Y-86893989D01*
X131627860Y-86896673D01*
X131648499Y-86899468D01*
X131662332Y-86901973D01*
X131663093Y-86902149D01*
X131681715Y-86904837D01*
X131706397Y-86906400D01*
X131733455Y-86906782D01*
X131759202Y-86905927D01*
X131779952Y-86903779D01*
X131798517Y-86900709D01*
X131784503Y-86880079D01*
X131783174Y-86878113D01*
X131770105Y-86858013D01*
X131757392Y-86837242D01*
X131746053Y-86817612D01*
X131737104Y-86800938D01*
X131731562Y-86789031D01*
X131730444Y-86783704D01*
X131732098Y-86783498D01*
X131741242Y-86785726D01*
X131756240Y-86790947D01*
X131774871Y-86798425D01*
X131779016Y-86800155D01*
X131814869Y-86813424D01*
X131858597Y-86827210D01*
X131908373Y-86841057D01*
X131962371Y-86854505D01*
X132018765Y-86867097D01*
X132075728Y-86878375D01*
X132131434Y-86887880D01*
X132132785Y-86888089D01*
X132148039Y-86890301D01*
X132163494Y-86892188D01*
X132180129Y-86893787D01*
X132198925Y-86895135D01*
X132220862Y-86896268D01*
X132246920Y-86897222D01*
X132278080Y-86898034D01*
X132315320Y-86898741D01*
X132359622Y-86899378D01*
X132411966Y-86899982D01*
X132473332Y-86900590D01*
X132750190Y-86903192D01*
X132747132Y-86878820D01*
X132746727Y-86875409D01*
X132744920Y-86857877D01*
X132742556Y-86832394D01*
X132739764Y-86800526D01*
X132736676Y-86763839D01*
X132733420Y-86723898D01*
X132730127Y-86682268D01*
X132726928Y-86640515D01*
X132723953Y-86600204D01*
X132723310Y-86590768D01*
X132721832Y-86562792D01*
X132721073Y-86537314D01*
X132721087Y-86516821D01*
X132721924Y-86503802D01*
X132726652Y-86485577D01*
X132735109Y-86467669D01*
X132745436Y-86454121D01*
X132755955Y-86447700D01*
X132762587Y-86447760D01*
X132775705Y-86455163D01*
X132788951Y-86471703D01*
X132802005Y-86496822D01*
X132814548Y-86529961D01*
X132826260Y-86570564D01*
X132831739Y-86593568D01*
X132840879Y-86637343D01*
X132850030Y-86687049D01*
X132858807Y-86740184D01*
X132866826Y-86794246D01*
X132873703Y-86846732D01*
X132879055Y-86895139D01*
X132882496Y-86936964D01*
X132885467Y-86984473D01*
X132860035Y-87014910D01*
X132834602Y-87045347D01*
X132605555Y-87048661D01*
X132579849Y-87049025D01*
X132528412Y-87049709D01*
X132477424Y-87050333D01*
X132428478Y-87050881D01*
X132383164Y-87051336D01*
X132343075Y-87051682D01*
X132309803Y-87051902D01*
X132284939Y-87051980D01*
X132193370Y-87051986D01*
X132137410Y-87074884D01*
X132116920Y-87083463D01*
X132092694Y-87094060D01*
X132071776Y-87103680D01*
X132057164Y-87110975D01*
X132032877Y-87124169D01*
X132035458Y-87146839D01*
X132036171Y-87152526D01*
X132038568Y-87169614D01*
X132042044Y-87193025D01*
X132046249Y-87220436D01*
X132050838Y-87249525D01*
X132055473Y-87279684D01*
X132064795Y-87347407D01*
X132074074Y-87424152D01*
X132083232Y-87509266D01*
X132092194Y-87602095D01*
X132092544Y-87606005D01*
X132095187Y-87641946D01*
X132097339Y-87684238D01*
X132099003Y-87733284D01*
X132100181Y-87789490D01*
X132100877Y-87853261D01*
X132101093Y-87925000D01*
X132100834Y-88005112D01*
X132100100Y-88094002D01*
X132098896Y-88192073D01*
X132097224Y-88299732D01*
X132096278Y-88357402D01*
X132095555Y-88407966D01*
X132095132Y-88450499D01*
X132095052Y-88486001D01*
X132095361Y-88515472D01*
X132096101Y-88539911D01*
X132097317Y-88560318D01*
X132099053Y-88577692D01*
X132101352Y-88593032D01*
X132104260Y-88607339D01*
X132107820Y-88621612D01*
X132112075Y-88636851D01*
X132115543Y-88648905D01*
X132074190Y-88645716D01*
X132039409Y-88641051D01*
X132006255Y-88630763D01*
X131980596Y-88614618D01*
X131961678Y-88591929D01*
X131948747Y-88562008D01*
X131941052Y-88524166D01*
X131939703Y-88514907D01*
X131936911Y-88500847D01*
X131934292Y-88492869D01*
X131934278Y-88492848D01*
X131928288Y-88492228D01*
X131913817Y-88494333D01*
X131891903Y-88498865D01*
X131863587Y-88505524D01*
X131829910Y-88514012D01*
X131791913Y-88524031D01*
X131750635Y-88535284D01*
X131707116Y-88547471D01*
X131662399Y-88560294D01*
X131617521Y-88573455D01*
X131573525Y-88586656D01*
X131531451Y-88599598D01*
X131492338Y-88611983D01*
X131457228Y-88623513D01*
X131427160Y-88633889D01*
X131403175Y-88642813D01*
X131386314Y-88649987D01*
X131373747Y-88656122D01*
X131362018Y-88662798D01*
X131352855Y-88670247D01*
X131344361Y-88680438D01*
X131334638Y-88695339D01*
X131321787Y-88716920D01*
X131319190Y-88721302D01*
X131290395Y-88766448D01*
X131256757Y-88814062D01*
X131219837Y-88862245D01*
X131181193Y-88909099D01*
X131142388Y-88952724D01*
X131104979Y-88991222D01*
X131070528Y-89022696D01*
X131056463Y-89034787D01*
X131042113Y-89047754D01*
X131032348Y-89057352D01*
X131028743Y-89062094D01*
X131030957Y-89064611D01*
X131041645Y-89069011D01*
X131059929Y-89074005D01*
X131084405Y-89079339D01*
X131113672Y-89084759D01*
X131146325Y-89090012D01*
X131180961Y-89094842D01*
X131216179Y-89098998D01*
X131250574Y-89102224D01*
X131273738Y-89104265D01*
X131300098Y-89107506D01*
X131319152Y-89111524D01*
X131332498Y-89116826D01*
X131341736Y-89123918D01*
X131348461Y-89133309D01*
X131352890Y-89143093D01*
X131352678Y-89151893D01*
X131347552Y-89164401D01*
X131336324Y-89180383D01*
X131314272Y-89199657D01*
X131282420Y-89220037D01*
X131240837Y-89241486D01*
X131189595Y-89263962D01*
X131128763Y-89287428D01*
X131115105Y-89292457D01*
X131091205Y-89301489D01*
X131071477Y-89309242D01*
X131057669Y-89315022D01*
X131051531Y-89318132D01*
X131050487Y-89321487D01*
X131055350Y-89330474D01*
X131067585Y-89343213D01*
X131086400Y-89358925D01*
X131111008Y-89376832D01*
X131112083Y-89377571D01*
X131136605Y-89393965D01*
X131155624Y-89405343D01*
X131171439Y-89412794D01*
X131186351Y-89417409D01*
X131202658Y-89420276D01*
X131210593Y-89421635D01*
X131229070Y-89426687D01*
X131243448Y-89432981D01*
X131251914Y-89439041D01*
X131257467Y-89448017D01*
X131258789Y-89462272D01*
X131257741Y-89474312D01*
X131253355Y-89484295D01*
X131244294Y-89491478D01*
X131229224Y-89496510D01*
X131206817Y-89500038D01*
X131175740Y-89502711D01*
X131154104Y-89504362D01*
X131134678Y-89506190D01*
X131121082Y-89507867D01*
X131115393Y-89509170D01*
X131115329Y-89509250D01*
X131118021Y-89512534D01*
X131128237Y-89519388D01*
X131146270Y-89529977D01*
X131172410Y-89544467D01*
X131206950Y-89563025D01*
X131250180Y-89585816D01*
X131280830Y-89602428D01*
X131311816Y-89621086D01*
X131334969Y-89637743D01*
X131351205Y-89653074D01*
X131361440Y-89667755D01*
X131366008Y-89679134D01*
X131368488Y-89703154D01*
X131362602Y-89726605D01*
X131349152Y-89747149D01*
X131328939Y-89762450D01*
X131322806Y-89765154D01*
X131302982Y-89771574D01*
X131275703Y-89778416D01*
X131242682Y-89785309D01*
X131205633Y-89791880D01*
X131166270Y-89797758D01*
X131157336Y-89799011D01*
X131136917Y-89802203D01*
X131120618Y-89805198D01*
X131111342Y-89807482D01*
X131106519Y-89809307D01*
X131104232Y-89811561D01*
X131111342Y-89814208D01*
X131117968Y-89815887D01*
X131133310Y-89819513D01*
X131156125Y-89824795D01*
X131185247Y-89831465D01*
X131219510Y-89839256D01*
X131257748Y-89847902D01*
X131298796Y-89857136D01*
X131328625Y-89863842D01*
X131373769Y-89874037D01*
X131418086Y-89884094D01*
X131459790Y-89893606D01*
X131497092Y-89902164D01*
X131528207Y-89909362D01*
X131551346Y-89914790D01*
X131564392Y-89917823D01*
X131611163Y-89927687D01*
X131657072Y-89935911D01*
X131699946Y-89942167D01*
X131737612Y-89946126D01*
X131767895Y-89947462D01*
X131796394Y-89947368D01*
X131826294Y-89911641D01*
X131837111Y-89899187D01*
X131854073Y-89880345D01*
X131875497Y-89856984D01*
X131900111Y-89830483D01*
X131926642Y-89802219D01*
X131953819Y-89773567D01*
X131970368Y-89756212D01*
X132015515Y-89708780D01*
X132054379Y-89667804D01*
X132087464Y-89632736D01*
X132115278Y-89603032D01*
X132138328Y-89578145D01*
X132157119Y-89557529D01*
X132172159Y-89540640D01*
X132183954Y-89526930D01*
X132193011Y-89515854D01*
X132207177Y-89500114D01*
X132236139Y-89474890D01*
X132272503Y-89449191D01*
X132314799Y-89423872D01*
X132361562Y-89399787D01*
X132411324Y-89377793D01*
X132462617Y-89358744D01*
X132518706Y-89339937D01*
X132482614Y-89317837D01*
X132469216Y-89309369D01*
X132435200Y-89285829D01*
X132400526Y-89259295D01*
X132366729Y-89231131D01*
X132335342Y-89202702D01*
X132307899Y-89175375D01*
X132285935Y-89150514D01*
X132270982Y-89129484D01*
X132264134Y-89114899D01*
X132257219Y-89090622D01*
X132254225Y-89065963D01*
X132255933Y-89045297D01*
X132261186Y-89035276D01*
X132271832Y-89032376D01*
X132276491Y-89032579D01*
X132283067Y-89033800D01*
X132291105Y-89036676D01*
X132301768Y-89041828D01*
X132316215Y-89049878D01*
X132335610Y-89061445D01*
X132361112Y-89077151D01*
X132393885Y-89097616D01*
X132463798Y-89139347D01*
X132574130Y-89196829D01*
X132684896Y-89244330D01*
X132700031Y-89250105D01*
X132723488Y-89258952D01*
X132742587Y-89266029D01*
X132755673Y-89270723D01*
X132761086Y-89272423D01*
X132761258Y-89272449D01*
X132767584Y-89274576D01*
X132781579Y-89279737D01*
X132801772Y-89287377D01*
X132826694Y-89296939D01*
X132854876Y-89307868D01*
X132868438Y-89313107D01*
X132912550Y-89329221D01*
X132951758Y-89341632D01*
X132989043Y-89351014D01*
X133027384Y-89358045D01*
X133069761Y-89363397D01*
X133119155Y-89367748D01*
X133159916Y-89370153D01*
X133229766Y-89371614D01*
X133307018Y-89370220D01*
X133392029Y-89365946D01*
X133485156Y-89358769D01*
X133586754Y-89348663D01*
X133697181Y-89335604D01*
X133816792Y-89319566D01*
X133822052Y-89318824D01*
X133904999Y-89306986D01*
X133978343Y-89296255D01*
X134042041Y-89286637D01*
X134096053Y-89278140D01*
X134140338Y-89270770D01*
X134174853Y-89264533D01*
X134199558Y-89259438D01*
X134214411Y-89255491D01*
X134219371Y-89252698D01*
X134219276Y-89251864D01*
X134218621Y-89250701D01*
X134216858Y-89248879D01*
X134213436Y-89246013D01*
X134207808Y-89241719D01*
X134199423Y-89235611D01*
X134187732Y-89227306D01*
X134172187Y-89216420D01*
X134152238Y-89202567D01*
X134127336Y-89185363D01*
X134096932Y-89164424D01*
X134060477Y-89139365D01*
X134017421Y-89109803D01*
X133967215Y-89075351D01*
X133909310Y-89035626D01*
X133906907Y-89033977D01*
X133859281Y-89001268D01*
X133812723Y-88969228D01*
X133768130Y-88938478D01*
X133726402Y-88909642D01*
X133688436Y-88883342D01*
X133655132Y-88860200D01*
X133627387Y-88840838D01*
X133606100Y-88825879D01*
X133592170Y-88815945D01*
X133587554Y-88812607D01*
X133567300Y-88798156D01*
X133549959Y-88786085D01*
X133537247Y-88777575D01*
X133530881Y-88773805D01*
X133530323Y-88773618D01*
X133526649Y-88774018D01*
X133522779Y-88778012D01*
X133518321Y-88786615D01*
X133512880Y-88800837D01*
X133506063Y-88821692D01*
X133497475Y-88850191D01*
X133486724Y-88887348D01*
X133486371Y-88888581D01*
X133475122Y-88926639D01*
X133465415Y-88956208D01*
X133456608Y-88978521D01*
X133448056Y-88994808D01*
X133439117Y-89006302D01*
X133429147Y-89014235D01*
X133417501Y-89019839D01*
X133406028Y-89023696D01*
X133391423Y-89025536D01*
X133375409Y-89022699D01*
X133363491Y-89017853D01*
X133345022Y-89004650D01*
X133329824Y-88987434D01*
X133321125Y-88969375D01*
X133320433Y-88966089D01*
X133319660Y-88944165D01*
X133323395Y-88913695D01*
X133331537Y-88874948D01*
X133343983Y-88828190D01*
X133360630Y-88773689D01*
X133381377Y-88711713D01*
X133406121Y-88642529D01*
X133434760Y-88566403D01*
X133467191Y-88483605D01*
X133490637Y-88425700D01*
X133655222Y-88425700D01*
X133657351Y-88427720D01*
X133664411Y-88425654D01*
X133677238Y-88418087D01*
X133696768Y-88404540D01*
X133711487Y-88394041D01*
X133751780Y-88366011D01*
X133796230Y-88335921D01*
X133842397Y-88305373D01*
X133887844Y-88275971D01*
X133930132Y-88249318D01*
X133966822Y-88227016D01*
X133982291Y-88217806D01*
X134004828Y-88204205D01*
X134023581Y-88192665D01*
X134036935Y-88184184D01*
X134043274Y-88179762D01*
X134045021Y-88176673D01*
X134042695Y-88170997D01*
X134034152Y-88162311D01*
X134018346Y-88149337D01*
X134017554Y-88148710D01*
X134003696Y-88136897D01*
X133984682Y-88119610D01*
X133962195Y-88098433D01*
X133937919Y-88074949D01*
X133913536Y-88050741D01*
X133912464Y-88049662D01*
X133888073Y-88025233D01*
X133869702Y-88007228D01*
X133856449Y-87994907D01*
X133847415Y-87987535D01*
X133841699Y-87984372D01*
X133838400Y-87984682D01*
X133836619Y-87987728D01*
X133835856Y-87989809D01*
X133831458Y-88000613D01*
X133823795Y-88018839D01*
X133813384Y-88043273D01*
X133800743Y-88072702D01*
X133786389Y-88105915D01*
X133770842Y-88141699D01*
X133752803Y-88183200D01*
X133728091Y-88240435D01*
X133707269Y-88289204D01*
X133690180Y-88329894D01*
X133676667Y-88362893D01*
X133666572Y-88388586D01*
X133659737Y-88407360D01*
X133656006Y-88419603D01*
X133655222Y-88425700D01*
X133490637Y-88425700D01*
X133503312Y-88394400D01*
X133543020Y-88299057D01*
X133586214Y-88197843D01*
X133632791Y-88091025D01*
X133682649Y-87978870D01*
X133735684Y-87861647D01*
X133791796Y-87739622D01*
X133797795Y-87726672D01*
X133824529Y-87668809D01*
X133841699Y-87631438D01*
X133847267Y-87619320D01*
X133866257Y-87577658D01*
X133881744Y-87543274D01*
X133893975Y-87515622D01*
X133903199Y-87494153D01*
X133909661Y-87478320D01*
X133911597Y-87469754D01*
X133907513Y-87467068D01*
X133902835Y-87468265D01*
X133889329Y-87474340D01*
X133868692Y-87485155D01*
X133841664Y-87500263D01*
X133808986Y-87519219D01*
X133771399Y-87541576D01*
X133729641Y-87566888D01*
X133684455Y-87594709D01*
X133636580Y-87624593D01*
X133586757Y-87656093D01*
X133535725Y-87688763D01*
X133484227Y-87722158D01*
X133480630Y-87724505D01*
X133421011Y-87763115D01*
X133368735Y-87796354D01*
X133323067Y-87824661D01*
X133283271Y-87848477D01*
X133248611Y-87868244D01*
X133218352Y-87884403D01*
X133191756Y-87897394D01*
X133185965Y-87899992D01*
X133165860Y-87908252D01*
X133142269Y-87917125D01*
X133117025Y-87926015D01*
X133091962Y-87934327D01*
X133068913Y-87941465D01*
X133049712Y-87946834D01*
X133036192Y-87949837D01*
X133030187Y-87949880D01*
X133029928Y-87949486D01*
X133031863Y-87942893D01*
X133039812Y-87930492D01*
X133052818Y-87913366D01*
X133069922Y-87892597D01*
X133090167Y-87869268D01*
X133112596Y-87844464D01*
X133136252Y-87819266D01*
X133160177Y-87794757D01*
X133183413Y-87772021D01*
X133205004Y-87752141D01*
X133208217Y-87749306D01*
X133281236Y-87688702D01*
X133363216Y-87627242D01*
X133453252Y-87565398D01*
X133550438Y-87503639D01*
X133653867Y-87442436D01*
X133762634Y-87382260D01*
X133875833Y-87323580D01*
X133992557Y-87266868D01*
X134111900Y-87212593D01*
X134232957Y-87161227D01*
X134354821Y-87113238D01*
X134476586Y-87069099D01*
X134597346Y-87029279D01*
X134598538Y-87028907D01*
X134656938Y-87011562D01*
X134721069Y-86994039D01*
X134787912Y-86977076D01*
X134854447Y-86961411D01*
X134917656Y-86947785D01*
X134974520Y-86936936D01*
X134974831Y-86936882D01*
X135004098Y-86931624D01*
X135029927Y-86926723D01*
X135050712Y-86922505D01*
X135064846Y-86919297D01*
X135070724Y-86917423D01*
X135070510Y-86916471D01*
X135064310Y-86911360D01*
X135051311Y-86902933D01*
X135032963Y-86892096D01*
X135010712Y-86879759D01*
X134999079Y-86873446D01*
X134956900Y-86849734D01*
X134915919Y-86825242D01*
X134875201Y-86799285D01*
X134833816Y-86771178D01*
X134790828Y-86740236D01*
X134745306Y-86705775D01*
X134696316Y-86667110D01*
X134642926Y-86623556D01*
X134584202Y-86574429D01*
X134519211Y-86519043D01*
X134491397Y-86494968D01*
X134455866Y-86463222D01*
X134426173Y-86434943D01*
X134401047Y-86408583D01*
X134379216Y-86382595D01*
X134359411Y-86355433D01*
X134340362Y-86325549D01*
X134320797Y-86291396D01*
X134299447Y-86251428D01*
X134292856Y-86238781D01*
X134266272Y-86187005D01*
X134244230Y-86142522D01*
X134226284Y-86104252D01*
X134211988Y-86071118D01*
X134200895Y-86042041D01*
X134192560Y-86015941D01*
X134186537Y-85991741D01*
X134182379Y-85968362D01*
X134181426Y-85955665D01*
X134183459Y-85938311D01*
X134189185Y-85926270D01*
X134197867Y-85921764D01*
X134204779Y-85924695D01*
X134217379Y-85934479D01*
X134233946Y-85949980D01*
X134253366Y-85970003D01*
X134274526Y-85993354D01*
X134296313Y-86018839D01*
X134317614Y-86045263D01*
X134337316Y-86071432D01*
X134345759Y-86083024D01*
X134360814Y-86103236D01*
X134373471Y-86119633D01*
X134382599Y-86130768D01*
X134387069Y-86135194D01*
X134390178Y-86133398D01*
X134398022Y-86124871D01*
X134408904Y-86110867D01*
X134421469Y-86093047D01*
X134425999Y-86086389D01*
X134449291Y-86053174D01*
X134476286Y-86015992D01*
X134505133Y-85977302D01*
X134533983Y-85939560D01*
X134560985Y-85905225D01*
X134584289Y-85876755D01*
X134598962Y-85859341D01*
X134618761Y-85835778D01*
X134633303Y-85818321D01*
X134643343Y-85806016D01*
X134649639Y-85797908D01*
X134652945Y-85793043D01*
X134654018Y-85790468D01*
X134653612Y-85789227D01*
X134648202Y-85787876D01*
X134634458Y-85785468D01*
X134613972Y-85782253D01*
X134588336Y-85778482D01*
X134559138Y-85774404D01*
X134550088Y-85773158D01*
X134527371Y-85769892D01*
X134505209Y-85766436D01*
X134483072Y-85762641D01*
X134460429Y-85758353D01*
X134436750Y-85753422D01*
X134411506Y-85747696D01*
X134384165Y-85741022D01*
X134354198Y-85733250D01*
X134321075Y-85724227D01*
X134284265Y-85713802D01*
X134243237Y-85701824D01*
X134197463Y-85688139D01*
X134146412Y-85672598D01*
X134089553Y-85655048D01*
X134026356Y-85635337D01*
X133956291Y-85613314D01*
X133878828Y-85588827D01*
X133793437Y-85561724D01*
X133699587Y-85531855D01*
X133596749Y-85499066D01*
X133577961Y-85493070D01*
X133497311Y-85467295D01*
X133425633Y-85444314D01*
X133362452Y-85423971D01*
X133307298Y-85406109D01*
X133259697Y-85390570D01*
X133219177Y-85377199D01*
X133185265Y-85365838D01*
X133157490Y-85356332D01*
X133135378Y-85348522D01*
X133118457Y-85342252D01*
X133106254Y-85337366D01*
X133098298Y-85333707D01*
X133096793Y-85332943D01*
X133086517Y-85328592D01*
X133081253Y-85327874D01*
X133080983Y-85328888D01*
X133081054Y-85337462D01*
X133082173Y-85352641D01*
X133084177Y-85372002D01*
X133086409Y-85394373D01*
X133088848Y-85426370D01*
X133090998Y-85462423D01*
X133092788Y-85500530D01*
X133094149Y-85538685D01*
X133095011Y-85574885D01*
X133095304Y-85607125D01*
X133094960Y-85633402D01*
X133093908Y-85651711D01*
X133092695Y-85661361D01*
X133087904Y-85686669D01*
X133081264Y-85711378D01*
X133073559Y-85733157D01*
X133065569Y-85749676D01*
X133058075Y-85758606D01*
X133052740Y-85760651D01*
X133044992Y-85758294D01*
X133033983Y-85749090D01*
X133026177Y-85740897D01*
X133017410Y-85729362D01*
X133009245Y-85715353D01*
X133001441Y-85698049D01*
X132993759Y-85676624D01*
X132985959Y-85650258D01*
X132977800Y-85618126D01*
X132969044Y-85579407D01*
X132959451Y-85533276D01*
X132948780Y-85478911D01*
X132936792Y-85415488D01*
X132927486Y-85365825D01*
X132916396Y-85307468D01*
X132906468Y-85256408D01*
X132897395Y-85211188D01*
X132888871Y-85170347D01*
X132880590Y-85132425D01*
X132872246Y-85095964D01*
X132863531Y-85059505D01*
X132854141Y-85021587D01*
X132849441Y-85003076D01*
X132839613Y-84965368D01*
X132828763Y-84924796D01*
X132817219Y-84882499D01*
X132805308Y-84839615D01*
X132793358Y-84797284D01*
X132781698Y-84756644D01*
X132770655Y-84718834D01*
X132760558Y-84684992D01*
X132751734Y-84656258D01*
X132744512Y-84633769D01*
X132739219Y-84618665D01*
X132736184Y-84612085D01*
X132735657Y-84612009D01*
X132728984Y-84614698D01*
X132716542Y-84621255D01*
X132700484Y-84630564D01*
X132680764Y-84642102D01*
X132661469Y-84652031D01*
X132645466Y-84657933D01*
X132630041Y-84660762D01*
X132612480Y-84661469D01*
X132610767Y-84661452D01*
X132579935Y-84656016D01*
X132551316Y-84641060D01*
X132525146Y-84616853D01*
X132501663Y-84583669D01*
X132481105Y-84541779D01*
X132463711Y-84491454D01*
X132452346Y-84452125D01*
X132309407Y-84590781D01*
X132291293Y-84608344D01*
X132240631Y-84657317D01*
X132195627Y-84700492D01*
X132155193Y-84738801D01*
X132118240Y-84773177D01*
X132083681Y-84804556D01*
X132050425Y-84833869D01*
X132017387Y-84862051D01*
X131983476Y-84890034D01*
X131947605Y-84918753D01*
X131908685Y-84949141D01*
X131865628Y-84982131D01*
X131817345Y-85018656D01*
X131762750Y-85059651D01*
X131718736Y-85092449D01*
X131663840Y-85132700D01*
X131615269Y-85167392D01*
X131572236Y-85197019D01*
X131533955Y-85222075D01*
X131499640Y-85243053D01*
X131468505Y-85260448D01*
X131439763Y-85274752D01*
X131412628Y-85286461D01*
X131386314Y-85296068D01*
X131381511Y-85297631D01*
X131359215Y-85304188D01*
X131334546Y-85310562D01*
X131309505Y-85316340D01*
X131286094Y-85321107D01*
X131266317Y-85324449D01*
X131252174Y-85325949D01*
X131245668Y-85325195D01*
X131245635Y-85325159D01*
X131247130Y-85319957D01*
X131253479Y-85309253D01*
X131263339Y-85295319D01*
X131268482Y-85288238D01*
X131278405Y-85272213D01*
X131283378Y-85260178D01*
X131282988Y-85253424D01*
X131276821Y-85253237D01*
X131276029Y-85253483D01*
X131266846Y-85255258D01*
X131250240Y-85257814D01*
X131228285Y-85260845D01*
X131203057Y-85264049D01*
X131195413Y-85264980D01*
X131147877Y-85270795D01*
X131108982Y-85275612D01*
X131077598Y-85279585D01*
X131052598Y-85282874D01*
X131032853Y-85285634D01*
X131017234Y-85288023D01*
X131004612Y-85290197D01*
X130993859Y-85292314D01*
X130983846Y-85294530D01*
X130968093Y-85298864D01*
X130947393Y-85306255D01*
X130931336Y-85313844D01*
X130920977Y-85320563D01*
X130903605Y-85334041D01*
X130886801Y-85349281D01*
X130872456Y-85364387D01*
X130862462Y-85377464D01*
X130858710Y-85386615D01*
X130858844Y-85388832D01*
X130862842Y-85398800D01*
X130873004Y-85409566D01*
X130890154Y-85421737D01*
X130915120Y-85435921D01*
X130948728Y-85452722D01*
X130962302Y-85459233D01*
X131001163Y-85477956D01*
X131032584Y-85493321D01*
X131057793Y-85506024D01*
X131078018Y-85516762D01*
X131094490Y-85526231D01*
X131108435Y-85535129D01*
X131121084Y-85544152D01*
X131133665Y-85553996D01*
X131147407Y-85565358D01*
X131173552Y-85587283D01*
X131241651Y-85538654D01*
X131261338Y-85524779D01*
X131292681Y-85503375D01*
X131323399Y-85483149D01*
X131352241Y-85464871D01*
X131377951Y-85449313D01*
X131399276Y-85437246D01*
X131414963Y-85429440D01*
X131423757Y-85426666D01*
X131434212Y-85430468D01*
X131445311Y-85442409D01*
X131454201Y-85460596D01*
X131455379Y-85464762D01*
X131456069Y-85473761D01*
X131454205Y-85484555D01*
X131449322Y-85498053D01*
X131440956Y-85515161D01*
X131428641Y-85536785D01*
X131411913Y-85563832D01*
X131390307Y-85597209D01*
X131363358Y-85637822D01*
X131341270Y-85671130D01*
X131314768Y-85712285D01*
X131293628Y-85747137D01*
X131277467Y-85776680D01*
X131265906Y-85801907D01*
X131258566Y-85823811D01*
X131255065Y-85843388D01*
X131255024Y-85861630D01*
X131258063Y-85879530D01*
X131263801Y-85898083D01*
X131265779Y-85903350D01*
X131274493Y-85924481D01*
X131285387Y-85948843D01*
X131296566Y-85972157D01*
X131300013Y-85979092D01*
X131314842Y-86010596D01*
X131324732Y-86035406D01*
X131330096Y-86054956D01*
X131331348Y-86070675D01*
X131328902Y-86083995D01*
X131324469Y-86094656D01*
X131313631Y-86107682D01*
X131297226Y-86114703D01*
X131273418Y-86116802D01*
X131262572Y-86117122D01*
X131243860Y-86120432D01*
X131228272Y-86128244D01*
X131222574Y-86133041D01*
X131210179Y-86144894D01*
X131192426Y-86162652D01*
X131170076Y-86185513D01*
X131143888Y-86212677D01*
X131114625Y-86243341D01*
X131083047Y-86276706D01*
X131049914Y-86311969D01*
X131015988Y-86348329D01*
X130982029Y-86384986D01*
X130948798Y-86421137D01*
X130917057Y-86455982D01*
X130872048Y-86507473D01*
X130830777Y-86558772D01*
X130796354Y-86606302D01*
X130769491Y-86649135D01*
X130763507Y-86659764D01*
X130755040Y-86676835D01*
X130752645Y-86688739D01*
X130509705Y-86688739D01*
X130510538Y-86684194D01*
X130513610Y-86675447D01*
X130518870Y-86665052D01*
X130526895Y-86652125D01*
X130538261Y-86635783D01*
X130553544Y-86615143D01*
X130573322Y-86589323D01*
X130598170Y-86557438D01*
X130628665Y-86518607D01*
X130651112Y-86490151D01*
X130703925Y-86423978D01*
X130751845Y-86365217D01*
X130795435Y-86313281D01*
X130835258Y-86267581D01*
X130871877Y-86227530D01*
X130905856Y-86192541D01*
X130937758Y-86162027D01*
X130968146Y-86135399D01*
X130997583Y-86112070D01*
X131026633Y-86091453D01*
X131055858Y-86072960D01*
X131064339Y-86067772D01*
X131081345Y-86056588D01*
X131094211Y-86047062D01*
X131100658Y-86040828D01*
X131101456Y-86035551D01*
X131099553Y-86021556D01*
X131094678Y-86001294D01*
X131087371Y-85976464D01*
X131078175Y-85948765D01*
X131067634Y-85919897D01*
X131056288Y-85891559D01*
X131044681Y-85865451D01*
X131041278Y-85858101D01*
X131032432Y-85837473D01*
X131025552Y-85819267D01*
X131021901Y-85806741D01*
X131021241Y-85803795D01*
X131019161Y-85797767D01*
X131015616Y-85790786D01*
X131010140Y-85782343D01*
X131002265Y-85771926D01*
X130991526Y-85759025D01*
X130977457Y-85743128D01*
X130959590Y-85723724D01*
X130937460Y-85700303D01*
X130910601Y-85672353D01*
X130878545Y-85639364D01*
X130840826Y-85600825D01*
X130796978Y-85556224D01*
X130746536Y-85505051D01*
X130745089Y-85503584D01*
X130706730Y-85464597D01*
X130670374Y-85427452D01*
X130636651Y-85392807D01*
X130606191Y-85361319D01*
X130579625Y-85333644D01*
X130562450Y-85315561D01*
X130755422Y-85315561D01*
X130761474Y-85325534D01*
X130762644Y-85327150D01*
X130771642Y-85335166D01*
X130781855Y-85334861D01*
X130795523Y-85326284D01*
X130796694Y-85325354D01*
X130806146Y-85316291D01*
X130806998Y-85310541D01*
X130798823Y-85307520D01*
X130781195Y-85306643D01*
X130779481Y-85306645D01*
X130763206Y-85307285D01*
X130755593Y-85309868D01*
X130755422Y-85315561D01*
X130562450Y-85315561D01*
X130557584Y-85310439D01*
X130540698Y-85292361D01*
X130529598Y-85280067D01*
X130524915Y-85274214D01*
X130522130Y-85267709D01*
X130520917Y-85249981D01*
X130529058Y-85231482D01*
X130546773Y-85211582D01*
X130550936Y-85207807D01*
X130566520Y-85195298D01*
X130582138Y-85186356D01*
X130600283Y-85180055D01*
X130623446Y-85175468D01*
X130654119Y-85171669D01*
X130664228Y-85170809D01*
X130687115Y-85169444D01*
X130718136Y-85168029D01*
X130756168Y-85166589D01*
X130781195Y-85165770D01*
X130800084Y-85165152D01*
X130848761Y-85163744D01*
X130901074Y-85162394D01*
X130955899Y-85161127D01*
X131012112Y-85159971D01*
X131068586Y-85158952D01*
X131124199Y-85158098D01*
X131177826Y-85157436D01*
X131228342Y-85156992D01*
X131274622Y-85156794D01*
X131392976Y-85156613D01*
X131479662Y-85090099D01*
X131493793Y-85079270D01*
X131523097Y-85056869D01*
X131557644Y-85030512D01*
X131595714Y-85001509D01*
X131635589Y-84971168D01*
X131675550Y-84940800D01*
X131713878Y-84911712D01*
X131774408Y-84865506D01*
X131844240Y-84811260D01*
X131909880Y-84759052D01*
X131972537Y-84707831D01*
X132033419Y-84656542D01*
X132093736Y-84604132D01*
X132154695Y-84549549D01*
X132217505Y-84491739D01*
X132283375Y-84429648D01*
X132353513Y-84362225D01*
X132368966Y-84347140D01*
X132534615Y-84347140D01*
X132552247Y-84397794D01*
X132560159Y-84419819D01*
X132575248Y-84457344D01*
X132589307Y-84485856D01*
X132602613Y-84505949D01*
X132607456Y-84510990D01*
X132615120Y-84514190D01*
X132624299Y-84511249D01*
X132636474Y-84501535D01*
X132653126Y-84484418D01*
X132662591Y-84473425D01*
X132670771Y-84462150D01*
X132673824Y-84455337D01*
X132673218Y-84451367D01*
X132669395Y-84438201D01*
X132662688Y-84419354D01*
X132653815Y-84396496D01*
X132643496Y-84371294D01*
X132632450Y-84345417D01*
X132621396Y-84320534D01*
X132611054Y-84298313D01*
X132602142Y-84280423D01*
X132595380Y-84268532D01*
X132591486Y-84264309D01*
X132589235Y-84265897D01*
X132582171Y-84274292D01*
X132572157Y-84288252D01*
X132560583Y-84305910D01*
X132534615Y-84347140D01*
X132368966Y-84347140D01*
X132429128Y-84288415D01*
X132432822Y-84284788D01*
X132452346Y-84265720D01*
X132464316Y-84254031D01*
X132494293Y-84225026D01*
X132521822Y-84198654D01*
X132545974Y-84175797D01*
X132565815Y-84157337D01*
X132580417Y-84144156D01*
X132588847Y-84137135D01*
X132591486Y-84135401D01*
X132601684Y-84128702D01*
X132616504Y-84122271D01*
X132625823Y-84123131D01*
X132629058Y-84131365D01*
X132629143Y-84132504D01*
X132634310Y-84142270D01*
X132645528Y-84152118D01*
X132661790Y-84165830D01*
X132682516Y-84189834D01*
X132705886Y-84222801D01*
X132731702Y-84264431D01*
X132759767Y-84314422D01*
X132789884Y-84372472D01*
X132817638Y-84431565D01*
X132848072Y-84504617D01*
X132878806Y-84586735D01*
X132909683Y-84677441D01*
X132940550Y-84776258D01*
X132971250Y-84882709D01*
X133001630Y-84996317D01*
X133031534Y-85116605D01*
X133036128Y-85135437D01*
X133045076Y-85169912D01*
X133052661Y-85195883D01*
X133058747Y-85212904D01*
X133063198Y-85220528D01*
X133064858Y-85221732D01*
X133069608Y-85224479D01*
X133076525Y-85227497D01*
X133086550Y-85231061D01*
X133100623Y-85235445D01*
X133119686Y-85240923D01*
X133144679Y-85247771D01*
X133176542Y-85256261D01*
X133216217Y-85266669D01*
X133264645Y-85279269D01*
X133315513Y-85292626D01*
X133428285Y-85323198D01*
X133548523Y-85357005D01*
X133675006Y-85393695D01*
X133806510Y-85432916D01*
X133941817Y-85474317D01*
X134000131Y-85492365D01*
X134075362Y-85515567D01*
X134142385Y-85536090D01*
X134201984Y-85554125D01*
X134254939Y-85569862D01*
X134302034Y-85583494D01*
X134344051Y-85595211D01*
X134381771Y-85605203D01*
X134415976Y-85613664D01*
X134447450Y-85620783D01*
X134476973Y-85626751D01*
X134505328Y-85631761D01*
X134533297Y-85636003D01*
X134561663Y-85639668D01*
X134591207Y-85642948D01*
X134622711Y-85646033D01*
X134656957Y-85649115D01*
X134672484Y-85650504D01*
X134721617Y-85655411D01*
X134761768Y-85660428D01*
X134793731Y-85665777D01*
X134818300Y-85671678D01*
X134836269Y-85678353D01*
X134848434Y-85686022D01*
X134855589Y-85694908D01*
X134858528Y-85705231D01*
X134858714Y-85708104D01*
X134857103Y-85718580D01*
X134850729Y-85730085D01*
X134838193Y-85745378D01*
X134829198Y-85756478D01*
X134815133Y-85775905D01*
X134799817Y-85798766D01*
X134785274Y-85822126D01*
X134776036Y-85837118D01*
X134759229Y-85863058D01*
X134739421Y-85892542D01*
X134718360Y-85922976D01*
X134697795Y-85951770D01*
X134668806Y-85991826D01*
X134632354Y-86042905D01*
X134598664Y-86090928D01*
X134568146Y-86135279D01*
X134541205Y-86175340D01*
X134518249Y-86210497D01*
X134499685Y-86240132D01*
X134485921Y-86263630D01*
X134477364Y-86280374D01*
X134474422Y-86289748D01*
X134475695Y-86295000D01*
X134480161Y-86302384D01*
X134488403Y-86312198D01*
X134501004Y-86324979D01*
X134518545Y-86341267D01*
X134541607Y-86361601D01*
X134570771Y-86386520D01*
X134606620Y-86416564D01*
X134649734Y-86452270D01*
X134699367Y-86493025D01*
X134749998Y-86534041D01*
X134795552Y-86570145D01*
X134837317Y-86602241D01*
X134876585Y-86631235D01*
X134914648Y-86658034D01*
X134952795Y-86683545D01*
X134992318Y-86708672D01*
X135034508Y-86734322D01*
X135080655Y-86761402D01*
X135132051Y-86790816D01*
X135151879Y-86802165D01*
X135199300Y-86830391D01*
X135238350Y-86855499D01*
X135269676Y-86877975D01*
X135293928Y-86898304D01*
X135311751Y-86916972D01*
X135323794Y-86934463D01*
X135324415Y-86935621D01*
X135329527Y-86952822D01*
X135325759Y-86968427D01*
X135312831Y-86982751D01*
X135290464Y-86996112D01*
X135258379Y-87008827D01*
X135251112Y-87010945D01*
X135233663Y-87015330D01*
X135209250Y-87021022D01*
X135179536Y-87027647D01*
X135146182Y-87034828D01*
X135110850Y-87042190D01*
X135025024Y-87060456D01*
X134922562Y-87084321D01*
X134823337Y-87109946D01*
X134725397Y-87137922D01*
X134626788Y-87168838D01*
X134525558Y-87203285D01*
X134419753Y-87241855D01*
X134307421Y-87285137D01*
X134291065Y-87291610D01*
X134243314Y-87310885D01*
X134204075Y-87327418D01*
X134172613Y-87341567D01*
X134148192Y-87353691D01*
X134130077Y-87364150D01*
X134117532Y-87373302D01*
X134109820Y-87381505D01*
X134106437Y-87387244D01*
X134098925Y-87402029D01*
X134088502Y-87423852D01*
X134075637Y-87451638D01*
X134060798Y-87484308D01*
X134044453Y-87520787D01*
X134027071Y-87559996D01*
X134009122Y-87600860D01*
X133991072Y-87642301D01*
X133973391Y-87683242D01*
X133956548Y-87722606D01*
X133941010Y-87759317D01*
X133927247Y-87792297D01*
X133915727Y-87820470D01*
X133906918Y-87842758D01*
X133901289Y-87858085D01*
X133899308Y-87865373D01*
X133899982Y-87869910D01*
X133905103Y-87880378D01*
X133915786Y-87894015D01*
X133932662Y-87911501D01*
X133956359Y-87933518D01*
X133987509Y-87960746D01*
X134035863Y-88001011D01*
X134115571Y-88063099D01*
X134196290Y-88121115D01*
X134207225Y-88128863D01*
X134229554Y-88147205D01*
X134244087Y-88164271D01*
X134251974Y-88181639D01*
X134254360Y-88200884D01*
X134254281Y-88204626D01*
X134252566Y-88216071D01*
X134247843Y-88226629D01*
X134239112Y-88237168D01*
X134225369Y-88248557D01*
X134205613Y-88261665D01*
X134178842Y-88277359D01*
X134144055Y-88296508D01*
X134098585Y-88321797D01*
X134034642Y-88359442D01*
X133969875Y-88399765D01*
X133905945Y-88441643D01*
X133844514Y-88483953D01*
X133787241Y-88525573D01*
X133735788Y-88565379D01*
X133691815Y-88602249D01*
X133688139Y-88605556D01*
X133672017Y-88621194D01*
X133655379Y-88638814D01*
X133639758Y-88656621D01*
X133626684Y-88672816D01*
X133617689Y-88685604D01*
X133614305Y-88693187D01*
X133614306Y-88693204D01*
X133618549Y-88696693D01*
X133630144Y-88704233D01*
X133647738Y-88714998D01*
X133669980Y-88728160D01*
X133695518Y-88742892D01*
X133718385Y-88755974D01*
X133757777Y-88778774D01*
X133796252Y-88801431D01*
X133835131Y-88824755D01*
X133875735Y-88849558D01*
X133919387Y-88876649D01*
X133967408Y-88906840D01*
X134021120Y-88940939D01*
X134081844Y-88979758D01*
X134115452Y-89001288D01*
X134162657Y-89031478D01*
X134203018Y-89057191D01*
X134237492Y-89079011D01*
X134267036Y-89097521D01*
X134292608Y-89113304D01*
X134315163Y-89126942D01*
X134335660Y-89139017D01*
X134355055Y-89150114D01*
X134374305Y-89160814D01*
X134394368Y-89171701D01*
X134416201Y-89183357D01*
X134440292Y-89196265D01*
X134471867Y-89213756D01*
X134496143Y-89228185D01*
X134514191Y-89240293D01*
X134527082Y-89250819D01*
X134535888Y-89260506D01*
X134541681Y-89270094D01*
X134543750Y-89274698D01*
X134548736Y-89293028D01*
X134546948Y-89311086D01*
X134538184Y-89332491D01*
X134536865Y-89335083D01*
X134532913Y-89342378D01*
X134528561Y-89348776D01*
X134523080Y-89354463D01*
X134515738Y-89359618D01*
X134505806Y-89364426D01*
X134492553Y-89369068D01*
X134475249Y-89373727D01*
X134453164Y-89378585D01*
X134425568Y-89383825D01*
X134391731Y-89389629D01*
X134350922Y-89396180D01*
X134302411Y-89403660D01*
X134245468Y-89412251D01*
X134179363Y-89422136D01*
X134133126Y-89429039D01*
X134052188Y-89441112D01*
X133980088Y-89451837D01*
X133916134Y-89461307D01*
X133859636Y-89469613D01*
X133809902Y-89476845D01*
X133766242Y-89483094D01*
X133727965Y-89488452D01*
X133694379Y-89493009D01*
X133664795Y-89496856D01*
X133638520Y-89500084D01*
X133614863Y-89502785D01*
X133593135Y-89505049D01*
X133572644Y-89506967D01*
X133552698Y-89508630D01*
X133532608Y-89510129D01*
X133511681Y-89511555D01*
X133489228Y-89513000D01*
X133467558Y-89514064D01*
X133436039Y-89515009D01*
X133398620Y-89515674D01*
X133356627Y-89516073D01*
X133311385Y-89516218D01*
X133264219Y-89516121D01*
X133216454Y-89515795D01*
X133169415Y-89515252D01*
X133124427Y-89514505D01*
X133082814Y-89513567D01*
X133045903Y-89512449D01*
X133015018Y-89511165D01*
X132991484Y-89509727D01*
X132976627Y-89508148D01*
X132976582Y-89508141D01*
X132958716Y-89505162D01*
X132935936Y-89501283D01*
X132913163Y-89497341D01*
X132874705Y-89490617D01*
X132795640Y-89513935D01*
X132793306Y-89514622D01*
X132762622Y-89523487D01*
X132730778Y-89532340D01*
X132696544Y-89541492D01*
X132658692Y-89551256D01*
X132615993Y-89561945D01*
X132567217Y-89573870D01*
X132511137Y-89587345D01*
X132446522Y-89602682D01*
X132431752Y-89606203D01*
X132400198Y-89613943D01*
X132372001Y-89621147D01*
X132348761Y-89627392D01*
X132332074Y-89632252D01*
X132323540Y-89635305D01*
X132317110Y-89639514D01*
X132303744Y-89650337D01*
X132284576Y-89667349D01*
X132259449Y-89690698D01*
X132228207Y-89720535D01*
X132190692Y-89757011D01*
X132146748Y-89800275D01*
X132096217Y-89850479D01*
X132038942Y-89907772D01*
X132022408Y-89924336D01*
X131979650Y-89966839D01*
X131942684Y-90002827D01*
X131910689Y-90032837D01*
X131882845Y-90057407D01*
X131858333Y-90077073D01*
X131836331Y-90092374D01*
X131816021Y-90103846D01*
X131796582Y-90112027D01*
X131777194Y-90117455D01*
X131757037Y-90120666D01*
X131735291Y-90122199D01*
X131711135Y-90122591D01*
X131698988Y-90122482D01*
X131662960Y-90120656D01*
X131627878Y-90116239D01*
X131592162Y-90108796D01*
X131554229Y-90097892D01*
X131512499Y-90083090D01*
X131465389Y-90063956D01*
X131411319Y-90040055D01*
X131407826Y-90038468D01*
X131366614Y-90020247D01*
X131330657Y-90005608D01*
X131296924Y-89993543D01*
X131262385Y-89983044D01*
X131224012Y-89973104D01*
X131178773Y-89962715D01*
X131059403Y-89934918D01*
X130881304Y-89887529D01*
X130711018Y-89834798D01*
X130548749Y-89776793D01*
X130394699Y-89713583D01*
X130249070Y-89645238D01*
X130230156Y-89635621D01*
X130188685Y-89613899D01*
X130140430Y-89587958D01*
X130086533Y-89558451D01*
X130028136Y-89526029D01*
X129966381Y-89491345D01*
X129902409Y-89455051D01*
X129837362Y-89417799D01*
X129772381Y-89380242D01*
X129708610Y-89343032D01*
X129647188Y-89306821D01*
X129589258Y-89272261D01*
X129535961Y-89240004D01*
X129488440Y-89210703D01*
X129475988Y-89202915D01*
X129438304Y-89178958D01*
X129408271Y-89159040D01*
X129385079Y-89142460D01*
X129367920Y-89128517D01*
X129355983Y-89116509D01*
X129353778Y-89113351D01*
X129548132Y-89113351D01*
X129549381Y-89117182D01*
X129559231Y-89125415D01*
X129577407Y-89137886D01*
X129603637Y-89154428D01*
X129637646Y-89174879D01*
X129679161Y-89199073D01*
X129727909Y-89226845D01*
X129783617Y-89258031D01*
X129846010Y-89292466D01*
X129862779Y-89301640D01*
X129941910Y-89344184D01*
X130014560Y-89381789D01*
X130082198Y-89415059D01*
X130146291Y-89444598D01*
X130208307Y-89471009D01*
X130269717Y-89494897D01*
X130331987Y-89516865D01*
X130396586Y-89537518D01*
X130464984Y-89557458D01*
X130538647Y-89577290D01*
X130584792Y-89589379D01*
X130628882Y-89601166D01*
X130665182Y-89611205D01*
X130694722Y-89619809D01*
X130718531Y-89627288D01*
X130737637Y-89633955D01*
X130753072Y-89640121D01*
X130765862Y-89646097D01*
X130776733Y-89651056D01*
X130789752Y-89655250D01*
X130805722Y-89658322D01*
X130826994Y-89660711D01*
X130855916Y-89662853D01*
X130856434Y-89662886D01*
X130886911Y-89664496D01*
X130920021Y-89665664D01*
X130953960Y-89666385D01*
X130986926Y-89666659D01*
X131017114Y-89666481D01*
X131042721Y-89665849D01*
X131061944Y-89664759D01*
X131072979Y-89663209D01*
X131079190Y-89661269D01*
X131081595Y-89658123D01*
X131075480Y-89652035D01*
X131070954Y-89648666D01*
X131058409Y-89640354D01*
X131041064Y-89629482D01*
X131021242Y-89617528D01*
X130986381Y-89595904D01*
X130942341Y-89564636D01*
X130908009Y-89534673D01*
X130883429Y-89506063D01*
X130868648Y-89478853D01*
X130863711Y-89453091D01*
X130866931Y-89435076D01*
X130878140Y-89416404D01*
X130895421Y-89402418D01*
X130916723Y-89394686D01*
X130939993Y-89394778D01*
X130956229Y-89397897D01*
X130941226Y-89385133D01*
X130930376Y-89377388D01*
X130906203Y-89365250D01*
X130877192Y-89355143D01*
X130846569Y-89348321D01*
X130840410Y-89347266D01*
X130816452Y-89340298D01*
X130797662Y-89328341D01*
X130780277Y-89309173D01*
X130779896Y-89308667D01*
X130770416Y-89290317D01*
X130766018Y-89269596D01*
X130767008Y-89249962D01*
X130773693Y-89234872D01*
X130781819Y-89227413D01*
X130798577Y-89218445D01*
X130822684Y-89210629D01*
X130855022Y-89203695D01*
X130896474Y-89197375D01*
X130936038Y-89191443D01*
X130979589Y-89183320D01*
X131019977Y-89174157D01*
X131054927Y-89164478D01*
X131082164Y-89154802D01*
X131083892Y-89154072D01*
X131094391Y-89148988D01*
X131096807Y-89145413D01*
X131092377Y-89141770D01*
X131075609Y-89134730D01*
X131051017Y-89127659D01*
X131021040Y-89121076D01*
X130987997Y-89115432D01*
X130954204Y-89111174D01*
X130921978Y-89108752D01*
X130906858Y-89108049D01*
X130884300Y-89106676D01*
X130868695Y-89104961D01*
X130858038Y-89102526D01*
X130850323Y-89098993D01*
X130843546Y-89093986D01*
X130843236Y-89093722D01*
X130831710Y-89080253D01*
X130823643Y-89064702D01*
X130820073Y-89044866D01*
X130823881Y-89025209D01*
X130836100Y-89006532D01*
X130857233Y-88988084D01*
X130887783Y-88969116D01*
X130907595Y-88957624D01*
X130932031Y-88942396D01*
X130953728Y-88927898D01*
X130966521Y-88918174D01*
X130987672Y-88900419D01*
X131012353Y-88878412D01*
X131038731Y-88853897D01*
X131064970Y-88828617D01*
X131089235Y-88804316D01*
X131109691Y-88782737D01*
X131124504Y-88765625D01*
X131133303Y-88754051D01*
X131140860Y-88742873D01*
X131143766Y-88736774D01*
X131143718Y-88735966D01*
X131142983Y-88734700D01*
X131140659Y-88734216D01*
X131135863Y-88734757D01*
X131127708Y-88736568D01*
X131115310Y-88739892D01*
X131097786Y-88744972D01*
X131074250Y-88752051D01*
X131043819Y-88761375D01*
X131005607Y-88773185D01*
X130958729Y-88787726D01*
X130956001Y-88788573D01*
X130922968Y-88798847D01*
X130891075Y-88808811D01*
X130859435Y-88818749D01*
X130827159Y-88828945D01*
X130793362Y-88839685D01*
X130757156Y-88851253D01*
X130717653Y-88863933D01*
X130673966Y-88878012D01*
X130625208Y-88893773D01*
X130570492Y-88911501D01*
X130508930Y-88931481D01*
X130439635Y-88953998D01*
X130361721Y-88979336D01*
X130327225Y-88990518D01*
X130258707Y-89012415D01*
X130197923Y-89031315D01*
X130143736Y-89047509D01*
X130095008Y-89061290D01*
X130050599Y-89072948D01*
X130009371Y-89082777D01*
X129970187Y-89091067D01*
X129931908Y-89098110D01*
X129893396Y-89104199D01*
X129853512Y-89109625D01*
X129845244Y-89110657D01*
X129779290Y-89117510D01*
X129720579Y-89120867D01*
X129667225Y-89120790D01*
X129617347Y-89117341D01*
X129616217Y-89117223D01*
X129592015Y-89114948D01*
X129571181Y-89113441D01*
X129555905Y-89112833D01*
X129548374Y-89113251D01*
X129548132Y-89113351D01*
X129353778Y-89113351D01*
X129348459Y-89105735D01*
X129344539Y-89095494D01*
X129343412Y-89085084D01*
X129343449Y-89083473D01*
X129348968Y-89066163D01*
X129362895Y-89051913D01*
X129383869Y-89042166D01*
X129387193Y-89041388D01*
X129401556Y-89039225D01*
X129422720Y-89036936D01*
X129448404Y-89034751D01*
X129476328Y-89032898D01*
X129493571Y-89031841D01*
X129522956Y-89029476D01*
X129544974Y-89026677D01*
X129561403Y-89023186D01*
X129574023Y-89018744D01*
X129580668Y-89015905D01*
X129594556Y-89010736D01*
X129609928Y-89006246D01*
X129628195Y-89002176D01*
X129650771Y-88998268D01*
X129679071Y-88994261D01*
X129714507Y-88989898D01*
X129758493Y-88984918D01*
X129762387Y-88984487D01*
X129815934Y-88978260D01*
X129864803Y-88971860D01*
X129910398Y-88964958D01*
X129954127Y-88957227D01*
X129997396Y-88948337D01*
X130041612Y-88937959D01*
X130088179Y-88925765D01*
X130138506Y-88911426D01*
X130193999Y-88894614D01*
X130256063Y-88874999D01*
X130326105Y-88852253D01*
X130377298Y-88835601D01*
X130436720Y-88816514D01*
X130501556Y-88795897D01*
X130570871Y-88774033D01*
X130643733Y-88751208D01*
X130719206Y-88727708D01*
X130796358Y-88703819D01*
X130874253Y-88679825D01*
X130951958Y-88656013D01*
X131028539Y-88632667D01*
X131103062Y-88610073D01*
X131140659Y-88598743D01*
X131174593Y-88588517D01*
X131242198Y-88568284D01*
G37*
G36*
X133652234Y-85647276D02*
G01*
X133671263Y-85653904D01*
X133688150Y-85665983D01*
X133698969Y-85680992D01*
X133701043Y-85687035D01*
X133702364Y-85699954D01*
X133699347Y-85715218D01*
X133691489Y-85734753D01*
X133678290Y-85760482D01*
X133676259Y-85764221D01*
X133667812Y-85780519D01*
X133664199Y-85790854D01*
X133666354Y-85795797D01*
X133675211Y-85795919D01*
X133691706Y-85791790D01*
X133716772Y-85783982D01*
X133726071Y-85781194D01*
X133755572Y-85774262D01*
X133785639Y-85769617D01*
X133813758Y-85767484D01*
X133837420Y-85768089D01*
X133854113Y-85771657D01*
X133859192Y-85774376D01*
X133872277Y-85784853D01*
X133884325Y-85798339D01*
X133886592Y-85801435D01*
X133891925Y-85809350D01*
X133895509Y-85817043D01*
X133897691Y-85826559D01*
X133898817Y-85839943D01*
X133899234Y-85859239D01*
X133899291Y-85886492D01*
X133898775Y-85932918D01*
X133896572Y-85984220D01*
X133892532Y-86026763D01*
X133886539Y-86061167D01*
X133878478Y-86088057D01*
X133868233Y-86108055D01*
X133855689Y-86121784D01*
X133849325Y-86126248D01*
X133834047Y-86131419D01*
X133819588Y-86127146D01*
X133804702Y-86113220D01*
X133797050Y-86102498D01*
X133782993Y-86073430D01*
X133771148Y-86034807D01*
X133761476Y-85986522D01*
X133759452Y-85974742D01*
X133755597Y-85955570D01*
X133752015Y-85941433D01*
X133749278Y-85934765D01*
X133749035Y-85934584D01*
X133741640Y-85934475D01*
X133726143Y-85937360D01*
X133703766Y-85942967D01*
X133675731Y-85951025D01*
X133660093Y-85955687D01*
X133622380Y-85966156D01*
X133592102Y-85972957D01*
X133567886Y-85976101D01*
X133548359Y-85975598D01*
X133532151Y-85971458D01*
X133517887Y-85963693D01*
X133504196Y-85952311D01*
X133484227Y-85933315D01*
X133484227Y-85882530D01*
X133484132Y-85867299D01*
X133483710Y-85848948D01*
X133483028Y-85836397D01*
X133482172Y-85831746D01*
X133479984Y-85832179D01*
X133469876Y-85834629D01*
X133453617Y-85838758D01*
X133433412Y-85844012D01*
X133404850Y-85851196D01*
X133348438Y-85863075D01*
X133297259Y-85870310D01*
X133249039Y-85873262D01*
X133238544Y-85873458D01*
X133218992Y-85873563D01*
X133206251Y-85872762D01*
X133198061Y-85870585D01*
X133192161Y-85866562D01*
X133186288Y-85860223D01*
X133177701Y-85848396D01*
X133173321Y-85835066D01*
X133176531Y-85823049D01*
X133187806Y-85811910D01*
X133207622Y-85801215D01*
X133236453Y-85790531D01*
X133274774Y-85779425D01*
X133284281Y-85776885D01*
X133344086Y-85760044D01*
X133401432Y-85742453D01*
X133454842Y-85724623D01*
X133502842Y-85707065D01*
X133543956Y-85690291D01*
X133576708Y-85674811D01*
X133596238Y-85665067D01*
X133617724Y-85655461D01*
X133634889Y-85649046D01*
X133645553Y-85646710D01*
X133652234Y-85647276D01*
G37*
G36*
X132036028Y-85669764D02*
G01*
X132074379Y-85678858D01*
X132108380Y-85693958D01*
X132136355Y-85714221D01*
X132156626Y-85738802D01*
X132166384Y-85762728D01*
X132169093Y-85791541D01*
X132163805Y-85820773D01*
X132150957Y-85848176D01*
X132130982Y-85871504D01*
X132120660Y-85880212D01*
X132099837Y-85894628D01*
X132078927Y-85903485D01*
X132054703Y-85907913D01*
X132023939Y-85909045D01*
X132013286Y-85908879D01*
X131981352Y-85906100D01*
X131955210Y-85899111D01*
X131931920Y-85886874D01*
X131908537Y-85868353D01*
X131894035Y-85853549D01*
X131877034Y-85827228D01*
X131869959Y-85799756D01*
X131872812Y-85771179D01*
X131885592Y-85741542D01*
X131908299Y-85710891D01*
X131910163Y-85708815D01*
X131932718Y-85687701D01*
X131955993Y-85674540D01*
X131982694Y-85668244D01*
X132015525Y-85667722D01*
X132036028Y-85669764D01*
G37*
%TD*%
D11*
%TO.C,U1*%
X157480000Y-76238250D03*
X149860000Y-68618250D03*
X154940000Y-76238250D03*
X152400000Y-68618250D03*
X152400000Y-76238250D03*
X154940000Y-68618250D03*
X149860000Y-76238250D03*
D12*
X157480000Y-68618250D03*
%TD*%
D13*
%TO.C,U2*%
X152400000Y-80772000D03*
D14*
X147320000Y-80772000D03*
X149860000Y-80772000D03*
%TD*%
D15*
%TO.C,REF\u002A\u002A*%
X131826000Y-69342000D03*
%TD*%
D16*
%TO.C,U3*%
X163855938Y-70840948D03*
X161315938Y-88620948D03*
X163855938Y-86080948D03*
X161315938Y-75920948D03*
X163855938Y-68300948D03*
X161315938Y-73380948D03*
X163855938Y-88620948D03*
X161315938Y-78460948D03*
X161315938Y-86080948D03*
X163855938Y-78460948D03*
X163855938Y-73380948D03*
X161315938Y-70840948D03*
X161315938Y-83540948D03*
X161315938Y-68300948D03*
X161315938Y-81000948D03*
X163855938Y-75920948D03*
X163855938Y-83540948D03*
X163855938Y-81000948D03*
X138455938Y-70840948D03*
X135915938Y-88620948D03*
X138455938Y-86080948D03*
X135915938Y-75920948D03*
X138455938Y-68300948D03*
X135915938Y-73380948D03*
X138455938Y-88620948D03*
X135915938Y-78460948D03*
X135915938Y-86080948D03*
X138455938Y-78460948D03*
X138455938Y-73380948D03*
X135915938Y-70840948D03*
X135915938Y-83540948D03*
X135915938Y-68300948D03*
X135915938Y-81000948D03*
X138455938Y-75920948D03*
X138455938Y-83540948D03*
X138455938Y-81000948D03*
%TD*%
%TO.C,R2*%
G36*
G01*
X146970000Y-83309750D02*
X146970000Y-83822250D01*
G75*
G02*
X146751250Y-84041000I-218750J0D01*
G01*
X146313750Y-84041000D01*
G75*
G02*
X146095000Y-83822250I0J218750D01*
G01*
X146095000Y-83309750D01*
G75*
G02*
X146313750Y-83091000I218750J0D01*
G01*
X146751250Y-83091000D01*
G75*
G02*
X146970000Y-83309750I0J-218750D01*
G01*
G37*
G36*
G01*
X148545000Y-83309750D02*
X148545000Y-83822250D01*
G75*
G02*
X148326250Y-84041000I-218750J0D01*
G01*
X147888750Y-84041000D01*
G75*
G02*
X147670000Y-83822250I0J218750D01*
G01*
X147670000Y-83309750D01*
G75*
G02*
X147888750Y-83091000I218750J0D01*
G01*
X148326250Y-83091000D01*
G75*
G02*
X148545000Y-83309750I0J-218750D01*
G01*
G37*
%TD*%
%TO.C,R1*%
G36*
G01*
X158498250Y-78898000D02*
X157985750Y-78898000D01*
G75*
G02*
X157767000Y-78679250I0J218750D01*
G01*
X157767000Y-78241750D01*
G75*
G02*
X157985750Y-78023000I218750J0D01*
G01*
X158498250Y-78023000D01*
G75*
G02*
X158717000Y-78241750I0J-218750D01*
G01*
X158717000Y-78679250D01*
G75*
G02*
X158498250Y-78898000I-218750J0D01*
G01*
G37*
G36*
G01*
X158498250Y-80473000D02*
X157985750Y-80473000D01*
G75*
G02*
X157767000Y-80254250I0J218750D01*
G01*
X157767000Y-79816750D01*
G75*
G02*
X157985750Y-79598000I218750J0D01*
G01*
X158498250Y-79598000D01*
G75*
G02*
X158717000Y-79816750I0J-218750D01*
G01*
X158717000Y-80254250D01*
G75*
G02*
X158498250Y-80473000I-218750J0D01*
G01*
G37*
%TD*%
%TO.C,C4*%
G36*
G01*
X155860000Y-70626988D02*
X155860000Y-71139488D01*
G75*
G02*
X155641250Y-71358238I-218750J0D01*
G01*
X155203750Y-71358238D01*
G75*
G02*
X154985000Y-71139488I0J218750D01*
G01*
X154985000Y-70626988D01*
G75*
G02*
X155203750Y-70408238I218750J0D01*
G01*
X155641250Y-70408238D01*
G75*
G02*
X155860000Y-70626988I0J-218750D01*
G01*
G37*
G36*
G01*
X157435000Y-70626988D02*
X157435000Y-71139488D01*
G75*
G02*
X157216250Y-71358238I-218750J0D01*
G01*
X156778750Y-71358238D01*
G75*
G02*
X156560000Y-71139488I0J218750D01*
G01*
X156560000Y-70626988D01*
G75*
G02*
X156778750Y-70408238I218750J0D01*
G01*
X157216250Y-70408238D01*
G75*
G02*
X157435000Y-70626988I0J-218750D01*
G01*
G37*
%TD*%
%TO.C,C3*%
G36*
G01*
X153512000Y-74449302D02*
X153512000Y-73936802D01*
G75*
G02*
X153730750Y-73718052I218750J0D01*
G01*
X154168250Y-73718052D01*
G75*
G02*
X154387000Y-73936802I0J-218750D01*
G01*
X154387000Y-74449302D01*
G75*
G02*
X154168250Y-74668052I-218750J0D01*
G01*
X153730750Y-74668052D01*
G75*
G02*
X153512000Y-74449302I0J218750D01*
G01*
G37*
G36*
G01*
X151937000Y-74449302D02*
X151937000Y-73936802D01*
G75*
G02*
X152155750Y-73718052I218750J0D01*
G01*
X152593250Y-73718052D01*
G75*
G02*
X152812000Y-73936802I0J-218750D01*
G01*
X152812000Y-74449302D01*
G75*
G02*
X152593250Y-74668052I-218750J0D01*
G01*
X152155750Y-74668052D01*
G75*
G02*
X151937000Y-74449302I0J218750D01*
G01*
G37*
%TD*%
%TO.C,C2*%
G36*
G01*
X142369250Y-77247000D02*
X141856750Y-77247000D01*
G75*
G02*
X141638000Y-77028250I0J218750D01*
G01*
X141638000Y-76590750D01*
G75*
G02*
X141856750Y-76372000I218750J0D01*
G01*
X142369250Y-76372000D01*
G75*
G02*
X142588000Y-76590750I0J-218750D01*
G01*
X142588000Y-77028250D01*
G75*
G02*
X142369250Y-77247000I-218750J0D01*
G01*
G37*
G36*
G01*
X142369250Y-78822000D02*
X141856750Y-78822000D01*
G75*
G02*
X141638000Y-78603250I0J218750D01*
G01*
X141638000Y-78165750D01*
G75*
G02*
X141856750Y-77947000I218750J0D01*
G01*
X142369250Y-77947000D01*
G75*
G02*
X142588000Y-78165750I0J-218750D01*
G01*
X142588000Y-78603250D01*
G75*
G02*
X142369250Y-78822000I-218750J0D01*
G01*
G37*
%TD*%
%TO.C,C1*%
G36*
G01*
X155860000Y-73912858D02*
X155860000Y-74425358D01*
G75*
G02*
X155641250Y-74644108I-218750J0D01*
G01*
X155203750Y-74644108D01*
G75*
G02*
X154985000Y-74425358I0J218750D01*
G01*
X154985000Y-73912858D01*
G75*
G02*
X155203750Y-73694108I218750J0D01*
G01*
X155641250Y-73694108D01*
G75*
G02*
X155860000Y-73912858I0J-218750D01*
G01*
G37*
G36*
G01*
X157435000Y-73912858D02*
X157435000Y-74425358D01*
G75*
G02*
X157216250Y-74644108I-218750J0D01*
G01*
X156778750Y-74644108D01*
G75*
G02*
X156560000Y-74425358I0J218750D01*
G01*
X156560000Y-73912858D01*
G75*
G02*
X156778750Y-73694108I218750J0D01*
G01*
X157216250Y-73694108D01*
G75*
G02*
X157435000Y-73912858I0J-218750D01*
G01*
G37*
%TD*%
M02*
