%TF.GenerationSoftware,KiCad,Pcbnew,(5.99.0-2290-gd34f8fd4b)*%
%TF.CreationDate,2020-09-08T20:53:16+02:00*%
%TF.ProjectId,audio-esp32,61756469-6f2d-4657-9370-33322e6b6963,rev?*%
%TF.SameCoordinates,Original*%
%TF.FileFunction,Paste,Bot*%
%TF.FilePolarity,Positive*%
%FSLAX46Y46*%
G04 Gerber Fmt 4.6, Leading zero omitted, Abs format (unit mm)*
G04 Created by KiCad (PCBNEW (5.99.0-2290-gd34f8fd4b)) date 2020-09-08 20:53:16*
%MOMM*%
%LPD*%
G01*
G04 APERTURE LIST*
G04 APERTURE END LIST*
%TO.C,R2*%
G36*
G01*
X146970000Y-83309750D02*
X146970000Y-83822250D01*
G75*
G02*
X146751250Y-84041000I-218750J0D01*
G01*
X146313750Y-84041000D01*
G75*
G02*
X146095000Y-83822250I0J218750D01*
G01*
X146095000Y-83309750D01*
G75*
G02*
X146313750Y-83091000I218750J0D01*
G01*
X146751250Y-83091000D01*
G75*
G02*
X146970000Y-83309750I0J-218750D01*
G01*
G37*
G36*
G01*
X148545000Y-83309750D02*
X148545000Y-83822250D01*
G75*
G02*
X148326250Y-84041000I-218750J0D01*
G01*
X147888750Y-84041000D01*
G75*
G02*
X147670000Y-83822250I0J218750D01*
G01*
X147670000Y-83309750D01*
G75*
G02*
X147888750Y-83091000I218750J0D01*
G01*
X148326250Y-83091000D01*
G75*
G02*
X148545000Y-83309750I0J-218750D01*
G01*
G37*
%TD*%
%TO.C,R1*%
G36*
G01*
X158498250Y-78898000D02*
X157985750Y-78898000D01*
G75*
G02*
X157767000Y-78679250I0J218750D01*
G01*
X157767000Y-78241750D01*
G75*
G02*
X157985750Y-78023000I218750J0D01*
G01*
X158498250Y-78023000D01*
G75*
G02*
X158717000Y-78241750I0J-218750D01*
G01*
X158717000Y-78679250D01*
G75*
G02*
X158498250Y-78898000I-218750J0D01*
G01*
G37*
G36*
G01*
X158498250Y-80473000D02*
X157985750Y-80473000D01*
G75*
G02*
X157767000Y-80254250I0J218750D01*
G01*
X157767000Y-79816750D01*
G75*
G02*
X157985750Y-79598000I218750J0D01*
G01*
X158498250Y-79598000D01*
G75*
G02*
X158717000Y-79816750I0J-218750D01*
G01*
X158717000Y-80254250D01*
G75*
G02*
X158498250Y-80473000I-218750J0D01*
G01*
G37*
%TD*%
%TO.C,C4*%
G36*
G01*
X155860000Y-70626988D02*
X155860000Y-71139488D01*
G75*
G02*
X155641250Y-71358238I-218750J0D01*
G01*
X155203750Y-71358238D01*
G75*
G02*
X154985000Y-71139488I0J218750D01*
G01*
X154985000Y-70626988D01*
G75*
G02*
X155203750Y-70408238I218750J0D01*
G01*
X155641250Y-70408238D01*
G75*
G02*
X155860000Y-70626988I0J-218750D01*
G01*
G37*
G36*
G01*
X157435000Y-70626988D02*
X157435000Y-71139488D01*
G75*
G02*
X157216250Y-71358238I-218750J0D01*
G01*
X156778750Y-71358238D01*
G75*
G02*
X156560000Y-71139488I0J218750D01*
G01*
X156560000Y-70626988D01*
G75*
G02*
X156778750Y-70408238I218750J0D01*
G01*
X157216250Y-70408238D01*
G75*
G02*
X157435000Y-70626988I0J-218750D01*
G01*
G37*
%TD*%
%TO.C,C3*%
G36*
G01*
X153512000Y-74449302D02*
X153512000Y-73936802D01*
G75*
G02*
X153730750Y-73718052I218750J0D01*
G01*
X154168250Y-73718052D01*
G75*
G02*
X154387000Y-73936802I0J-218750D01*
G01*
X154387000Y-74449302D01*
G75*
G02*
X154168250Y-74668052I-218750J0D01*
G01*
X153730750Y-74668052D01*
G75*
G02*
X153512000Y-74449302I0J218750D01*
G01*
G37*
G36*
G01*
X151937000Y-74449302D02*
X151937000Y-73936802D01*
G75*
G02*
X152155750Y-73718052I218750J0D01*
G01*
X152593250Y-73718052D01*
G75*
G02*
X152812000Y-73936802I0J-218750D01*
G01*
X152812000Y-74449302D01*
G75*
G02*
X152593250Y-74668052I-218750J0D01*
G01*
X152155750Y-74668052D01*
G75*
G02*
X151937000Y-74449302I0J218750D01*
G01*
G37*
%TD*%
%TO.C,C2*%
G36*
G01*
X142369250Y-77247000D02*
X141856750Y-77247000D01*
G75*
G02*
X141638000Y-77028250I0J218750D01*
G01*
X141638000Y-76590750D01*
G75*
G02*
X141856750Y-76372000I218750J0D01*
G01*
X142369250Y-76372000D01*
G75*
G02*
X142588000Y-76590750I0J-218750D01*
G01*
X142588000Y-77028250D01*
G75*
G02*
X142369250Y-77247000I-218750J0D01*
G01*
G37*
G36*
G01*
X142369250Y-78822000D02*
X141856750Y-78822000D01*
G75*
G02*
X141638000Y-78603250I0J218750D01*
G01*
X141638000Y-78165750D01*
G75*
G02*
X141856750Y-77947000I218750J0D01*
G01*
X142369250Y-77947000D01*
G75*
G02*
X142588000Y-78165750I0J-218750D01*
G01*
X142588000Y-78603250D01*
G75*
G02*
X142369250Y-78822000I-218750J0D01*
G01*
G37*
%TD*%
%TO.C,C1*%
G36*
G01*
X155860000Y-73912858D02*
X155860000Y-74425358D01*
G75*
G02*
X155641250Y-74644108I-218750J0D01*
G01*
X155203750Y-74644108D01*
G75*
G02*
X154985000Y-74425358I0J218750D01*
G01*
X154985000Y-73912858D01*
G75*
G02*
X155203750Y-73694108I218750J0D01*
G01*
X155641250Y-73694108D01*
G75*
G02*
X155860000Y-73912858I0J-218750D01*
G01*
G37*
G36*
G01*
X157435000Y-73912858D02*
X157435000Y-74425358D01*
G75*
G02*
X157216250Y-74644108I-218750J0D01*
G01*
X156778750Y-74644108D01*
G75*
G02*
X156560000Y-74425358I0J218750D01*
G01*
X156560000Y-73912858D01*
G75*
G02*
X156778750Y-73694108I218750J0D01*
G01*
X157216250Y-73694108D01*
G75*
G02*
X157435000Y-73912858I0J-218750D01*
G01*
G37*
%TD*%
M02*
