%TF.GenerationSoftware,KiCad,Pcbnew,(5.99.0-2290-gd34f8fd4b)*%
%TF.CreationDate,2020-09-08T20:53:15+02:00*%
%TF.ProjectId,audio-esp32,61756469-6f2d-4657-9370-33322e6b6963,rev?*%
%TF.SameCoordinates,Original*%
%TF.FileFunction,Copper,L1,Top*%
%TF.FilePolarity,Positive*%
%FSLAX46Y46*%
G04 Gerber Fmt 4.6, Leading zero omitted, Abs format (unit mm)*
G04 Created by KiCad (PCBNEW (5.99.0-2290-gd34f8fd4b)) date 2020-09-08 20:53:15*
%MOMM*%
%LPD*%
G01*
G04 APERTURE LIST*
%TA.AperFunction,SMDPad,CuDef*%
%ADD10O,2.300000X1.700000*%
%TD*%
%TA.AperFunction,ComponentPad*%
%ADD11O,1.600000X1.600000*%
%TD*%
%TA.AperFunction,ComponentPad*%
%ADD12R,1.600000X1.600000*%
%TD*%
%TA.AperFunction,ComponentPad*%
%ADD13C,1.700000*%
%TD*%
%TA.AperFunction,ComponentPad*%
%ADD14O,1.700000X1.700000*%
%TD*%
%TA.AperFunction,ComponentPad*%
%ADD15C,4.500000*%
%TD*%
%TA.AperFunction,ComponentPad*%
%ADD16O,2.000000X1.200000*%
%TD*%
%TA.AperFunction,Conductor*%
%ADD17C,0.500000*%
%TD*%
%TA.AperFunction,Conductor*%
%ADD18C,0.750000*%
%TD*%
%TA.AperFunction,Conductor*%
%ADD19C,0.250000*%
%TD*%
%TA.AperFunction,Conductor*%
%ADD20C,0.254000*%
%TD*%
G04 APERTURE END LIST*
D10*
%TO.P,J1,3,Pin_3*%
%TO.N,+5V*%
X131572000Y-82804000D03*
%TO.P,J1,2,Pin_2*%
%TO.N,LED_DATA*%
X131572000Y-85344000D03*
%TO.P,J1,1,Pin_1*%
%TO.N,GND*%
X131572000Y-87884000D03*
%TD*%
D11*
%TO.P,U1,8,CKIN*%
%TO.N,Net-(C1-Pad1)*%
X157480000Y-76238250D03*
%TO.P,U1,4,STROBE*%
%TO.N,ESP_STROBE*%
X149860000Y-68618250D03*
%TO.P,U1,7,RESET*%
%TO.N,ESP_RESET*%
X154940000Y-76238250D03*
%TO.P,U1,3,OUT*%
%TO.N,ESP_AUDIO*%
X152400000Y-68618250D03*
%TO.P,U1,6,GND*%
%TO.N,Net-(C3-Pad1)*%
X152400000Y-76238250D03*
%TO.P,U1,2,VSS*%
%TO.N,GND*%
X154940000Y-68618250D03*
%TO.P,U1,5,IN*%
%TO.N,Net-(C2-Pad2)*%
X149860000Y-76238250D03*
D12*
%TO.P,U1,1,VDD*%
%TO.N,+3V3*%
X157480000Y-68618250D03*
%TD*%
D13*
%TO.P,U2,1,OUT*%
%TO.N,AUDIO*%
X152400000Y-80772000D03*
D14*
%TO.P,U2,3,Vcc*%
%TO.N,+3V3*%
X147320000Y-80772000D03*
%TO.P,U2,2,GND*%
%TO.N,GND*%
X149860000Y-80772000D03*
%TD*%
D15*
%TO.P,REF\u002A\u002A,1*%
%TO.N,N/C*%
X131826000Y-69342000D03*
%TD*%
D16*
%TO.P,U3,3,NC*%
%TO.N,Net-(U3-Pad3)*%
X163855938Y-70840948D03*
%TO.P,U3,18,IO13*%
%TO.N,Net-(U3-Pad18)*%
X161315938Y-88620948D03*
%TO.P,U3,15,NC*%
%TO.N,Net-(U3-Pad15)*%
X163855938Y-86080948D03*
%TO.P,U3,8,IO18*%
%TO.N,Net-(U3-Pad8)*%
X161315938Y-75920948D03*
%TO.P,U3,1,GND*%
%TO.N,GND*%
X163855938Y-68300948D03*
%TO.P,U3,6,IO26*%
%TO.N,ESP_STROBE*%
X161315938Y-73380948D03*
%TO.P,U3,17,NC*%
%TO.N,Net-(U3-Pad17)*%
X163855938Y-88620948D03*
%TO.P,U3,10,IO19*%
%TO.N,Net-(U3-Pad10)*%
X161315938Y-78460948D03*
%TO.P,U3,16,3V3*%
%TO.N,+3V3*%
X161315938Y-86080948D03*
%TO.P,U3,9,IO33_CRYSTAL_N*%
%TO.N,Net-(U3-Pad9)*%
X163855938Y-78460948D03*
%TO.P,U3,5,I_39_SENSOR_VN*%
%TO.N,Net-(U3-Pad5)*%
X163855938Y-73380948D03*
%TO.P,U3,4,I_36_SENSOR_VP*%
%TO.N,Net-(U3-Pad4)*%
X161315938Y-70840948D03*
%TO.P,U3,14,IO5*%
%TO.N,Net-(U3-Pad14)*%
X161315938Y-83540948D03*
%TO.P,U3,2,EN*%
%TO.N,Net-(U3-Pad2)*%
X161315938Y-68300948D03*
%TO.P,U3,12,IO23*%
%TO.N,Net-(U3-Pad12)*%
X161315938Y-81000948D03*
%TO.P,U3,7,I_35*%
%TO.N,Net-(U3-Pad7)*%
X163855938Y-75920948D03*
%TO.P,U3,13,IO14*%
%TO.N,Net-(U3-Pad13)*%
X163855938Y-83540948D03*
%TO.P,U3,11,I_34*%
%TO.N,ESP_AUDIO*%
X163855938Y-81000948D03*
%TO.P,U3,21,RXD0*%
%TO.N,Net-(U3-Pad21)*%
X138455938Y-70840948D03*
%TO.P,U3,36,LED_OUT*%
%TO.N,LED_DATA*%
X135915938Y-88620948D03*
%TO.P,U3,33,5v*%
%TO.N,+5V*%
X138455938Y-86080948D03*
%TO.P,U3,26,IO32_CRYSTAL_P*%
%TO.N,Net-(U3-Pad26)*%
X135915938Y-75920948D03*
%TO.P,U3,19,TXD0*%
%TO.N,Net-(U3-Pad19)*%
X138455938Y-68300948D03*
%TO.P,U3,24,IO25*%
%TO.N,Net-(U3-Pad24)*%
X135915938Y-73380948D03*
%TO.P,U3,35,LED_IO15*%
%TO.N,Net-(U3-Pad35)*%
X138455938Y-88620948D03*
%TO.P,U3,28,IO12*%
%TO.N,Net-(U3-Pad28)*%
X135915938Y-78460948D03*
%TO.P,U3,34,IO2*%
%TO.N,Net-(U3-Pad34)*%
X135915938Y-86080948D03*
%TO.P,U3,27,NC*%
%TO.N,Net-(U3-Pad27)*%
X138455938Y-78460948D03*
%TO.P,U3,23,IO22*%
%TO.N,Net-(U3-Pad23)*%
X138455938Y-73380948D03*
%TO.P,U3,22,IO27*%
%TO.N,ESP_RESET*%
X135915938Y-70840948D03*
%TO.P,U3,32,IO0*%
%TO.N,Net-(U3-Pad32)*%
X135915938Y-83540948D03*
%TO.P,U3,20,GND*%
%TO.N,GND*%
X135915938Y-68300948D03*
%TO.P,U3,30,IO4*%
%TO.N,Net-(U3-Pad30)*%
X135915938Y-81000948D03*
%TO.P,U3,25,IO21*%
%TO.N,Net-(U3-Pad25)*%
X138455938Y-75920948D03*
%TO.P,U3,31,GND*%
%TO.N,GND*%
X138455938Y-83540948D03*
%TO.P,U3,29,NC*%
%TO.N,Net-(U3-Pad29)*%
X138455938Y-81000948D03*
%TD*%
D17*
%TO.N,LED_DATA*%
X132334000Y-85344000D02*
X135128000Y-88138000D01*
X131572000Y-85344000D02*
X132334000Y-85344000D01*
X135610948Y-88620948D02*
X135915938Y-88620948D01*
X135128000Y-88138000D02*
X135610948Y-88620948D01*
D18*
%TO.N,+5V*%
X131572000Y-82804000D02*
X133673938Y-84905938D01*
X133673938Y-84905938D02*
X137280928Y-84905938D01*
X137280928Y-84905938D02*
X138455938Y-86080948D01*
D19*
%TO.N,ESP_STROBE*%
X161315938Y-73380948D02*
X154622698Y-73380948D01*
X154622698Y-73380948D02*
X149860000Y-68618250D01*
X149860000Y-68618250D02*
X149860000Y-68580000D01*
%TO.N,GND*%
X154940000Y-68618250D02*
X156065010Y-69743260D01*
X156065010Y-69743260D02*
X162413626Y-69743260D01*
X162413626Y-69743260D02*
X163855938Y-68300948D01*
X149860000Y-80772000D02*
X149860000Y-82042000D01*
X149860000Y-82042000D02*
X148361052Y-83540948D01*
X148361052Y-83540948D02*
X138455938Y-83540948D01*
%TD*%
%TO.N,GND*%
D20*
X165025404Y-66928856D02*
X165025784Y-66928901D01*
X165127248Y-66940731D01*
X165153038Y-66950092D01*
X165175977Y-66965132D01*
X165194843Y-66985047D01*
X165208624Y-67008772D01*
X165219111Y-67043399D01*
X165225705Y-67117287D01*
X165227135Y-67126138D01*
X165228001Y-67129816D01*
X165228001Y-67537703D01*
X165112825Y-67406370D01*
X165104444Y-67398417D01*
X164935452Y-67265195D01*
X164925763Y-67258902D01*
X164735322Y-67158707D01*
X164724648Y-67154286D01*
X164518744Y-67090350D01*
X164506618Y-67087855D01*
X164310983Y-67067293D01*
X164304393Y-67066948D01*
X164057747Y-67066948D01*
X163983938Y-67140757D01*
X163983937Y-68099140D01*
X163983938Y-68099141D01*
X163983937Y-69461139D01*
X164057746Y-69534948D01*
X164310475Y-69534948D01*
X164316242Y-69534684D01*
X164476002Y-69520004D01*
X164487362Y-69517898D01*
X164694472Y-69459487D01*
X164705259Y-69455347D01*
X164898256Y-69360171D01*
X164908107Y-69354134D01*
X165080528Y-69225381D01*
X165089113Y-69217650D01*
X165228001Y-69067404D01*
X165228001Y-70077703D01*
X165112825Y-69946370D01*
X165104444Y-69938417D01*
X164935452Y-69805195D01*
X164925763Y-69798902D01*
X164735322Y-69698707D01*
X164724648Y-69694286D01*
X164518744Y-69630350D01*
X164506618Y-69627855D01*
X164310983Y-69607293D01*
X164304393Y-69606948D01*
X163401401Y-69606948D01*
X163395634Y-69607212D01*
X163235874Y-69621892D01*
X163224514Y-69623998D01*
X163017404Y-69682409D01*
X163006617Y-69686549D01*
X162813620Y-69781725D01*
X162803769Y-69787762D01*
X162631348Y-69916515D01*
X162622763Y-69924246D01*
X162587180Y-69962739D01*
X162572825Y-69946370D01*
X162564444Y-69938417D01*
X162395452Y-69805195D01*
X162385763Y-69798902D01*
X162195322Y-69698707D01*
X162184648Y-69694286D01*
X161978744Y-69630350D01*
X161966618Y-69627855D01*
X161770983Y-69607293D01*
X161764393Y-69606948D01*
X160861401Y-69606948D01*
X160855634Y-69607212D01*
X160695874Y-69621892D01*
X160684514Y-69623998D01*
X160477404Y-69682409D01*
X160466617Y-69686549D01*
X160273620Y-69781725D01*
X160263769Y-69787762D01*
X160091348Y-69916515D01*
X160082763Y-69924246D01*
X159936691Y-70082264D01*
X159929658Y-70091430D01*
X159814830Y-70273422D01*
X159809585Y-70283716D01*
X159729844Y-70483586D01*
X159726563Y-70494664D01*
X159684582Y-70705718D01*
X159683374Y-70717208D01*
X159680557Y-70932380D01*
X159681464Y-70943898D01*
X159717906Y-71155979D01*
X159720896Y-71167139D01*
X159795377Y-71369028D01*
X159800351Y-71379457D01*
X159910376Y-71564392D01*
X159917167Y-71573738D01*
X160059051Y-71735526D01*
X160067432Y-71743479D01*
X160236424Y-71876701D01*
X160246113Y-71882994D01*
X160436554Y-71983189D01*
X160447228Y-71987610D01*
X160653132Y-72051546D01*
X160665258Y-72054041D01*
X160860893Y-72074603D01*
X160867483Y-72074948D01*
X161770475Y-72074948D01*
X161776242Y-72074684D01*
X161936002Y-72060004D01*
X161947362Y-72057898D01*
X162154472Y-71999487D01*
X162165259Y-71995347D01*
X162358256Y-71900171D01*
X162368107Y-71894134D01*
X162540528Y-71765381D01*
X162549113Y-71757650D01*
X162584696Y-71719157D01*
X162599051Y-71735526D01*
X162607432Y-71743479D01*
X162776424Y-71876701D01*
X162786113Y-71882994D01*
X162976554Y-71983189D01*
X162987228Y-71987610D01*
X163193132Y-72051546D01*
X163205258Y-72054041D01*
X163400893Y-72074603D01*
X163407483Y-72074948D01*
X164310475Y-72074948D01*
X164316242Y-72074684D01*
X164476002Y-72060004D01*
X164487362Y-72057898D01*
X164694472Y-71999487D01*
X164705259Y-71995347D01*
X164898256Y-71900171D01*
X164908107Y-71894134D01*
X165080528Y-71765381D01*
X165089113Y-71757650D01*
X165228001Y-71607404D01*
X165228001Y-72617703D01*
X165112825Y-72486370D01*
X165104444Y-72478417D01*
X164935452Y-72345195D01*
X164925763Y-72338902D01*
X164735322Y-72238707D01*
X164724648Y-72234286D01*
X164518744Y-72170350D01*
X164506618Y-72167855D01*
X164310983Y-72147293D01*
X164304393Y-72146948D01*
X163401401Y-72146948D01*
X163395634Y-72147212D01*
X163235874Y-72161892D01*
X163224514Y-72163998D01*
X163017404Y-72222409D01*
X163006617Y-72226549D01*
X162813620Y-72321725D01*
X162803769Y-72327762D01*
X162631348Y-72456515D01*
X162622763Y-72464246D01*
X162587180Y-72502739D01*
X162572825Y-72486370D01*
X162564444Y-72478417D01*
X162395452Y-72345195D01*
X162385763Y-72338902D01*
X162195322Y-72238707D01*
X162184648Y-72234286D01*
X161978744Y-72170350D01*
X161966618Y-72167855D01*
X161770983Y-72147293D01*
X161764393Y-72146948D01*
X160861401Y-72146948D01*
X160855634Y-72147212D01*
X160695874Y-72161892D01*
X160684514Y-72163998D01*
X160477404Y-72222409D01*
X160466617Y-72226549D01*
X160273620Y-72321725D01*
X160263769Y-72327762D01*
X160091348Y-72456515D01*
X160082763Y-72464246D01*
X159938832Y-72619948D01*
X154937913Y-72619948D01*
X152370214Y-70052250D01*
X152519936Y-70052250D01*
X152530897Y-70051291D01*
X152767126Y-70009637D01*
X152777753Y-70006790D01*
X153003160Y-69924748D01*
X153013132Y-69920098D01*
X153220868Y-69800162D01*
X153229881Y-69793851D01*
X153413634Y-69639663D01*
X153421413Y-69631884D01*
X153575601Y-69448131D01*
X153581912Y-69439118D01*
X153670000Y-69286545D01*
X153758088Y-69439118D01*
X153764399Y-69448131D01*
X153918587Y-69631884D01*
X153926366Y-69639663D01*
X154110119Y-69793851D01*
X154119132Y-69800162D01*
X154326868Y-69920098D01*
X154336840Y-69924748D01*
X154562247Y-70006790D01*
X154572874Y-70009637D01*
X154721982Y-70035930D01*
X154812000Y-69960396D01*
X154812001Y-68820058D01*
X154812000Y-68820057D01*
X154812000Y-68416442D01*
X155067999Y-68416442D01*
X155068000Y-68416443D01*
X155067999Y-69960396D01*
X155158017Y-70035929D01*
X155307125Y-70009637D01*
X155317753Y-70006790D01*
X155543160Y-69924748D01*
X155553132Y-69920098D01*
X155760868Y-69800162D01*
X155769881Y-69793851D01*
X155953634Y-69639663D01*
X155961413Y-69631884D01*
X156059606Y-69514863D01*
X156115137Y-69722109D01*
X156127880Y-69746589D01*
X156258990Y-69902840D01*
X156275879Y-69917011D01*
X156450120Y-70017609D01*
X156470837Y-70025150D01*
X156663538Y-70059128D01*
X156674499Y-70060087D01*
X158288258Y-70060087D01*
X158304634Y-70057931D01*
X158583859Y-69983113D01*
X158608339Y-69970370D01*
X158764590Y-69839260D01*
X158778761Y-69822371D01*
X158879359Y-69648130D01*
X158886900Y-69627413D01*
X158920878Y-69434712D01*
X158921837Y-69423751D01*
X158921837Y-68392380D01*
X159680557Y-68392380D01*
X159681464Y-68403898D01*
X159717906Y-68615979D01*
X159720896Y-68627139D01*
X159795377Y-68829028D01*
X159800351Y-68839457D01*
X159910376Y-69024392D01*
X159917167Y-69033738D01*
X160059051Y-69195526D01*
X160067432Y-69203479D01*
X160236424Y-69336701D01*
X160246113Y-69342994D01*
X160436554Y-69443189D01*
X160447228Y-69447610D01*
X160653132Y-69511546D01*
X160665258Y-69514041D01*
X160860893Y-69534603D01*
X160867483Y-69534948D01*
X161770475Y-69534948D01*
X161776242Y-69534684D01*
X161936002Y-69520004D01*
X161947362Y-69517898D01*
X162154472Y-69459487D01*
X162165259Y-69455347D01*
X162358256Y-69360171D01*
X162368107Y-69354134D01*
X162540528Y-69225381D01*
X162549113Y-69217650D01*
X162584696Y-69179157D01*
X162599051Y-69195526D01*
X162607432Y-69203479D01*
X162776424Y-69336701D01*
X162786113Y-69342994D01*
X162976554Y-69443189D01*
X162987228Y-69447610D01*
X163193132Y-69511546D01*
X163205258Y-69514041D01*
X163400893Y-69534603D01*
X163407483Y-69534948D01*
X163654129Y-69534948D01*
X163727938Y-69461139D01*
X163727939Y-68502756D01*
X163727938Y-68502755D01*
X163727939Y-67140757D01*
X163654130Y-67066948D01*
X163401401Y-67066948D01*
X163395634Y-67067212D01*
X163235874Y-67081892D01*
X163224514Y-67083998D01*
X163017404Y-67142409D01*
X163006617Y-67146549D01*
X162813620Y-67241725D01*
X162803769Y-67247762D01*
X162631348Y-67376515D01*
X162622763Y-67384246D01*
X162587180Y-67422739D01*
X162572825Y-67406370D01*
X162564444Y-67398417D01*
X162395452Y-67265195D01*
X162385763Y-67258902D01*
X162195322Y-67158707D01*
X162184648Y-67154286D01*
X161978744Y-67090350D01*
X161966618Y-67087855D01*
X161770983Y-67067293D01*
X161764393Y-67066948D01*
X160861401Y-67066948D01*
X160855634Y-67067212D01*
X160695874Y-67081892D01*
X160684514Y-67083998D01*
X160477404Y-67142409D01*
X160466617Y-67146549D01*
X160273620Y-67241725D01*
X160263769Y-67247762D01*
X160091348Y-67376515D01*
X160082763Y-67384246D01*
X159936691Y-67542264D01*
X159929658Y-67551430D01*
X159814830Y-67733422D01*
X159809585Y-67743716D01*
X159729844Y-67943586D01*
X159726563Y-67954664D01*
X159684582Y-68165718D01*
X159683374Y-68177208D01*
X159680557Y-68392380D01*
X158921837Y-68392380D01*
X158921837Y-67809992D01*
X158919681Y-67793616D01*
X158844863Y-67514392D01*
X158832120Y-67489912D01*
X158701010Y-67333660D01*
X158684121Y-67319489D01*
X158509880Y-67218891D01*
X158489163Y-67211350D01*
X158296462Y-67177372D01*
X158285501Y-67176413D01*
X156671742Y-67176413D01*
X156655366Y-67178569D01*
X156376142Y-67253387D01*
X156351662Y-67266130D01*
X156195410Y-67397240D01*
X156181239Y-67414129D01*
X156080641Y-67588370D01*
X156073100Y-67609087D01*
X156054357Y-67715382D01*
X155961413Y-67604616D01*
X155953634Y-67596837D01*
X155769881Y-67442649D01*
X155760868Y-67436338D01*
X155553132Y-67316402D01*
X155543160Y-67311752D01*
X155317753Y-67229710D01*
X155307126Y-67226863D01*
X155158018Y-67200570D01*
X155068000Y-67276104D01*
X155067999Y-68416442D01*
X154812000Y-68416442D01*
X154812001Y-67276104D01*
X154721983Y-67200571D01*
X154572875Y-67226863D01*
X154562247Y-67229710D01*
X154336840Y-67311752D01*
X154326868Y-67316402D01*
X154119132Y-67436338D01*
X154110119Y-67442649D01*
X153926366Y-67596837D01*
X153918587Y-67604616D01*
X153764399Y-67788369D01*
X153758088Y-67797382D01*
X153670000Y-67949955D01*
X153581912Y-67797382D01*
X153575601Y-67788369D01*
X153421413Y-67604616D01*
X153413634Y-67596837D01*
X153229881Y-67442649D01*
X153220868Y-67436338D01*
X153013132Y-67316402D01*
X153003160Y-67311752D01*
X152777753Y-67229710D01*
X152767126Y-67226863D01*
X152530897Y-67185209D01*
X152519936Y-67184250D01*
X152280064Y-67184250D01*
X152269103Y-67185209D01*
X152032874Y-67226863D01*
X152022247Y-67229710D01*
X151796840Y-67311752D01*
X151786868Y-67316402D01*
X151579132Y-67436338D01*
X151570119Y-67442649D01*
X151386366Y-67596837D01*
X151378587Y-67604616D01*
X151224399Y-67788369D01*
X151218088Y-67797382D01*
X151130000Y-67949955D01*
X151041912Y-67797382D01*
X151035601Y-67788369D01*
X150881413Y-67604616D01*
X150873634Y-67596837D01*
X150689881Y-67442649D01*
X150680868Y-67436338D01*
X150473132Y-67316402D01*
X150463160Y-67311752D01*
X150237753Y-67229710D01*
X150227126Y-67226863D01*
X149990897Y-67185209D01*
X149979936Y-67184250D01*
X149740064Y-67184250D01*
X149729103Y-67185209D01*
X149492874Y-67226863D01*
X149482247Y-67229710D01*
X149256840Y-67311752D01*
X149246868Y-67316402D01*
X149039132Y-67436338D01*
X149030119Y-67442649D01*
X148846366Y-67596837D01*
X148838587Y-67604616D01*
X148684399Y-67788369D01*
X148678088Y-67797382D01*
X148558152Y-68005118D01*
X148553502Y-68015090D01*
X148471460Y-68240497D01*
X148468613Y-68251124D01*
X148426959Y-68487353D01*
X148426000Y-68498314D01*
X148426000Y-68738186D01*
X148426959Y-68749147D01*
X148468613Y-68985376D01*
X148471460Y-68996003D01*
X148553502Y-69221410D01*
X148558152Y-69231382D01*
X148678088Y-69439118D01*
X148684399Y-69448131D01*
X148838587Y-69631884D01*
X148846366Y-69639663D01*
X149030119Y-69793851D01*
X149039132Y-69800162D01*
X149246868Y-69920098D01*
X149256840Y-69924748D01*
X149482247Y-70006790D01*
X149492874Y-70009637D01*
X149729103Y-70051291D01*
X149740064Y-70052250D01*
X149979936Y-70052250D01*
X149990897Y-70051291D01*
X150182960Y-70017425D01*
X154162718Y-73997184D01*
X154178764Y-74008842D01*
X154223846Y-74031813D01*
X154264781Y-74061554D01*
X154282453Y-74070558D01*
X154330569Y-74086191D01*
X154375658Y-74109166D01*
X154394521Y-74115295D01*
X154444504Y-74123211D01*
X154492619Y-74138844D01*
X154512207Y-74141947D01*
X154567507Y-74141947D01*
X154567519Y-74141948D01*
X159941906Y-74141948D01*
X160059051Y-74275526D01*
X160067432Y-74283479D01*
X160236424Y-74416701D01*
X160246113Y-74422994D01*
X160436554Y-74523189D01*
X160447228Y-74527610D01*
X160653132Y-74591546D01*
X160665258Y-74594041D01*
X160860893Y-74614603D01*
X160867483Y-74614948D01*
X161770475Y-74614948D01*
X161776242Y-74614684D01*
X161936002Y-74600004D01*
X161947362Y-74597898D01*
X162154472Y-74539487D01*
X162165259Y-74535347D01*
X162358256Y-74440171D01*
X162368107Y-74434134D01*
X162540528Y-74305381D01*
X162549113Y-74297650D01*
X162584696Y-74259157D01*
X162599051Y-74275526D01*
X162607432Y-74283479D01*
X162776424Y-74416701D01*
X162786113Y-74422994D01*
X162976554Y-74523189D01*
X162987228Y-74527610D01*
X163193132Y-74591546D01*
X163205258Y-74594041D01*
X163400893Y-74614603D01*
X163407483Y-74614948D01*
X164310475Y-74614948D01*
X164316242Y-74614684D01*
X164476002Y-74600004D01*
X164487362Y-74597898D01*
X164694472Y-74539487D01*
X164705259Y-74535347D01*
X164898256Y-74440171D01*
X164908107Y-74434134D01*
X165080528Y-74305381D01*
X165089113Y-74297650D01*
X165228001Y-74147404D01*
X165228001Y-75157703D01*
X165112825Y-75026370D01*
X165104444Y-75018417D01*
X164935452Y-74885195D01*
X164925763Y-74878902D01*
X164735322Y-74778707D01*
X164724648Y-74774286D01*
X164518744Y-74710350D01*
X164506618Y-74707855D01*
X164310983Y-74687293D01*
X164304393Y-74686948D01*
X163401401Y-74686948D01*
X163395634Y-74687212D01*
X163235874Y-74701892D01*
X163224514Y-74703998D01*
X163017404Y-74762409D01*
X163006617Y-74766549D01*
X162813620Y-74861725D01*
X162803769Y-74867762D01*
X162631348Y-74996515D01*
X162622763Y-75004246D01*
X162587180Y-75042739D01*
X162572825Y-75026370D01*
X162564444Y-75018417D01*
X162395452Y-74885195D01*
X162385763Y-74878902D01*
X162195322Y-74778707D01*
X162184648Y-74774286D01*
X161978744Y-74710350D01*
X161966618Y-74707855D01*
X161770983Y-74687293D01*
X161764393Y-74686948D01*
X160861401Y-74686948D01*
X160855634Y-74687212D01*
X160695874Y-74701892D01*
X160684514Y-74703998D01*
X160477404Y-74762409D01*
X160466617Y-74766549D01*
X160273620Y-74861725D01*
X160263769Y-74867762D01*
X160091348Y-74996515D01*
X160082763Y-75004246D01*
X159936691Y-75162264D01*
X159929658Y-75171430D01*
X159814830Y-75353422D01*
X159809585Y-75363716D01*
X159729844Y-75563586D01*
X159726563Y-75574664D01*
X159684582Y-75785718D01*
X159683374Y-75797208D01*
X159680557Y-76012380D01*
X159681464Y-76023898D01*
X159717906Y-76235979D01*
X159720896Y-76247139D01*
X159795377Y-76449028D01*
X159800351Y-76459457D01*
X159910376Y-76644392D01*
X159917167Y-76653738D01*
X160059051Y-76815526D01*
X160067432Y-76823479D01*
X160236424Y-76956701D01*
X160246113Y-76962994D01*
X160436554Y-77063189D01*
X160447228Y-77067610D01*
X160653132Y-77131546D01*
X160665258Y-77134041D01*
X160860893Y-77154603D01*
X160867483Y-77154948D01*
X161770475Y-77154948D01*
X161776242Y-77154684D01*
X161936002Y-77140004D01*
X161947362Y-77137898D01*
X162154472Y-77079487D01*
X162165259Y-77075347D01*
X162358256Y-76980171D01*
X162368107Y-76974134D01*
X162540528Y-76845381D01*
X162549113Y-76837650D01*
X162584696Y-76799157D01*
X162599051Y-76815526D01*
X162607432Y-76823479D01*
X162776424Y-76956701D01*
X162786113Y-76962994D01*
X162976554Y-77063189D01*
X162987228Y-77067610D01*
X163193132Y-77131546D01*
X163205258Y-77134041D01*
X163400893Y-77154603D01*
X163407483Y-77154948D01*
X164310475Y-77154948D01*
X164316242Y-77154684D01*
X164476002Y-77140004D01*
X164487362Y-77137898D01*
X164694472Y-77079487D01*
X164705259Y-77075347D01*
X164898256Y-76980171D01*
X164908107Y-76974134D01*
X165080528Y-76845381D01*
X165089113Y-76837650D01*
X165228001Y-76687404D01*
X165228001Y-77697703D01*
X165112825Y-77566370D01*
X165104444Y-77558417D01*
X164935452Y-77425195D01*
X164925763Y-77418902D01*
X164735322Y-77318707D01*
X164724648Y-77314286D01*
X164518744Y-77250350D01*
X164506618Y-77247855D01*
X164310983Y-77227293D01*
X164304393Y-77226948D01*
X163401401Y-77226948D01*
X163395634Y-77227212D01*
X163235874Y-77241892D01*
X163224514Y-77243998D01*
X163017404Y-77302409D01*
X163006617Y-77306549D01*
X162813620Y-77401725D01*
X162803769Y-77407762D01*
X162631348Y-77536515D01*
X162622763Y-77544246D01*
X162587180Y-77582739D01*
X162572825Y-77566370D01*
X162564444Y-77558417D01*
X162395452Y-77425195D01*
X162385763Y-77418902D01*
X162195322Y-77318707D01*
X162184648Y-77314286D01*
X161978744Y-77250350D01*
X161966618Y-77247855D01*
X161770983Y-77227293D01*
X161764393Y-77226948D01*
X160861401Y-77226948D01*
X160855634Y-77227212D01*
X160695874Y-77241892D01*
X160684514Y-77243998D01*
X160477404Y-77302409D01*
X160466617Y-77306549D01*
X160273620Y-77401725D01*
X160263769Y-77407762D01*
X160091348Y-77536515D01*
X160082763Y-77544246D01*
X159936691Y-77702264D01*
X159929658Y-77711430D01*
X159814830Y-77893422D01*
X159809585Y-77903716D01*
X159729844Y-78103586D01*
X159726563Y-78114664D01*
X159684582Y-78325718D01*
X159683374Y-78337208D01*
X159680557Y-78552380D01*
X159681464Y-78563898D01*
X159717906Y-78775979D01*
X159720896Y-78787139D01*
X159795377Y-78989028D01*
X159800351Y-78999457D01*
X159910376Y-79184392D01*
X159917167Y-79193738D01*
X160059051Y-79355526D01*
X160067432Y-79363479D01*
X160236424Y-79496701D01*
X160246113Y-79502994D01*
X160436554Y-79603189D01*
X160447228Y-79607610D01*
X160653132Y-79671546D01*
X160665258Y-79674041D01*
X160860893Y-79694603D01*
X160867483Y-79694948D01*
X161770475Y-79694948D01*
X161776242Y-79694684D01*
X161936002Y-79680004D01*
X161947362Y-79677898D01*
X162154472Y-79619487D01*
X162165259Y-79615347D01*
X162358256Y-79520171D01*
X162368107Y-79514134D01*
X162540528Y-79385381D01*
X162549113Y-79377650D01*
X162584696Y-79339157D01*
X162599051Y-79355526D01*
X162607432Y-79363479D01*
X162776424Y-79496701D01*
X162786113Y-79502994D01*
X162976554Y-79603189D01*
X162987228Y-79607610D01*
X163193132Y-79671546D01*
X163205258Y-79674041D01*
X163400893Y-79694603D01*
X163407483Y-79694948D01*
X164310475Y-79694948D01*
X164316242Y-79694684D01*
X164476002Y-79680004D01*
X164487362Y-79677898D01*
X164694472Y-79619487D01*
X164705259Y-79615347D01*
X164898256Y-79520171D01*
X164908107Y-79514134D01*
X165080528Y-79385381D01*
X165089113Y-79377650D01*
X165228000Y-79227405D01*
X165228000Y-80237702D01*
X165112825Y-80106370D01*
X165104444Y-80098417D01*
X164935452Y-79965195D01*
X164925763Y-79958902D01*
X164735322Y-79858707D01*
X164724648Y-79854286D01*
X164518744Y-79790350D01*
X164506618Y-79787855D01*
X164310983Y-79767293D01*
X164304393Y-79766948D01*
X163401401Y-79766948D01*
X163395634Y-79767212D01*
X163235874Y-79781892D01*
X163224514Y-79783998D01*
X163017404Y-79842409D01*
X163006617Y-79846549D01*
X162813620Y-79941725D01*
X162803769Y-79947762D01*
X162631348Y-80076515D01*
X162622763Y-80084246D01*
X162587180Y-80122739D01*
X162572825Y-80106370D01*
X162564444Y-80098417D01*
X162395452Y-79965195D01*
X162385763Y-79958902D01*
X162195322Y-79858707D01*
X162184648Y-79854286D01*
X161978744Y-79790350D01*
X161966618Y-79787855D01*
X161770983Y-79767293D01*
X161764393Y-79766948D01*
X160861401Y-79766948D01*
X160855634Y-79767212D01*
X160695874Y-79781892D01*
X160684514Y-79783998D01*
X160477404Y-79842409D01*
X160466617Y-79846549D01*
X160273620Y-79941725D01*
X160263769Y-79947762D01*
X160091348Y-80076515D01*
X160082763Y-80084246D01*
X159936691Y-80242264D01*
X159929658Y-80251430D01*
X159814830Y-80433422D01*
X159809585Y-80443716D01*
X159729844Y-80643586D01*
X159726563Y-80654664D01*
X159684582Y-80865718D01*
X159683374Y-80877208D01*
X159680557Y-81092380D01*
X159681464Y-81103898D01*
X159717906Y-81315979D01*
X159720896Y-81327139D01*
X159795377Y-81529028D01*
X159800351Y-81539457D01*
X159910376Y-81724392D01*
X159917167Y-81733738D01*
X160059051Y-81895526D01*
X160067432Y-81903479D01*
X160236424Y-82036701D01*
X160246113Y-82042994D01*
X160436554Y-82143189D01*
X160447228Y-82147610D01*
X160653132Y-82211546D01*
X160665258Y-82214041D01*
X160860893Y-82234603D01*
X160867483Y-82234948D01*
X161770475Y-82234948D01*
X161776242Y-82234684D01*
X161936002Y-82220004D01*
X161947362Y-82217898D01*
X162154472Y-82159487D01*
X162165259Y-82155347D01*
X162358256Y-82060171D01*
X162368107Y-82054134D01*
X162540528Y-81925381D01*
X162549113Y-81917650D01*
X162584696Y-81879157D01*
X162599051Y-81895526D01*
X162607432Y-81903479D01*
X162776424Y-82036701D01*
X162786113Y-82042994D01*
X162976554Y-82143189D01*
X162987228Y-82147610D01*
X163193132Y-82211546D01*
X163205258Y-82214041D01*
X163400893Y-82234603D01*
X163407483Y-82234948D01*
X164310475Y-82234948D01*
X164316242Y-82234684D01*
X164476002Y-82220004D01*
X164487362Y-82217898D01*
X164694472Y-82159487D01*
X164705259Y-82155347D01*
X164898256Y-82060171D01*
X164908107Y-82054134D01*
X165080528Y-81925381D01*
X165089113Y-81917650D01*
X165228000Y-81767405D01*
X165228000Y-82777702D01*
X165112825Y-82646370D01*
X165104444Y-82638417D01*
X164935452Y-82505195D01*
X164925763Y-82498902D01*
X164735322Y-82398707D01*
X164724648Y-82394286D01*
X164518744Y-82330350D01*
X164506618Y-82327855D01*
X164310983Y-82307293D01*
X164304393Y-82306948D01*
X163401401Y-82306948D01*
X163395634Y-82307212D01*
X163235874Y-82321892D01*
X163224514Y-82323998D01*
X163017404Y-82382409D01*
X163006617Y-82386549D01*
X162813620Y-82481725D01*
X162803769Y-82487762D01*
X162631348Y-82616515D01*
X162622763Y-82624246D01*
X162587180Y-82662739D01*
X162572825Y-82646370D01*
X162564444Y-82638417D01*
X162395452Y-82505195D01*
X162385763Y-82498902D01*
X162195322Y-82398707D01*
X162184648Y-82394286D01*
X161978744Y-82330350D01*
X161966618Y-82327855D01*
X161770983Y-82307293D01*
X161764393Y-82306948D01*
X160861401Y-82306948D01*
X160855634Y-82307212D01*
X160695874Y-82321892D01*
X160684514Y-82323998D01*
X160477404Y-82382409D01*
X160466617Y-82386549D01*
X160273620Y-82481725D01*
X160263769Y-82487762D01*
X160091348Y-82616515D01*
X160082763Y-82624246D01*
X159936691Y-82782264D01*
X159929658Y-82791430D01*
X159814830Y-82973422D01*
X159809585Y-82983716D01*
X159729844Y-83183586D01*
X159726563Y-83194664D01*
X159684582Y-83405718D01*
X159683374Y-83417208D01*
X159680557Y-83632380D01*
X159681464Y-83643898D01*
X159717906Y-83855979D01*
X159720896Y-83867139D01*
X159795377Y-84069028D01*
X159800351Y-84079457D01*
X159910376Y-84264392D01*
X159917167Y-84273738D01*
X160059051Y-84435526D01*
X160067432Y-84443479D01*
X160236424Y-84576701D01*
X160246113Y-84582994D01*
X160436554Y-84683189D01*
X160447228Y-84687610D01*
X160653132Y-84751546D01*
X160665258Y-84754041D01*
X160860893Y-84774603D01*
X160867483Y-84774948D01*
X161770475Y-84774948D01*
X161776242Y-84774684D01*
X161936002Y-84760004D01*
X161947362Y-84757898D01*
X162154472Y-84699487D01*
X162165259Y-84695347D01*
X162358256Y-84600171D01*
X162368107Y-84594134D01*
X162540528Y-84465381D01*
X162549113Y-84457650D01*
X162584696Y-84419157D01*
X162599051Y-84435526D01*
X162607432Y-84443479D01*
X162776424Y-84576701D01*
X162786113Y-84582994D01*
X162976554Y-84683189D01*
X162987228Y-84687610D01*
X163193132Y-84751546D01*
X163205258Y-84754041D01*
X163400893Y-84774603D01*
X163407483Y-84774948D01*
X164310475Y-84774948D01*
X164316242Y-84774684D01*
X164476002Y-84760004D01*
X164487362Y-84757898D01*
X164694472Y-84699487D01*
X164705259Y-84695347D01*
X164898256Y-84600171D01*
X164908107Y-84594134D01*
X165080528Y-84465381D01*
X165089113Y-84457650D01*
X165228000Y-84307405D01*
X165228000Y-85317702D01*
X165112825Y-85186370D01*
X165104444Y-85178417D01*
X164935452Y-85045195D01*
X164925763Y-85038902D01*
X164735322Y-84938707D01*
X164724648Y-84934286D01*
X164518744Y-84870350D01*
X164506618Y-84867855D01*
X164310983Y-84847293D01*
X164304393Y-84846948D01*
X163401401Y-84846948D01*
X163395634Y-84847212D01*
X163235874Y-84861892D01*
X163224514Y-84863998D01*
X163017404Y-84922409D01*
X163006617Y-84926549D01*
X162813620Y-85021725D01*
X162803769Y-85027762D01*
X162631348Y-85156515D01*
X162622763Y-85164246D01*
X162587180Y-85202739D01*
X162572825Y-85186370D01*
X162564444Y-85178417D01*
X162395452Y-85045195D01*
X162385763Y-85038902D01*
X162195322Y-84938707D01*
X162184648Y-84934286D01*
X161978744Y-84870350D01*
X161966618Y-84867855D01*
X161770983Y-84847293D01*
X161764393Y-84846948D01*
X160861401Y-84846948D01*
X160855634Y-84847212D01*
X160695874Y-84861892D01*
X160684514Y-84863998D01*
X160477404Y-84922409D01*
X160466617Y-84926549D01*
X160273620Y-85021725D01*
X160263769Y-85027762D01*
X160091348Y-85156515D01*
X160082763Y-85164246D01*
X159936691Y-85322264D01*
X159929658Y-85331430D01*
X159814830Y-85513422D01*
X159809585Y-85523716D01*
X159729844Y-85723586D01*
X159726563Y-85734664D01*
X159684582Y-85945718D01*
X159683374Y-85957208D01*
X159680557Y-86172380D01*
X159681464Y-86183898D01*
X159717906Y-86395979D01*
X159720896Y-86407139D01*
X159795377Y-86609028D01*
X159800351Y-86619457D01*
X159910376Y-86804392D01*
X159917167Y-86813738D01*
X160059051Y-86975526D01*
X160067432Y-86983479D01*
X160236424Y-87116701D01*
X160246113Y-87122994D01*
X160436554Y-87223189D01*
X160447228Y-87227610D01*
X160653132Y-87291546D01*
X160665258Y-87294041D01*
X160860893Y-87314603D01*
X160867483Y-87314948D01*
X161770475Y-87314948D01*
X161776242Y-87314684D01*
X161936002Y-87300004D01*
X161947362Y-87297898D01*
X162154472Y-87239487D01*
X162165259Y-87235347D01*
X162358256Y-87140171D01*
X162368107Y-87134134D01*
X162540528Y-87005381D01*
X162549113Y-86997650D01*
X162584696Y-86959157D01*
X162599051Y-86975526D01*
X162607432Y-86983479D01*
X162776424Y-87116701D01*
X162786113Y-87122994D01*
X162976554Y-87223189D01*
X162987228Y-87227610D01*
X163193132Y-87291546D01*
X163205258Y-87294041D01*
X163400893Y-87314603D01*
X163407483Y-87314948D01*
X164310475Y-87314948D01*
X164316242Y-87314684D01*
X164476002Y-87300004D01*
X164487362Y-87297898D01*
X164694472Y-87239487D01*
X164705259Y-87235347D01*
X164898256Y-87140171D01*
X164908107Y-87134134D01*
X165080528Y-87005381D01*
X165089113Y-86997650D01*
X165228000Y-86847405D01*
X165228000Y-87857702D01*
X165112825Y-87726370D01*
X165104444Y-87718417D01*
X164935452Y-87585195D01*
X164925763Y-87578902D01*
X164735322Y-87478707D01*
X164724648Y-87474286D01*
X164518744Y-87410350D01*
X164506618Y-87407855D01*
X164310983Y-87387293D01*
X164304393Y-87386948D01*
X163401401Y-87386948D01*
X163395634Y-87387212D01*
X163235874Y-87401892D01*
X163224514Y-87403998D01*
X163017404Y-87462409D01*
X163006617Y-87466549D01*
X162813620Y-87561725D01*
X162803769Y-87567762D01*
X162631348Y-87696515D01*
X162622763Y-87704246D01*
X162587180Y-87742739D01*
X162572825Y-87726370D01*
X162564444Y-87718417D01*
X162395452Y-87585195D01*
X162385763Y-87578902D01*
X162195322Y-87478707D01*
X162184648Y-87474286D01*
X161978744Y-87410350D01*
X161966618Y-87407855D01*
X161770983Y-87387293D01*
X161764393Y-87386948D01*
X160861401Y-87386948D01*
X160855634Y-87387212D01*
X160695874Y-87401892D01*
X160684514Y-87403998D01*
X160477404Y-87462409D01*
X160466617Y-87466549D01*
X160273620Y-87561725D01*
X160263769Y-87567762D01*
X160091348Y-87696515D01*
X160082763Y-87704246D01*
X159936691Y-87862264D01*
X159929658Y-87871430D01*
X159814830Y-88053422D01*
X159809585Y-88063716D01*
X159729844Y-88263586D01*
X159726563Y-88274664D01*
X159684582Y-88485718D01*
X159683374Y-88497208D01*
X159680557Y-88712380D01*
X159681464Y-88723898D01*
X159717906Y-88935979D01*
X159720896Y-88947139D01*
X159795377Y-89149028D01*
X159800351Y-89159457D01*
X159910376Y-89344392D01*
X159917167Y-89353738D01*
X160059051Y-89515526D01*
X160067432Y-89523479D01*
X160236424Y-89656701D01*
X160246113Y-89662994D01*
X160436554Y-89763189D01*
X160447228Y-89767610D01*
X160653132Y-89831546D01*
X160665258Y-89834041D01*
X160860893Y-89854603D01*
X160867483Y-89854948D01*
X161770475Y-89854948D01*
X161776242Y-89854684D01*
X161936002Y-89840004D01*
X161947362Y-89837898D01*
X162154472Y-89779487D01*
X162165259Y-89775347D01*
X162358256Y-89680171D01*
X162368107Y-89674134D01*
X162540528Y-89545381D01*
X162549113Y-89537650D01*
X162584696Y-89499157D01*
X162599051Y-89515526D01*
X162607432Y-89523479D01*
X162776424Y-89656701D01*
X162786113Y-89662994D01*
X162976554Y-89763189D01*
X162987228Y-89767610D01*
X163193132Y-89831546D01*
X163205258Y-89834041D01*
X163400893Y-89854603D01*
X163407483Y-89854948D01*
X164310475Y-89854948D01*
X164316242Y-89854684D01*
X164476002Y-89840004D01*
X164487362Y-89837898D01*
X164694472Y-89779487D01*
X164705259Y-89775347D01*
X164898256Y-89680171D01*
X164908107Y-89674134D01*
X165080528Y-89545381D01*
X165089113Y-89537650D01*
X165228000Y-89387405D01*
X165228000Y-89834438D01*
X165227145Y-89841403D01*
X165227099Y-89841784D01*
X165215269Y-89943250D01*
X165205910Y-89969036D01*
X165190869Y-89991977D01*
X165170953Y-90010843D01*
X165147228Y-90024624D01*
X165112601Y-90035111D01*
X165038712Y-90041705D01*
X165029861Y-90043135D01*
X165026187Y-90044000D01*
X129621562Y-90044000D01*
X129614597Y-90043145D01*
X129614216Y-90043099D01*
X129512750Y-90031269D01*
X129486964Y-90021910D01*
X129464023Y-90006869D01*
X129445157Y-89986953D01*
X129431376Y-89963228D01*
X129420889Y-89928601D01*
X129414295Y-89854712D01*
X129412865Y-89845861D01*
X129412000Y-89842187D01*
X129412000Y-88099837D01*
X129803681Y-88099837D01*
X129822675Y-88223963D01*
X129825072Y-88234022D01*
X129897660Y-88456110D01*
X129901668Y-88465644D01*
X130009555Y-88672893D01*
X130015066Y-88681644D01*
X130155354Y-88868490D01*
X130162221Y-88876224D01*
X130331141Y-89037647D01*
X130339178Y-89044155D01*
X130532195Y-89175823D01*
X130541187Y-89180932D01*
X130753118Y-89279306D01*
X130762823Y-89282877D01*
X130988346Y-89345420D01*
X130999275Y-89347436D01*
X131213864Y-89367720D01*
X131219796Y-89368000D01*
X131370191Y-89368000D01*
X131444000Y-89294191D01*
X131699999Y-89294191D01*
X131773808Y-89368000D01*
X131931193Y-89368000D01*
X131936357Y-89367788D01*
X132110035Y-89353510D01*
X132120238Y-89351821D01*
X132346848Y-89294899D01*
X132356637Y-89291566D01*
X132570907Y-89198400D01*
X132580021Y-89193513D01*
X132776198Y-89066600D01*
X132784392Y-89060290D01*
X132957206Y-88903041D01*
X132964259Y-88895478D01*
X133109070Y-88712115D01*
X133114793Y-88703501D01*
X133227711Y-88498950D01*
X133231951Y-88489517D01*
X133309945Y-88269270D01*
X133312587Y-88259271D01*
X133340568Y-88102186D01*
X133265027Y-88012000D01*
X131773809Y-88011999D01*
X131700000Y-88085808D01*
X131699999Y-89294191D01*
X131444000Y-89294191D01*
X131444001Y-88085809D01*
X131370192Y-88012000D01*
X129879100Y-88011999D01*
X129803681Y-88099837D01*
X129412000Y-88099837D01*
X129412000Y-82902685D01*
X129786611Y-82902685D01*
X129787333Y-82913002D01*
X129822675Y-83143962D01*
X129825072Y-83154022D01*
X129897660Y-83376110D01*
X129901668Y-83385644D01*
X130009555Y-83592893D01*
X130015066Y-83601644D01*
X130155354Y-83788490D01*
X130162221Y-83796224D01*
X130331141Y-83957647D01*
X130339178Y-83964155D01*
X130501517Y-84074896D01*
X130367802Y-84161400D01*
X130359608Y-84167710D01*
X130186794Y-84324959D01*
X130179741Y-84332522D01*
X130034930Y-84515885D01*
X130029207Y-84524499D01*
X129916289Y-84729050D01*
X129912049Y-84738483D01*
X129834055Y-84958731D01*
X129831413Y-84968729D01*
X129790440Y-85198758D01*
X129789467Y-85209053D01*
X129786611Y-85442685D01*
X129787333Y-85453002D01*
X129822675Y-85683962D01*
X129825072Y-85694022D01*
X129897660Y-85916110D01*
X129901668Y-85925644D01*
X130009555Y-86132893D01*
X130015066Y-86141644D01*
X130155354Y-86328490D01*
X130162221Y-86336224D01*
X130331141Y-86497647D01*
X130339178Y-86504155D01*
X130501517Y-86614896D01*
X130367802Y-86701400D01*
X130359608Y-86707710D01*
X130186794Y-86864959D01*
X130179741Y-86872522D01*
X130034930Y-87055885D01*
X130029207Y-87064499D01*
X129916289Y-87269050D01*
X129912049Y-87278483D01*
X129834055Y-87498730D01*
X129831413Y-87508729D01*
X129803432Y-87665814D01*
X129878973Y-87756000D01*
X131370192Y-87756001D01*
X131370193Y-87756000D01*
X133264900Y-87756001D01*
X133340319Y-87668163D01*
X133328602Y-87591595D01*
X134282739Y-88545732D01*
X134280557Y-88712380D01*
X134281464Y-88723898D01*
X134317906Y-88935979D01*
X134320896Y-88947139D01*
X134395377Y-89149028D01*
X134400351Y-89159457D01*
X134510376Y-89344392D01*
X134517167Y-89353738D01*
X134659051Y-89515526D01*
X134667432Y-89523479D01*
X134836424Y-89656701D01*
X134846113Y-89662994D01*
X135036554Y-89763189D01*
X135047228Y-89767610D01*
X135253132Y-89831546D01*
X135265258Y-89834041D01*
X135460893Y-89854603D01*
X135467483Y-89854948D01*
X136370475Y-89854948D01*
X136376242Y-89854684D01*
X136536002Y-89840004D01*
X136547362Y-89837898D01*
X136754472Y-89779487D01*
X136765259Y-89775347D01*
X136958256Y-89680171D01*
X136968107Y-89674134D01*
X137140528Y-89545381D01*
X137149113Y-89537650D01*
X137184696Y-89499157D01*
X137199051Y-89515526D01*
X137207432Y-89523479D01*
X137376424Y-89656701D01*
X137386113Y-89662994D01*
X137576554Y-89763189D01*
X137587228Y-89767610D01*
X137793132Y-89831546D01*
X137805258Y-89834041D01*
X138000893Y-89854603D01*
X138007483Y-89854948D01*
X138910475Y-89854948D01*
X138916242Y-89854684D01*
X139076002Y-89840004D01*
X139087362Y-89837898D01*
X139294472Y-89779487D01*
X139305259Y-89775347D01*
X139498256Y-89680171D01*
X139508107Y-89674134D01*
X139680528Y-89545381D01*
X139689113Y-89537650D01*
X139835185Y-89379632D01*
X139842218Y-89370466D01*
X139957046Y-89188474D01*
X139962291Y-89178180D01*
X140042032Y-88978310D01*
X140045313Y-88967232D01*
X140087294Y-88756178D01*
X140088502Y-88744688D01*
X140091319Y-88529516D01*
X140090412Y-88517998D01*
X140053970Y-88305917D01*
X140050980Y-88294757D01*
X139976499Y-88092868D01*
X139971525Y-88082439D01*
X139861500Y-87897504D01*
X139854709Y-87888158D01*
X139712825Y-87726370D01*
X139704444Y-87718417D01*
X139535452Y-87585195D01*
X139525763Y-87578902D01*
X139335322Y-87478707D01*
X139324648Y-87474286D01*
X139118744Y-87410350D01*
X139106618Y-87407855D01*
X138910983Y-87387293D01*
X138904393Y-87386948D01*
X138001401Y-87386948D01*
X137995634Y-87387212D01*
X137835874Y-87401892D01*
X137824514Y-87403998D01*
X137617404Y-87462409D01*
X137606617Y-87466549D01*
X137413620Y-87561725D01*
X137403769Y-87567762D01*
X137231348Y-87696515D01*
X137222763Y-87704246D01*
X137187180Y-87742739D01*
X137172825Y-87726370D01*
X137164444Y-87718417D01*
X136995452Y-87585195D01*
X136985763Y-87578902D01*
X136795322Y-87478707D01*
X136784648Y-87474286D01*
X136578744Y-87410350D01*
X136566618Y-87407855D01*
X136370983Y-87387293D01*
X136364393Y-87386948D01*
X135629940Y-87386948D01*
X135557940Y-87314948D01*
X136370475Y-87314948D01*
X136376242Y-87314684D01*
X136536002Y-87300004D01*
X136547362Y-87297898D01*
X136754472Y-87239487D01*
X136765259Y-87235347D01*
X136958256Y-87140171D01*
X136968107Y-87134134D01*
X137140528Y-87005381D01*
X137149113Y-86997650D01*
X137184696Y-86959157D01*
X137199051Y-86975526D01*
X137207432Y-86983479D01*
X137376424Y-87116701D01*
X137386113Y-87122994D01*
X137576554Y-87223189D01*
X137587228Y-87227610D01*
X137793132Y-87291546D01*
X137805258Y-87294041D01*
X138000893Y-87314603D01*
X138007483Y-87314948D01*
X138910475Y-87314948D01*
X138916242Y-87314684D01*
X139076002Y-87300004D01*
X139087362Y-87297898D01*
X139294472Y-87239487D01*
X139305259Y-87235347D01*
X139498256Y-87140171D01*
X139508107Y-87134134D01*
X139680528Y-87005381D01*
X139689113Y-86997650D01*
X139835185Y-86839632D01*
X139842218Y-86830466D01*
X139957046Y-86648474D01*
X139962291Y-86638180D01*
X140042032Y-86438310D01*
X140045313Y-86427232D01*
X140087294Y-86216178D01*
X140088502Y-86204688D01*
X140091319Y-85989516D01*
X140090412Y-85977998D01*
X140053970Y-85765917D01*
X140050980Y-85754757D01*
X139976499Y-85552868D01*
X139971525Y-85542439D01*
X139861500Y-85357504D01*
X139854709Y-85348158D01*
X139712825Y-85186370D01*
X139704444Y-85178417D01*
X139535452Y-85045195D01*
X139525763Y-85038902D01*
X139335322Y-84938707D01*
X139324648Y-84934286D01*
X139118744Y-84870350D01*
X139106618Y-84867855D01*
X138910983Y-84847293D01*
X138904393Y-84846948D01*
X138651707Y-84846948D01*
X138579707Y-84774948D01*
X138910475Y-84774948D01*
X138916242Y-84774684D01*
X139076002Y-84760004D01*
X139087362Y-84757898D01*
X139294472Y-84699487D01*
X139305259Y-84695347D01*
X139498256Y-84600171D01*
X139508107Y-84594134D01*
X139680528Y-84465381D01*
X139689113Y-84457650D01*
X139835185Y-84299632D01*
X139842218Y-84290466D01*
X139957046Y-84108474D01*
X139962291Y-84098180D01*
X140042032Y-83898310D01*
X140045313Y-83887232D01*
X140070406Y-83761081D01*
X139994795Y-83668948D01*
X138657746Y-83668947D01*
X138657745Y-83668948D01*
X138327938Y-83668947D01*
X138327938Y-83339139D01*
X138583937Y-83339139D01*
X138657746Y-83412948D01*
X139995197Y-83412949D01*
X140070711Y-83323353D01*
X140053970Y-83225918D01*
X140050980Y-83214757D01*
X139976499Y-83012868D01*
X139971525Y-83002439D01*
X139861500Y-82817504D01*
X139854709Y-82808158D01*
X139712825Y-82646370D01*
X139704444Y-82638417D01*
X139535452Y-82505195D01*
X139525763Y-82498902D01*
X139335322Y-82398707D01*
X139324648Y-82394286D01*
X139118744Y-82330350D01*
X139106618Y-82327855D01*
X138910983Y-82307293D01*
X138904393Y-82306948D01*
X138657747Y-82306948D01*
X138583938Y-82380757D01*
X138583937Y-83339139D01*
X138327938Y-83339139D01*
X138327939Y-82380757D01*
X138254130Y-82306948D01*
X138001401Y-82306948D01*
X137995634Y-82307212D01*
X137835874Y-82321892D01*
X137824514Y-82323998D01*
X137617404Y-82382409D01*
X137606617Y-82386549D01*
X137413620Y-82481725D01*
X137403769Y-82487762D01*
X137231348Y-82616515D01*
X137222763Y-82624246D01*
X137187180Y-82662739D01*
X137172825Y-82646370D01*
X137164444Y-82638417D01*
X136995452Y-82505195D01*
X136985763Y-82498902D01*
X136795322Y-82398707D01*
X136784648Y-82394286D01*
X136578744Y-82330350D01*
X136566618Y-82327855D01*
X136370983Y-82307293D01*
X136364393Y-82306948D01*
X135461401Y-82306948D01*
X135455634Y-82307212D01*
X135295874Y-82321892D01*
X135284514Y-82323998D01*
X135077404Y-82382409D01*
X135066617Y-82386549D01*
X134873620Y-82481725D01*
X134863769Y-82487762D01*
X134691348Y-82616515D01*
X134682763Y-82624246D01*
X134536691Y-82782264D01*
X134529658Y-82791430D01*
X134414830Y-82973422D01*
X134409585Y-82983716D01*
X134329844Y-83183586D01*
X134326563Y-83194664D01*
X134284582Y-83405718D01*
X134283374Y-83417208D01*
X134280557Y-83632380D01*
X134281464Y-83643898D01*
X134317906Y-83855979D01*
X134320896Y-83867139D01*
X134331152Y-83894938D01*
X134092708Y-83894938D01*
X133322332Y-83124563D01*
X133353560Y-82949242D01*
X133354533Y-82938947D01*
X133357389Y-82705315D01*
X133356667Y-82694998D01*
X133321325Y-82464038D01*
X133318928Y-82453978D01*
X133246340Y-82231890D01*
X133242332Y-82222356D01*
X133134445Y-82015107D01*
X133128934Y-82006356D01*
X132988646Y-81819510D01*
X132981779Y-81811776D01*
X132812859Y-81650353D01*
X132804822Y-81643845D01*
X132611805Y-81512177D01*
X132602813Y-81507068D01*
X132390882Y-81408694D01*
X132381177Y-81405123D01*
X132155654Y-81342580D01*
X132144725Y-81340564D01*
X131930136Y-81320280D01*
X131924204Y-81320000D01*
X131212807Y-81320000D01*
X131207643Y-81320212D01*
X131033965Y-81334490D01*
X131023762Y-81336179D01*
X130797152Y-81393101D01*
X130787363Y-81396434D01*
X130573093Y-81489600D01*
X130563979Y-81494487D01*
X130367802Y-81621400D01*
X130359608Y-81627710D01*
X130186794Y-81784959D01*
X130179741Y-81792522D01*
X130034930Y-81975885D01*
X130029207Y-81984499D01*
X129916289Y-82189050D01*
X129912049Y-82198483D01*
X129834055Y-82418731D01*
X129831413Y-82428729D01*
X129790440Y-82658758D01*
X129789467Y-82669053D01*
X129786611Y-82902685D01*
X129412000Y-82902685D01*
X129412000Y-81092380D01*
X134280557Y-81092380D01*
X134281464Y-81103898D01*
X134317906Y-81315979D01*
X134320896Y-81327139D01*
X134395377Y-81529028D01*
X134400351Y-81539457D01*
X134510376Y-81724392D01*
X134517167Y-81733738D01*
X134659051Y-81895526D01*
X134667432Y-81903479D01*
X134836424Y-82036701D01*
X134846113Y-82042994D01*
X135036554Y-82143189D01*
X135047228Y-82147610D01*
X135253132Y-82211546D01*
X135265258Y-82214041D01*
X135460893Y-82234603D01*
X135467483Y-82234948D01*
X136370475Y-82234948D01*
X136376242Y-82234684D01*
X136536002Y-82220004D01*
X136547362Y-82217898D01*
X136754472Y-82159487D01*
X136765259Y-82155347D01*
X136958256Y-82060171D01*
X136968107Y-82054134D01*
X137140528Y-81925381D01*
X137149113Y-81917650D01*
X137184696Y-81879157D01*
X137199051Y-81895526D01*
X137207432Y-81903479D01*
X137376424Y-82036701D01*
X137386113Y-82042994D01*
X137576554Y-82143189D01*
X137587228Y-82147610D01*
X137793132Y-82211546D01*
X137805258Y-82214041D01*
X138000893Y-82234603D01*
X138007483Y-82234948D01*
X138910475Y-82234948D01*
X138916242Y-82234684D01*
X139076002Y-82220004D01*
X139087362Y-82217898D01*
X139294472Y-82159487D01*
X139305259Y-82155347D01*
X139498256Y-82060171D01*
X139508107Y-82054134D01*
X139680528Y-81925381D01*
X139689113Y-81917650D01*
X139835185Y-81759632D01*
X139842218Y-81750466D01*
X139957046Y-81568474D01*
X139962291Y-81558180D01*
X140042032Y-81358310D01*
X140045313Y-81347232D01*
X140087294Y-81136178D01*
X140088502Y-81124688D01*
X140091319Y-80909516D01*
X140090412Y-80897998D01*
X140067223Y-80763043D01*
X145831109Y-80763043D01*
X145849188Y-81003497D01*
X145850885Y-81014034D01*
X145909221Y-81248005D01*
X145912669Y-81258104D01*
X146009591Y-81478900D01*
X146014692Y-81488275D01*
X146147430Y-81689584D01*
X146154038Y-81697965D01*
X146318798Y-81874032D01*
X146326722Y-81881180D01*
X146518792Y-82026968D01*
X146527808Y-82032679D01*
X146741696Y-82144021D01*
X146751545Y-82148131D01*
X146981134Y-82221844D01*
X146991535Y-82224236D01*
X147230262Y-82258212D01*
X147240917Y-82258817D01*
X147481956Y-82252084D01*
X147492561Y-82250885D01*
X147729019Y-82203636D01*
X147739270Y-82200667D01*
X147964387Y-82114253D01*
X147973991Y-82109600D01*
X148181330Y-81986491D01*
X148190012Y-81980286D01*
X148373645Y-81824004D01*
X148381158Y-81816424D01*
X148535833Y-81631435D01*
X148541962Y-81622698D01*
X148589486Y-81541043D01*
X148687430Y-81689584D01*
X148694038Y-81697965D01*
X148858798Y-81874032D01*
X148866722Y-81881180D01*
X149058792Y-82026968D01*
X149067808Y-82032679D01*
X149281696Y-82144021D01*
X149291545Y-82148131D01*
X149521134Y-82221845D01*
X149531535Y-82224236D01*
X149645162Y-82240407D01*
X149732000Y-82165052D01*
X149732001Y-80973808D01*
X149732000Y-80973807D01*
X149732000Y-80570192D01*
X149987999Y-80570192D01*
X149988000Y-80570193D01*
X149987999Y-82165748D01*
X150080217Y-82241362D01*
X150269019Y-82203636D01*
X150279270Y-82200667D01*
X150504387Y-82114253D01*
X150513991Y-82109600D01*
X150721330Y-81986491D01*
X150730012Y-81980286D01*
X150913645Y-81824004D01*
X150921158Y-81816424D01*
X151075833Y-81631435D01*
X151081962Y-81622698D01*
X151129486Y-81541043D01*
X151227430Y-81689584D01*
X151234038Y-81697965D01*
X151398798Y-81874032D01*
X151406722Y-81881180D01*
X151598792Y-82026968D01*
X151607808Y-82032679D01*
X151821696Y-82144021D01*
X151831545Y-82148131D01*
X152061134Y-82221844D01*
X152071535Y-82224236D01*
X152310262Y-82258212D01*
X152320917Y-82258817D01*
X152561956Y-82252084D01*
X152572561Y-82250885D01*
X152809019Y-82203636D01*
X152819270Y-82200667D01*
X153044387Y-82114253D01*
X153053991Y-82109600D01*
X153261330Y-81986491D01*
X153270012Y-81980286D01*
X153453645Y-81824004D01*
X153461158Y-81816424D01*
X153615833Y-81631435D01*
X153621962Y-81622698D01*
X153743256Y-81414294D01*
X153747825Y-81404650D01*
X153832272Y-81178787D01*
X153835151Y-81168511D01*
X153880392Y-80931351D01*
X153881507Y-80920128D01*
X153884077Y-80652341D01*
X153883178Y-80641099D01*
X153842499Y-80403114D01*
X153839817Y-80392784D01*
X153759723Y-80165343D01*
X153755339Y-80155612D01*
X153638067Y-79944916D01*
X153632107Y-79936064D01*
X153481013Y-79748140D01*
X153473647Y-79740417D01*
X153293049Y-79580638D01*
X153284486Y-79574267D01*
X153079549Y-79447202D01*
X153070036Y-79442365D01*
X152846619Y-79351645D01*
X152836427Y-79348480D01*
X152600919Y-79296700D01*
X152590340Y-79295298D01*
X152349475Y-79283939D01*
X152338809Y-79284339D01*
X152099474Y-79313727D01*
X152089030Y-79315918D01*
X151858068Y-79385210D01*
X151848142Y-79389130D01*
X151632155Y-79496346D01*
X151623032Y-79501882D01*
X151428199Y-79643957D01*
X151420138Y-79650952D01*
X151252029Y-79823822D01*
X151245263Y-79832074D01*
X151129229Y-80000903D01*
X151098067Y-79944916D01*
X151092107Y-79936064D01*
X150941013Y-79748140D01*
X150933647Y-79740417D01*
X150753049Y-79580638D01*
X150744486Y-79574267D01*
X150539549Y-79447202D01*
X150530036Y-79442365D01*
X150306619Y-79351645D01*
X150296427Y-79348480D01*
X150082096Y-79301356D01*
X149988000Y-79377011D01*
X149987999Y-80570192D01*
X149732000Y-80570192D01*
X149732001Y-79378201D01*
X149646981Y-79302982D01*
X149559474Y-79313726D01*
X149549030Y-79315918D01*
X149318068Y-79385210D01*
X149308142Y-79389130D01*
X149092155Y-79496346D01*
X149083032Y-79501882D01*
X148888199Y-79643957D01*
X148880138Y-79650952D01*
X148712029Y-79823822D01*
X148705263Y-79832074D01*
X148589229Y-80000903D01*
X148558067Y-79944916D01*
X148552107Y-79936064D01*
X148401013Y-79748140D01*
X148393647Y-79740417D01*
X148213049Y-79580638D01*
X148204486Y-79574267D01*
X147999549Y-79447202D01*
X147990036Y-79442365D01*
X147766619Y-79351645D01*
X147756427Y-79348480D01*
X147520919Y-79296700D01*
X147510340Y-79295298D01*
X147269475Y-79283939D01*
X147258809Y-79284339D01*
X147019474Y-79313727D01*
X147009030Y-79315918D01*
X146778068Y-79385210D01*
X146768142Y-79389130D01*
X146552155Y-79496346D01*
X146543032Y-79501882D01*
X146348199Y-79643957D01*
X146340138Y-79650952D01*
X146172029Y-79823822D01*
X146165263Y-79832074D01*
X146028683Y-80030798D01*
X146023403Y-80040073D01*
X145922260Y-80258968D01*
X145918618Y-80269000D01*
X145855802Y-80501807D01*
X145853903Y-80512309D01*
X145831211Y-80752372D01*
X145831109Y-80763043D01*
X140067223Y-80763043D01*
X140053970Y-80685917D01*
X140050980Y-80674757D01*
X139976499Y-80472868D01*
X139971525Y-80462439D01*
X139861500Y-80277504D01*
X139854709Y-80268158D01*
X139712825Y-80106370D01*
X139704444Y-80098417D01*
X139535452Y-79965195D01*
X139525763Y-79958902D01*
X139335322Y-79858707D01*
X139324648Y-79854286D01*
X139118744Y-79790350D01*
X139106618Y-79787855D01*
X138910983Y-79767293D01*
X138904393Y-79766948D01*
X138001401Y-79766948D01*
X137995634Y-79767212D01*
X137835874Y-79781892D01*
X137824514Y-79783998D01*
X137617404Y-79842409D01*
X137606617Y-79846549D01*
X137413620Y-79941725D01*
X137403769Y-79947762D01*
X137231348Y-80076515D01*
X137222763Y-80084246D01*
X137187180Y-80122739D01*
X137172825Y-80106370D01*
X137164444Y-80098417D01*
X136995452Y-79965195D01*
X136985763Y-79958902D01*
X136795322Y-79858707D01*
X136784648Y-79854286D01*
X136578744Y-79790350D01*
X136566618Y-79787855D01*
X136370983Y-79767293D01*
X136364393Y-79766948D01*
X135461401Y-79766948D01*
X135455634Y-79767212D01*
X135295874Y-79781892D01*
X135284514Y-79783998D01*
X135077404Y-79842409D01*
X135066617Y-79846549D01*
X134873620Y-79941725D01*
X134863769Y-79947762D01*
X134691348Y-80076515D01*
X134682763Y-80084246D01*
X134536691Y-80242264D01*
X134529658Y-80251430D01*
X134414830Y-80433422D01*
X134409585Y-80443716D01*
X134329844Y-80643586D01*
X134326563Y-80654664D01*
X134284582Y-80865718D01*
X134283374Y-80877208D01*
X134280557Y-81092380D01*
X129412000Y-81092380D01*
X129412000Y-78552380D01*
X134280557Y-78552380D01*
X134281464Y-78563898D01*
X134317906Y-78775979D01*
X134320896Y-78787139D01*
X134395377Y-78989028D01*
X134400351Y-78999457D01*
X134510376Y-79184392D01*
X134517167Y-79193738D01*
X134659051Y-79355526D01*
X134667432Y-79363479D01*
X134836424Y-79496701D01*
X134846113Y-79502994D01*
X135036554Y-79603189D01*
X135047228Y-79607610D01*
X135253132Y-79671546D01*
X135265258Y-79674041D01*
X135460893Y-79694603D01*
X135467483Y-79694948D01*
X136370475Y-79694948D01*
X136376242Y-79694684D01*
X136536002Y-79680004D01*
X136547362Y-79677898D01*
X136754472Y-79619487D01*
X136765259Y-79615347D01*
X136958256Y-79520171D01*
X136968107Y-79514134D01*
X137140528Y-79385381D01*
X137149113Y-79377650D01*
X137184696Y-79339157D01*
X137199051Y-79355526D01*
X137207432Y-79363479D01*
X137376424Y-79496701D01*
X137386113Y-79502994D01*
X137576554Y-79603189D01*
X137587228Y-79607610D01*
X137793132Y-79671546D01*
X137805258Y-79674041D01*
X138000893Y-79694603D01*
X138007483Y-79694948D01*
X138910475Y-79694948D01*
X138916242Y-79694684D01*
X139076002Y-79680004D01*
X139087362Y-79677898D01*
X139294472Y-79619487D01*
X139305259Y-79615347D01*
X139498256Y-79520171D01*
X139508107Y-79514134D01*
X139680528Y-79385381D01*
X139689113Y-79377650D01*
X139835185Y-79219632D01*
X139842218Y-79210466D01*
X139957046Y-79028474D01*
X139962291Y-79018180D01*
X140042032Y-78818310D01*
X140045313Y-78807232D01*
X140087294Y-78596178D01*
X140088502Y-78584688D01*
X140091319Y-78369516D01*
X140090412Y-78357998D01*
X140053970Y-78145917D01*
X140050980Y-78134757D01*
X139976499Y-77932868D01*
X139971525Y-77922439D01*
X139861500Y-77737504D01*
X139854709Y-77728158D01*
X139712825Y-77566370D01*
X139704444Y-77558417D01*
X139535452Y-77425195D01*
X139525763Y-77418902D01*
X139335322Y-77318707D01*
X139324648Y-77314286D01*
X139118744Y-77250350D01*
X139106618Y-77247855D01*
X138910983Y-77227293D01*
X138904393Y-77226948D01*
X138001401Y-77226948D01*
X137995634Y-77227212D01*
X137835874Y-77241892D01*
X137824514Y-77243998D01*
X137617404Y-77302409D01*
X137606617Y-77306549D01*
X137413620Y-77401725D01*
X137403769Y-77407762D01*
X137231348Y-77536515D01*
X137222763Y-77544246D01*
X137187180Y-77582739D01*
X137172825Y-77566370D01*
X137164444Y-77558417D01*
X136995452Y-77425195D01*
X136985763Y-77418902D01*
X136795322Y-77318707D01*
X136784648Y-77314286D01*
X136578744Y-77250350D01*
X136566618Y-77247855D01*
X136370983Y-77227293D01*
X136364393Y-77226948D01*
X135461401Y-77226948D01*
X135455634Y-77227212D01*
X135295874Y-77241892D01*
X135284514Y-77243998D01*
X135077404Y-77302409D01*
X135066617Y-77306549D01*
X134873620Y-77401725D01*
X134863769Y-77407762D01*
X134691348Y-77536515D01*
X134682763Y-77544246D01*
X134536691Y-77702264D01*
X134529658Y-77711430D01*
X134414830Y-77893422D01*
X134409585Y-77903716D01*
X134329844Y-78103586D01*
X134326563Y-78114664D01*
X134284582Y-78325718D01*
X134283374Y-78337208D01*
X134280557Y-78552380D01*
X129412000Y-78552380D01*
X129412000Y-76012380D01*
X134280557Y-76012380D01*
X134281464Y-76023898D01*
X134317906Y-76235979D01*
X134320896Y-76247139D01*
X134395377Y-76449028D01*
X134400351Y-76459457D01*
X134510376Y-76644392D01*
X134517167Y-76653738D01*
X134659051Y-76815526D01*
X134667432Y-76823479D01*
X134836424Y-76956701D01*
X134846113Y-76962994D01*
X135036554Y-77063189D01*
X135047228Y-77067610D01*
X135253132Y-77131546D01*
X135265258Y-77134041D01*
X135460893Y-77154603D01*
X135467483Y-77154948D01*
X136370475Y-77154948D01*
X136376242Y-77154684D01*
X136536002Y-77140004D01*
X136547362Y-77137898D01*
X136754472Y-77079487D01*
X136765259Y-77075347D01*
X136958256Y-76980171D01*
X136968107Y-76974134D01*
X137140528Y-76845381D01*
X137149113Y-76837650D01*
X137184696Y-76799157D01*
X137199051Y-76815526D01*
X137207432Y-76823479D01*
X137376424Y-76956701D01*
X137386113Y-76962994D01*
X137576554Y-77063189D01*
X137587228Y-77067610D01*
X137793132Y-77131546D01*
X137805258Y-77134041D01*
X138000893Y-77154603D01*
X138007483Y-77154948D01*
X138910475Y-77154948D01*
X138916242Y-77154684D01*
X139076002Y-77140004D01*
X139087362Y-77137898D01*
X139294472Y-77079487D01*
X139305259Y-77075347D01*
X139498256Y-76980171D01*
X139508107Y-76974134D01*
X139680528Y-76845381D01*
X139689113Y-76837650D01*
X139835185Y-76679632D01*
X139842218Y-76670466D01*
X139957046Y-76488474D01*
X139962291Y-76478180D01*
X140042032Y-76278310D01*
X140045313Y-76267232D01*
X140074934Y-76118314D01*
X148426000Y-76118314D01*
X148426000Y-76358186D01*
X148426959Y-76369147D01*
X148468613Y-76605376D01*
X148471460Y-76616003D01*
X148553502Y-76841410D01*
X148558152Y-76851382D01*
X148678088Y-77059118D01*
X148684399Y-77068131D01*
X148838587Y-77251884D01*
X148846366Y-77259663D01*
X149030119Y-77413851D01*
X149039132Y-77420162D01*
X149246868Y-77540098D01*
X149256840Y-77544748D01*
X149482247Y-77626790D01*
X149492874Y-77629637D01*
X149729103Y-77671291D01*
X149740064Y-77672250D01*
X149979936Y-77672250D01*
X149990897Y-77671291D01*
X150227126Y-77629637D01*
X150237753Y-77626790D01*
X150463160Y-77544748D01*
X150473132Y-77540098D01*
X150680868Y-77420162D01*
X150689881Y-77413851D01*
X150873634Y-77259663D01*
X150881413Y-77251884D01*
X151035601Y-77068131D01*
X151041912Y-77059118D01*
X151130000Y-76906545D01*
X151218088Y-77059118D01*
X151224399Y-77068131D01*
X151378587Y-77251884D01*
X151386366Y-77259663D01*
X151570119Y-77413851D01*
X151579132Y-77420162D01*
X151786868Y-77540098D01*
X151796840Y-77544748D01*
X152022247Y-77626790D01*
X152032874Y-77629637D01*
X152269103Y-77671291D01*
X152280064Y-77672250D01*
X152519936Y-77672250D01*
X152530897Y-77671291D01*
X152767126Y-77629637D01*
X152777753Y-77626790D01*
X153003160Y-77544748D01*
X153013132Y-77540098D01*
X153220868Y-77420162D01*
X153229881Y-77413851D01*
X153413634Y-77259663D01*
X153421413Y-77251884D01*
X153575601Y-77068131D01*
X153581912Y-77059118D01*
X153670000Y-76906545D01*
X153758088Y-77059118D01*
X153764399Y-77068131D01*
X153918587Y-77251884D01*
X153926366Y-77259663D01*
X154110119Y-77413851D01*
X154119132Y-77420162D01*
X154326868Y-77540098D01*
X154336840Y-77544748D01*
X154562247Y-77626790D01*
X154572874Y-77629637D01*
X154809103Y-77671291D01*
X154820064Y-77672250D01*
X155059936Y-77672250D01*
X155070897Y-77671291D01*
X155307126Y-77629637D01*
X155317753Y-77626790D01*
X155543160Y-77544748D01*
X155553132Y-77540098D01*
X155760868Y-77420162D01*
X155769881Y-77413851D01*
X155953634Y-77259663D01*
X155961413Y-77251884D01*
X156115601Y-77068131D01*
X156121912Y-77059118D01*
X156210000Y-76906545D01*
X156298088Y-77059118D01*
X156304399Y-77068131D01*
X156458587Y-77251884D01*
X156466366Y-77259663D01*
X156650119Y-77413851D01*
X156659132Y-77420162D01*
X156866868Y-77540098D01*
X156876840Y-77544748D01*
X157102247Y-77626790D01*
X157112874Y-77629637D01*
X157349103Y-77671291D01*
X157360064Y-77672250D01*
X157599936Y-77672250D01*
X157610897Y-77671291D01*
X157847126Y-77629637D01*
X157857753Y-77626790D01*
X158083160Y-77544748D01*
X158093132Y-77540098D01*
X158300868Y-77420162D01*
X158309881Y-77413851D01*
X158493634Y-77259663D01*
X158501413Y-77251884D01*
X158655601Y-77068131D01*
X158661912Y-77059118D01*
X158781848Y-76851382D01*
X158786498Y-76841410D01*
X158868540Y-76616003D01*
X158871387Y-76605376D01*
X158913041Y-76369147D01*
X158914000Y-76358186D01*
X158914000Y-76118314D01*
X158913041Y-76107353D01*
X158871387Y-75871124D01*
X158868540Y-75860497D01*
X158786498Y-75635090D01*
X158781848Y-75625118D01*
X158661912Y-75417382D01*
X158655601Y-75408369D01*
X158501413Y-75224616D01*
X158493634Y-75216837D01*
X158309881Y-75062649D01*
X158300868Y-75056338D01*
X158093132Y-74936402D01*
X158083160Y-74931752D01*
X157857753Y-74849710D01*
X157847126Y-74846863D01*
X157610897Y-74805209D01*
X157599936Y-74804250D01*
X157360064Y-74804250D01*
X157349103Y-74805209D01*
X157112874Y-74846863D01*
X157102247Y-74849710D01*
X156876840Y-74931752D01*
X156866868Y-74936402D01*
X156659132Y-75056338D01*
X156650119Y-75062649D01*
X156466366Y-75216837D01*
X156458587Y-75224616D01*
X156304399Y-75408369D01*
X156298088Y-75417382D01*
X156210000Y-75569955D01*
X156121912Y-75417382D01*
X156115601Y-75408369D01*
X155961413Y-75224616D01*
X155953634Y-75216837D01*
X155769881Y-75062649D01*
X155760868Y-75056338D01*
X155553132Y-74936402D01*
X155543160Y-74931752D01*
X155317753Y-74849710D01*
X155307126Y-74846863D01*
X155070897Y-74805209D01*
X155059936Y-74804250D01*
X154820064Y-74804250D01*
X154809103Y-74805209D01*
X154572874Y-74846863D01*
X154562247Y-74849710D01*
X154336840Y-74931752D01*
X154326868Y-74936402D01*
X154119132Y-75056338D01*
X154110119Y-75062649D01*
X153926366Y-75216837D01*
X153918587Y-75224616D01*
X153764399Y-75408369D01*
X153758088Y-75417382D01*
X153670000Y-75569955D01*
X153581912Y-75417382D01*
X153575601Y-75408369D01*
X153421413Y-75224616D01*
X153413634Y-75216837D01*
X153229881Y-75062649D01*
X153220868Y-75056338D01*
X153013132Y-74936402D01*
X153003160Y-74931752D01*
X152777753Y-74849710D01*
X152767126Y-74846863D01*
X152530897Y-74805209D01*
X152519936Y-74804250D01*
X152280064Y-74804250D01*
X152269103Y-74805209D01*
X152032874Y-74846863D01*
X152022247Y-74849710D01*
X151796840Y-74931752D01*
X151786868Y-74936402D01*
X151579132Y-75056338D01*
X151570119Y-75062649D01*
X151386366Y-75216837D01*
X151378587Y-75224616D01*
X151224399Y-75408369D01*
X151218088Y-75417382D01*
X151130000Y-75569955D01*
X151041912Y-75417382D01*
X151035601Y-75408369D01*
X150881413Y-75224616D01*
X150873634Y-75216837D01*
X150689881Y-75062649D01*
X150680868Y-75056338D01*
X150473132Y-74936402D01*
X150463160Y-74931752D01*
X150237753Y-74849710D01*
X150227126Y-74846863D01*
X149990897Y-74805209D01*
X149979936Y-74804250D01*
X149740064Y-74804250D01*
X149729103Y-74805209D01*
X149492874Y-74846863D01*
X149482247Y-74849710D01*
X149256840Y-74931752D01*
X149246868Y-74936402D01*
X149039132Y-75056338D01*
X149030119Y-75062649D01*
X148846366Y-75216837D01*
X148838587Y-75224616D01*
X148684399Y-75408369D01*
X148678088Y-75417382D01*
X148558152Y-75625118D01*
X148553502Y-75635090D01*
X148471460Y-75860497D01*
X148468613Y-75871124D01*
X148426959Y-76107353D01*
X148426000Y-76118314D01*
X140074934Y-76118314D01*
X140087294Y-76056178D01*
X140088502Y-76044688D01*
X140091319Y-75829516D01*
X140090412Y-75817998D01*
X140053970Y-75605917D01*
X140050980Y-75594757D01*
X139976499Y-75392868D01*
X139971525Y-75382439D01*
X139861500Y-75197504D01*
X139854709Y-75188158D01*
X139712825Y-75026370D01*
X139704444Y-75018417D01*
X139535452Y-74885195D01*
X139525763Y-74878902D01*
X139335322Y-74778707D01*
X139324648Y-74774286D01*
X139118744Y-74710350D01*
X139106618Y-74707855D01*
X138910983Y-74687293D01*
X138904393Y-74686948D01*
X138001401Y-74686948D01*
X137995634Y-74687212D01*
X137835874Y-74701892D01*
X137824514Y-74703998D01*
X137617404Y-74762409D01*
X137606617Y-74766549D01*
X137413620Y-74861725D01*
X137403769Y-74867762D01*
X137231348Y-74996515D01*
X137222763Y-75004246D01*
X137187180Y-75042739D01*
X137172825Y-75026370D01*
X137164444Y-75018417D01*
X136995452Y-74885195D01*
X136985763Y-74878902D01*
X136795322Y-74778707D01*
X136784648Y-74774286D01*
X136578744Y-74710350D01*
X136566618Y-74707855D01*
X136370983Y-74687293D01*
X136364393Y-74686948D01*
X135461401Y-74686948D01*
X135455634Y-74687212D01*
X135295874Y-74701892D01*
X135284514Y-74703998D01*
X135077404Y-74762409D01*
X135066617Y-74766549D01*
X134873620Y-74861725D01*
X134863769Y-74867762D01*
X134691348Y-74996515D01*
X134682763Y-75004246D01*
X134536691Y-75162264D01*
X134529658Y-75171430D01*
X134414830Y-75353422D01*
X134409585Y-75363716D01*
X134329844Y-75563586D01*
X134326563Y-75574664D01*
X134284582Y-75785718D01*
X134283374Y-75797208D01*
X134280557Y-76012380D01*
X129412000Y-76012380D01*
X129412000Y-73472380D01*
X134280557Y-73472380D01*
X134281464Y-73483898D01*
X134317906Y-73695979D01*
X134320896Y-73707139D01*
X134395377Y-73909028D01*
X134400351Y-73919457D01*
X134510376Y-74104392D01*
X134517167Y-74113738D01*
X134659051Y-74275526D01*
X134667432Y-74283479D01*
X134836424Y-74416701D01*
X134846113Y-74422994D01*
X135036554Y-74523189D01*
X135047228Y-74527610D01*
X135253132Y-74591546D01*
X135265258Y-74594041D01*
X135460893Y-74614603D01*
X135467483Y-74614948D01*
X136370475Y-74614948D01*
X136376242Y-74614684D01*
X136536002Y-74600004D01*
X136547362Y-74597898D01*
X136754472Y-74539487D01*
X136765259Y-74535347D01*
X136958256Y-74440171D01*
X136968107Y-74434134D01*
X137140528Y-74305381D01*
X137149113Y-74297650D01*
X137184696Y-74259157D01*
X137199051Y-74275526D01*
X137207432Y-74283479D01*
X137376424Y-74416701D01*
X137386113Y-74422994D01*
X137576554Y-74523189D01*
X137587228Y-74527610D01*
X137793132Y-74591546D01*
X137805258Y-74594041D01*
X138000893Y-74614603D01*
X138007483Y-74614948D01*
X138910475Y-74614948D01*
X138916242Y-74614684D01*
X139076002Y-74600004D01*
X139087362Y-74597898D01*
X139294472Y-74539487D01*
X139305259Y-74535347D01*
X139498256Y-74440171D01*
X139508107Y-74434134D01*
X139680528Y-74305381D01*
X139689113Y-74297650D01*
X139835185Y-74139632D01*
X139842218Y-74130466D01*
X139957046Y-73948474D01*
X139962291Y-73938180D01*
X140042032Y-73738310D01*
X140045313Y-73727232D01*
X140087294Y-73516178D01*
X140088502Y-73504688D01*
X140091319Y-73289516D01*
X140090412Y-73277998D01*
X140053970Y-73065917D01*
X140050980Y-73054757D01*
X139976499Y-72852868D01*
X139971525Y-72842439D01*
X139861500Y-72657504D01*
X139854709Y-72648158D01*
X139712825Y-72486370D01*
X139704444Y-72478417D01*
X139535452Y-72345195D01*
X139525763Y-72338902D01*
X139335322Y-72238707D01*
X139324648Y-72234286D01*
X139118744Y-72170350D01*
X139106618Y-72167855D01*
X138910983Y-72147293D01*
X138904393Y-72146948D01*
X138001401Y-72146948D01*
X137995634Y-72147212D01*
X137835874Y-72161892D01*
X137824514Y-72163998D01*
X137617404Y-72222409D01*
X137606617Y-72226549D01*
X137413620Y-72321725D01*
X137403769Y-72327762D01*
X137231348Y-72456515D01*
X137222763Y-72464246D01*
X137187180Y-72502739D01*
X137172825Y-72486370D01*
X137164444Y-72478417D01*
X136995452Y-72345195D01*
X136985763Y-72338902D01*
X136795322Y-72238707D01*
X136784648Y-72234286D01*
X136578744Y-72170350D01*
X136566618Y-72167855D01*
X136370983Y-72147293D01*
X136364393Y-72146948D01*
X135461401Y-72146948D01*
X135455634Y-72147212D01*
X135295874Y-72161892D01*
X135284514Y-72163998D01*
X135077404Y-72222409D01*
X135066617Y-72226549D01*
X134873620Y-72321725D01*
X134863769Y-72327762D01*
X134691348Y-72456515D01*
X134682763Y-72464246D01*
X134536691Y-72622264D01*
X134529658Y-72631430D01*
X134414830Y-72813422D01*
X134409585Y-72823716D01*
X134329844Y-73023586D01*
X134326563Y-73034664D01*
X134284582Y-73245718D01*
X134283374Y-73257208D01*
X134280557Y-73472380D01*
X129412000Y-73472380D01*
X129412000Y-70920470D01*
X129527071Y-71091713D01*
X129531675Y-71097746D01*
X129753926Y-71355227D01*
X129759222Y-71360664D01*
X130010796Y-71589578D01*
X130016706Y-71594339D01*
X130293961Y-71791373D01*
X130300400Y-71795389D01*
X130599317Y-71957688D01*
X130606192Y-71960901D01*
X130922441Y-72086113D01*
X130929653Y-72088477D01*
X131258654Y-72174789D01*
X131266097Y-72176269D01*
X131603085Y-72222431D01*
X131610653Y-72223007D01*
X131950746Y-72228349D01*
X131958328Y-72228011D01*
X132296599Y-72192457D01*
X132304085Y-72191211D01*
X132635636Y-72115277D01*
X132642919Y-72113140D01*
X132962944Y-71997924D01*
X132969917Y-71994928D01*
X133273784Y-71842099D01*
X133280347Y-71838287D01*
X133563653Y-71650059D01*
X133569710Y-71645487D01*
X133828350Y-71424587D01*
X133833814Y-71419320D01*
X134064044Y-71168947D01*
X134068835Y-71163062D01*
X134267318Y-70886844D01*
X134271368Y-70880425D01*
X134281478Y-70862035D01*
X134280557Y-70932380D01*
X134281464Y-70943898D01*
X134317906Y-71155979D01*
X134320896Y-71167139D01*
X134395377Y-71369028D01*
X134400351Y-71379457D01*
X134510376Y-71564392D01*
X134517167Y-71573738D01*
X134659051Y-71735526D01*
X134667432Y-71743479D01*
X134836424Y-71876701D01*
X134846113Y-71882994D01*
X135036554Y-71983189D01*
X135047228Y-71987610D01*
X135253132Y-72051546D01*
X135265258Y-72054041D01*
X135460893Y-72074603D01*
X135467483Y-72074948D01*
X136370475Y-72074948D01*
X136376242Y-72074684D01*
X136536002Y-72060004D01*
X136547362Y-72057898D01*
X136754472Y-71999487D01*
X136765259Y-71995347D01*
X136958256Y-71900171D01*
X136968107Y-71894134D01*
X137140528Y-71765381D01*
X137149113Y-71757650D01*
X137184696Y-71719157D01*
X137199051Y-71735526D01*
X137207432Y-71743479D01*
X137376424Y-71876701D01*
X137386113Y-71882994D01*
X137576554Y-71983189D01*
X137587228Y-71987610D01*
X137793132Y-72051546D01*
X137805258Y-72054041D01*
X138000893Y-72074603D01*
X138007483Y-72074948D01*
X138910475Y-72074948D01*
X138916242Y-72074684D01*
X139076002Y-72060004D01*
X139087362Y-72057898D01*
X139294472Y-71999487D01*
X139305259Y-71995347D01*
X139498256Y-71900171D01*
X139508107Y-71894134D01*
X139680528Y-71765381D01*
X139689113Y-71757650D01*
X139835185Y-71599632D01*
X139842218Y-71590466D01*
X139957046Y-71408474D01*
X139962291Y-71398180D01*
X140042032Y-71198310D01*
X140045313Y-71187232D01*
X140087294Y-70976178D01*
X140088502Y-70964688D01*
X140091319Y-70749516D01*
X140090412Y-70737998D01*
X140053970Y-70525917D01*
X140050980Y-70514757D01*
X139976499Y-70312868D01*
X139971525Y-70302439D01*
X139861500Y-70117504D01*
X139854709Y-70108158D01*
X139712825Y-69946370D01*
X139704444Y-69938417D01*
X139535452Y-69805195D01*
X139525763Y-69798902D01*
X139335322Y-69698707D01*
X139324648Y-69694286D01*
X139118744Y-69630350D01*
X139106618Y-69627855D01*
X138910983Y-69607293D01*
X138904393Y-69606948D01*
X138001401Y-69606948D01*
X137995634Y-69607212D01*
X137835874Y-69621892D01*
X137824514Y-69623998D01*
X137617404Y-69682409D01*
X137606617Y-69686549D01*
X137413620Y-69781725D01*
X137403769Y-69787762D01*
X137231348Y-69916515D01*
X137222763Y-69924246D01*
X137187180Y-69962739D01*
X137172825Y-69946370D01*
X137164444Y-69938417D01*
X136995452Y-69805195D01*
X136985763Y-69798902D01*
X136795322Y-69698707D01*
X136784648Y-69694286D01*
X136578744Y-69630350D01*
X136566618Y-69627855D01*
X136370983Y-69607293D01*
X136364393Y-69606948D01*
X135461401Y-69606948D01*
X135455634Y-69607212D01*
X135295874Y-69621892D01*
X135284514Y-69623998D01*
X135077404Y-69682409D01*
X135066617Y-69686549D01*
X134873620Y-69781725D01*
X134863769Y-69787762D01*
X134691348Y-69916515D01*
X134682763Y-69924246D01*
X134644736Y-69965383D01*
X134655779Y-69924170D01*
X134657298Y-69916734D01*
X134705270Y-69579666D01*
X134705896Y-69571440D01*
X134709403Y-69236566D01*
X134836424Y-69336701D01*
X134846113Y-69342994D01*
X135036554Y-69443189D01*
X135047228Y-69447610D01*
X135253132Y-69511546D01*
X135265258Y-69514041D01*
X135460893Y-69534603D01*
X135467483Y-69534948D01*
X135714129Y-69534948D01*
X135787938Y-69461139D01*
X135787939Y-68502756D01*
X135787938Y-68502755D01*
X135787938Y-68099140D01*
X136043937Y-68099140D01*
X136043938Y-68099141D01*
X136043937Y-69461139D01*
X136117746Y-69534948D01*
X136370475Y-69534948D01*
X136376242Y-69534684D01*
X136536002Y-69520004D01*
X136547362Y-69517898D01*
X136754472Y-69459487D01*
X136765259Y-69455347D01*
X136958256Y-69360171D01*
X136968107Y-69354134D01*
X137140528Y-69225381D01*
X137149113Y-69217650D01*
X137184696Y-69179157D01*
X137199051Y-69195526D01*
X137207432Y-69203479D01*
X137376424Y-69336701D01*
X137386113Y-69342994D01*
X137576554Y-69443189D01*
X137587228Y-69447610D01*
X137793132Y-69511546D01*
X137805258Y-69514041D01*
X138000893Y-69534603D01*
X138007483Y-69534948D01*
X138910475Y-69534948D01*
X138916242Y-69534684D01*
X139076002Y-69520004D01*
X139087362Y-69517898D01*
X139294472Y-69459487D01*
X139305259Y-69455347D01*
X139498256Y-69360171D01*
X139508107Y-69354134D01*
X139680528Y-69225381D01*
X139689113Y-69217650D01*
X139835185Y-69059632D01*
X139842218Y-69050466D01*
X139957046Y-68868474D01*
X139962291Y-68858180D01*
X140042032Y-68658310D01*
X140045313Y-68647232D01*
X140087294Y-68436178D01*
X140088502Y-68424688D01*
X140091319Y-68209516D01*
X140090412Y-68197998D01*
X140053970Y-67985917D01*
X140050980Y-67974757D01*
X139976499Y-67772868D01*
X139971525Y-67762439D01*
X139861500Y-67577504D01*
X139854709Y-67568158D01*
X139712825Y-67406370D01*
X139704444Y-67398417D01*
X139535452Y-67265195D01*
X139525763Y-67258902D01*
X139335322Y-67158707D01*
X139324648Y-67154286D01*
X139118744Y-67090350D01*
X139106618Y-67087855D01*
X138910983Y-67067293D01*
X138904393Y-67066948D01*
X138001401Y-67066948D01*
X137995634Y-67067212D01*
X137835874Y-67081892D01*
X137824514Y-67083998D01*
X137617404Y-67142409D01*
X137606617Y-67146549D01*
X137413620Y-67241725D01*
X137403769Y-67247762D01*
X137231348Y-67376515D01*
X137222763Y-67384246D01*
X137187180Y-67422739D01*
X137172825Y-67406370D01*
X137164444Y-67398417D01*
X136995452Y-67265195D01*
X136985763Y-67258902D01*
X136795322Y-67158707D01*
X136784648Y-67154286D01*
X136578744Y-67090350D01*
X136566618Y-67087855D01*
X136370983Y-67067293D01*
X136364393Y-67066948D01*
X136117747Y-67066948D01*
X136043938Y-67140757D01*
X136043937Y-68099140D01*
X135787938Y-68099140D01*
X135787939Y-67140757D01*
X135714130Y-67066948D01*
X135461401Y-67066948D01*
X135455634Y-67067212D01*
X135295874Y-67081892D01*
X135284514Y-67083998D01*
X135077404Y-67142409D01*
X135066617Y-67146549D01*
X134873620Y-67241725D01*
X134863769Y-67247762D01*
X134691348Y-67376515D01*
X134682763Y-67384246D01*
X134536691Y-67542264D01*
X134529658Y-67551430D01*
X134414830Y-67733422D01*
X134409585Y-67743716D01*
X134338264Y-67922482D01*
X134303050Y-67855124D01*
X134299135Y-67848622D01*
X134106481Y-67568308D01*
X134101813Y-67562324D01*
X133876877Y-67307185D01*
X133871525Y-67301805D01*
X133617568Y-67075536D01*
X133611608Y-67070838D01*
X133406091Y-66928000D01*
X165018430Y-66928000D01*
X165025404Y-66928856D01*
%TA.AperFunction,Conductor*%
G36*
X165025404Y-66928856D02*
G01*
X165025784Y-66928901D01*
X165127248Y-66940731D01*
X165153038Y-66950092D01*
X165175977Y-66965132D01*
X165194843Y-66985047D01*
X165208624Y-67008772D01*
X165219111Y-67043399D01*
X165225705Y-67117287D01*
X165227135Y-67126138D01*
X165228001Y-67129816D01*
X165228001Y-67537703D01*
X165112825Y-67406370D01*
X165104444Y-67398417D01*
X164935452Y-67265195D01*
X164925763Y-67258902D01*
X164735322Y-67158707D01*
X164724648Y-67154286D01*
X164518744Y-67090350D01*
X164506618Y-67087855D01*
X164310983Y-67067293D01*
X164304393Y-67066948D01*
X164057747Y-67066948D01*
X163983938Y-67140757D01*
X163983937Y-68099140D01*
X163983938Y-68099141D01*
X163983937Y-69461139D01*
X164057746Y-69534948D01*
X164310475Y-69534948D01*
X164316242Y-69534684D01*
X164476002Y-69520004D01*
X164487362Y-69517898D01*
X164694472Y-69459487D01*
X164705259Y-69455347D01*
X164898256Y-69360171D01*
X164908107Y-69354134D01*
X165080528Y-69225381D01*
X165089113Y-69217650D01*
X165228001Y-69067404D01*
X165228001Y-70077703D01*
X165112825Y-69946370D01*
X165104444Y-69938417D01*
X164935452Y-69805195D01*
X164925763Y-69798902D01*
X164735322Y-69698707D01*
X164724648Y-69694286D01*
X164518744Y-69630350D01*
X164506618Y-69627855D01*
X164310983Y-69607293D01*
X164304393Y-69606948D01*
X163401401Y-69606948D01*
X163395634Y-69607212D01*
X163235874Y-69621892D01*
X163224514Y-69623998D01*
X163017404Y-69682409D01*
X163006617Y-69686549D01*
X162813620Y-69781725D01*
X162803769Y-69787762D01*
X162631348Y-69916515D01*
X162622763Y-69924246D01*
X162587180Y-69962739D01*
X162572825Y-69946370D01*
X162564444Y-69938417D01*
X162395452Y-69805195D01*
X162385763Y-69798902D01*
X162195322Y-69698707D01*
X162184648Y-69694286D01*
X161978744Y-69630350D01*
X161966618Y-69627855D01*
X161770983Y-69607293D01*
X161764393Y-69606948D01*
X160861401Y-69606948D01*
X160855634Y-69607212D01*
X160695874Y-69621892D01*
X160684514Y-69623998D01*
X160477404Y-69682409D01*
X160466617Y-69686549D01*
X160273620Y-69781725D01*
X160263769Y-69787762D01*
X160091348Y-69916515D01*
X160082763Y-69924246D01*
X159936691Y-70082264D01*
X159929658Y-70091430D01*
X159814830Y-70273422D01*
X159809585Y-70283716D01*
X159729844Y-70483586D01*
X159726563Y-70494664D01*
X159684582Y-70705718D01*
X159683374Y-70717208D01*
X159680557Y-70932380D01*
X159681464Y-70943898D01*
X159717906Y-71155979D01*
X159720896Y-71167139D01*
X159795377Y-71369028D01*
X159800351Y-71379457D01*
X159910376Y-71564392D01*
X159917167Y-71573738D01*
X160059051Y-71735526D01*
X160067432Y-71743479D01*
X160236424Y-71876701D01*
X160246113Y-71882994D01*
X160436554Y-71983189D01*
X160447228Y-71987610D01*
X160653132Y-72051546D01*
X160665258Y-72054041D01*
X160860893Y-72074603D01*
X160867483Y-72074948D01*
X161770475Y-72074948D01*
X161776242Y-72074684D01*
X161936002Y-72060004D01*
X161947362Y-72057898D01*
X162154472Y-71999487D01*
X162165259Y-71995347D01*
X162358256Y-71900171D01*
X162368107Y-71894134D01*
X162540528Y-71765381D01*
X162549113Y-71757650D01*
X162584696Y-71719157D01*
X162599051Y-71735526D01*
X162607432Y-71743479D01*
X162776424Y-71876701D01*
X162786113Y-71882994D01*
X162976554Y-71983189D01*
X162987228Y-71987610D01*
X163193132Y-72051546D01*
X163205258Y-72054041D01*
X163400893Y-72074603D01*
X163407483Y-72074948D01*
X164310475Y-72074948D01*
X164316242Y-72074684D01*
X164476002Y-72060004D01*
X164487362Y-72057898D01*
X164694472Y-71999487D01*
X164705259Y-71995347D01*
X164898256Y-71900171D01*
X164908107Y-71894134D01*
X165080528Y-71765381D01*
X165089113Y-71757650D01*
X165228001Y-71607404D01*
X165228001Y-72617703D01*
X165112825Y-72486370D01*
X165104444Y-72478417D01*
X164935452Y-72345195D01*
X164925763Y-72338902D01*
X164735322Y-72238707D01*
X164724648Y-72234286D01*
X164518744Y-72170350D01*
X164506618Y-72167855D01*
X164310983Y-72147293D01*
X164304393Y-72146948D01*
X163401401Y-72146948D01*
X163395634Y-72147212D01*
X163235874Y-72161892D01*
X163224514Y-72163998D01*
X163017404Y-72222409D01*
X163006617Y-72226549D01*
X162813620Y-72321725D01*
X162803769Y-72327762D01*
X162631348Y-72456515D01*
X162622763Y-72464246D01*
X162587180Y-72502739D01*
X162572825Y-72486370D01*
X162564444Y-72478417D01*
X162395452Y-72345195D01*
X162385763Y-72338902D01*
X162195322Y-72238707D01*
X162184648Y-72234286D01*
X161978744Y-72170350D01*
X161966618Y-72167855D01*
X161770983Y-72147293D01*
X161764393Y-72146948D01*
X160861401Y-72146948D01*
X160855634Y-72147212D01*
X160695874Y-72161892D01*
X160684514Y-72163998D01*
X160477404Y-72222409D01*
X160466617Y-72226549D01*
X160273620Y-72321725D01*
X160263769Y-72327762D01*
X160091348Y-72456515D01*
X160082763Y-72464246D01*
X159938832Y-72619948D01*
X154937913Y-72619948D01*
X152370214Y-70052250D01*
X152519936Y-70052250D01*
X152530897Y-70051291D01*
X152767126Y-70009637D01*
X152777753Y-70006790D01*
X153003160Y-69924748D01*
X153013132Y-69920098D01*
X153220868Y-69800162D01*
X153229881Y-69793851D01*
X153413634Y-69639663D01*
X153421413Y-69631884D01*
X153575601Y-69448131D01*
X153581912Y-69439118D01*
X153670000Y-69286545D01*
X153758088Y-69439118D01*
X153764399Y-69448131D01*
X153918587Y-69631884D01*
X153926366Y-69639663D01*
X154110119Y-69793851D01*
X154119132Y-69800162D01*
X154326868Y-69920098D01*
X154336840Y-69924748D01*
X154562247Y-70006790D01*
X154572874Y-70009637D01*
X154721982Y-70035930D01*
X154812000Y-69960396D01*
X154812001Y-68820058D01*
X154812000Y-68820057D01*
X154812000Y-68416442D01*
X155067999Y-68416442D01*
X155068000Y-68416443D01*
X155067999Y-69960396D01*
X155158017Y-70035929D01*
X155307125Y-70009637D01*
X155317753Y-70006790D01*
X155543160Y-69924748D01*
X155553132Y-69920098D01*
X155760868Y-69800162D01*
X155769881Y-69793851D01*
X155953634Y-69639663D01*
X155961413Y-69631884D01*
X156059606Y-69514863D01*
X156115137Y-69722109D01*
X156127880Y-69746589D01*
X156258990Y-69902840D01*
X156275879Y-69917011D01*
X156450120Y-70017609D01*
X156470837Y-70025150D01*
X156663538Y-70059128D01*
X156674499Y-70060087D01*
X158288258Y-70060087D01*
X158304634Y-70057931D01*
X158583859Y-69983113D01*
X158608339Y-69970370D01*
X158764590Y-69839260D01*
X158778761Y-69822371D01*
X158879359Y-69648130D01*
X158886900Y-69627413D01*
X158920878Y-69434712D01*
X158921837Y-69423751D01*
X158921837Y-68392380D01*
X159680557Y-68392380D01*
X159681464Y-68403898D01*
X159717906Y-68615979D01*
X159720896Y-68627139D01*
X159795377Y-68829028D01*
X159800351Y-68839457D01*
X159910376Y-69024392D01*
X159917167Y-69033738D01*
X160059051Y-69195526D01*
X160067432Y-69203479D01*
X160236424Y-69336701D01*
X160246113Y-69342994D01*
X160436554Y-69443189D01*
X160447228Y-69447610D01*
X160653132Y-69511546D01*
X160665258Y-69514041D01*
X160860893Y-69534603D01*
X160867483Y-69534948D01*
X161770475Y-69534948D01*
X161776242Y-69534684D01*
X161936002Y-69520004D01*
X161947362Y-69517898D01*
X162154472Y-69459487D01*
X162165259Y-69455347D01*
X162358256Y-69360171D01*
X162368107Y-69354134D01*
X162540528Y-69225381D01*
X162549113Y-69217650D01*
X162584696Y-69179157D01*
X162599051Y-69195526D01*
X162607432Y-69203479D01*
X162776424Y-69336701D01*
X162786113Y-69342994D01*
X162976554Y-69443189D01*
X162987228Y-69447610D01*
X163193132Y-69511546D01*
X163205258Y-69514041D01*
X163400893Y-69534603D01*
X163407483Y-69534948D01*
X163654129Y-69534948D01*
X163727938Y-69461139D01*
X163727939Y-68502756D01*
X163727938Y-68502755D01*
X163727939Y-67140757D01*
X163654130Y-67066948D01*
X163401401Y-67066948D01*
X163395634Y-67067212D01*
X163235874Y-67081892D01*
X163224514Y-67083998D01*
X163017404Y-67142409D01*
X163006617Y-67146549D01*
X162813620Y-67241725D01*
X162803769Y-67247762D01*
X162631348Y-67376515D01*
X162622763Y-67384246D01*
X162587180Y-67422739D01*
X162572825Y-67406370D01*
X162564444Y-67398417D01*
X162395452Y-67265195D01*
X162385763Y-67258902D01*
X162195322Y-67158707D01*
X162184648Y-67154286D01*
X161978744Y-67090350D01*
X161966618Y-67087855D01*
X161770983Y-67067293D01*
X161764393Y-67066948D01*
X160861401Y-67066948D01*
X160855634Y-67067212D01*
X160695874Y-67081892D01*
X160684514Y-67083998D01*
X160477404Y-67142409D01*
X160466617Y-67146549D01*
X160273620Y-67241725D01*
X160263769Y-67247762D01*
X160091348Y-67376515D01*
X160082763Y-67384246D01*
X159936691Y-67542264D01*
X159929658Y-67551430D01*
X159814830Y-67733422D01*
X159809585Y-67743716D01*
X159729844Y-67943586D01*
X159726563Y-67954664D01*
X159684582Y-68165718D01*
X159683374Y-68177208D01*
X159680557Y-68392380D01*
X158921837Y-68392380D01*
X158921837Y-67809992D01*
X158919681Y-67793616D01*
X158844863Y-67514392D01*
X158832120Y-67489912D01*
X158701010Y-67333660D01*
X158684121Y-67319489D01*
X158509880Y-67218891D01*
X158489163Y-67211350D01*
X158296462Y-67177372D01*
X158285501Y-67176413D01*
X156671742Y-67176413D01*
X156655366Y-67178569D01*
X156376142Y-67253387D01*
X156351662Y-67266130D01*
X156195410Y-67397240D01*
X156181239Y-67414129D01*
X156080641Y-67588370D01*
X156073100Y-67609087D01*
X156054357Y-67715382D01*
X155961413Y-67604616D01*
X155953634Y-67596837D01*
X155769881Y-67442649D01*
X155760868Y-67436338D01*
X155553132Y-67316402D01*
X155543160Y-67311752D01*
X155317753Y-67229710D01*
X155307126Y-67226863D01*
X155158018Y-67200570D01*
X155068000Y-67276104D01*
X155067999Y-68416442D01*
X154812000Y-68416442D01*
X154812001Y-67276104D01*
X154721983Y-67200571D01*
X154572875Y-67226863D01*
X154562247Y-67229710D01*
X154336840Y-67311752D01*
X154326868Y-67316402D01*
X154119132Y-67436338D01*
X154110119Y-67442649D01*
X153926366Y-67596837D01*
X153918587Y-67604616D01*
X153764399Y-67788369D01*
X153758088Y-67797382D01*
X153670000Y-67949955D01*
X153581912Y-67797382D01*
X153575601Y-67788369D01*
X153421413Y-67604616D01*
X153413634Y-67596837D01*
X153229881Y-67442649D01*
X153220868Y-67436338D01*
X153013132Y-67316402D01*
X153003160Y-67311752D01*
X152777753Y-67229710D01*
X152767126Y-67226863D01*
X152530897Y-67185209D01*
X152519936Y-67184250D01*
X152280064Y-67184250D01*
X152269103Y-67185209D01*
X152032874Y-67226863D01*
X152022247Y-67229710D01*
X151796840Y-67311752D01*
X151786868Y-67316402D01*
X151579132Y-67436338D01*
X151570119Y-67442649D01*
X151386366Y-67596837D01*
X151378587Y-67604616D01*
X151224399Y-67788369D01*
X151218088Y-67797382D01*
X151130000Y-67949955D01*
X151041912Y-67797382D01*
X151035601Y-67788369D01*
X150881413Y-67604616D01*
X150873634Y-67596837D01*
X150689881Y-67442649D01*
X150680868Y-67436338D01*
X150473132Y-67316402D01*
X150463160Y-67311752D01*
X150237753Y-67229710D01*
X150227126Y-67226863D01*
X149990897Y-67185209D01*
X149979936Y-67184250D01*
X149740064Y-67184250D01*
X149729103Y-67185209D01*
X149492874Y-67226863D01*
X149482247Y-67229710D01*
X149256840Y-67311752D01*
X149246868Y-67316402D01*
X149039132Y-67436338D01*
X149030119Y-67442649D01*
X148846366Y-67596837D01*
X148838587Y-67604616D01*
X148684399Y-67788369D01*
X148678088Y-67797382D01*
X148558152Y-68005118D01*
X148553502Y-68015090D01*
X148471460Y-68240497D01*
X148468613Y-68251124D01*
X148426959Y-68487353D01*
X148426000Y-68498314D01*
X148426000Y-68738186D01*
X148426959Y-68749147D01*
X148468613Y-68985376D01*
X148471460Y-68996003D01*
X148553502Y-69221410D01*
X148558152Y-69231382D01*
X148678088Y-69439118D01*
X148684399Y-69448131D01*
X148838587Y-69631884D01*
X148846366Y-69639663D01*
X149030119Y-69793851D01*
X149039132Y-69800162D01*
X149246868Y-69920098D01*
X149256840Y-69924748D01*
X149482247Y-70006790D01*
X149492874Y-70009637D01*
X149729103Y-70051291D01*
X149740064Y-70052250D01*
X149979936Y-70052250D01*
X149990897Y-70051291D01*
X150182960Y-70017425D01*
X154162718Y-73997184D01*
X154178764Y-74008842D01*
X154223846Y-74031813D01*
X154264781Y-74061554D01*
X154282453Y-74070558D01*
X154330569Y-74086191D01*
X154375658Y-74109166D01*
X154394521Y-74115295D01*
X154444504Y-74123211D01*
X154492619Y-74138844D01*
X154512207Y-74141947D01*
X154567507Y-74141947D01*
X154567519Y-74141948D01*
X159941906Y-74141948D01*
X160059051Y-74275526D01*
X160067432Y-74283479D01*
X160236424Y-74416701D01*
X160246113Y-74422994D01*
X160436554Y-74523189D01*
X160447228Y-74527610D01*
X160653132Y-74591546D01*
X160665258Y-74594041D01*
X160860893Y-74614603D01*
X160867483Y-74614948D01*
X161770475Y-74614948D01*
X161776242Y-74614684D01*
X161936002Y-74600004D01*
X161947362Y-74597898D01*
X162154472Y-74539487D01*
X162165259Y-74535347D01*
X162358256Y-74440171D01*
X162368107Y-74434134D01*
X162540528Y-74305381D01*
X162549113Y-74297650D01*
X162584696Y-74259157D01*
X162599051Y-74275526D01*
X162607432Y-74283479D01*
X162776424Y-74416701D01*
X162786113Y-74422994D01*
X162976554Y-74523189D01*
X162987228Y-74527610D01*
X163193132Y-74591546D01*
X163205258Y-74594041D01*
X163400893Y-74614603D01*
X163407483Y-74614948D01*
X164310475Y-74614948D01*
X164316242Y-74614684D01*
X164476002Y-74600004D01*
X164487362Y-74597898D01*
X164694472Y-74539487D01*
X164705259Y-74535347D01*
X164898256Y-74440171D01*
X164908107Y-74434134D01*
X165080528Y-74305381D01*
X165089113Y-74297650D01*
X165228001Y-74147404D01*
X165228001Y-75157703D01*
X165112825Y-75026370D01*
X165104444Y-75018417D01*
X164935452Y-74885195D01*
X164925763Y-74878902D01*
X164735322Y-74778707D01*
X164724648Y-74774286D01*
X164518744Y-74710350D01*
X164506618Y-74707855D01*
X164310983Y-74687293D01*
X164304393Y-74686948D01*
X163401401Y-74686948D01*
X163395634Y-74687212D01*
X163235874Y-74701892D01*
X163224514Y-74703998D01*
X163017404Y-74762409D01*
X163006617Y-74766549D01*
X162813620Y-74861725D01*
X162803769Y-74867762D01*
X162631348Y-74996515D01*
X162622763Y-75004246D01*
X162587180Y-75042739D01*
X162572825Y-75026370D01*
X162564444Y-75018417D01*
X162395452Y-74885195D01*
X162385763Y-74878902D01*
X162195322Y-74778707D01*
X162184648Y-74774286D01*
X161978744Y-74710350D01*
X161966618Y-74707855D01*
X161770983Y-74687293D01*
X161764393Y-74686948D01*
X160861401Y-74686948D01*
X160855634Y-74687212D01*
X160695874Y-74701892D01*
X160684514Y-74703998D01*
X160477404Y-74762409D01*
X160466617Y-74766549D01*
X160273620Y-74861725D01*
X160263769Y-74867762D01*
X160091348Y-74996515D01*
X160082763Y-75004246D01*
X159936691Y-75162264D01*
X159929658Y-75171430D01*
X159814830Y-75353422D01*
X159809585Y-75363716D01*
X159729844Y-75563586D01*
X159726563Y-75574664D01*
X159684582Y-75785718D01*
X159683374Y-75797208D01*
X159680557Y-76012380D01*
X159681464Y-76023898D01*
X159717906Y-76235979D01*
X159720896Y-76247139D01*
X159795377Y-76449028D01*
X159800351Y-76459457D01*
X159910376Y-76644392D01*
X159917167Y-76653738D01*
X160059051Y-76815526D01*
X160067432Y-76823479D01*
X160236424Y-76956701D01*
X160246113Y-76962994D01*
X160436554Y-77063189D01*
X160447228Y-77067610D01*
X160653132Y-77131546D01*
X160665258Y-77134041D01*
X160860893Y-77154603D01*
X160867483Y-77154948D01*
X161770475Y-77154948D01*
X161776242Y-77154684D01*
X161936002Y-77140004D01*
X161947362Y-77137898D01*
X162154472Y-77079487D01*
X162165259Y-77075347D01*
X162358256Y-76980171D01*
X162368107Y-76974134D01*
X162540528Y-76845381D01*
X162549113Y-76837650D01*
X162584696Y-76799157D01*
X162599051Y-76815526D01*
X162607432Y-76823479D01*
X162776424Y-76956701D01*
X162786113Y-76962994D01*
X162976554Y-77063189D01*
X162987228Y-77067610D01*
X163193132Y-77131546D01*
X163205258Y-77134041D01*
X163400893Y-77154603D01*
X163407483Y-77154948D01*
X164310475Y-77154948D01*
X164316242Y-77154684D01*
X164476002Y-77140004D01*
X164487362Y-77137898D01*
X164694472Y-77079487D01*
X164705259Y-77075347D01*
X164898256Y-76980171D01*
X164908107Y-76974134D01*
X165080528Y-76845381D01*
X165089113Y-76837650D01*
X165228001Y-76687404D01*
X165228001Y-77697703D01*
X165112825Y-77566370D01*
X165104444Y-77558417D01*
X164935452Y-77425195D01*
X164925763Y-77418902D01*
X164735322Y-77318707D01*
X164724648Y-77314286D01*
X164518744Y-77250350D01*
X164506618Y-77247855D01*
X164310983Y-77227293D01*
X164304393Y-77226948D01*
X163401401Y-77226948D01*
X163395634Y-77227212D01*
X163235874Y-77241892D01*
X163224514Y-77243998D01*
X163017404Y-77302409D01*
X163006617Y-77306549D01*
X162813620Y-77401725D01*
X162803769Y-77407762D01*
X162631348Y-77536515D01*
X162622763Y-77544246D01*
X162587180Y-77582739D01*
X162572825Y-77566370D01*
X162564444Y-77558417D01*
X162395452Y-77425195D01*
X162385763Y-77418902D01*
X162195322Y-77318707D01*
X162184648Y-77314286D01*
X161978744Y-77250350D01*
X161966618Y-77247855D01*
X161770983Y-77227293D01*
X161764393Y-77226948D01*
X160861401Y-77226948D01*
X160855634Y-77227212D01*
X160695874Y-77241892D01*
X160684514Y-77243998D01*
X160477404Y-77302409D01*
X160466617Y-77306549D01*
X160273620Y-77401725D01*
X160263769Y-77407762D01*
X160091348Y-77536515D01*
X160082763Y-77544246D01*
X159936691Y-77702264D01*
X159929658Y-77711430D01*
X159814830Y-77893422D01*
X159809585Y-77903716D01*
X159729844Y-78103586D01*
X159726563Y-78114664D01*
X159684582Y-78325718D01*
X159683374Y-78337208D01*
X159680557Y-78552380D01*
X159681464Y-78563898D01*
X159717906Y-78775979D01*
X159720896Y-78787139D01*
X159795377Y-78989028D01*
X159800351Y-78999457D01*
X159910376Y-79184392D01*
X159917167Y-79193738D01*
X160059051Y-79355526D01*
X160067432Y-79363479D01*
X160236424Y-79496701D01*
X160246113Y-79502994D01*
X160436554Y-79603189D01*
X160447228Y-79607610D01*
X160653132Y-79671546D01*
X160665258Y-79674041D01*
X160860893Y-79694603D01*
X160867483Y-79694948D01*
X161770475Y-79694948D01*
X161776242Y-79694684D01*
X161936002Y-79680004D01*
X161947362Y-79677898D01*
X162154472Y-79619487D01*
X162165259Y-79615347D01*
X162358256Y-79520171D01*
X162368107Y-79514134D01*
X162540528Y-79385381D01*
X162549113Y-79377650D01*
X162584696Y-79339157D01*
X162599051Y-79355526D01*
X162607432Y-79363479D01*
X162776424Y-79496701D01*
X162786113Y-79502994D01*
X162976554Y-79603189D01*
X162987228Y-79607610D01*
X163193132Y-79671546D01*
X163205258Y-79674041D01*
X163400893Y-79694603D01*
X163407483Y-79694948D01*
X164310475Y-79694948D01*
X164316242Y-79694684D01*
X164476002Y-79680004D01*
X164487362Y-79677898D01*
X164694472Y-79619487D01*
X164705259Y-79615347D01*
X164898256Y-79520171D01*
X164908107Y-79514134D01*
X165080528Y-79385381D01*
X165089113Y-79377650D01*
X165228000Y-79227405D01*
X165228000Y-80237702D01*
X165112825Y-80106370D01*
X165104444Y-80098417D01*
X164935452Y-79965195D01*
X164925763Y-79958902D01*
X164735322Y-79858707D01*
X164724648Y-79854286D01*
X164518744Y-79790350D01*
X164506618Y-79787855D01*
X164310983Y-79767293D01*
X164304393Y-79766948D01*
X163401401Y-79766948D01*
X163395634Y-79767212D01*
X163235874Y-79781892D01*
X163224514Y-79783998D01*
X163017404Y-79842409D01*
X163006617Y-79846549D01*
X162813620Y-79941725D01*
X162803769Y-79947762D01*
X162631348Y-80076515D01*
X162622763Y-80084246D01*
X162587180Y-80122739D01*
X162572825Y-80106370D01*
X162564444Y-80098417D01*
X162395452Y-79965195D01*
X162385763Y-79958902D01*
X162195322Y-79858707D01*
X162184648Y-79854286D01*
X161978744Y-79790350D01*
X161966618Y-79787855D01*
X161770983Y-79767293D01*
X161764393Y-79766948D01*
X160861401Y-79766948D01*
X160855634Y-79767212D01*
X160695874Y-79781892D01*
X160684514Y-79783998D01*
X160477404Y-79842409D01*
X160466617Y-79846549D01*
X160273620Y-79941725D01*
X160263769Y-79947762D01*
X160091348Y-80076515D01*
X160082763Y-80084246D01*
X159936691Y-80242264D01*
X159929658Y-80251430D01*
X159814830Y-80433422D01*
X159809585Y-80443716D01*
X159729844Y-80643586D01*
X159726563Y-80654664D01*
X159684582Y-80865718D01*
X159683374Y-80877208D01*
X159680557Y-81092380D01*
X159681464Y-81103898D01*
X159717906Y-81315979D01*
X159720896Y-81327139D01*
X159795377Y-81529028D01*
X159800351Y-81539457D01*
X159910376Y-81724392D01*
X159917167Y-81733738D01*
X160059051Y-81895526D01*
X160067432Y-81903479D01*
X160236424Y-82036701D01*
X160246113Y-82042994D01*
X160436554Y-82143189D01*
X160447228Y-82147610D01*
X160653132Y-82211546D01*
X160665258Y-82214041D01*
X160860893Y-82234603D01*
X160867483Y-82234948D01*
X161770475Y-82234948D01*
X161776242Y-82234684D01*
X161936002Y-82220004D01*
X161947362Y-82217898D01*
X162154472Y-82159487D01*
X162165259Y-82155347D01*
X162358256Y-82060171D01*
X162368107Y-82054134D01*
X162540528Y-81925381D01*
X162549113Y-81917650D01*
X162584696Y-81879157D01*
X162599051Y-81895526D01*
X162607432Y-81903479D01*
X162776424Y-82036701D01*
X162786113Y-82042994D01*
X162976554Y-82143189D01*
X162987228Y-82147610D01*
X163193132Y-82211546D01*
X163205258Y-82214041D01*
X163400893Y-82234603D01*
X163407483Y-82234948D01*
X164310475Y-82234948D01*
X164316242Y-82234684D01*
X164476002Y-82220004D01*
X164487362Y-82217898D01*
X164694472Y-82159487D01*
X164705259Y-82155347D01*
X164898256Y-82060171D01*
X164908107Y-82054134D01*
X165080528Y-81925381D01*
X165089113Y-81917650D01*
X165228000Y-81767405D01*
X165228000Y-82777702D01*
X165112825Y-82646370D01*
X165104444Y-82638417D01*
X164935452Y-82505195D01*
X164925763Y-82498902D01*
X164735322Y-82398707D01*
X164724648Y-82394286D01*
X164518744Y-82330350D01*
X164506618Y-82327855D01*
X164310983Y-82307293D01*
X164304393Y-82306948D01*
X163401401Y-82306948D01*
X163395634Y-82307212D01*
X163235874Y-82321892D01*
X163224514Y-82323998D01*
X163017404Y-82382409D01*
X163006617Y-82386549D01*
X162813620Y-82481725D01*
X162803769Y-82487762D01*
X162631348Y-82616515D01*
X162622763Y-82624246D01*
X162587180Y-82662739D01*
X162572825Y-82646370D01*
X162564444Y-82638417D01*
X162395452Y-82505195D01*
X162385763Y-82498902D01*
X162195322Y-82398707D01*
X162184648Y-82394286D01*
X161978744Y-82330350D01*
X161966618Y-82327855D01*
X161770983Y-82307293D01*
X161764393Y-82306948D01*
X160861401Y-82306948D01*
X160855634Y-82307212D01*
X160695874Y-82321892D01*
X160684514Y-82323998D01*
X160477404Y-82382409D01*
X160466617Y-82386549D01*
X160273620Y-82481725D01*
X160263769Y-82487762D01*
X160091348Y-82616515D01*
X160082763Y-82624246D01*
X159936691Y-82782264D01*
X159929658Y-82791430D01*
X159814830Y-82973422D01*
X159809585Y-82983716D01*
X159729844Y-83183586D01*
X159726563Y-83194664D01*
X159684582Y-83405718D01*
X159683374Y-83417208D01*
X159680557Y-83632380D01*
X159681464Y-83643898D01*
X159717906Y-83855979D01*
X159720896Y-83867139D01*
X159795377Y-84069028D01*
X159800351Y-84079457D01*
X159910376Y-84264392D01*
X159917167Y-84273738D01*
X160059051Y-84435526D01*
X160067432Y-84443479D01*
X160236424Y-84576701D01*
X160246113Y-84582994D01*
X160436554Y-84683189D01*
X160447228Y-84687610D01*
X160653132Y-84751546D01*
X160665258Y-84754041D01*
X160860893Y-84774603D01*
X160867483Y-84774948D01*
X161770475Y-84774948D01*
X161776242Y-84774684D01*
X161936002Y-84760004D01*
X161947362Y-84757898D01*
X162154472Y-84699487D01*
X162165259Y-84695347D01*
X162358256Y-84600171D01*
X162368107Y-84594134D01*
X162540528Y-84465381D01*
X162549113Y-84457650D01*
X162584696Y-84419157D01*
X162599051Y-84435526D01*
X162607432Y-84443479D01*
X162776424Y-84576701D01*
X162786113Y-84582994D01*
X162976554Y-84683189D01*
X162987228Y-84687610D01*
X163193132Y-84751546D01*
X163205258Y-84754041D01*
X163400893Y-84774603D01*
X163407483Y-84774948D01*
X164310475Y-84774948D01*
X164316242Y-84774684D01*
X164476002Y-84760004D01*
X164487362Y-84757898D01*
X164694472Y-84699487D01*
X164705259Y-84695347D01*
X164898256Y-84600171D01*
X164908107Y-84594134D01*
X165080528Y-84465381D01*
X165089113Y-84457650D01*
X165228000Y-84307405D01*
X165228000Y-85317702D01*
X165112825Y-85186370D01*
X165104444Y-85178417D01*
X164935452Y-85045195D01*
X164925763Y-85038902D01*
X164735322Y-84938707D01*
X164724648Y-84934286D01*
X164518744Y-84870350D01*
X164506618Y-84867855D01*
X164310983Y-84847293D01*
X164304393Y-84846948D01*
X163401401Y-84846948D01*
X163395634Y-84847212D01*
X163235874Y-84861892D01*
X163224514Y-84863998D01*
X163017404Y-84922409D01*
X163006617Y-84926549D01*
X162813620Y-85021725D01*
X162803769Y-85027762D01*
X162631348Y-85156515D01*
X162622763Y-85164246D01*
X162587180Y-85202739D01*
X162572825Y-85186370D01*
X162564444Y-85178417D01*
X162395452Y-85045195D01*
X162385763Y-85038902D01*
X162195322Y-84938707D01*
X162184648Y-84934286D01*
X161978744Y-84870350D01*
X161966618Y-84867855D01*
X161770983Y-84847293D01*
X161764393Y-84846948D01*
X160861401Y-84846948D01*
X160855634Y-84847212D01*
X160695874Y-84861892D01*
X160684514Y-84863998D01*
X160477404Y-84922409D01*
X160466617Y-84926549D01*
X160273620Y-85021725D01*
X160263769Y-85027762D01*
X160091348Y-85156515D01*
X160082763Y-85164246D01*
X159936691Y-85322264D01*
X159929658Y-85331430D01*
X159814830Y-85513422D01*
X159809585Y-85523716D01*
X159729844Y-85723586D01*
X159726563Y-85734664D01*
X159684582Y-85945718D01*
X159683374Y-85957208D01*
X159680557Y-86172380D01*
X159681464Y-86183898D01*
X159717906Y-86395979D01*
X159720896Y-86407139D01*
X159795377Y-86609028D01*
X159800351Y-86619457D01*
X159910376Y-86804392D01*
X159917167Y-86813738D01*
X160059051Y-86975526D01*
X160067432Y-86983479D01*
X160236424Y-87116701D01*
X160246113Y-87122994D01*
X160436554Y-87223189D01*
X160447228Y-87227610D01*
X160653132Y-87291546D01*
X160665258Y-87294041D01*
X160860893Y-87314603D01*
X160867483Y-87314948D01*
X161770475Y-87314948D01*
X161776242Y-87314684D01*
X161936002Y-87300004D01*
X161947362Y-87297898D01*
X162154472Y-87239487D01*
X162165259Y-87235347D01*
X162358256Y-87140171D01*
X162368107Y-87134134D01*
X162540528Y-87005381D01*
X162549113Y-86997650D01*
X162584696Y-86959157D01*
X162599051Y-86975526D01*
X162607432Y-86983479D01*
X162776424Y-87116701D01*
X162786113Y-87122994D01*
X162976554Y-87223189D01*
X162987228Y-87227610D01*
X163193132Y-87291546D01*
X163205258Y-87294041D01*
X163400893Y-87314603D01*
X163407483Y-87314948D01*
X164310475Y-87314948D01*
X164316242Y-87314684D01*
X164476002Y-87300004D01*
X164487362Y-87297898D01*
X164694472Y-87239487D01*
X164705259Y-87235347D01*
X164898256Y-87140171D01*
X164908107Y-87134134D01*
X165080528Y-87005381D01*
X165089113Y-86997650D01*
X165228000Y-86847405D01*
X165228000Y-87857702D01*
X165112825Y-87726370D01*
X165104444Y-87718417D01*
X164935452Y-87585195D01*
X164925763Y-87578902D01*
X164735322Y-87478707D01*
X164724648Y-87474286D01*
X164518744Y-87410350D01*
X164506618Y-87407855D01*
X164310983Y-87387293D01*
X164304393Y-87386948D01*
X163401401Y-87386948D01*
X163395634Y-87387212D01*
X163235874Y-87401892D01*
X163224514Y-87403998D01*
X163017404Y-87462409D01*
X163006617Y-87466549D01*
X162813620Y-87561725D01*
X162803769Y-87567762D01*
X162631348Y-87696515D01*
X162622763Y-87704246D01*
X162587180Y-87742739D01*
X162572825Y-87726370D01*
X162564444Y-87718417D01*
X162395452Y-87585195D01*
X162385763Y-87578902D01*
X162195322Y-87478707D01*
X162184648Y-87474286D01*
X161978744Y-87410350D01*
X161966618Y-87407855D01*
X161770983Y-87387293D01*
X161764393Y-87386948D01*
X160861401Y-87386948D01*
X160855634Y-87387212D01*
X160695874Y-87401892D01*
X160684514Y-87403998D01*
X160477404Y-87462409D01*
X160466617Y-87466549D01*
X160273620Y-87561725D01*
X160263769Y-87567762D01*
X160091348Y-87696515D01*
X160082763Y-87704246D01*
X159936691Y-87862264D01*
X159929658Y-87871430D01*
X159814830Y-88053422D01*
X159809585Y-88063716D01*
X159729844Y-88263586D01*
X159726563Y-88274664D01*
X159684582Y-88485718D01*
X159683374Y-88497208D01*
X159680557Y-88712380D01*
X159681464Y-88723898D01*
X159717906Y-88935979D01*
X159720896Y-88947139D01*
X159795377Y-89149028D01*
X159800351Y-89159457D01*
X159910376Y-89344392D01*
X159917167Y-89353738D01*
X160059051Y-89515526D01*
X160067432Y-89523479D01*
X160236424Y-89656701D01*
X160246113Y-89662994D01*
X160436554Y-89763189D01*
X160447228Y-89767610D01*
X160653132Y-89831546D01*
X160665258Y-89834041D01*
X160860893Y-89854603D01*
X160867483Y-89854948D01*
X161770475Y-89854948D01*
X161776242Y-89854684D01*
X161936002Y-89840004D01*
X161947362Y-89837898D01*
X162154472Y-89779487D01*
X162165259Y-89775347D01*
X162358256Y-89680171D01*
X162368107Y-89674134D01*
X162540528Y-89545381D01*
X162549113Y-89537650D01*
X162584696Y-89499157D01*
X162599051Y-89515526D01*
X162607432Y-89523479D01*
X162776424Y-89656701D01*
X162786113Y-89662994D01*
X162976554Y-89763189D01*
X162987228Y-89767610D01*
X163193132Y-89831546D01*
X163205258Y-89834041D01*
X163400893Y-89854603D01*
X163407483Y-89854948D01*
X164310475Y-89854948D01*
X164316242Y-89854684D01*
X164476002Y-89840004D01*
X164487362Y-89837898D01*
X164694472Y-89779487D01*
X164705259Y-89775347D01*
X164898256Y-89680171D01*
X164908107Y-89674134D01*
X165080528Y-89545381D01*
X165089113Y-89537650D01*
X165228000Y-89387405D01*
X165228000Y-89834438D01*
X165227145Y-89841403D01*
X165227099Y-89841784D01*
X165215269Y-89943250D01*
X165205910Y-89969036D01*
X165190869Y-89991977D01*
X165170953Y-90010843D01*
X165147228Y-90024624D01*
X165112601Y-90035111D01*
X165038712Y-90041705D01*
X165029861Y-90043135D01*
X165026187Y-90044000D01*
X129621562Y-90044000D01*
X129614597Y-90043145D01*
X129614216Y-90043099D01*
X129512750Y-90031269D01*
X129486964Y-90021910D01*
X129464023Y-90006869D01*
X129445157Y-89986953D01*
X129431376Y-89963228D01*
X129420889Y-89928601D01*
X129414295Y-89854712D01*
X129412865Y-89845861D01*
X129412000Y-89842187D01*
X129412000Y-88099837D01*
X129803681Y-88099837D01*
X129822675Y-88223963D01*
X129825072Y-88234022D01*
X129897660Y-88456110D01*
X129901668Y-88465644D01*
X130009555Y-88672893D01*
X130015066Y-88681644D01*
X130155354Y-88868490D01*
X130162221Y-88876224D01*
X130331141Y-89037647D01*
X130339178Y-89044155D01*
X130532195Y-89175823D01*
X130541187Y-89180932D01*
X130753118Y-89279306D01*
X130762823Y-89282877D01*
X130988346Y-89345420D01*
X130999275Y-89347436D01*
X131213864Y-89367720D01*
X131219796Y-89368000D01*
X131370191Y-89368000D01*
X131444000Y-89294191D01*
X131699999Y-89294191D01*
X131773808Y-89368000D01*
X131931193Y-89368000D01*
X131936357Y-89367788D01*
X132110035Y-89353510D01*
X132120238Y-89351821D01*
X132346848Y-89294899D01*
X132356637Y-89291566D01*
X132570907Y-89198400D01*
X132580021Y-89193513D01*
X132776198Y-89066600D01*
X132784392Y-89060290D01*
X132957206Y-88903041D01*
X132964259Y-88895478D01*
X133109070Y-88712115D01*
X133114793Y-88703501D01*
X133227711Y-88498950D01*
X133231951Y-88489517D01*
X133309945Y-88269270D01*
X133312587Y-88259271D01*
X133340568Y-88102186D01*
X133265027Y-88012000D01*
X131773809Y-88011999D01*
X131700000Y-88085808D01*
X131699999Y-89294191D01*
X131444000Y-89294191D01*
X131444001Y-88085809D01*
X131370192Y-88012000D01*
X129879100Y-88011999D01*
X129803681Y-88099837D01*
X129412000Y-88099837D01*
X129412000Y-82902685D01*
X129786611Y-82902685D01*
X129787333Y-82913002D01*
X129822675Y-83143962D01*
X129825072Y-83154022D01*
X129897660Y-83376110D01*
X129901668Y-83385644D01*
X130009555Y-83592893D01*
X130015066Y-83601644D01*
X130155354Y-83788490D01*
X130162221Y-83796224D01*
X130331141Y-83957647D01*
X130339178Y-83964155D01*
X130501517Y-84074896D01*
X130367802Y-84161400D01*
X130359608Y-84167710D01*
X130186794Y-84324959D01*
X130179741Y-84332522D01*
X130034930Y-84515885D01*
X130029207Y-84524499D01*
X129916289Y-84729050D01*
X129912049Y-84738483D01*
X129834055Y-84958731D01*
X129831413Y-84968729D01*
X129790440Y-85198758D01*
X129789467Y-85209053D01*
X129786611Y-85442685D01*
X129787333Y-85453002D01*
X129822675Y-85683962D01*
X129825072Y-85694022D01*
X129897660Y-85916110D01*
X129901668Y-85925644D01*
X130009555Y-86132893D01*
X130015066Y-86141644D01*
X130155354Y-86328490D01*
X130162221Y-86336224D01*
X130331141Y-86497647D01*
X130339178Y-86504155D01*
X130501517Y-86614896D01*
X130367802Y-86701400D01*
X130359608Y-86707710D01*
X130186794Y-86864959D01*
X130179741Y-86872522D01*
X130034930Y-87055885D01*
X130029207Y-87064499D01*
X129916289Y-87269050D01*
X129912049Y-87278483D01*
X129834055Y-87498730D01*
X129831413Y-87508729D01*
X129803432Y-87665814D01*
X129878973Y-87756000D01*
X131370192Y-87756001D01*
X131370193Y-87756000D01*
X133264900Y-87756001D01*
X133340319Y-87668163D01*
X133328602Y-87591595D01*
X134282739Y-88545732D01*
X134280557Y-88712380D01*
X134281464Y-88723898D01*
X134317906Y-88935979D01*
X134320896Y-88947139D01*
X134395377Y-89149028D01*
X134400351Y-89159457D01*
X134510376Y-89344392D01*
X134517167Y-89353738D01*
X134659051Y-89515526D01*
X134667432Y-89523479D01*
X134836424Y-89656701D01*
X134846113Y-89662994D01*
X135036554Y-89763189D01*
X135047228Y-89767610D01*
X135253132Y-89831546D01*
X135265258Y-89834041D01*
X135460893Y-89854603D01*
X135467483Y-89854948D01*
X136370475Y-89854948D01*
X136376242Y-89854684D01*
X136536002Y-89840004D01*
X136547362Y-89837898D01*
X136754472Y-89779487D01*
X136765259Y-89775347D01*
X136958256Y-89680171D01*
X136968107Y-89674134D01*
X137140528Y-89545381D01*
X137149113Y-89537650D01*
X137184696Y-89499157D01*
X137199051Y-89515526D01*
X137207432Y-89523479D01*
X137376424Y-89656701D01*
X137386113Y-89662994D01*
X137576554Y-89763189D01*
X137587228Y-89767610D01*
X137793132Y-89831546D01*
X137805258Y-89834041D01*
X138000893Y-89854603D01*
X138007483Y-89854948D01*
X138910475Y-89854948D01*
X138916242Y-89854684D01*
X139076002Y-89840004D01*
X139087362Y-89837898D01*
X139294472Y-89779487D01*
X139305259Y-89775347D01*
X139498256Y-89680171D01*
X139508107Y-89674134D01*
X139680528Y-89545381D01*
X139689113Y-89537650D01*
X139835185Y-89379632D01*
X139842218Y-89370466D01*
X139957046Y-89188474D01*
X139962291Y-89178180D01*
X140042032Y-88978310D01*
X140045313Y-88967232D01*
X140087294Y-88756178D01*
X140088502Y-88744688D01*
X140091319Y-88529516D01*
X140090412Y-88517998D01*
X140053970Y-88305917D01*
X140050980Y-88294757D01*
X139976499Y-88092868D01*
X139971525Y-88082439D01*
X139861500Y-87897504D01*
X139854709Y-87888158D01*
X139712825Y-87726370D01*
X139704444Y-87718417D01*
X139535452Y-87585195D01*
X139525763Y-87578902D01*
X139335322Y-87478707D01*
X139324648Y-87474286D01*
X139118744Y-87410350D01*
X139106618Y-87407855D01*
X138910983Y-87387293D01*
X138904393Y-87386948D01*
X138001401Y-87386948D01*
X137995634Y-87387212D01*
X137835874Y-87401892D01*
X137824514Y-87403998D01*
X137617404Y-87462409D01*
X137606617Y-87466549D01*
X137413620Y-87561725D01*
X137403769Y-87567762D01*
X137231348Y-87696515D01*
X137222763Y-87704246D01*
X137187180Y-87742739D01*
X137172825Y-87726370D01*
X137164444Y-87718417D01*
X136995452Y-87585195D01*
X136985763Y-87578902D01*
X136795322Y-87478707D01*
X136784648Y-87474286D01*
X136578744Y-87410350D01*
X136566618Y-87407855D01*
X136370983Y-87387293D01*
X136364393Y-87386948D01*
X135629940Y-87386948D01*
X135557940Y-87314948D01*
X136370475Y-87314948D01*
X136376242Y-87314684D01*
X136536002Y-87300004D01*
X136547362Y-87297898D01*
X136754472Y-87239487D01*
X136765259Y-87235347D01*
X136958256Y-87140171D01*
X136968107Y-87134134D01*
X137140528Y-87005381D01*
X137149113Y-86997650D01*
X137184696Y-86959157D01*
X137199051Y-86975526D01*
X137207432Y-86983479D01*
X137376424Y-87116701D01*
X137386113Y-87122994D01*
X137576554Y-87223189D01*
X137587228Y-87227610D01*
X137793132Y-87291546D01*
X137805258Y-87294041D01*
X138000893Y-87314603D01*
X138007483Y-87314948D01*
X138910475Y-87314948D01*
X138916242Y-87314684D01*
X139076002Y-87300004D01*
X139087362Y-87297898D01*
X139294472Y-87239487D01*
X139305259Y-87235347D01*
X139498256Y-87140171D01*
X139508107Y-87134134D01*
X139680528Y-87005381D01*
X139689113Y-86997650D01*
X139835185Y-86839632D01*
X139842218Y-86830466D01*
X139957046Y-86648474D01*
X139962291Y-86638180D01*
X140042032Y-86438310D01*
X140045313Y-86427232D01*
X140087294Y-86216178D01*
X140088502Y-86204688D01*
X140091319Y-85989516D01*
X140090412Y-85977998D01*
X140053970Y-85765917D01*
X140050980Y-85754757D01*
X139976499Y-85552868D01*
X139971525Y-85542439D01*
X139861500Y-85357504D01*
X139854709Y-85348158D01*
X139712825Y-85186370D01*
X139704444Y-85178417D01*
X139535452Y-85045195D01*
X139525763Y-85038902D01*
X139335322Y-84938707D01*
X139324648Y-84934286D01*
X139118744Y-84870350D01*
X139106618Y-84867855D01*
X138910983Y-84847293D01*
X138904393Y-84846948D01*
X138651707Y-84846948D01*
X138579707Y-84774948D01*
X138910475Y-84774948D01*
X138916242Y-84774684D01*
X139076002Y-84760004D01*
X139087362Y-84757898D01*
X139294472Y-84699487D01*
X139305259Y-84695347D01*
X139498256Y-84600171D01*
X139508107Y-84594134D01*
X139680528Y-84465381D01*
X139689113Y-84457650D01*
X139835185Y-84299632D01*
X139842218Y-84290466D01*
X139957046Y-84108474D01*
X139962291Y-84098180D01*
X140042032Y-83898310D01*
X140045313Y-83887232D01*
X140070406Y-83761081D01*
X139994795Y-83668948D01*
X138657746Y-83668947D01*
X138657745Y-83668948D01*
X138327938Y-83668947D01*
X138327938Y-83339139D01*
X138583937Y-83339139D01*
X138657746Y-83412948D01*
X139995197Y-83412949D01*
X140070711Y-83323353D01*
X140053970Y-83225918D01*
X140050980Y-83214757D01*
X139976499Y-83012868D01*
X139971525Y-83002439D01*
X139861500Y-82817504D01*
X139854709Y-82808158D01*
X139712825Y-82646370D01*
X139704444Y-82638417D01*
X139535452Y-82505195D01*
X139525763Y-82498902D01*
X139335322Y-82398707D01*
X139324648Y-82394286D01*
X139118744Y-82330350D01*
X139106618Y-82327855D01*
X138910983Y-82307293D01*
X138904393Y-82306948D01*
X138657747Y-82306948D01*
X138583938Y-82380757D01*
X138583937Y-83339139D01*
X138327938Y-83339139D01*
X138327939Y-82380757D01*
X138254130Y-82306948D01*
X138001401Y-82306948D01*
X137995634Y-82307212D01*
X137835874Y-82321892D01*
X137824514Y-82323998D01*
X137617404Y-82382409D01*
X137606617Y-82386549D01*
X137413620Y-82481725D01*
X137403769Y-82487762D01*
X137231348Y-82616515D01*
X137222763Y-82624246D01*
X137187180Y-82662739D01*
X137172825Y-82646370D01*
X137164444Y-82638417D01*
X136995452Y-82505195D01*
X136985763Y-82498902D01*
X136795322Y-82398707D01*
X136784648Y-82394286D01*
X136578744Y-82330350D01*
X136566618Y-82327855D01*
X136370983Y-82307293D01*
X136364393Y-82306948D01*
X135461401Y-82306948D01*
X135455634Y-82307212D01*
X135295874Y-82321892D01*
X135284514Y-82323998D01*
X135077404Y-82382409D01*
X135066617Y-82386549D01*
X134873620Y-82481725D01*
X134863769Y-82487762D01*
X134691348Y-82616515D01*
X134682763Y-82624246D01*
X134536691Y-82782264D01*
X134529658Y-82791430D01*
X134414830Y-82973422D01*
X134409585Y-82983716D01*
X134329844Y-83183586D01*
X134326563Y-83194664D01*
X134284582Y-83405718D01*
X134283374Y-83417208D01*
X134280557Y-83632380D01*
X134281464Y-83643898D01*
X134317906Y-83855979D01*
X134320896Y-83867139D01*
X134331152Y-83894938D01*
X134092708Y-83894938D01*
X133322332Y-83124563D01*
X133353560Y-82949242D01*
X133354533Y-82938947D01*
X133357389Y-82705315D01*
X133356667Y-82694998D01*
X133321325Y-82464038D01*
X133318928Y-82453978D01*
X133246340Y-82231890D01*
X133242332Y-82222356D01*
X133134445Y-82015107D01*
X133128934Y-82006356D01*
X132988646Y-81819510D01*
X132981779Y-81811776D01*
X132812859Y-81650353D01*
X132804822Y-81643845D01*
X132611805Y-81512177D01*
X132602813Y-81507068D01*
X132390882Y-81408694D01*
X132381177Y-81405123D01*
X132155654Y-81342580D01*
X132144725Y-81340564D01*
X131930136Y-81320280D01*
X131924204Y-81320000D01*
X131212807Y-81320000D01*
X131207643Y-81320212D01*
X131033965Y-81334490D01*
X131023762Y-81336179D01*
X130797152Y-81393101D01*
X130787363Y-81396434D01*
X130573093Y-81489600D01*
X130563979Y-81494487D01*
X130367802Y-81621400D01*
X130359608Y-81627710D01*
X130186794Y-81784959D01*
X130179741Y-81792522D01*
X130034930Y-81975885D01*
X130029207Y-81984499D01*
X129916289Y-82189050D01*
X129912049Y-82198483D01*
X129834055Y-82418731D01*
X129831413Y-82428729D01*
X129790440Y-82658758D01*
X129789467Y-82669053D01*
X129786611Y-82902685D01*
X129412000Y-82902685D01*
X129412000Y-81092380D01*
X134280557Y-81092380D01*
X134281464Y-81103898D01*
X134317906Y-81315979D01*
X134320896Y-81327139D01*
X134395377Y-81529028D01*
X134400351Y-81539457D01*
X134510376Y-81724392D01*
X134517167Y-81733738D01*
X134659051Y-81895526D01*
X134667432Y-81903479D01*
X134836424Y-82036701D01*
X134846113Y-82042994D01*
X135036554Y-82143189D01*
X135047228Y-82147610D01*
X135253132Y-82211546D01*
X135265258Y-82214041D01*
X135460893Y-82234603D01*
X135467483Y-82234948D01*
X136370475Y-82234948D01*
X136376242Y-82234684D01*
X136536002Y-82220004D01*
X136547362Y-82217898D01*
X136754472Y-82159487D01*
X136765259Y-82155347D01*
X136958256Y-82060171D01*
X136968107Y-82054134D01*
X137140528Y-81925381D01*
X137149113Y-81917650D01*
X137184696Y-81879157D01*
X137199051Y-81895526D01*
X137207432Y-81903479D01*
X137376424Y-82036701D01*
X137386113Y-82042994D01*
X137576554Y-82143189D01*
X137587228Y-82147610D01*
X137793132Y-82211546D01*
X137805258Y-82214041D01*
X138000893Y-82234603D01*
X138007483Y-82234948D01*
X138910475Y-82234948D01*
X138916242Y-82234684D01*
X139076002Y-82220004D01*
X139087362Y-82217898D01*
X139294472Y-82159487D01*
X139305259Y-82155347D01*
X139498256Y-82060171D01*
X139508107Y-82054134D01*
X139680528Y-81925381D01*
X139689113Y-81917650D01*
X139835185Y-81759632D01*
X139842218Y-81750466D01*
X139957046Y-81568474D01*
X139962291Y-81558180D01*
X140042032Y-81358310D01*
X140045313Y-81347232D01*
X140087294Y-81136178D01*
X140088502Y-81124688D01*
X140091319Y-80909516D01*
X140090412Y-80897998D01*
X140067223Y-80763043D01*
X145831109Y-80763043D01*
X145849188Y-81003497D01*
X145850885Y-81014034D01*
X145909221Y-81248005D01*
X145912669Y-81258104D01*
X146009591Y-81478900D01*
X146014692Y-81488275D01*
X146147430Y-81689584D01*
X146154038Y-81697965D01*
X146318798Y-81874032D01*
X146326722Y-81881180D01*
X146518792Y-82026968D01*
X146527808Y-82032679D01*
X146741696Y-82144021D01*
X146751545Y-82148131D01*
X146981134Y-82221844D01*
X146991535Y-82224236D01*
X147230262Y-82258212D01*
X147240917Y-82258817D01*
X147481956Y-82252084D01*
X147492561Y-82250885D01*
X147729019Y-82203636D01*
X147739270Y-82200667D01*
X147964387Y-82114253D01*
X147973991Y-82109600D01*
X148181330Y-81986491D01*
X148190012Y-81980286D01*
X148373645Y-81824004D01*
X148381158Y-81816424D01*
X148535833Y-81631435D01*
X148541962Y-81622698D01*
X148589486Y-81541043D01*
X148687430Y-81689584D01*
X148694038Y-81697965D01*
X148858798Y-81874032D01*
X148866722Y-81881180D01*
X149058792Y-82026968D01*
X149067808Y-82032679D01*
X149281696Y-82144021D01*
X149291545Y-82148131D01*
X149521134Y-82221845D01*
X149531535Y-82224236D01*
X149645162Y-82240407D01*
X149732000Y-82165052D01*
X149732001Y-80973808D01*
X149732000Y-80973807D01*
X149732000Y-80570192D01*
X149987999Y-80570192D01*
X149988000Y-80570193D01*
X149987999Y-82165748D01*
X150080217Y-82241362D01*
X150269019Y-82203636D01*
X150279270Y-82200667D01*
X150504387Y-82114253D01*
X150513991Y-82109600D01*
X150721330Y-81986491D01*
X150730012Y-81980286D01*
X150913645Y-81824004D01*
X150921158Y-81816424D01*
X151075833Y-81631435D01*
X151081962Y-81622698D01*
X151129486Y-81541043D01*
X151227430Y-81689584D01*
X151234038Y-81697965D01*
X151398798Y-81874032D01*
X151406722Y-81881180D01*
X151598792Y-82026968D01*
X151607808Y-82032679D01*
X151821696Y-82144021D01*
X151831545Y-82148131D01*
X152061134Y-82221844D01*
X152071535Y-82224236D01*
X152310262Y-82258212D01*
X152320917Y-82258817D01*
X152561956Y-82252084D01*
X152572561Y-82250885D01*
X152809019Y-82203636D01*
X152819270Y-82200667D01*
X153044387Y-82114253D01*
X153053991Y-82109600D01*
X153261330Y-81986491D01*
X153270012Y-81980286D01*
X153453645Y-81824004D01*
X153461158Y-81816424D01*
X153615833Y-81631435D01*
X153621962Y-81622698D01*
X153743256Y-81414294D01*
X153747825Y-81404650D01*
X153832272Y-81178787D01*
X153835151Y-81168511D01*
X153880392Y-80931351D01*
X153881507Y-80920128D01*
X153884077Y-80652341D01*
X153883178Y-80641099D01*
X153842499Y-80403114D01*
X153839817Y-80392784D01*
X153759723Y-80165343D01*
X153755339Y-80155612D01*
X153638067Y-79944916D01*
X153632107Y-79936064D01*
X153481013Y-79748140D01*
X153473647Y-79740417D01*
X153293049Y-79580638D01*
X153284486Y-79574267D01*
X153079549Y-79447202D01*
X153070036Y-79442365D01*
X152846619Y-79351645D01*
X152836427Y-79348480D01*
X152600919Y-79296700D01*
X152590340Y-79295298D01*
X152349475Y-79283939D01*
X152338809Y-79284339D01*
X152099474Y-79313727D01*
X152089030Y-79315918D01*
X151858068Y-79385210D01*
X151848142Y-79389130D01*
X151632155Y-79496346D01*
X151623032Y-79501882D01*
X151428199Y-79643957D01*
X151420138Y-79650952D01*
X151252029Y-79823822D01*
X151245263Y-79832074D01*
X151129229Y-80000903D01*
X151098067Y-79944916D01*
X151092107Y-79936064D01*
X150941013Y-79748140D01*
X150933647Y-79740417D01*
X150753049Y-79580638D01*
X150744486Y-79574267D01*
X150539549Y-79447202D01*
X150530036Y-79442365D01*
X150306619Y-79351645D01*
X150296427Y-79348480D01*
X150082096Y-79301356D01*
X149988000Y-79377011D01*
X149987999Y-80570192D01*
X149732000Y-80570192D01*
X149732001Y-79378201D01*
X149646981Y-79302982D01*
X149559474Y-79313726D01*
X149549030Y-79315918D01*
X149318068Y-79385210D01*
X149308142Y-79389130D01*
X149092155Y-79496346D01*
X149083032Y-79501882D01*
X148888199Y-79643957D01*
X148880138Y-79650952D01*
X148712029Y-79823822D01*
X148705263Y-79832074D01*
X148589229Y-80000903D01*
X148558067Y-79944916D01*
X148552107Y-79936064D01*
X148401013Y-79748140D01*
X148393647Y-79740417D01*
X148213049Y-79580638D01*
X148204486Y-79574267D01*
X147999549Y-79447202D01*
X147990036Y-79442365D01*
X147766619Y-79351645D01*
X147756427Y-79348480D01*
X147520919Y-79296700D01*
X147510340Y-79295298D01*
X147269475Y-79283939D01*
X147258809Y-79284339D01*
X147019474Y-79313727D01*
X147009030Y-79315918D01*
X146778068Y-79385210D01*
X146768142Y-79389130D01*
X146552155Y-79496346D01*
X146543032Y-79501882D01*
X146348199Y-79643957D01*
X146340138Y-79650952D01*
X146172029Y-79823822D01*
X146165263Y-79832074D01*
X146028683Y-80030798D01*
X146023403Y-80040073D01*
X145922260Y-80258968D01*
X145918618Y-80269000D01*
X145855802Y-80501807D01*
X145853903Y-80512309D01*
X145831211Y-80752372D01*
X145831109Y-80763043D01*
X140067223Y-80763043D01*
X140053970Y-80685917D01*
X140050980Y-80674757D01*
X139976499Y-80472868D01*
X139971525Y-80462439D01*
X139861500Y-80277504D01*
X139854709Y-80268158D01*
X139712825Y-80106370D01*
X139704444Y-80098417D01*
X139535452Y-79965195D01*
X139525763Y-79958902D01*
X139335322Y-79858707D01*
X139324648Y-79854286D01*
X139118744Y-79790350D01*
X139106618Y-79787855D01*
X138910983Y-79767293D01*
X138904393Y-79766948D01*
X138001401Y-79766948D01*
X137995634Y-79767212D01*
X137835874Y-79781892D01*
X137824514Y-79783998D01*
X137617404Y-79842409D01*
X137606617Y-79846549D01*
X137413620Y-79941725D01*
X137403769Y-79947762D01*
X137231348Y-80076515D01*
X137222763Y-80084246D01*
X137187180Y-80122739D01*
X137172825Y-80106370D01*
X137164444Y-80098417D01*
X136995452Y-79965195D01*
X136985763Y-79958902D01*
X136795322Y-79858707D01*
X136784648Y-79854286D01*
X136578744Y-79790350D01*
X136566618Y-79787855D01*
X136370983Y-79767293D01*
X136364393Y-79766948D01*
X135461401Y-79766948D01*
X135455634Y-79767212D01*
X135295874Y-79781892D01*
X135284514Y-79783998D01*
X135077404Y-79842409D01*
X135066617Y-79846549D01*
X134873620Y-79941725D01*
X134863769Y-79947762D01*
X134691348Y-80076515D01*
X134682763Y-80084246D01*
X134536691Y-80242264D01*
X134529658Y-80251430D01*
X134414830Y-80433422D01*
X134409585Y-80443716D01*
X134329844Y-80643586D01*
X134326563Y-80654664D01*
X134284582Y-80865718D01*
X134283374Y-80877208D01*
X134280557Y-81092380D01*
X129412000Y-81092380D01*
X129412000Y-78552380D01*
X134280557Y-78552380D01*
X134281464Y-78563898D01*
X134317906Y-78775979D01*
X134320896Y-78787139D01*
X134395377Y-78989028D01*
X134400351Y-78999457D01*
X134510376Y-79184392D01*
X134517167Y-79193738D01*
X134659051Y-79355526D01*
X134667432Y-79363479D01*
X134836424Y-79496701D01*
X134846113Y-79502994D01*
X135036554Y-79603189D01*
X135047228Y-79607610D01*
X135253132Y-79671546D01*
X135265258Y-79674041D01*
X135460893Y-79694603D01*
X135467483Y-79694948D01*
X136370475Y-79694948D01*
X136376242Y-79694684D01*
X136536002Y-79680004D01*
X136547362Y-79677898D01*
X136754472Y-79619487D01*
X136765259Y-79615347D01*
X136958256Y-79520171D01*
X136968107Y-79514134D01*
X137140528Y-79385381D01*
X137149113Y-79377650D01*
X137184696Y-79339157D01*
X137199051Y-79355526D01*
X137207432Y-79363479D01*
X137376424Y-79496701D01*
X137386113Y-79502994D01*
X137576554Y-79603189D01*
X137587228Y-79607610D01*
X137793132Y-79671546D01*
X137805258Y-79674041D01*
X138000893Y-79694603D01*
X138007483Y-79694948D01*
X138910475Y-79694948D01*
X138916242Y-79694684D01*
X139076002Y-79680004D01*
X139087362Y-79677898D01*
X139294472Y-79619487D01*
X139305259Y-79615347D01*
X139498256Y-79520171D01*
X139508107Y-79514134D01*
X139680528Y-79385381D01*
X139689113Y-79377650D01*
X139835185Y-79219632D01*
X139842218Y-79210466D01*
X139957046Y-79028474D01*
X139962291Y-79018180D01*
X140042032Y-78818310D01*
X140045313Y-78807232D01*
X140087294Y-78596178D01*
X140088502Y-78584688D01*
X140091319Y-78369516D01*
X140090412Y-78357998D01*
X140053970Y-78145917D01*
X140050980Y-78134757D01*
X139976499Y-77932868D01*
X139971525Y-77922439D01*
X139861500Y-77737504D01*
X139854709Y-77728158D01*
X139712825Y-77566370D01*
X139704444Y-77558417D01*
X139535452Y-77425195D01*
X139525763Y-77418902D01*
X139335322Y-77318707D01*
X139324648Y-77314286D01*
X139118744Y-77250350D01*
X139106618Y-77247855D01*
X138910983Y-77227293D01*
X138904393Y-77226948D01*
X138001401Y-77226948D01*
X137995634Y-77227212D01*
X137835874Y-77241892D01*
X137824514Y-77243998D01*
X137617404Y-77302409D01*
X137606617Y-77306549D01*
X137413620Y-77401725D01*
X137403769Y-77407762D01*
X137231348Y-77536515D01*
X137222763Y-77544246D01*
X137187180Y-77582739D01*
X137172825Y-77566370D01*
X137164444Y-77558417D01*
X136995452Y-77425195D01*
X136985763Y-77418902D01*
X136795322Y-77318707D01*
X136784648Y-77314286D01*
X136578744Y-77250350D01*
X136566618Y-77247855D01*
X136370983Y-77227293D01*
X136364393Y-77226948D01*
X135461401Y-77226948D01*
X135455634Y-77227212D01*
X135295874Y-77241892D01*
X135284514Y-77243998D01*
X135077404Y-77302409D01*
X135066617Y-77306549D01*
X134873620Y-77401725D01*
X134863769Y-77407762D01*
X134691348Y-77536515D01*
X134682763Y-77544246D01*
X134536691Y-77702264D01*
X134529658Y-77711430D01*
X134414830Y-77893422D01*
X134409585Y-77903716D01*
X134329844Y-78103586D01*
X134326563Y-78114664D01*
X134284582Y-78325718D01*
X134283374Y-78337208D01*
X134280557Y-78552380D01*
X129412000Y-78552380D01*
X129412000Y-76012380D01*
X134280557Y-76012380D01*
X134281464Y-76023898D01*
X134317906Y-76235979D01*
X134320896Y-76247139D01*
X134395377Y-76449028D01*
X134400351Y-76459457D01*
X134510376Y-76644392D01*
X134517167Y-76653738D01*
X134659051Y-76815526D01*
X134667432Y-76823479D01*
X134836424Y-76956701D01*
X134846113Y-76962994D01*
X135036554Y-77063189D01*
X135047228Y-77067610D01*
X135253132Y-77131546D01*
X135265258Y-77134041D01*
X135460893Y-77154603D01*
X135467483Y-77154948D01*
X136370475Y-77154948D01*
X136376242Y-77154684D01*
X136536002Y-77140004D01*
X136547362Y-77137898D01*
X136754472Y-77079487D01*
X136765259Y-77075347D01*
X136958256Y-76980171D01*
X136968107Y-76974134D01*
X137140528Y-76845381D01*
X137149113Y-76837650D01*
X137184696Y-76799157D01*
X137199051Y-76815526D01*
X137207432Y-76823479D01*
X137376424Y-76956701D01*
X137386113Y-76962994D01*
X137576554Y-77063189D01*
X137587228Y-77067610D01*
X137793132Y-77131546D01*
X137805258Y-77134041D01*
X138000893Y-77154603D01*
X138007483Y-77154948D01*
X138910475Y-77154948D01*
X138916242Y-77154684D01*
X139076002Y-77140004D01*
X139087362Y-77137898D01*
X139294472Y-77079487D01*
X139305259Y-77075347D01*
X139498256Y-76980171D01*
X139508107Y-76974134D01*
X139680528Y-76845381D01*
X139689113Y-76837650D01*
X139835185Y-76679632D01*
X139842218Y-76670466D01*
X139957046Y-76488474D01*
X139962291Y-76478180D01*
X140042032Y-76278310D01*
X140045313Y-76267232D01*
X140074934Y-76118314D01*
X148426000Y-76118314D01*
X148426000Y-76358186D01*
X148426959Y-76369147D01*
X148468613Y-76605376D01*
X148471460Y-76616003D01*
X148553502Y-76841410D01*
X148558152Y-76851382D01*
X148678088Y-77059118D01*
X148684399Y-77068131D01*
X148838587Y-77251884D01*
X148846366Y-77259663D01*
X149030119Y-77413851D01*
X149039132Y-77420162D01*
X149246868Y-77540098D01*
X149256840Y-77544748D01*
X149482247Y-77626790D01*
X149492874Y-77629637D01*
X149729103Y-77671291D01*
X149740064Y-77672250D01*
X149979936Y-77672250D01*
X149990897Y-77671291D01*
X150227126Y-77629637D01*
X150237753Y-77626790D01*
X150463160Y-77544748D01*
X150473132Y-77540098D01*
X150680868Y-77420162D01*
X150689881Y-77413851D01*
X150873634Y-77259663D01*
X150881413Y-77251884D01*
X151035601Y-77068131D01*
X151041912Y-77059118D01*
X151130000Y-76906545D01*
X151218088Y-77059118D01*
X151224399Y-77068131D01*
X151378587Y-77251884D01*
X151386366Y-77259663D01*
X151570119Y-77413851D01*
X151579132Y-77420162D01*
X151786868Y-77540098D01*
X151796840Y-77544748D01*
X152022247Y-77626790D01*
X152032874Y-77629637D01*
X152269103Y-77671291D01*
X152280064Y-77672250D01*
X152519936Y-77672250D01*
X152530897Y-77671291D01*
X152767126Y-77629637D01*
X152777753Y-77626790D01*
X153003160Y-77544748D01*
X153013132Y-77540098D01*
X153220868Y-77420162D01*
X153229881Y-77413851D01*
X153413634Y-77259663D01*
X153421413Y-77251884D01*
X153575601Y-77068131D01*
X153581912Y-77059118D01*
X153670000Y-76906545D01*
X153758088Y-77059118D01*
X153764399Y-77068131D01*
X153918587Y-77251884D01*
X153926366Y-77259663D01*
X154110119Y-77413851D01*
X154119132Y-77420162D01*
X154326868Y-77540098D01*
X154336840Y-77544748D01*
X154562247Y-77626790D01*
X154572874Y-77629637D01*
X154809103Y-77671291D01*
X154820064Y-77672250D01*
X155059936Y-77672250D01*
X155070897Y-77671291D01*
X155307126Y-77629637D01*
X155317753Y-77626790D01*
X155543160Y-77544748D01*
X155553132Y-77540098D01*
X155760868Y-77420162D01*
X155769881Y-77413851D01*
X155953634Y-77259663D01*
X155961413Y-77251884D01*
X156115601Y-77068131D01*
X156121912Y-77059118D01*
X156210000Y-76906545D01*
X156298088Y-77059118D01*
X156304399Y-77068131D01*
X156458587Y-77251884D01*
X156466366Y-77259663D01*
X156650119Y-77413851D01*
X156659132Y-77420162D01*
X156866868Y-77540098D01*
X156876840Y-77544748D01*
X157102247Y-77626790D01*
X157112874Y-77629637D01*
X157349103Y-77671291D01*
X157360064Y-77672250D01*
X157599936Y-77672250D01*
X157610897Y-77671291D01*
X157847126Y-77629637D01*
X157857753Y-77626790D01*
X158083160Y-77544748D01*
X158093132Y-77540098D01*
X158300868Y-77420162D01*
X158309881Y-77413851D01*
X158493634Y-77259663D01*
X158501413Y-77251884D01*
X158655601Y-77068131D01*
X158661912Y-77059118D01*
X158781848Y-76851382D01*
X158786498Y-76841410D01*
X158868540Y-76616003D01*
X158871387Y-76605376D01*
X158913041Y-76369147D01*
X158914000Y-76358186D01*
X158914000Y-76118314D01*
X158913041Y-76107353D01*
X158871387Y-75871124D01*
X158868540Y-75860497D01*
X158786498Y-75635090D01*
X158781848Y-75625118D01*
X158661912Y-75417382D01*
X158655601Y-75408369D01*
X158501413Y-75224616D01*
X158493634Y-75216837D01*
X158309881Y-75062649D01*
X158300868Y-75056338D01*
X158093132Y-74936402D01*
X158083160Y-74931752D01*
X157857753Y-74849710D01*
X157847126Y-74846863D01*
X157610897Y-74805209D01*
X157599936Y-74804250D01*
X157360064Y-74804250D01*
X157349103Y-74805209D01*
X157112874Y-74846863D01*
X157102247Y-74849710D01*
X156876840Y-74931752D01*
X156866868Y-74936402D01*
X156659132Y-75056338D01*
X156650119Y-75062649D01*
X156466366Y-75216837D01*
X156458587Y-75224616D01*
X156304399Y-75408369D01*
X156298088Y-75417382D01*
X156210000Y-75569955D01*
X156121912Y-75417382D01*
X156115601Y-75408369D01*
X155961413Y-75224616D01*
X155953634Y-75216837D01*
X155769881Y-75062649D01*
X155760868Y-75056338D01*
X155553132Y-74936402D01*
X155543160Y-74931752D01*
X155317753Y-74849710D01*
X155307126Y-74846863D01*
X155070897Y-74805209D01*
X155059936Y-74804250D01*
X154820064Y-74804250D01*
X154809103Y-74805209D01*
X154572874Y-74846863D01*
X154562247Y-74849710D01*
X154336840Y-74931752D01*
X154326868Y-74936402D01*
X154119132Y-75056338D01*
X154110119Y-75062649D01*
X153926366Y-75216837D01*
X153918587Y-75224616D01*
X153764399Y-75408369D01*
X153758088Y-75417382D01*
X153670000Y-75569955D01*
X153581912Y-75417382D01*
X153575601Y-75408369D01*
X153421413Y-75224616D01*
X153413634Y-75216837D01*
X153229881Y-75062649D01*
X153220868Y-75056338D01*
X153013132Y-74936402D01*
X153003160Y-74931752D01*
X152777753Y-74849710D01*
X152767126Y-74846863D01*
X152530897Y-74805209D01*
X152519936Y-74804250D01*
X152280064Y-74804250D01*
X152269103Y-74805209D01*
X152032874Y-74846863D01*
X152022247Y-74849710D01*
X151796840Y-74931752D01*
X151786868Y-74936402D01*
X151579132Y-75056338D01*
X151570119Y-75062649D01*
X151386366Y-75216837D01*
X151378587Y-75224616D01*
X151224399Y-75408369D01*
X151218088Y-75417382D01*
X151130000Y-75569955D01*
X151041912Y-75417382D01*
X151035601Y-75408369D01*
X150881413Y-75224616D01*
X150873634Y-75216837D01*
X150689881Y-75062649D01*
X150680868Y-75056338D01*
X150473132Y-74936402D01*
X150463160Y-74931752D01*
X150237753Y-74849710D01*
X150227126Y-74846863D01*
X149990897Y-74805209D01*
X149979936Y-74804250D01*
X149740064Y-74804250D01*
X149729103Y-74805209D01*
X149492874Y-74846863D01*
X149482247Y-74849710D01*
X149256840Y-74931752D01*
X149246868Y-74936402D01*
X149039132Y-75056338D01*
X149030119Y-75062649D01*
X148846366Y-75216837D01*
X148838587Y-75224616D01*
X148684399Y-75408369D01*
X148678088Y-75417382D01*
X148558152Y-75625118D01*
X148553502Y-75635090D01*
X148471460Y-75860497D01*
X148468613Y-75871124D01*
X148426959Y-76107353D01*
X148426000Y-76118314D01*
X140074934Y-76118314D01*
X140087294Y-76056178D01*
X140088502Y-76044688D01*
X140091319Y-75829516D01*
X140090412Y-75817998D01*
X140053970Y-75605917D01*
X140050980Y-75594757D01*
X139976499Y-75392868D01*
X139971525Y-75382439D01*
X139861500Y-75197504D01*
X139854709Y-75188158D01*
X139712825Y-75026370D01*
X139704444Y-75018417D01*
X139535452Y-74885195D01*
X139525763Y-74878902D01*
X139335322Y-74778707D01*
X139324648Y-74774286D01*
X139118744Y-74710350D01*
X139106618Y-74707855D01*
X138910983Y-74687293D01*
X138904393Y-74686948D01*
X138001401Y-74686948D01*
X137995634Y-74687212D01*
X137835874Y-74701892D01*
X137824514Y-74703998D01*
X137617404Y-74762409D01*
X137606617Y-74766549D01*
X137413620Y-74861725D01*
X137403769Y-74867762D01*
X137231348Y-74996515D01*
X137222763Y-75004246D01*
X137187180Y-75042739D01*
X137172825Y-75026370D01*
X137164444Y-75018417D01*
X136995452Y-74885195D01*
X136985763Y-74878902D01*
X136795322Y-74778707D01*
X136784648Y-74774286D01*
X136578744Y-74710350D01*
X136566618Y-74707855D01*
X136370983Y-74687293D01*
X136364393Y-74686948D01*
X135461401Y-74686948D01*
X135455634Y-74687212D01*
X135295874Y-74701892D01*
X135284514Y-74703998D01*
X135077404Y-74762409D01*
X135066617Y-74766549D01*
X134873620Y-74861725D01*
X134863769Y-74867762D01*
X134691348Y-74996515D01*
X134682763Y-75004246D01*
X134536691Y-75162264D01*
X134529658Y-75171430D01*
X134414830Y-75353422D01*
X134409585Y-75363716D01*
X134329844Y-75563586D01*
X134326563Y-75574664D01*
X134284582Y-75785718D01*
X134283374Y-75797208D01*
X134280557Y-76012380D01*
X129412000Y-76012380D01*
X129412000Y-73472380D01*
X134280557Y-73472380D01*
X134281464Y-73483898D01*
X134317906Y-73695979D01*
X134320896Y-73707139D01*
X134395377Y-73909028D01*
X134400351Y-73919457D01*
X134510376Y-74104392D01*
X134517167Y-74113738D01*
X134659051Y-74275526D01*
X134667432Y-74283479D01*
X134836424Y-74416701D01*
X134846113Y-74422994D01*
X135036554Y-74523189D01*
X135047228Y-74527610D01*
X135253132Y-74591546D01*
X135265258Y-74594041D01*
X135460893Y-74614603D01*
X135467483Y-74614948D01*
X136370475Y-74614948D01*
X136376242Y-74614684D01*
X136536002Y-74600004D01*
X136547362Y-74597898D01*
X136754472Y-74539487D01*
X136765259Y-74535347D01*
X136958256Y-74440171D01*
X136968107Y-74434134D01*
X137140528Y-74305381D01*
X137149113Y-74297650D01*
X137184696Y-74259157D01*
X137199051Y-74275526D01*
X137207432Y-74283479D01*
X137376424Y-74416701D01*
X137386113Y-74422994D01*
X137576554Y-74523189D01*
X137587228Y-74527610D01*
X137793132Y-74591546D01*
X137805258Y-74594041D01*
X138000893Y-74614603D01*
X138007483Y-74614948D01*
X138910475Y-74614948D01*
X138916242Y-74614684D01*
X139076002Y-74600004D01*
X139087362Y-74597898D01*
X139294472Y-74539487D01*
X139305259Y-74535347D01*
X139498256Y-74440171D01*
X139508107Y-74434134D01*
X139680528Y-74305381D01*
X139689113Y-74297650D01*
X139835185Y-74139632D01*
X139842218Y-74130466D01*
X139957046Y-73948474D01*
X139962291Y-73938180D01*
X140042032Y-73738310D01*
X140045313Y-73727232D01*
X140087294Y-73516178D01*
X140088502Y-73504688D01*
X140091319Y-73289516D01*
X140090412Y-73277998D01*
X140053970Y-73065917D01*
X140050980Y-73054757D01*
X139976499Y-72852868D01*
X139971525Y-72842439D01*
X139861500Y-72657504D01*
X139854709Y-72648158D01*
X139712825Y-72486370D01*
X139704444Y-72478417D01*
X139535452Y-72345195D01*
X139525763Y-72338902D01*
X139335322Y-72238707D01*
X139324648Y-72234286D01*
X139118744Y-72170350D01*
X139106618Y-72167855D01*
X138910983Y-72147293D01*
X138904393Y-72146948D01*
X138001401Y-72146948D01*
X137995634Y-72147212D01*
X137835874Y-72161892D01*
X137824514Y-72163998D01*
X137617404Y-72222409D01*
X137606617Y-72226549D01*
X137413620Y-72321725D01*
X137403769Y-72327762D01*
X137231348Y-72456515D01*
X137222763Y-72464246D01*
X137187180Y-72502739D01*
X137172825Y-72486370D01*
X137164444Y-72478417D01*
X136995452Y-72345195D01*
X136985763Y-72338902D01*
X136795322Y-72238707D01*
X136784648Y-72234286D01*
X136578744Y-72170350D01*
X136566618Y-72167855D01*
X136370983Y-72147293D01*
X136364393Y-72146948D01*
X135461401Y-72146948D01*
X135455634Y-72147212D01*
X135295874Y-72161892D01*
X135284514Y-72163998D01*
X135077404Y-72222409D01*
X135066617Y-72226549D01*
X134873620Y-72321725D01*
X134863769Y-72327762D01*
X134691348Y-72456515D01*
X134682763Y-72464246D01*
X134536691Y-72622264D01*
X134529658Y-72631430D01*
X134414830Y-72813422D01*
X134409585Y-72823716D01*
X134329844Y-73023586D01*
X134326563Y-73034664D01*
X134284582Y-73245718D01*
X134283374Y-73257208D01*
X134280557Y-73472380D01*
X129412000Y-73472380D01*
X129412000Y-70920470D01*
X129527071Y-71091713D01*
X129531675Y-71097746D01*
X129753926Y-71355227D01*
X129759222Y-71360664D01*
X130010796Y-71589578D01*
X130016706Y-71594339D01*
X130293961Y-71791373D01*
X130300400Y-71795389D01*
X130599317Y-71957688D01*
X130606192Y-71960901D01*
X130922441Y-72086113D01*
X130929653Y-72088477D01*
X131258654Y-72174789D01*
X131266097Y-72176269D01*
X131603085Y-72222431D01*
X131610653Y-72223007D01*
X131950746Y-72228349D01*
X131958328Y-72228011D01*
X132296599Y-72192457D01*
X132304085Y-72191211D01*
X132635636Y-72115277D01*
X132642919Y-72113140D01*
X132962944Y-71997924D01*
X132969917Y-71994928D01*
X133273784Y-71842099D01*
X133280347Y-71838287D01*
X133563653Y-71650059D01*
X133569710Y-71645487D01*
X133828350Y-71424587D01*
X133833814Y-71419320D01*
X134064044Y-71168947D01*
X134068835Y-71163062D01*
X134267318Y-70886844D01*
X134271368Y-70880425D01*
X134281478Y-70862035D01*
X134280557Y-70932380D01*
X134281464Y-70943898D01*
X134317906Y-71155979D01*
X134320896Y-71167139D01*
X134395377Y-71369028D01*
X134400351Y-71379457D01*
X134510376Y-71564392D01*
X134517167Y-71573738D01*
X134659051Y-71735526D01*
X134667432Y-71743479D01*
X134836424Y-71876701D01*
X134846113Y-71882994D01*
X135036554Y-71983189D01*
X135047228Y-71987610D01*
X135253132Y-72051546D01*
X135265258Y-72054041D01*
X135460893Y-72074603D01*
X135467483Y-72074948D01*
X136370475Y-72074948D01*
X136376242Y-72074684D01*
X136536002Y-72060004D01*
X136547362Y-72057898D01*
X136754472Y-71999487D01*
X136765259Y-71995347D01*
X136958256Y-71900171D01*
X136968107Y-71894134D01*
X137140528Y-71765381D01*
X137149113Y-71757650D01*
X137184696Y-71719157D01*
X137199051Y-71735526D01*
X137207432Y-71743479D01*
X137376424Y-71876701D01*
X137386113Y-71882994D01*
X137576554Y-71983189D01*
X137587228Y-71987610D01*
X137793132Y-72051546D01*
X137805258Y-72054041D01*
X138000893Y-72074603D01*
X138007483Y-72074948D01*
X138910475Y-72074948D01*
X138916242Y-72074684D01*
X139076002Y-72060004D01*
X139087362Y-72057898D01*
X139294472Y-71999487D01*
X139305259Y-71995347D01*
X139498256Y-71900171D01*
X139508107Y-71894134D01*
X139680528Y-71765381D01*
X139689113Y-71757650D01*
X139835185Y-71599632D01*
X139842218Y-71590466D01*
X139957046Y-71408474D01*
X139962291Y-71398180D01*
X140042032Y-71198310D01*
X140045313Y-71187232D01*
X140087294Y-70976178D01*
X140088502Y-70964688D01*
X140091319Y-70749516D01*
X140090412Y-70737998D01*
X140053970Y-70525917D01*
X140050980Y-70514757D01*
X139976499Y-70312868D01*
X139971525Y-70302439D01*
X139861500Y-70117504D01*
X139854709Y-70108158D01*
X139712825Y-69946370D01*
X139704444Y-69938417D01*
X139535452Y-69805195D01*
X139525763Y-69798902D01*
X139335322Y-69698707D01*
X139324648Y-69694286D01*
X139118744Y-69630350D01*
X139106618Y-69627855D01*
X138910983Y-69607293D01*
X138904393Y-69606948D01*
X138001401Y-69606948D01*
X137995634Y-69607212D01*
X137835874Y-69621892D01*
X137824514Y-69623998D01*
X137617404Y-69682409D01*
X137606617Y-69686549D01*
X137413620Y-69781725D01*
X137403769Y-69787762D01*
X137231348Y-69916515D01*
X137222763Y-69924246D01*
X137187180Y-69962739D01*
X137172825Y-69946370D01*
X137164444Y-69938417D01*
X136995452Y-69805195D01*
X136985763Y-69798902D01*
X136795322Y-69698707D01*
X136784648Y-69694286D01*
X136578744Y-69630350D01*
X136566618Y-69627855D01*
X136370983Y-69607293D01*
X136364393Y-69606948D01*
X135461401Y-69606948D01*
X135455634Y-69607212D01*
X135295874Y-69621892D01*
X135284514Y-69623998D01*
X135077404Y-69682409D01*
X135066617Y-69686549D01*
X134873620Y-69781725D01*
X134863769Y-69787762D01*
X134691348Y-69916515D01*
X134682763Y-69924246D01*
X134644736Y-69965383D01*
X134655779Y-69924170D01*
X134657298Y-69916734D01*
X134705270Y-69579666D01*
X134705896Y-69571440D01*
X134709403Y-69236566D01*
X134836424Y-69336701D01*
X134846113Y-69342994D01*
X135036554Y-69443189D01*
X135047228Y-69447610D01*
X135253132Y-69511546D01*
X135265258Y-69514041D01*
X135460893Y-69534603D01*
X135467483Y-69534948D01*
X135714129Y-69534948D01*
X135787938Y-69461139D01*
X135787939Y-68502756D01*
X135787938Y-68502755D01*
X135787938Y-68099140D01*
X136043937Y-68099140D01*
X136043938Y-68099141D01*
X136043937Y-69461139D01*
X136117746Y-69534948D01*
X136370475Y-69534948D01*
X136376242Y-69534684D01*
X136536002Y-69520004D01*
X136547362Y-69517898D01*
X136754472Y-69459487D01*
X136765259Y-69455347D01*
X136958256Y-69360171D01*
X136968107Y-69354134D01*
X137140528Y-69225381D01*
X137149113Y-69217650D01*
X137184696Y-69179157D01*
X137199051Y-69195526D01*
X137207432Y-69203479D01*
X137376424Y-69336701D01*
X137386113Y-69342994D01*
X137576554Y-69443189D01*
X137587228Y-69447610D01*
X137793132Y-69511546D01*
X137805258Y-69514041D01*
X138000893Y-69534603D01*
X138007483Y-69534948D01*
X138910475Y-69534948D01*
X138916242Y-69534684D01*
X139076002Y-69520004D01*
X139087362Y-69517898D01*
X139294472Y-69459487D01*
X139305259Y-69455347D01*
X139498256Y-69360171D01*
X139508107Y-69354134D01*
X139680528Y-69225381D01*
X139689113Y-69217650D01*
X139835185Y-69059632D01*
X139842218Y-69050466D01*
X139957046Y-68868474D01*
X139962291Y-68858180D01*
X140042032Y-68658310D01*
X140045313Y-68647232D01*
X140087294Y-68436178D01*
X140088502Y-68424688D01*
X140091319Y-68209516D01*
X140090412Y-68197998D01*
X140053970Y-67985917D01*
X140050980Y-67974757D01*
X139976499Y-67772868D01*
X139971525Y-67762439D01*
X139861500Y-67577504D01*
X139854709Y-67568158D01*
X139712825Y-67406370D01*
X139704444Y-67398417D01*
X139535452Y-67265195D01*
X139525763Y-67258902D01*
X139335322Y-67158707D01*
X139324648Y-67154286D01*
X139118744Y-67090350D01*
X139106618Y-67087855D01*
X138910983Y-67067293D01*
X138904393Y-67066948D01*
X138001401Y-67066948D01*
X137995634Y-67067212D01*
X137835874Y-67081892D01*
X137824514Y-67083998D01*
X137617404Y-67142409D01*
X137606617Y-67146549D01*
X137413620Y-67241725D01*
X137403769Y-67247762D01*
X137231348Y-67376515D01*
X137222763Y-67384246D01*
X137187180Y-67422739D01*
X137172825Y-67406370D01*
X137164444Y-67398417D01*
X136995452Y-67265195D01*
X136985763Y-67258902D01*
X136795322Y-67158707D01*
X136784648Y-67154286D01*
X136578744Y-67090350D01*
X136566618Y-67087855D01*
X136370983Y-67067293D01*
X136364393Y-67066948D01*
X136117747Y-67066948D01*
X136043938Y-67140757D01*
X136043937Y-68099140D01*
X135787938Y-68099140D01*
X135787939Y-67140757D01*
X135714130Y-67066948D01*
X135461401Y-67066948D01*
X135455634Y-67067212D01*
X135295874Y-67081892D01*
X135284514Y-67083998D01*
X135077404Y-67142409D01*
X135066617Y-67146549D01*
X134873620Y-67241725D01*
X134863769Y-67247762D01*
X134691348Y-67376515D01*
X134682763Y-67384246D01*
X134536691Y-67542264D01*
X134529658Y-67551430D01*
X134414830Y-67733422D01*
X134409585Y-67743716D01*
X134338264Y-67922482D01*
X134303050Y-67855124D01*
X134299135Y-67848622D01*
X134106481Y-67568308D01*
X134101813Y-67562324D01*
X133876877Y-67307185D01*
X133871525Y-67301805D01*
X133617568Y-67075536D01*
X133611608Y-67070838D01*
X133406091Y-66928000D01*
X165018430Y-66928000D01*
X165025404Y-66928856D01*
G37*
%TD.AperFunction*%
%TD*%
M02*
