M48
; DRILL file {KiCad (5.99.0-2290-gd34f8fd4b)} date Tue Sep  8 20:53:14 2020
; FORMAT={-:-/ absolute / inch / decimal}
; #@! TF.CreationDate,2020-09-08T20:53:14+02:00
; #@! TF.GenerationSoftware,Kicad,Pcbnew,(5.99.0-2290-gd34f8fd4b)
; #@! TF.FileFunction,Plated,1,2,PTH
FMAT,2
INCH
T1C0.0315
T2C0.0394
T3C0.1260
%
G90
G05
T1
X5.9Y-2.7015
X5.9Y-3.0015
X6.0Y-2.7015
X6.0Y-3.0015
X6.1Y-2.7015
X6.1Y-3.0015
X6.2Y-2.7015
X6.2Y-3.0015
T2
X5.351Y-2.689
X5.351Y-2.789
X5.351Y-2.889
X5.351Y-2.989
X5.351Y-3.089
X5.351Y-3.189
X5.351Y-3.289
X5.351Y-3.389
X5.351Y-3.489
X5.451Y-2.689
X5.451Y-2.789
X5.451Y-2.889
X5.451Y-2.989
X5.451Y-3.089
X5.451Y-3.189
X5.451Y-3.289
X5.451Y-3.389
X5.451Y-3.489
X6.351Y-2.689
X6.351Y-2.789
X6.351Y-2.889
X6.351Y-2.989
X6.351Y-3.089
X6.351Y-3.189
X6.351Y-3.289
X6.351Y-3.389
X6.351Y-3.489
X6.451Y-2.689
X6.451Y-2.789
X6.451Y-2.889
X6.451Y-2.989
X6.451Y-3.089
X6.451Y-3.189
X6.451Y-3.289
X6.451Y-3.389
X6.451Y-3.489
X5.8Y-3.18
X5.9Y-3.18
X6.0Y-3.18
T3
X5.19Y-2.73
T0
M30
