%TF.GenerationSoftware,KiCad,Pcbnew,(5.99.0-2290-gd34f8fd4b)*%
%TF.CreationDate,2020-09-13T23:37:03+02:00*%
%TF.ProjectId,audio-esp32,61756469-6f2d-4657-9370-33322e6b6963,rev?*%
%TF.SameCoordinates,Original*%
%TF.FileFunction,Soldermask,Bot*%
%TF.FilePolarity,Negative*%
%FSLAX46Y46*%
G04 Gerber Fmt 4.6, Leading zero omitted, Abs format (unit mm)*
G04 Created by KiCad (PCBNEW (5.99.0-2290-gd34f8fd4b)) date 2020-09-13 23:37:03*
%MOMM*%
%LPD*%
G01*
G04 APERTURE LIST*
%ADD10C,0.300000*%
%ADD11O,1.600000X1.600000*%
%ADD12R,1.600000X1.600000*%
%ADD13C,1.700000*%
%ADD14O,1.700000X1.700000*%
%ADD15C,4.500000*%
%ADD16O,2.000000X1.200000*%
G04 APERTURE END LIST*
D10*
X132250571Y-72692285D02*
X130750571Y-72692285D01*
X131822000Y-73192285D01*
X130750571Y-73692285D01*
X132250571Y-73692285D01*
X131250571Y-75049428D02*
X132250571Y-75049428D01*
X131250571Y-74406571D02*
X132036285Y-74406571D01*
X132179142Y-74478000D01*
X132250571Y-74620857D01*
X132250571Y-74835142D01*
X132179142Y-74978000D01*
X132107714Y-75049428D01*
X132179142Y-75692285D02*
X132250571Y-75835142D01*
X132250571Y-76120857D01*
X132179142Y-76263714D01*
X132036285Y-76335142D01*
X131964857Y-76335142D01*
X131822000Y-76263714D01*
X131750571Y-76120857D01*
X131750571Y-75906571D01*
X131679142Y-75763714D01*
X131536285Y-75692285D01*
X131464857Y-75692285D01*
X131322000Y-75763714D01*
X131250571Y-75906571D01*
X131250571Y-76120857D01*
X131322000Y-76263714D01*
X132250571Y-76978000D02*
X131250571Y-76978000D01*
X130750571Y-76978000D02*
X130822000Y-76906571D01*
X130893428Y-76978000D01*
X130822000Y-77049428D01*
X130750571Y-76978000D01*
X130893428Y-76978000D01*
X132250571Y-77692285D02*
X130750571Y-77692285D01*
X131679142Y-77835142D02*
X132250571Y-78263714D01*
X131250571Y-78263714D02*
X131822000Y-77692285D01*
X131464857Y-79406571D02*
X131464857Y-78906571D01*
X132250571Y-78906571D02*
X130750571Y-78906571D01*
X130750571Y-79620857D01*
X132250571Y-80406571D02*
X132179142Y-80263714D01*
X132107714Y-80192285D01*
X131964857Y-80120857D01*
X131536285Y-80120857D01*
X131393428Y-80192285D01*
X131322000Y-80263714D01*
X131250571Y-80406571D01*
X131250571Y-80620857D01*
X131322000Y-80763714D01*
X131393428Y-80835142D01*
X131536285Y-80906571D01*
X131964857Y-80906571D01*
X132107714Y-80835142D01*
X132179142Y-80763714D01*
X132250571Y-80620857D01*
X132250571Y-80406571D01*
X132250571Y-81549428D02*
X130750571Y-81549428D01*
X131679142Y-81692285D02*
X132250571Y-82120857D01*
X131250571Y-82120857D02*
X131822000Y-81549428D01*
X132179142Y-82692285D02*
X132250571Y-82835142D01*
X132250571Y-83120857D01*
X132179142Y-83263714D01*
X132036285Y-83335142D01*
X131964857Y-83335142D01*
X131822000Y-83263714D01*
X131750571Y-83120857D01*
X131750571Y-82906571D01*
X131679142Y-82763714D01*
X131536285Y-82692285D01*
X131464857Y-82692285D01*
X131322000Y-82763714D01*
X131250571Y-82906571D01*
X131250571Y-83120857D01*
X131322000Y-83263714D01*
%TO.C,G\u002A\u002A\u002A*%
G36*
X131217084Y-88658001D02*
G01*
X131274726Y-88640146D01*
X131371567Y-88611039D01*
X131455085Y-88587412D01*
X131527607Y-88568772D01*
X131591462Y-88554627D01*
X131648977Y-88544483D01*
X131702479Y-88537848D01*
X131754297Y-88534228D01*
X131806759Y-88533131D01*
X131903250Y-88533131D01*
X131911338Y-88314864D01*
X131911912Y-88298740D01*
X131913812Y-88234771D01*
X131915394Y-88164689D01*
X131916653Y-88090686D01*
X131917585Y-88014954D01*
X131918186Y-87939686D01*
X131918451Y-87867071D01*
X131918376Y-87799304D01*
X131917957Y-87738574D01*
X131917188Y-87687075D01*
X131916067Y-87646998D01*
X131914588Y-87620535D01*
X131912746Y-87609878D01*
X131907801Y-87609093D01*
X131889673Y-87612405D01*
X131864026Y-87620322D01*
X131857860Y-87622398D01*
X131831379Y-87628829D01*
X131797704Y-87633085D01*
X131753244Y-87635509D01*
X131694409Y-87636441D01*
X131680031Y-87636469D01*
X131619195Y-87635208D01*
X131569486Y-87630590D01*
X131525739Y-87621209D01*
X131482788Y-87605657D01*
X131435468Y-87582528D01*
X131378615Y-87550414D01*
X131362446Y-87540939D01*
X131323171Y-87517535D01*
X131294734Y-87499261D01*
X131273577Y-87483207D01*
X131256144Y-87466467D01*
X131238877Y-87446132D01*
X131218218Y-87419293D01*
X131213134Y-87412643D01*
X131192971Y-87387417D01*
X131177410Y-87369731D01*
X131169474Y-87363072D01*
X131168380Y-87363132D01*
X131150851Y-87370263D01*
X131127149Y-87386428D01*
X131102578Y-87407572D01*
X131082442Y-87429638D01*
X131060294Y-87455437D01*
X131024586Y-87482750D01*
X130982689Y-87496982D01*
X130929799Y-87500358D01*
X130882121Y-87496231D01*
X130822012Y-87485847D01*
X130758264Y-87470787D01*
X130697371Y-87452598D01*
X130645827Y-87432823D01*
X130639388Y-87429865D01*
X130568359Y-87388714D01*
X130496536Y-87332561D01*
X130426224Y-87263871D01*
X130359731Y-87185109D01*
X130299363Y-87098737D01*
X130247428Y-87007222D01*
X130238031Y-86987660D01*
X130216407Y-86937880D01*
X130192967Y-86878951D01*
X130169576Y-86815973D01*
X130148098Y-86754051D01*
X130130395Y-86698287D01*
X130118333Y-86653783D01*
X130114199Y-86634360D01*
X130106403Y-86591811D01*
X130098532Y-86542838D01*
X130091780Y-86494612D01*
X130089052Y-86473329D01*
X130081315Y-86413925D01*
X130073052Y-86351484D01*
X130065640Y-86296455D01*
X130061362Y-86259173D01*
X130056352Y-86192222D01*
X130053228Y-86117323D01*
X130051987Y-86038786D01*
X130052629Y-85960917D01*
X130055152Y-85888027D01*
X130055616Y-85881317D01*
X130336512Y-85881317D01*
X130336659Y-85974373D01*
X130341034Y-86075632D01*
X130349504Y-86181268D01*
X130361934Y-86287454D01*
X130365496Y-86315662D01*
X130370698Y-86365817D01*
X130374345Y-86412864D01*
X130375808Y-86449467D01*
X130376440Y-86481390D01*
X130378993Y-86523358D01*
X130383989Y-86566356D01*
X130391967Y-86613058D01*
X130403464Y-86666141D01*
X130419019Y-86728280D01*
X130439168Y-86802153D01*
X130464452Y-86890434D01*
X130472953Y-86919059D01*
X130481323Y-86943229D01*
X130491042Y-86963860D01*
X130504299Y-86984293D01*
X130523279Y-87007866D01*
X130550171Y-87037917D01*
X130587160Y-87077788D01*
X130617001Y-87109564D01*
X130654437Y-87148023D01*
X130684595Y-87176285D01*
X130710199Y-87196407D01*
X130733976Y-87210444D01*
X130758649Y-87220451D01*
X130786944Y-87228484D01*
X130807153Y-87233109D01*
X130826585Y-87235204D01*
X130846281Y-87232917D01*
X130871739Y-87225517D01*
X130908454Y-87212269D01*
X130922311Y-87207135D01*
X130956202Y-87194710D01*
X131328298Y-87194710D01*
X131330904Y-87236469D01*
X131338648Y-87272738D01*
X131352476Y-87308697D01*
X131373331Y-87349528D01*
X131377633Y-87357268D01*
X131397175Y-87387951D01*
X131415366Y-87405217D01*
X131436448Y-87411914D01*
X131464663Y-87410892D01*
X131468192Y-87410484D01*
X131494191Y-87409042D01*
X131509542Y-87413252D01*
X131520513Y-87424659D01*
X131530731Y-87436036D01*
X131544118Y-87439114D01*
X131567103Y-87434254D01*
X131575698Y-87432079D01*
X131602539Y-87430113D01*
X131628210Y-87438847D01*
X131644584Y-87446131D01*
X131659625Y-87447492D01*
X131674911Y-87439354D01*
X131690337Y-87431062D01*
X131710278Y-87426044D01*
X131711621Y-87425987D01*
X131730538Y-87419914D01*
X131752555Y-87406885D01*
X131776177Y-87394088D01*
X131801879Y-87393602D01*
X131806760Y-87394627D01*
X131833289Y-87393268D01*
X131853124Y-87381553D01*
X131860923Y-87362313D01*
X131865298Y-87346715D01*
X131880841Y-87324959D01*
X131901839Y-87307310D01*
X131922131Y-87300034D01*
X131922182Y-87300034D01*
X131932837Y-87297110D01*
X131937595Y-87285358D01*
X131938292Y-87260260D01*
X131938303Y-87250291D01*
X131943287Y-87221064D01*
X131957974Y-87198613D01*
X131966864Y-87188275D01*
X131973654Y-87172001D01*
X131969225Y-87152294D01*
X131967937Y-87148849D01*
X131960862Y-87121002D01*
X131965256Y-87100057D01*
X131982432Y-87078698D01*
X131994551Y-87066549D01*
X132002841Y-87055421D01*
X132000084Y-87046877D01*
X131986933Y-87034513D01*
X131975088Y-87018532D01*
X131969431Y-86988853D01*
X131978436Y-86957064D01*
X131982115Y-86947412D01*
X131979491Y-86932348D01*
X131964935Y-86911962D01*
X131956913Y-86901881D01*
X131944329Y-86877886D01*
X131945485Y-86854401D01*
X131960013Y-86824948D01*
X131978030Y-86795398D01*
X131957862Y-86768119D01*
X131942666Y-86750398D01*
X131899568Y-86719218D01*
X131847422Y-86702661D01*
X131837446Y-86701082D01*
X131802341Y-86695288D01*
X131767037Y-86689205D01*
X131746913Y-86686569D01*
X131719145Y-86686686D01*
X131685743Y-86691592D01*
X131641027Y-86701856D01*
X131619621Y-86707334D01*
X131565395Y-86723006D01*
X131523561Y-86739616D01*
X131490078Y-86760018D01*
X131460905Y-86787064D01*
X131432001Y-86823607D01*
X131399326Y-86872500D01*
X131397913Y-86874709D01*
X131376552Y-86910021D01*
X131360884Y-86941751D01*
X131349718Y-86974217D01*
X131341866Y-87011733D01*
X131336138Y-87058617D01*
X131331345Y-87119184D01*
X131329886Y-87142279D01*
X131328298Y-87194710D01*
X130956202Y-87194710D01*
X130956601Y-87194564D01*
X130983907Y-87184738D01*
X130999292Y-87179440D01*
X131000549Y-87178854D01*
X130998361Y-87172354D01*
X130981283Y-87159759D01*
X130948771Y-87140717D01*
X130900284Y-87114874D01*
X130900281Y-87114872D01*
X130848857Y-87087242D01*
X130793814Y-87056050D01*
X130741748Y-87025120D01*
X130699254Y-86998280D01*
X130671241Y-86980232D01*
X130629742Y-86955019D01*
X130591691Y-86933498D01*
X130562755Y-86918962D01*
X130531430Y-86903246D01*
X130505904Y-86883794D01*
X130493157Y-86861681D01*
X130493270Y-86834986D01*
X130499875Y-86818190D01*
X130744835Y-86818190D01*
X130749497Y-86825163D01*
X130766652Y-86837985D01*
X130792088Y-86852104D01*
X130812719Y-86861309D01*
X130843297Y-86873305D01*
X130877168Y-86885399D01*
X130910967Y-86896535D01*
X130941331Y-86905661D01*
X130964897Y-86911721D01*
X130978300Y-86913662D01*
X130978177Y-86910429D01*
X130950302Y-86878699D01*
X130933680Y-86834124D01*
X130929788Y-86778905D01*
X130938701Y-86714179D01*
X130960493Y-86641082D01*
X130968800Y-86619496D01*
X130988429Y-86575180D01*
X131008188Y-86538493D01*
X131026565Y-86511777D01*
X131042046Y-86497375D01*
X131053119Y-86497630D01*
X131053220Y-86497732D01*
X131059826Y-86513375D01*
X131060967Y-86542166D01*
X131056582Y-86585421D01*
X131046615Y-86644454D01*
X131045534Y-86650256D01*
X131039107Y-86689724D01*
X131034574Y-86725998D01*
X131032857Y-86751872D01*
X131032948Y-86758875D01*
X131036098Y-86779080D01*
X131046889Y-86793864D01*
X131069564Y-86809939D01*
X131070345Y-86810432D01*
X131101241Y-86829220D01*
X131134993Y-86848685D01*
X131167934Y-86866852D01*
X131196398Y-86881747D01*
X131216721Y-86891394D01*
X131225235Y-86893817D01*
X131226120Y-86892388D01*
X131233921Y-86878854D01*
X131248275Y-86853553D01*
X131267534Y-86819394D01*
X131290055Y-86779284D01*
X131294120Y-86772065D01*
X131334945Y-86704474D01*
X131373604Y-86651941D01*
X131413000Y-86612514D01*
X131456035Y-86584245D01*
X131505613Y-86565183D01*
X131564635Y-86553379D01*
X131636004Y-86546883D01*
X131707857Y-86545359D01*
X131746913Y-86548278D01*
X131777343Y-86550552D01*
X131847618Y-86563653D01*
X131925831Y-86585617D01*
X131945775Y-86592346D01*
X131981200Y-86607716D01*
X132012270Y-86627583D01*
X132042308Y-86654729D01*
X132074637Y-86691937D01*
X132112580Y-86741990D01*
X132122408Y-86755729D01*
X132148170Y-86795925D01*
X132168301Y-86836279D01*
X132185460Y-86882685D01*
X132202304Y-86941043D01*
X132222858Y-87018587D01*
X132282659Y-87024236D01*
X132308115Y-87025906D01*
X132349367Y-87027507D01*
X132400686Y-87028782D01*
X132457934Y-87029629D01*
X132516973Y-87029949D01*
X132691485Y-87030013D01*
X132685768Y-86946756D01*
X132683220Y-86906945D01*
X132680120Y-86853773D01*
X132676999Y-86796283D01*
X132674253Y-86741513D01*
X132674009Y-86736292D01*
X132672109Y-86679128D01*
X132672813Y-86637417D01*
X132676654Y-86608903D01*
X132684161Y-86591329D01*
X132695868Y-86582439D01*
X132712304Y-86579977D01*
X132716664Y-86580156D01*
X132730307Y-86585044D01*
X132742323Y-86599465D01*
X132756255Y-86627231D01*
X132763795Y-86645492D01*
X132776454Y-86684414D01*
X132788292Y-86732882D01*
X132799735Y-86793005D01*
X132811213Y-86866891D01*
X132823153Y-86956648D01*
X132825029Y-86971519D01*
X132831572Y-87024324D01*
X132835427Y-87067231D01*
X132835064Y-87101299D01*
X132828953Y-87127588D01*
X132815564Y-87147158D01*
X132793366Y-87161071D01*
X132760831Y-87170385D01*
X132716427Y-87176161D01*
X132658626Y-87179459D01*
X132585897Y-87181340D01*
X132496710Y-87182863D01*
X132227927Y-87187525D01*
X132205979Y-87264031D01*
X132200667Y-87281874D01*
X132182379Y-87332304D01*
X132159934Y-87375372D01*
X132129833Y-87417015D01*
X132088574Y-87463171D01*
X132040345Y-87513798D01*
X132054142Y-87645179D01*
X132055402Y-87657977D01*
X132059972Y-87720879D01*
X132063521Y-87797518D01*
X132066031Y-87884481D01*
X132067484Y-87978359D01*
X132067861Y-88075741D01*
X132067146Y-88173217D01*
X132065320Y-88267374D01*
X132062365Y-88354804D01*
X132058264Y-88432095D01*
X132055843Y-88471794D01*
X132053460Y-88531579D01*
X132053797Y-88581611D01*
X132057131Y-88627084D01*
X132063740Y-88673191D01*
X132073900Y-88725126D01*
X132079317Y-88750608D01*
X132035375Y-88744269D01*
X132002478Y-88738171D01*
X131957885Y-88722425D01*
X131927974Y-88698887D01*
X131911177Y-88666081D01*
X131905926Y-88622535D01*
X131905885Y-88614592D01*
X131904298Y-88595342D01*
X131898447Y-88588763D01*
X131885675Y-88590677D01*
X131885674Y-88590677D01*
X131869288Y-88595003D01*
X131839644Y-88602611D01*
X131800950Y-88612427D01*
X131757414Y-88623380D01*
X131730292Y-88630435D01*
X131676370Y-88645340D01*
X131614580Y-88663220D01*
X131550603Y-88682420D01*
X131490118Y-88701284D01*
X131441039Y-88717064D01*
X131397451Y-88731588D01*
X131366508Y-88742906D01*
X131345747Y-88752135D01*
X131332704Y-88760392D01*
X131324918Y-88768795D01*
X131319924Y-88778459D01*
X131313450Y-88792471D01*
X131289981Y-88833239D01*
X131257517Y-88881395D01*
X131218879Y-88933371D01*
X131176893Y-88985597D01*
X131134382Y-89034506D01*
X131094170Y-89076528D01*
X131059082Y-89108094D01*
X131013750Y-89144187D01*
X131048056Y-89153272D01*
X131071181Y-89158876D01*
X131133081Y-89170324D01*
X131197301Y-89178169D01*
X131254230Y-89181114D01*
X131269181Y-89181524D01*
X131308024Y-89188401D01*
X131331197Y-89203837D01*
X131338882Y-89227931D01*
X131337468Y-89237109D01*
X131321839Y-89261760D01*
X131289619Y-89288418D01*
X131241663Y-89316554D01*
X131178827Y-89345634D01*
X131101966Y-89375127D01*
X131031565Y-89399992D01*
X131056963Y-89421579D01*
X131081419Y-89441300D01*
X131124425Y-89470668D01*
X131162138Y-89489538D01*
X131191489Y-89496207D01*
X131219461Y-89501670D01*
X131240799Y-89517628D01*
X131248874Y-89540751D01*
X131246618Y-89553494D01*
X131233908Y-89567810D01*
X131207940Y-89577810D01*
X131166390Y-89584736D01*
X131109363Y-89591336D01*
X131220265Y-89648322D01*
X131226866Y-89651721D01*
X131271442Y-89675295D01*
X131302815Y-89693541D01*
X131323786Y-89708413D01*
X131337158Y-89721865D01*
X131345732Y-89735853D01*
X131345790Y-89735974D01*
X131355125Y-89764916D01*
X131351840Y-89790146D01*
X131351778Y-89790319D01*
X131340162Y-89812556D01*
X131321547Y-89829649D01*
X131293183Y-89842882D01*
X131252319Y-89853543D01*
X131196205Y-89862918D01*
X131159899Y-89868229D01*
X131127202Y-89873379D01*
X131105442Y-89877247D01*
X131098067Y-89879258D01*
X131102581Y-89880553D01*
X131122359Y-89885267D01*
X131155615Y-89892847D01*
X131199912Y-89902746D01*
X131252813Y-89914416D01*
X131311879Y-89927308D01*
X131344619Y-89934479D01*
X131407035Y-89948470D01*
X131465348Y-89961934D01*
X131516182Y-89974073D01*
X131556159Y-89984087D01*
X131581901Y-89991178D01*
X131603609Y-89996936D01*
X131653439Y-90005754D01*
X131700314Y-90009178D01*
X131760223Y-90009247D01*
X131830393Y-89930491D01*
X131855677Y-89902568D01*
X131893219Y-89861944D01*
X131936659Y-89815569D01*
X131982440Y-89767238D01*
X132027004Y-89720745D01*
X132032412Y-89715136D01*
X132071743Y-89673931D01*
X132107342Y-89635954D01*
X132136995Y-89603615D01*
X132158489Y-89579325D01*
X132169609Y-89565494D01*
X132172111Y-89562048D01*
X132193093Y-89541665D01*
X132219113Y-89524717D01*
X132243314Y-89512253D01*
X132276595Y-89494466D01*
X132311024Y-89475576D01*
X132344749Y-89458531D01*
X132384002Y-89441819D01*
X132416971Y-89430827D01*
X132464347Y-89418703D01*
X132388006Y-89366847D01*
X132354864Y-89343252D01*
X132297906Y-89296257D01*
X132253565Y-89250186D01*
X132222893Y-89206407D01*
X132206942Y-89166289D01*
X132206766Y-89131200D01*
X132208911Y-89124466D01*
X132217990Y-89112974D01*
X132233502Y-89110953D01*
X132257303Y-89118910D01*
X132291248Y-89137350D01*
X132337192Y-89166780D01*
X132368108Y-89186996D01*
X132441323Y-89230896D01*
X132515449Y-89269000D01*
X132596123Y-89304066D01*
X132688988Y-89338853D01*
X132699269Y-89342501D01*
X132747114Y-89360001D01*
X132791684Y-89377080D01*
X132828390Y-89391944D01*
X132852644Y-89402800D01*
X132872761Y-89411431D01*
X132919623Y-89424447D01*
X132979823Y-89433667D01*
X133054448Y-89439191D01*
X133144581Y-89441119D01*
X133251308Y-89439551D01*
X133303834Y-89437656D01*
X133372382Y-89434221D01*
X133439757Y-89429917D01*
X133500352Y-89425110D01*
X133548555Y-89420166D01*
X133551526Y-89419802D01*
X133593418Y-89414416D01*
X133644796Y-89407439D01*
X133703175Y-89399246D01*
X133766074Y-89390210D01*
X133831009Y-89380701D01*
X133895499Y-89371095D01*
X133957060Y-89361762D01*
X134013209Y-89353077D01*
X134061464Y-89345411D01*
X134099341Y-89339138D01*
X134124359Y-89334631D01*
X134134034Y-89332261D01*
X134129584Y-89328113D01*
X134111921Y-89314894D01*
X134082403Y-89293780D01*
X134042699Y-89265940D01*
X133994480Y-89232544D01*
X133939416Y-89194761D01*
X133879177Y-89153762D01*
X133840388Y-89127430D01*
X133775883Y-89083502D01*
X133713946Y-89041160D01*
X133657049Y-89002101D01*
X133607661Y-88968024D01*
X133568252Y-88940625D01*
X133541292Y-88921602D01*
X133514032Y-88902399D01*
X133486133Y-88883579D01*
X133466562Y-88871372D01*
X133458415Y-88867791D01*
X133455131Y-88875763D01*
X133448156Y-88897288D01*
X133438928Y-88927875D01*
X133428719Y-88963123D01*
X133418802Y-88998630D01*
X133410449Y-89029993D01*
X133404932Y-89052812D01*
X133391901Y-89083041D01*
X133367937Y-89105617D01*
X133338023Y-89116328D01*
X133306604Y-89113656D01*
X133278125Y-89096084D01*
X133271882Y-89089279D01*
X133259503Y-89066194D01*
X133256032Y-89034365D01*
X133256374Y-89024431D01*
X133262848Y-88979750D01*
X133277250Y-88920344D01*
X133299213Y-88847141D01*
X133328368Y-88761072D01*
X133364348Y-88663064D01*
X133406784Y-88554049D01*
X133422334Y-88515882D01*
X133589059Y-88515882D01*
X133595087Y-88514384D01*
X133612863Y-88504056D01*
X133639556Y-88486494D01*
X133672315Y-88463491D01*
X133698614Y-88444965D01*
X133748821Y-88411081D01*
X133801928Y-88376653D01*
X133850079Y-88346836D01*
X133850659Y-88346488D01*
X133887964Y-88324077D01*
X133919993Y-88304723D01*
X133943353Y-88290483D01*
X133954652Y-88283414D01*
X133955011Y-88283090D01*
X133951743Y-88273311D01*
X133935598Y-88252944D01*
X133907387Y-88222922D01*
X133867926Y-88184175D01*
X133860988Y-88177576D01*
X133822965Y-88142598D01*
X133793759Y-88117912D01*
X133774544Y-88104456D01*
X133766495Y-88103169D01*
X133764180Y-88108599D01*
X133755294Y-88129069D01*
X133740913Y-88162020D01*
X133722104Y-88205019D01*
X133699930Y-88255630D01*
X133675457Y-88311416D01*
X133659289Y-88348383D01*
X133636678Y-88400575D01*
X133617348Y-88445792D01*
X133602299Y-88481663D01*
X133592536Y-88505816D01*
X133589059Y-88515882D01*
X133422334Y-88515882D01*
X133455308Y-88434954D01*
X133509553Y-88306709D01*
X133569149Y-88170244D01*
X133633730Y-88026487D01*
X133702926Y-87876369D01*
X133766495Y-87741731D01*
X133776370Y-87720817D01*
X133791401Y-87688960D01*
X133809741Y-87648824D01*
X133823632Y-87616846D01*
X133831926Y-87595699D01*
X133833471Y-87588057D01*
X133825076Y-87590578D01*
X133801979Y-87601700D01*
X133767398Y-87620560D01*
X133723402Y-87645921D01*
X133672057Y-87676544D01*
X133615432Y-87711192D01*
X133555595Y-87748626D01*
X133494612Y-87787609D01*
X133434552Y-87826903D01*
X133394686Y-87853092D01*
X133337812Y-87889727D01*
X133283798Y-87923730D01*
X133235655Y-87953235D01*
X133196395Y-87976378D01*
X133169031Y-87991295D01*
X133147872Y-88001330D01*
X133109616Y-88017673D01*
X133069304Y-88033205D01*
X133030653Y-88046661D01*
X132997377Y-88056773D01*
X132973194Y-88062276D01*
X132961818Y-88061903D01*
X132963718Y-88053138D01*
X132976462Y-88034036D01*
X132998156Y-88007146D01*
X133026662Y-87974813D01*
X133059840Y-87939381D01*
X133095552Y-87903196D01*
X133131660Y-87868604D01*
X133166025Y-87837950D01*
X133249600Y-87770717D01*
X133377448Y-87679372D01*
X133519130Y-87589469D01*
X133672249Y-87502167D01*
X133834407Y-87418626D01*
X134003203Y-87340005D01*
X134176242Y-87267464D01*
X134351122Y-87202162D01*
X134525447Y-87145259D01*
X134696818Y-87097914D01*
X134708746Y-87094966D01*
X134762807Y-87082182D01*
X134816296Y-87070346D01*
X134863599Y-87060667D01*
X134899103Y-87054353D01*
X134970205Y-87043514D01*
X134871429Y-86988099D01*
X134864600Y-86984256D01*
X134819260Y-86957915D01*
X134777039Y-86931567D01*
X134735186Y-86903209D01*
X134690948Y-86870837D01*
X134641575Y-86832447D01*
X134584314Y-86786034D01*
X134516413Y-86729596D01*
X134496669Y-86713056D01*
X134437867Y-86663653D01*
X134390378Y-86623044D01*
X134352326Y-86589041D01*
X134321830Y-86559458D01*
X134297015Y-86532106D01*
X134276001Y-86504800D01*
X134256910Y-86475352D01*
X134237864Y-86441576D01*
X134216985Y-86401283D01*
X134192395Y-86352288D01*
X134183783Y-86334983D01*
X134147911Y-86259820D01*
X134121569Y-86198407D01*
X134104433Y-86149689D01*
X134096178Y-86112612D01*
X134096477Y-86086125D01*
X134105006Y-86069173D01*
X134112336Y-86063790D01*
X134122310Y-86064373D01*
X134137256Y-86074240D01*
X134160999Y-86095168D01*
X134168546Y-86102436D01*
X134195803Y-86132036D01*
X134225855Y-86168417D01*
X134253456Y-86205330D01*
X134263314Y-86219265D01*
X134283931Y-86246921D01*
X134297718Y-86262031D01*
X134306701Y-86266541D01*
X134312908Y-86262396D01*
X134319604Y-86252853D01*
X134335118Y-86230730D01*
X134356320Y-86200488D01*
X134380662Y-86165763D01*
X134394833Y-86145944D01*
X134429849Y-86099156D01*
X134466870Y-86051980D01*
X134499921Y-86012113D01*
X134518944Y-85989933D01*
X134540740Y-85964018D01*
X134555626Y-85945687D01*
X134561135Y-85937928D01*
X134560117Y-85937296D01*
X134546663Y-85934809D01*
X134520857Y-85931783D01*
X134486879Y-85928733D01*
X134413030Y-85919420D01*
X134321294Y-85901117D01*
X134215829Y-85874290D01*
X134097599Y-85839160D01*
X134022538Y-85815468D01*
X133879891Y-85770353D01*
X133745928Y-85727864D01*
X133621498Y-85688274D01*
X133507453Y-85651859D01*
X133404642Y-85618891D01*
X133313915Y-85589643D01*
X133236121Y-85564390D01*
X133172112Y-85543405D01*
X133122738Y-85526962D01*
X133088847Y-85515334D01*
X133071290Y-85508795D01*
X133056133Y-85502367D01*
X133036024Y-85494118D01*
X133027131Y-85490891D01*
X133026989Y-85496251D01*
X133029232Y-85515027D01*
X133033575Y-85542646D01*
X133033798Y-85543985D01*
X133037242Y-85574042D01*
X133040207Y-85616334D01*
X133042384Y-85665432D01*
X133043464Y-85715909D01*
X133043620Y-85739831D01*
X133043332Y-85784358D01*
X133041760Y-85816638D01*
X133038447Y-85840690D01*
X133032936Y-85860529D01*
X133024770Y-85880172D01*
X133016706Y-85896223D01*
X133004624Y-85915432D01*
X132996171Y-85922925D01*
X132983278Y-85915905D01*
X132966368Y-85895197D01*
X132948568Y-85864394D01*
X132932294Y-85827118D01*
X132929570Y-85819131D01*
X132920748Y-85787025D01*
X132910709Y-85743523D01*
X132900491Y-85693317D01*
X132891133Y-85641101D01*
X132888087Y-85622840D01*
X132870541Y-85521073D01*
X132853998Y-85431864D01*
X132837538Y-85350641D01*
X132820242Y-85272833D01*
X132801190Y-85193868D01*
X132793213Y-85162774D01*
X132780970Y-85116939D01*
X132766852Y-85065543D01*
X132751686Y-85011452D01*
X132736298Y-84957531D01*
X132721514Y-84906648D01*
X132708162Y-84861668D01*
X132697067Y-84825456D01*
X132689056Y-84800880D01*
X132684956Y-84790804D01*
X132678708Y-84792730D01*
X132661009Y-84802032D01*
X132636350Y-84816706D01*
X132627301Y-84822230D01*
X132600313Y-84836197D01*
X132578049Y-84841520D01*
X132553185Y-84840275D01*
X132523934Y-84832276D01*
X132491166Y-84811523D01*
X132485149Y-84805185D01*
X132463466Y-84775296D01*
X132441820Y-84736991D01*
X132423822Y-84697156D01*
X132413087Y-84662679D01*
X132412195Y-84658394D01*
X132409867Y-84651537D01*
X132405671Y-84648785D01*
X132398038Y-84651356D01*
X132385403Y-84660466D01*
X132366199Y-84677331D01*
X132338861Y-84703169D01*
X132301821Y-84739196D01*
X132253513Y-84786630D01*
X132172574Y-84864862D01*
X132094403Y-84937238D01*
X132016914Y-85005288D01*
X131936095Y-85072437D01*
X131847932Y-85142110D01*
X131748414Y-85217731D01*
X131675754Y-85271732D01*
X131609390Y-85319936D01*
X131553103Y-85359181D01*
X131504847Y-85390670D01*
X131462575Y-85415604D01*
X131424240Y-85435185D01*
X131387798Y-85450615D01*
X131351200Y-85463097D01*
X131312401Y-85473832D01*
X131291698Y-85478951D01*
X131253101Y-85487238D01*
X131229584Y-85489480D01*
X131219712Y-85485359D01*
X131222051Y-85474558D01*
X131235164Y-85456759D01*
X131241746Y-85448646D01*
X131253504Y-85431856D01*
X131256471Y-85423482D01*
X131250846Y-85423095D01*
X131229859Y-85424195D01*
X131196249Y-85426933D01*
X131153037Y-85431055D01*
X131103246Y-85436307D01*
X131069716Y-85440044D01*
X131022632Y-85445699D01*
X130988285Y-85450808D01*
X130963366Y-85456148D01*
X130944570Y-85462501D01*
X130928590Y-85470646D01*
X130912117Y-85481362D01*
X130881944Y-85504775D01*
X130858663Y-85529099D01*
X130847469Y-85549605D01*
X130850195Y-85563849D01*
X130860066Y-85569849D01*
X130883557Y-85581309D01*
X130916674Y-85596182D01*
X130955700Y-85612747D01*
X130990323Y-85627359D01*
X131037731Y-85649122D01*
X131074526Y-85669129D01*
X131104819Y-85689712D01*
X131132722Y-85713205D01*
X131156080Y-85734608D01*
X131236230Y-85677072D01*
X131254531Y-85664089D01*
X131306473Y-85629176D01*
X131349935Y-85603014D01*
X131383190Y-85586592D01*
X131404507Y-85580899D01*
X131415802Y-85586550D01*
X131428501Y-85602676D01*
X131431532Y-85609135D01*
X131434892Y-85624642D01*
X131432465Y-85643053D01*
X131423234Y-85666656D01*
X131406181Y-85697739D01*
X131380289Y-85738591D01*
X131344540Y-85791500D01*
X131335865Y-85804236D01*
X131307300Y-85847652D01*
X131281595Y-85888828D01*
X131261280Y-85923625D01*
X131248886Y-85947905D01*
X131245330Y-85956500D01*
X131237172Y-85983234D01*
X131235921Y-86008679D01*
X131242354Y-86036898D01*
X131257248Y-86071952D01*
X131281379Y-86117903D01*
X131292103Y-86139028D01*
X131307792Y-86182888D01*
X131311191Y-86218791D01*
X131302632Y-86245158D01*
X131282446Y-86260409D01*
X131250966Y-86262963D01*
X131241426Y-86262253D01*
X131230307Y-86263721D01*
X131218203Y-86269501D01*
X131202874Y-86281382D01*
X131182083Y-86301153D01*
X131153592Y-86330604D01*
X131115162Y-86371524D01*
X131101857Y-86385763D01*
X131055901Y-86434918D01*
X131007064Y-86487122D01*
X130960400Y-86536973D01*
X130920965Y-86579069D01*
X130892881Y-86609979D01*
X130855824Y-86653455D01*
X130821103Y-86696975D01*
X130790680Y-86737873D01*
X130766519Y-86773486D01*
X130750583Y-86801146D01*
X130744835Y-86818190D01*
X130499875Y-86818190D01*
X130506324Y-86801791D01*
X130532397Y-86760175D01*
X130571571Y-86708218D01*
X130604486Y-86666559D01*
X130645990Y-86613838D01*
X130687051Y-86561509D01*
X130722288Y-86516421D01*
X130771969Y-86454620D01*
X130839261Y-86377462D01*
X130902640Y-86312545D01*
X130961073Y-86260836D01*
X131013529Y-86223301D01*
X131058978Y-86200906D01*
X131060821Y-86200241D01*
X131079115Y-86190553D01*
X131086358Y-86180815D01*
X131086130Y-86178586D01*
X131081003Y-86158509D01*
X131070703Y-86128046D01*
X131057187Y-86092222D01*
X131042415Y-86056057D01*
X131028344Y-86024574D01*
X131016935Y-86002795D01*
X131013168Y-85996313D01*
X131001539Y-85970030D01*
X130996855Y-85948477D01*
X130995634Y-85943400D01*
X130988224Y-85930748D01*
X130973296Y-85911632D01*
X130949935Y-85885056D01*
X130917224Y-85850025D01*
X130874247Y-85805542D01*
X130820090Y-85750613D01*
X130753835Y-85684240D01*
X130735543Y-85665984D01*
X130675939Y-85606303D01*
X130627715Y-85557568D01*
X130589704Y-85518480D01*
X130560741Y-85487744D01*
X130550056Y-85475741D01*
X130744961Y-85475741D01*
X130754699Y-85486925D01*
X130763977Y-85487546D01*
X130779130Y-85478455D01*
X130786544Y-85470341D01*
X130785735Y-85464933D01*
X130769265Y-85463889D01*
X130751229Y-85467028D01*
X130744961Y-85475741D01*
X130550056Y-85475741D01*
X130539658Y-85464061D01*
X130525291Y-85446135D01*
X130516472Y-85432668D01*
X130512036Y-85422365D01*
X130510816Y-85413926D01*
X130514761Y-85393015D01*
X130534882Y-85363998D01*
X130571041Y-85338971D01*
X130582393Y-85335983D01*
X130610084Y-85332222D01*
X130649988Y-85328603D01*
X130698926Y-85325406D01*
X130753718Y-85322910D01*
X130755591Y-85322842D01*
X130769265Y-85322294D01*
X130813947Y-85320506D01*
X130856511Y-85318201D01*
X130885427Y-85315672D01*
X130902843Y-85312666D01*
X130910906Y-85308928D01*
X130911760Y-85304205D01*
X130909991Y-85296971D01*
X131074356Y-85296971D01*
X131075204Y-85304710D01*
X131083521Y-85308872D01*
X131102817Y-85310560D01*
X131136602Y-85310877D01*
X131139449Y-85310875D01*
X131172978Y-85310224D01*
X131192905Y-85307692D01*
X131203335Y-85302250D01*
X131208374Y-85292866D01*
X131211858Y-85284508D01*
X131225198Y-85270250D01*
X131249264Y-85260320D01*
X131287689Y-85252887D01*
X131293328Y-85252132D01*
X131324649Y-85251003D01*
X131342850Y-85256431D01*
X131351165Y-85259599D01*
X131365193Y-85253499D01*
X131386391Y-85234565D01*
X131397628Y-85224081D01*
X131417647Y-85208854D01*
X131431387Y-85202869D01*
X131440367Y-85200676D01*
X131456175Y-85189025D01*
X131472565Y-85179612D01*
X131505374Y-85177133D01*
X131526548Y-85176729D01*
X131545919Y-85171378D01*
X131568130Y-85158725D01*
X131598495Y-85136446D01*
X131604726Y-85131620D01*
X131629731Y-85111531D01*
X131647283Y-85096256D01*
X131653906Y-85088785D01*
X131653791Y-85087982D01*
X131651272Y-85086369D01*
X131644098Y-85086708D01*
X131630479Y-85089488D01*
X131608625Y-85095195D01*
X131576746Y-85104316D01*
X131533052Y-85117338D01*
X131475754Y-85134748D01*
X131403061Y-85157034D01*
X131357178Y-85171242D01*
X131277108Y-85196786D01*
X131212507Y-85218651D01*
X131162061Y-85237377D01*
X131124456Y-85253505D01*
X131098380Y-85267574D01*
X131082520Y-85280124D01*
X131075562Y-85291695D01*
X131074356Y-85296971D01*
X130909991Y-85296971D01*
X130908822Y-85292197D01*
X130906847Y-85269638D01*
X130905875Y-85258797D01*
X130897971Y-85249880D01*
X130877595Y-85247659D01*
X130858961Y-85245144D01*
X130827631Y-85236667D01*
X130794339Y-85224311D01*
X130777904Y-85217317D01*
X130743929Y-85204176D01*
X130718171Y-85198566D01*
X130694679Y-85200639D01*
X130667503Y-85210543D01*
X130630695Y-85228428D01*
X130618198Y-85234896D01*
X130563087Y-85267773D01*
X130513350Y-85304209D01*
X130472883Y-85341109D01*
X130445585Y-85375379D01*
X130441400Y-85382692D01*
X130423006Y-85423912D01*
X130404322Y-85478991D01*
X130386201Y-85544616D01*
X130369494Y-85617471D01*
X130355054Y-85694242D01*
X130343731Y-85771617D01*
X130340731Y-85800292D01*
X130336512Y-85881317D01*
X130055616Y-85881317D01*
X130059554Y-85824423D01*
X130065833Y-85774414D01*
X130066793Y-85769009D01*
X130077391Y-85719042D01*
X130091106Y-85665536D01*
X130105223Y-85619187D01*
X130107504Y-85612717D01*
X130131923Y-85555689D01*
X130165709Y-85491217D01*
X130205901Y-85424010D01*
X130249537Y-85358780D01*
X130293658Y-85300239D01*
X130335302Y-85253097D01*
X130353024Y-85235575D01*
X130378550Y-85212577D01*
X130405042Y-85192423D01*
X130436351Y-85172530D01*
X130476326Y-85150311D01*
X130528818Y-85123184D01*
X130543701Y-85115665D01*
X130600985Y-85087702D01*
X130646458Y-85068069D01*
X130683217Y-85056246D01*
X130714357Y-85051709D01*
X130718171Y-85052006D01*
X130742976Y-85053935D01*
X130772170Y-85062404D01*
X130805035Y-85076592D01*
X130811113Y-85079399D01*
X130867519Y-85100054D01*
X130920349Y-85110408D01*
X130944645Y-85113224D01*
X130972821Y-85118179D01*
X130990023Y-85123341D01*
X130998882Y-85125134D01*
X131018194Y-85122364D01*
X131038687Y-85115023D01*
X131054043Y-85105600D01*
X131057949Y-85096582D01*
X131056687Y-85094051D01*
X131048891Y-85078607D01*
X131037398Y-85055961D01*
X131036600Y-85054357D01*
X131176869Y-85054357D01*
X131181369Y-85058857D01*
X131185869Y-85054357D01*
X131181369Y-85049857D01*
X131176869Y-85054357D01*
X131036600Y-85054357D01*
X131033093Y-85047314D01*
X131198328Y-85047314D01*
X131198370Y-85047349D01*
X131207998Y-85045428D01*
X131230781Y-85037752D01*
X131263365Y-85025524D01*
X131302398Y-85009947D01*
X131341535Y-84994577D01*
X131378864Y-84981220D01*
X131408017Y-84972176D01*
X131424814Y-84968850D01*
X131439005Y-84967194D01*
X131445846Y-84962100D01*
X131443217Y-84949005D01*
X131437817Y-84931419D01*
X131433062Y-84923847D01*
X131431895Y-84923907D01*
X131415346Y-84928620D01*
X131388754Y-84939629D01*
X131355417Y-84955199D01*
X131318629Y-84973597D01*
X131281689Y-84993089D01*
X131247892Y-85011940D01*
X131220535Y-85028417D01*
X131202915Y-85040787D01*
X131198328Y-85047314D01*
X131033093Y-85047314D01*
X131030612Y-85042333D01*
X131024624Y-85025039D01*
X131026954Y-85010115D01*
X131037633Y-84988761D01*
X131039558Y-84985374D01*
X131066138Y-84954952D01*
X131109363Y-84925565D01*
X131113034Y-84923554D01*
X131145423Y-84908125D01*
X131181369Y-84893074D01*
X131190741Y-84889151D01*
X131245259Y-84868037D01*
X131305248Y-84846189D01*
X131366981Y-84825014D01*
X131426729Y-84805916D01*
X131433062Y-84804418D01*
X131439915Y-84802797D01*
X131471631Y-84804788D01*
X131499125Y-84822369D01*
X131523311Y-84856324D01*
X131545103Y-84907436D01*
X131553817Y-84932431D01*
X131592611Y-84918252D01*
X131608427Y-84913466D01*
X131645580Y-84906175D01*
X131651272Y-84905645D01*
X131682869Y-84902709D01*
X131709159Y-84903546D01*
X131743597Y-84913151D01*
X131766046Y-84934388D01*
X131778694Y-84968764D01*
X131784643Y-84997851D01*
X131861036Y-84936702D01*
X131913282Y-84894191D01*
X131989548Y-84829616D01*
X132069004Y-84759287D01*
X132153805Y-84681247D01*
X132246106Y-84593537D01*
X132316944Y-84524517D01*
X132496991Y-84524517D01*
X132497089Y-84540206D01*
X132503624Y-84561411D01*
X132509785Y-84577449D01*
X132524227Y-84610845D01*
X132540211Y-84644301D01*
X132564381Y-84691999D01*
X132595182Y-84662146D01*
X132605106Y-84652210D01*
X132619722Y-84635930D01*
X132625066Y-84627308D01*
X132622646Y-84620803D01*
X132614283Y-84600576D01*
X132601424Y-84570332D01*
X132585596Y-84533693D01*
X132547043Y-84445063D01*
X132519125Y-84485640D01*
X132504761Y-84507350D01*
X132496991Y-84524517D01*
X132316944Y-84524517D01*
X132348061Y-84494199D01*
X132374577Y-84468218D01*
X132405671Y-84438150D01*
X132423152Y-84421247D01*
X132467238Y-84379413D01*
X132505186Y-84344233D01*
X132535349Y-84317225D01*
X132547043Y-84307454D01*
X132556077Y-84299907D01*
X132565722Y-84293797D01*
X132574774Y-84296979D01*
X132585334Y-84311338D01*
X132591099Y-84321731D01*
X132607912Y-84334278D01*
X132616424Y-84339559D01*
X132635436Y-84360648D01*
X132659649Y-84395660D01*
X132688011Y-84442905D01*
X132719470Y-84500692D01*
X132752974Y-84567332D01*
X132767961Y-84599420D01*
X132805940Y-84690498D01*
X132844632Y-84796528D01*
X132883334Y-84915396D01*
X132921342Y-85044985D01*
X132957952Y-85183183D01*
X133008513Y-85384139D01*
X133197528Y-85432060D01*
X133290080Y-85455901D01*
X133389125Y-85482354D01*
X133489105Y-85510125D01*
X133593231Y-85540141D01*
X133704713Y-85573329D01*
X133826761Y-85610616D01*
X133962588Y-85652930D01*
X134056570Y-85682235D01*
X134144650Y-85709114D01*
X134219935Y-85731223D01*
X134284644Y-85749081D01*
X134341000Y-85763206D01*
X134391221Y-85774116D01*
X134437529Y-85782331D01*
X134482144Y-85788368D01*
X134527287Y-85792747D01*
X134575178Y-85795985D01*
X134617540Y-85798737D01*
X134673435Y-85804146D01*
X134714715Y-85811165D01*
X134743470Y-85820342D01*
X134761790Y-85832224D01*
X134771765Y-85847355D01*
X134772259Y-85859636D01*
X134765454Y-85879703D01*
X134753917Y-85897346D01*
X134741644Y-85904924D01*
X134734265Y-85911753D01*
X134721774Y-85930780D01*
X134707167Y-85957728D01*
X134701470Y-85968514D01*
X134680477Y-86003715D01*
X134654170Y-86043613D01*
X134626907Y-86081488D01*
X134610401Y-86103388D01*
X134570649Y-86157340D01*
X134531479Y-86212030D01*
X134494346Y-86265292D01*
X134460703Y-86314959D01*
X134432005Y-86358863D01*
X134409706Y-86394837D01*
X134395260Y-86420715D01*
X134390122Y-86434330D01*
X134391446Y-86436400D01*
X134403651Y-86448452D01*
X134426996Y-86469291D01*
X134459477Y-86497183D01*
X134499086Y-86530393D01*
X134543818Y-86567189D01*
X134595124Y-86608986D01*
X134656586Y-86658811D01*
X134708352Y-86700182D01*
X134752889Y-86734815D01*
X134792669Y-86764428D01*
X134830158Y-86790737D01*
X134867827Y-86815459D01*
X134908144Y-86840310D01*
X134953578Y-86867007D01*
X135006599Y-86897266D01*
X135069675Y-86932805D01*
X135089859Y-86944292D01*
X135138957Y-86974073D01*
X135175213Y-86999700D01*
X135201422Y-87023289D01*
X135220378Y-87046957D01*
X135231286Y-87067641D01*
X135236129Y-87085888D01*
X135229978Y-87101220D01*
X135206636Y-87118909D01*
X135166502Y-87135620D01*
X135110229Y-87151090D01*
X135038473Y-87165058D01*
X134942941Y-87183179D01*
X134807133Y-87215406D01*
X134658485Y-87257279D01*
X134498130Y-87308499D01*
X134458158Y-87322202D01*
X134396268Y-87344226D01*
X134332124Y-87367855D01*
X134268474Y-87392008D01*
X134208069Y-87415608D01*
X134153657Y-87437574D01*
X134107987Y-87456829D01*
X134073809Y-87472292D01*
X134053872Y-87482884D01*
X134050899Y-87485658D01*
X134038393Y-87504522D01*
X134019749Y-87539445D01*
X133995228Y-87589893D01*
X133965094Y-87655332D01*
X133929610Y-87735227D01*
X133824654Y-87974920D01*
X133884620Y-88032288D01*
X133903772Y-88050535D01*
X133943333Y-88087367D01*
X133976380Y-88116286D01*
X134007230Y-88140797D01*
X134040198Y-88164403D01*
X134079597Y-88190608D01*
X134112983Y-88212559D01*
X134144546Y-88234459D01*
X134164970Y-88251040D01*
X134176625Y-88264625D01*
X134181880Y-88277536D01*
X134183105Y-88292099D01*
X134183082Y-88295097D01*
X134180486Y-88316971D01*
X134171735Y-88334975D01*
X134154180Y-88351728D01*
X134125173Y-88369846D01*
X134082065Y-88391945D01*
X134075923Y-88394981D01*
X134023935Y-88422695D01*
X133966018Y-88456564D01*
X133904565Y-88494906D01*
X133841967Y-88536041D01*
X133780619Y-88578287D01*
X133722912Y-88619963D01*
X133671238Y-88659388D01*
X133627990Y-88694879D01*
X133595561Y-88724757D01*
X133576343Y-88747339D01*
X133570604Y-88756856D01*
X133561610Y-88776150D01*
X133560739Y-88786526D01*
X133564214Y-88789009D01*
X133581117Y-88799479D01*
X133609283Y-88816221D01*
X133645878Y-88837558D01*
X133688066Y-88861816D01*
X133695054Y-88865829D01*
X133742689Y-88893951D01*
X133800012Y-88928789D01*
X133862521Y-88967554D01*
X133925715Y-89007461D01*
X133985090Y-89045720D01*
X134067966Y-89099497D01*
X134141461Y-89146483D01*
X134203369Y-89185157D01*
X134255329Y-89216509D01*
X134298982Y-89241527D01*
X134335967Y-89261200D01*
X134367924Y-89276515D01*
X134369000Y-89277000D01*
X134420302Y-89304932D01*
X134454320Y-89334385D01*
X134470874Y-89365031D01*
X134469786Y-89396543D01*
X134450877Y-89428592D01*
X134450665Y-89428836D01*
X134442445Y-89437033D01*
X134431984Y-89443744D01*
X134416684Y-89449625D01*
X134393946Y-89455331D01*
X134361171Y-89461516D01*
X134315759Y-89468838D01*
X134255111Y-89477950D01*
X134211338Y-89484465D01*
X134138830Y-89495388D01*
X134064292Y-89506749D01*
X133994339Y-89517537D01*
X133935586Y-89526742D01*
X133898554Y-89532552D01*
X133727901Y-89557541D01*
X133572878Y-89577021D01*
X133432252Y-89591059D01*
X133304792Y-89599718D01*
X133189267Y-89603067D01*
X133084447Y-89601169D01*
X132989099Y-89594091D01*
X132901994Y-89581898D01*
X132822476Y-89567855D01*
X132739981Y-89594173D01*
X132736667Y-89595218D01*
X132700176Y-89605844D01*
X132650863Y-89619119D01*
X132592975Y-89633951D01*
X132530762Y-89649250D01*
X132468470Y-89663923D01*
X132279456Y-89707355D01*
X132134069Y-89847050D01*
X132121723Y-89858949D01*
X132075960Y-89903657D01*
X132032186Y-89947284D01*
X131993175Y-89987011D01*
X131961706Y-90020022D01*
X131940554Y-90043497D01*
X131887836Y-90098399D01*
X131823049Y-90147499D01*
X131756117Y-90179088D01*
X131687376Y-90193015D01*
X131617162Y-90189127D01*
X131603890Y-90186486D01*
X131545363Y-90170914D01*
X131480510Y-90148723D01*
X131416283Y-90122465D01*
X131359636Y-90094687D01*
X131335675Y-90082891D01*
X131302616Y-90070046D01*
X131260853Y-90057131D01*
X131207362Y-90043223D01*
X131139119Y-90027399D01*
X131121728Y-90023499D01*
X131004470Y-89995942D01*
X130894150Y-89967456D01*
X130788962Y-89937255D01*
X130687100Y-89904557D01*
X130586758Y-89868575D01*
X130486130Y-89828527D01*
X130383410Y-89783627D01*
X130276793Y-89733090D01*
X130164471Y-89676133D01*
X130044641Y-89611971D01*
X129915494Y-89539820D01*
X129775226Y-89458895D01*
X129622030Y-89368411D01*
X129590153Y-89349364D01*
X129522165Y-89308263D01*
X129467866Y-89274499D01*
X129425830Y-89247017D01*
X129394632Y-89224765D01*
X129372848Y-89206687D01*
X129359955Y-89192707D01*
X129555614Y-89192707D01*
X129565210Y-89202214D01*
X129588950Y-89218439D01*
X129626162Y-89240874D01*
X129676174Y-89269014D01*
X129703217Y-89283860D01*
X129759463Y-89314780D01*
X129822221Y-89349321D01*
X129885615Y-89384248D01*
X129943772Y-89416327D01*
X130079237Y-89485136D01*
X130228644Y-89549288D01*
X130380281Y-89603296D01*
X130528015Y-89644761D01*
X130546256Y-89649130D01*
X130606937Y-89663778D01*
X130653123Y-89675220D01*
X130687232Y-89684146D01*
X130711682Y-89691246D01*
X130728890Y-89697210D01*
X130741274Y-89702728D01*
X130751253Y-89708490D01*
X130755663Y-89710921D01*
X130782913Y-89719936D01*
X130822337Y-89727693D01*
X130869295Y-89733790D01*
X130919150Y-89737825D01*
X130967262Y-89739395D01*
X131008992Y-89738097D01*
X131039702Y-89733528D01*
X131043922Y-89732192D01*
X131048655Y-89727790D01*
X131043472Y-89720331D01*
X131026465Y-89707860D01*
X130995729Y-89688422D01*
X130987442Y-89683280D01*
X130931681Y-89646235D01*
X130890997Y-89613721D01*
X130863841Y-89584087D01*
X130848659Y-89555682D01*
X130843902Y-89526854D01*
X130850697Y-89498064D01*
X130870962Y-89476988D01*
X130901337Y-89469205D01*
X130912480Y-89468767D01*
X130923729Y-89465141D01*
X130918973Y-89458318D01*
X130899257Y-89448869D01*
X130865627Y-89437363D01*
X130819127Y-89424370D01*
X130785499Y-89410898D01*
X130758793Y-89388370D01*
X130745679Y-89361026D01*
X130747472Y-89331824D01*
X130765488Y-89303721D01*
X130772397Y-89297566D01*
X130789750Y-89288032D01*
X130815020Y-89281966D01*
X130853245Y-89277887D01*
X130860985Y-89277206D01*
X130904993Y-89271425D01*
X130954906Y-89262567D01*
X131001355Y-89252254D01*
X131082361Y-89231803D01*
X131028357Y-89214673D01*
X130994069Y-89206258D01*
X130948132Y-89199096D01*
X130903418Y-89195639D01*
X130898177Y-89195492D01*
X130863086Y-89193735D01*
X130840756Y-89190200D01*
X130826507Y-89183679D01*
X130815661Y-89172960D01*
X130806116Y-89158914D01*
X130798589Y-89129443D01*
X130808791Y-89100721D01*
X130836813Y-89072577D01*
X130882745Y-89044838D01*
X130887310Y-89042478D01*
X130927529Y-89016795D01*
X130974809Y-88978464D01*
X131030607Y-88926318D01*
X131043828Y-88913276D01*
X131074967Y-88882029D01*
X131100048Y-88856103D01*
X131116778Y-88837896D01*
X131122864Y-88829808D01*
X131116797Y-88829963D01*
X131095098Y-88835075D01*
X131059049Y-88845069D01*
X131010114Y-88859489D01*
X130949759Y-88877879D01*
X130879448Y-88899782D01*
X130800645Y-88924740D01*
X130714815Y-88952297D01*
X130623423Y-88981996D01*
X130527933Y-89013380D01*
X130429810Y-89045993D01*
X130332634Y-89078075D01*
X130237549Y-89108355D01*
X130154618Y-89133282D01*
X130081403Y-89153488D01*
X130015466Y-89169605D01*
X129954371Y-89182265D01*
X129895679Y-89192100D01*
X129836954Y-89199743D01*
X129816717Y-89201774D01*
X129761594Y-89205148D01*
X129705298Y-89206001D01*
X129652591Y-89204429D01*
X129608236Y-89200531D01*
X129576993Y-89194403D01*
X129560835Y-89190423D01*
X129555614Y-89192707D01*
X129359955Y-89192707D01*
X129359052Y-89191729D01*
X129351819Y-89178836D01*
X129349725Y-89166956D01*
X129352064Y-89153015D01*
X129364005Y-89137973D01*
X129387865Y-89127141D01*
X129425642Y-89119715D01*
X129479332Y-89114895D01*
X129525378Y-89110957D01*
X129566299Y-89104121D01*
X129590285Y-89095165D01*
X129600414Y-89090553D01*
X129631573Y-89082763D01*
X129679715Y-89075144D01*
X129744200Y-89067811D01*
X129764728Y-89065763D01*
X129825127Y-89059325D01*
X129878870Y-89052647D01*
X129928585Y-89045102D01*
X129976904Y-89036065D01*
X130026458Y-89024912D01*
X130079876Y-89011015D01*
X130139789Y-88993750D01*
X130208828Y-88972491D01*
X130289624Y-88946613D01*
X130384806Y-88915491D01*
X130442882Y-88896544D01*
X130528485Y-88869035D01*
X130617969Y-88840681D01*
X130706097Y-88813128D01*
X130787634Y-88788021D01*
X130857344Y-88767004D01*
X130882131Y-88759632D01*
X130954302Y-88738039D01*
X131028776Y-88715597D01*
X131100660Y-88693788D01*
X131122864Y-88686998D01*
X131165060Y-88674095D01*
X131217084Y-88658001D01*
G37*
G36*
X131158595Y-87618367D02*
G01*
X131189694Y-87635491D01*
X131218594Y-87663984D01*
X131240957Y-87700193D01*
X131242217Y-87703076D01*
X131253472Y-87743838D01*
X131257677Y-87792681D01*
X131257390Y-87815013D01*
X131254427Y-87840440D01*
X131246533Y-87859187D01*
X131231592Y-87878187D01*
X131221714Y-87888761D01*
X131205756Y-87901003D01*
X131186777Y-87905792D01*
X131157336Y-87905906D01*
X131143052Y-87905925D01*
X131102099Y-87909619D01*
X131064976Y-87917157D01*
X131052826Y-87920316D01*
X131013802Y-87927298D01*
X130977751Y-87930083D01*
X130973274Y-87930119D01*
X130942001Y-87933676D01*
X130927451Y-87942967D01*
X130929834Y-87957870D01*
X130934802Y-87962787D01*
X130945666Y-87957870D01*
X130946090Y-87957471D01*
X130961969Y-87950829D01*
X130985583Y-87948085D01*
X131015170Y-87954860D01*
X131041116Y-87975220D01*
X131058195Y-88005101D01*
X131064129Y-88040372D01*
X131056640Y-88076905D01*
X131044982Y-88099820D01*
X131028030Y-88117648D01*
X131002645Y-88129569D01*
X130964047Y-88138780D01*
X130939687Y-88143032D01*
X130890851Y-88147712D01*
X130855878Y-88143633D01*
X130833038Y-88129995D01*
X130820600Y-88105999D01*
X130816833Y-88070848D01*
X130815880Y-88057666D01*
X130806837Y-88019445D01*
X130789831Y-87976529D01*
X130772588Y-87935341D01*
X130764248Y-87899823D01*
X130767368Y-87873128D01*
X130781783Y-87852722D01*
X130789846Y-87846807D01*
X130806460Y-87840378D01*
X130830406Y-87837178D01*
X130864293Y-87837114D01*
X130910731Y-87840097D01*
X130972332Y-87846033D01*
X130987748Y-87847528D01*
X131022156Y-87849863D01*
X131048090Y-87850217D01*
X131060855Y-87848462D01*
X131062346Y-87847301D01*
X131065804Y-87834037D01*
X131060677Y-87807569D01*
X131053498Y-87768193D01*
X131054323Y-87721409D01*
X131064648Y-87679575D01*
X131083187Y-87645819D01*
X131108655Y-87623270D01*
X131139766Y-87615059D01*
X131158595Y-87618367D01*
G37*
G36*
X129902304Y-87354314D02*
G01*
X129922435Y-87359461D01*
X129942795Y-87372631D01*
X129965422Y-87395801D01*
X129992354Y-87430947D01*
X130025630Y-87480048D01*
X130030752Y-87487788D01*
X130056609Y-87524935D01*
X130082945Y-87560233D01*
X130104781Y-87586956D01*
X130139757Y-87626358D01*
X130172869Y-87589708D01*
X130192837Y-87569855D01*
X130230270Y-87545307D01*
X130266354Y-87538637D01*
X130300933Y-87549855D01*
X130333850Y-87578972D01*
X130352138Y-87610383D01*
X130357253Y-87648090D01*
X130346856Y-87685411D01*
X130321851Y-87719360D01*
X130283138Y-87746945D01*
X130247664Y-87757062D01*
X130204628Y-87756065D01*
X130162033Y-87744288D01*
X130126567Y-87722765D01*
X130109745Y-87709625D01*
X130077995Y-87688608D01*
X130044640Y-87669717D01*
X130020948Y-87656980D01*
X129987884Y-87637436D01*
X129962503Y-87620448D01*
X129931730Y-87597394D01*
X129918369Y-87617477D01*
X129918229Y-87617687D01*
X129902391Y-87638792D01*
X129883149Y-87661325D01*
X129879839Y-87665104D01*
X129869616Y-87681195D01*
X129870008Y-87690478D01*
X129876849Y-87691173D01*
X129889850Y-87682465D01*
X129898481Y-87675691D01*
X129922518Y-87669679D01*
X129949815Y-87672484D01*
X129972315Y-87683959D01*
X129984934Y-87702598D01*
X129989613Y-87732021D01*
X129982579Y-87762061D01*
X129964361Y-87785968D01*
X129963966Y-87786277D01*
X129941811Y-87798423D01*
X129922747Y-87800675D01*
X129921567Y-87800420D01*
X129902246Y-87803293D01*
X129880227Y-87814897D01*
X129876203Y-87817764D01*
X129851270Y-87828883D01*
X129821543Y-87828202D01*
X129799266Y-87821557D01*
X129773176Y-87807079D01*
X129753520Y-87789384D01*
X129745756Y-87772485D01*
X129740915Y-87762636D01*
X129726273Y-87743802D01*
X129705253Y-87720952D01*
X129696839Y-87712236D01*
X129675086Y-87685501D01*
X129665963Y-87662224D01*
X129669786Y-87638678D01*
X129686870Y-87611135D01*
X129717530Y-87575871D01*
X129760866Y-87522049D01*
X129789536Y-87467752D01*
X129798144Y-87443907D01*
X129805808Y-87420570D01*
X129808761Y-87408505D01*
X129810292Y-87402532D01*
X129823678Y-87386678D01*
X129846185Y-87370928D01*
X129872105Y-87358856D01*
X129895730Y-87354038D01*
X129902304Y-87354314D01*
G37*
G36*
X133602129Y-85797446D02*
G01*
X133626464Y-85814414D01*
X133636775Y-85829297D01*
X133641886Y-85848262D01*
X133636481Y-85870696D01*
X133620182Y-85901883D01*
X133612207Y-85916483D01*
X133604793Y-85934066D01*
X133605272Y-85940927D01*
X133614550Y-85938973D01*
X133636671Y-85932448D01*
X133665565Y-85922925D01*
X133707132Y-85910680D01*
X133749525Y-85905197D01*
X133782415Y-85911154D01*
X133808349Y-85928653D01*
X133808434Y-85928738D01*
X133818194Y-85939235D01*
X133824815Y-85950013D01*
X133828906Y-85964617D01*
X133831074Y-85986590D01*
X133831928Y-86019477D01*
X133832078Y-86066821D01*
X133832068Y-86073781D01*
X133830770Y-86134275D01*
X133826858Y-86180298D01*
X133819713Y-86214966D01*
X133808720Y-86241396D01*
X133793259Y-86262702D01*
X133784917Y-86271228D01*
X133767489Y-86281367D01*
X133750502Y-86276338D01*
X133729716Y-86255672D01*
X133714335Y-86233577D01*
X133694746Y-86182024D01*
X133688117Y-86118691D01*
X133687941Y-86104566D01*
X133686904Y-86084016D01*
X133685255Y-86075937D01*
X133682127Y-86076762D01*
X133665320Y-86082074D01*
X133637497Y-86091225D01*
X133602560Y-86102940D01*
X133554329Y-86118074D01*
X133514105Y-86127099D01*
X133483661Y-86128389D01*
X133459668Y-86122051D01*
X133438799Y-86108190D01*
X133430355Y-86100467D01*
X133419580Y-86085795D01*
X133415113Y-86066598D01*
X133414715Y-86036184D01*
X133414818Y-86015111D01*
X133413793Y-85994074D01*
X133411714Y-85985930D01*
X133410210Y-85986150D01*
X133395552Y-85989433D01*
X133369233Y-85995832D01*
X133335633Y-86004291D01*
X133324468Y-86007033D01*
X133273127Y-86017085D01*
X133223886Y-86022989D01*
X133180554Y-86024567D01*
X133146940Y-86021641D01*
X133126850Y-86014034D01*
X133122713Y-86009997D01*
X133113138Y-85988993D01*
X133115248Y-85966609D01*
X133128806Y-85950579D01*
X133136899Y-85947188D01*
X133161110Y-85939108D01*
X133195212Y-85928955D01*
X133234564Y-85918152D01*
X133235226Y-85917978D01*
X133313039Y-85896276D01*
X133382804Y-85874483D01*
X133442110Y-85853454D01*
X133488546Y-85834042D01*
X133519701Y-85817102D01*
X133534294Y-85808225D01*
X133570513Y-85795406D01*
X133602129Y-85797446D01*
G37*
G36*
X132010402Y-85814222D02*
G01*
X132039337Y-85823383D01*
X132088027Y-85850923D01*
X132123307Y-85890420D01*
X132132126Y-85908026D01*
X132137912Y-85945239D01*
X132128252Y-85981454D01*
X132104716Y-86014070D01*
X132068872Y-86040483D01*
X132022287Y-86058092D01*
X132015414Y-86059692D01*
X131987296Y-86064010D01*
X131962549Y-86061690D01*
X131931406Y-86052086D01*
X131915109Y-86045354D01*
X131882913Y-86027733D01*
X131858434Y-86009014D01*
X131848850Y-85998983D01*
X131838152Y-85982978D01*
X131834597Y-85963933D01*
X131835959Y-85934469D01*
X131840439Y-85903336D01*
X131850719Y-85878784D01*
X131870432Y-85854895D01*
X131875873Y-85849472D01*
X131916347Y-85820589D01*
X131960571Y-85809019D01*
X132010402Y-85814222D01*
G37*
G36*
X131668477Y-86774024D02*
G01*
X131723389Y-86779096D01*
X131775345Y-86800025D01*
X131820419Y-86835554D01*
X131834668Y-86852397D01*
X131864883Y-86901698D01*
X131889403Y-86961188D01*
X131905819Y-87025512D01*
X131911255Y-87089412D01*
X131903061Y-87159146D01*
X131880514Y-87222742D01*
X131844758Y-87277957D01*
X131796937Y-87322545D01*
X131738196Y-87354262D01*
X131697402Y-87366501D01*
X131641601Y-87375132D01*
X131585517Y-87376351D01*
X131534692Y-87370111D01*
X131494665Y-87356365D01*
X131483889Y-87350135D01*
X131439756Y-87312722D01*
X131405825Y-87263504D01*
X131383019Y-87205559D01*
X131372265Y-87141964D01*
X131374391Y-87078583D01*
X131468536Y-87078583D01*
X131471339Y-87115306D01*
X131490202Y-87145331D01*
X131503484Y-87159688D01*
X131515630Y-87175259D01*
X131523836Y-87184553D01*
X131548323Y-87201124D01*
X131578321Y-87213906D01*
X131605851Y-87219027D01*
X131612320Y-87218877D01*
X131662150Y-87208367D01*
X131709097Y-87183509D01*
X131748600Y-87147408D01*
X131776095Y-87103169D01*
X131777870Y-87098879D01*
X131785238Y-87078428D01*
X131787476Y-87067166D01*
X131787456Y-87067085D01*
X131785393Y-87054741D01*
X131782485Y-87033330D01*
X131780387Y-87024285D01*
X131764532Y-86994231D01*
X131734888Y-86957981D01*
X131716420Y-86938846D01*
X131697253Y-86922240D01*
X131682616Y-86915571D01*
X131668619Y-86916395D01*
X131653177Y-86917892D01*
X131643400Y-86913253D01*
X131635242Y-86910613D01*
X131617903Y-86917413D01*
X131598953Y-86927940D01*
X131572900Y-86941716D01*
X131556553Y-86950818D01*
X131545898Y-86958480D01*
X131541719Y-86961834D01*
X131526409Y-86969339D01*
X131517706Y-86976287D01*
X131502773Y-86995938D01*
X131487367Y-87022687D01*
X131481777Y-87034492D01*
X131468536Y-87078583D01*
X131374391Y-87078583D01*
X131374485Y-87075796D01*
X131390606Y-87010132D01*
X131393813Y-87001934D01*
X131415093Y-86960088D01*
X131444639Y-86914080D01*
X131478136Y-86870185D01*
X131511268Y-86834677D01*
X131532847Y-86818433D01*
X131580112Y-86795684D01*
X131635242Y-86779529D01*
X131640751Y-86777915D01*
X131668477Y-86774024D01*
G37*
G36*
X131509895Y-87394541D02*
G01*
X131505395Y-87399042D01*
X131500894Y-87394541D01*
X131505395Y-87390041D01*
X131509895Y-87394541D01*
G37*
%TD*%
D11*
%TO.C,U1*%
X157480000Y-76238250D03*
X149860000Y-68618250D03*
X154940000Y-76238250D03*
X152400000Y-68618250D03*
X152400000Y-76238250D03*
X154940000Y-68618250D03*
X149860000Y-76238250D03*
D12*
X157480000Y-68618250D03*
%TD*%
D13*
%TO.C,U2*%
X152400000Y-80772000D03*
D14*
X147320000Y-80772000D03*
X149860000Y-80772000D03*
%TD*%
D15*
%TO.C,REF\u002A\u002A*%
X131826000Y-69342000D03*
%TD*%
D16*
%TO.C,U3*%
X163855938Y-70840948D03*
X161315938Y-88620948D03*
X163855938Y-86080948D03*
X161315938Y-75920948D03*
X163855938Y-68300948D03*
X161315938Y-73380948D03*
X163855938Y-88620948D03*
X161315938Y-78460948D03*
X161315938Y-86080948D03*
X163855938Y-78460948D03*
X163855938Y-73380948D03*
X161315938Y-70840948D03*
X161315938Y-83540948D03*
X161315938Y-68300948D03*
X161315938Y-81000948D03*
X163855938Y-75920948D03*
X163855938Y-83540948D03*
X163855938Y-81000948D03*
X138455938Y-70840948D03*
X135915938Y-88620948D03*
X138455938Y-86080948D03*
X135915938Y-75920948D03*
X138455938Y-68300948D03*
X135915938Y-73380948D03*
X138455938Y-88620948D03*
X135915938Y-78460948D03*
X135915938Y-86080948D03*
X138455938Y-78460948D03*
X138455938Y-73380948D03*
X135915938Y-70840948D03*
X135915938Y-83540948D03*
X135915938Y-68300948D03*
X135915938Y-81000948D03*
X138455938Y-75920948D03*
X138455938Y-83540948D03*
X138455938Y-81000948D03*
%TD*%
%TO.C,R2*%
G36*
G01*
X146970000Y-83309750D02*
X146970000Y-83822250D01*
G75*
G02*
X146751250Y-84041000I-218750J0D01*
G01*
X146313750Y-84041000D01*
G75*
G02*
X146095000Y-83822250I0J218750D01*
G01*
X146095000Y-83309750D01*
G75*
G02*
X146313750Y-83091000I218750J0D01*
G01*
X146751250Y-83091000D01*
G75*
G02*
X146970000Y-83309750I0J-218750D01*
G01*
G37*
G36*
G01*
X148545000Y-83309750D02*
X148545000Y-83822250D01*
G75*
G02*
X148326250Y-84041000I-218750J0D01*
G01*
X147888750Y-84041000D01*
G75*
G02*
X147670000Y-83822250I0J218750D01*
G01*
X147670000Y-83309750D01*
G75*
G02*
X147888750Y-83091000I218750J0D01*
G01*
X148326250Y-83091000D01*
G75*
G02*
X148545000Y-83309750I0J-218750D01*
G01*
G37*
%TD*%
%TO.C,R1*%
G36*
G01*
X158498250Y-78898000D02*
X157985750Y-78898000D01*
G75*
G02*
X157767000Y-78679250I0J218750D01*
G01*
X157767000Y-78241750D01*
G75*
G02*
X157985750Y-78023000I218750J0D01*
G01*
X158498250Y-78023000D01*
G75*
G02*
X158717000Y-78241750I0J-218750D01*
G01*
X158717000Y-78679250D01*
G75*
G02*
X158498250Y-78898000I-218750J0D01*
G01*
G37*
G36*
G01*
X158498250Y-80473000D02*
X157985750Y-80473000D01*
G75*
G02*
X157767000Y-80254250I0J218750D01*
G01*
X157767000Y-79816750D01*
G75*
G02*
X157985750Y-79598000I218750J0D01*
G01*
X158498250Y-79598000D01*
G75*
G02*
X158717000Y-79816750I0J-218750D01*
G01*
X158717000Y-80254250D01*
G75*
G02*
X158498250Y-80473000I-218750J0D01*
G01*
G37*
%TD*%
%TO.C,C4*%
G36*
G01*
X155860000Y-70626988D02*
X155860000Y-71139488D01*
G75*
G02*
X155641250Y-71358238I-218750J0D01*
G01*
X155203750Y-71358238D01*
G75*
G02*
X154985000Y-71139488I0J218750D01*
G01*
X154985000Y-70626988D01*
G75*
G02*
X155203750Y-70408238I218750J0D01*
G01*
X155641250Y-70408238D01*
G75*
G02*
X155860000Y-70626988I0J-218750D01*
G01*
G37*
G36*
G01*
X157435000Y-70626988D02*
X157435000Y-71139488D01*
G75*
G02*
X157216250Y-71358238I-218750J0D01*
G01*
X156778750Y-71358238D01*
G75*
G02*
X156560000Y-71139488I0J218750D01*
G01*
X156560000Y-70626988D01*
G75*
G02*
X156778750Y-70408238I218750J0D01*
G01*
X157216250Y-70408238D01*
G75*
G02*
X157435000Y-70626988I0J-218750D01*
G01*
G37*
%TD*%
%TO.C,C3*%
G36*
G01*
X153512000Y-74449302D02*
X153512000Y-73936802D01*
G75*
G02*
X153730750Y-73718052I218750J0D01*
G01*
X154168250Y-73718052D01*
G75*
G02*
X154387000Y-73936802I0J-218750D01*
G01*
X154387000Y-74449302D01*
G75*
G02*
X154168250Y-74668052I-218750J0D01*
G01*
X153730750Y-74668052D01*
G75*
G02*
X153512000Y-74449302I0J218750D01*
G01*
G37*
G36*
G01*
X151937000Y-74449302D02*
X151937000Y-73936802D01*
G75*
G02*
X152155750Y-73718052I218750J0D01*
G01*
X152593250Y-73718052D01*
G75*
G02*
X152812000Y-73936802I0J-218750D01*
G01*
X152812000Y-74449302D01*
G75*
G02*
X152593250Y-74668052I-218750J0D01*
G01*
X152155750Y-74668052D01*
G75*
G02*
X151937000Y-74449302I0J218750D01*
G01*
G37*
%TD*%
%TO.C,C2*%
G36*
G01*
X142369250Y-77247000D02*
X141856750Y-77247000D01*
G75*
G02*
X141638000Y-77028250I0J218750D01*
G01*
X141638000Y-76590750D01*
G75*
G02*
X141856750Y-76372000I218750J0D01*
G01*
X142369250Y-76372000D01*
G75*
G02*
X142588000Y-76590750I0J-218750D01*
G01*
X142588000Y-77028250D01*
G75*
G02*
X142369250Y-77247000I-218750J0D01*
G01*
G37*
G36*
G01*
X142369250Y-78822000D02*
X141856750Y-78822000D01*
G75*
G02*
X141638000Y-78603250I0J218750D01*
G01*
X141638000Y-78165750D01*
G75*
G02*
X141856750Y-77947000I218750J0D01*
G01*
X142369250Y-77947000D01*
G75*
G02*
X142588000Y-78165750I0J-218750D01*
G01*
X142588000Y-78603250D01*
G75*
G02*
X142369250Y-78822000I-218750J0D01*
G01*
G37*
%TD*%
%TO.C,C1*%
G36*
G01*
X155860000Y-73912858D02*
X155860000Y-74425358D01*
G75*
G02*
X155641250Y-74644108I-218750J0D01*
G01*
X155203750Y-74644108D01*
G75*
G02*
X154985000Y-74425358I0J218750D01*
G01*
X154985000Y-73912858D01*
G75*
G02*
X155203750Y-73694108I218750J0D01*
G01*
X155641250Y-73694108D01*
G75*
G02*
X155860000Y-73912858I0J-218750D01*
G01*
G37*
G36*
G01*
X157435000Y-73912858D02*
X157435000Y-74425358D01*
G75*
G02*
X157216250Y-74644108I-218750J0D01*
G01*
X156778750Y-74644108D01*
G75*
G02*
X156560000Y-74425358I0J218750D01*
G01*
X156560000Y-73912858D01*
G75*
G02*
X156778750Y-73694108I218750J0D01*
G01*
X157216250Y-73694108D01*
G75*
G02*
X157435000Y-73912858I0J-218750D01*
G01*
G37*
%TD*%
M02*
