%TF.GenerationSoftware,KiCad,Pcbnew,(5.99.0-2290-gd34f8fd4b)*%
%TF.CreationDate,2020-09-13T23:37:02+02:00*%
%TF.ProjectId,audio-esp32,61756469-6f2d-4657-9370-33322e6b6963,rev?*%
%TF.SameCoordinates,Original*%
%TF.FileFunction,Copper,L2,Bot*%
%TF.FilePolarity,Positive*%
%FSLAX46Y46*%
G04 Gerber Fmt 4.6, Leading zero omitted, Abs format (unit mm)*
G04 Created by KiCad (PCBNEW (5.99.0-2290-gd34f8fd4b)) date 2020-09-13 23:37:02*
%MOMM*%
%LPD*%
G01*
G04 APERTURE LIST*
%TA.AperFunction,ComponentPad*%
%ADD10O,1.600000X1.600000*%
%TD*%
%TA.AperFunction,ComponentPad*%
%ADD11R,1.600000X1.600000*%
%TD*%
%TA.AperFunction,ComponentPad*%
%ADD12C,1.700000*%
%TD*%
%TA.AperFunction,ComponentPad*%
%ADD13O,1.700000X1.700000*%
%TD*%
%TA.AperFunction,ComponentPad*%
%ADD14C,4.500000*%
%TD*%
%TA.AperFunction,ComponentPad*%
%ADD15O,2.000000X1.200000*%
%TD*%
%TA.AperFunction,Conductor*%
%ADD16C,0.250000*%
%TD*%
%TA.AperFunction,Conductor*%
%ADD17C,0.254000*%
%TD*%
G04 APERTURE END LIST*
D10*
%TO.P,U1,8,CKIN*%
%TO.N,Net-(C1-Pad1)*%
X157480000Y-76238250D03*
%TO.P,U1,4,STROBE*%
%TO.N,ESP_STROBE*%
X149860000Y-68618250D03*
%TO.P,U1,7,RESET*%
%TO.N,ESP_RESET*%
X154940000Y-76238250D03*
%TO.P,U1,3,OUT*%
%TO.N,ESP_AUDIO*%
X152400000Y-68618250D03*
%TO.P,U1,6,GND*%
%TO.N,Net-(C3-Pad1)*%
X152400000Y-76238250D03*
%TO.P,U1,2,VSS*%
%TO.N,GND*%
X154940000Y-68618250D03*
%TO.P,U1,5,IN*%
%TO.N,Net-(C2-Pad2)*%
X149860000Y-76238250D03*
D11*
%TO.P,U1,1,VDD*%
%TO.N,+3V3*%
X157480000Y-68618250D03*
%TD*%
D12*
%TO.P,U2,1,OUT*%
%TO.N,AUDIO*%
X152400000Y-80772000D03*
D13*
%TO.P,U2,3,Vcc*%
%TO.N,+3V3*%
X147320000Y-80772000D03*
%TO.P,U2,2,GND*%
%TO.N,GND*%
X149860000Y-80772000D03*
%TD*%
D14*
%TO.P,REF\u002A\u002A,1*%
%TO.N,N/C*%
X131826000Y-69342000D03*
%TD*%
D15*
%TO.P,U3,3,NC*%
%TO.N,Net-(U3-Pad3)*%
X163855938Y-70840948D03*
%TO.P,U3,18,IO13*%
%TO.N,Net-(U3-Pad18)*%
X161315938Y-88620948D03*
%TO.P,U3,15,NC*%
%TO.N,Net-(U3-Pad15)*%
X163855938Y-86080948D03*
%TO.P,U3,8,IO18*%
%TO.N,Net-(U3-Pad8)*%
X161315938Y-75920948D03*
%TO.P,U3,1,GND*%
%TO.N,GND*%
X163855938Y-68300948D03*
%TO.P,U3,6,IO26*%
%TO.N,ESP_STROBE*%
X161315938Y-73380948D03*
%TO.P,U3,17,NC*%
%TO.N,Net-(U3-Pad17)*%
X163855938Y-88620948D03*
%TO.P,U3,10,IO19*%
%TO.N,Net-(U3-Pad10)*%
X161315938Y-78460948D03*
%TO.P,U3,16,3V3*%
%TO.N,+3V3*%
X161315938Y-86080948D03*
%TO.P,U3,9,IO33_CRYSTAL_N*%
%TO.N,Net-(U3-Pad9)*%
X163855938Y-78460948D03*
%TO.P,U3,5,I_39_SENSOR_VN*%
%TO.N,Net-(U3-Pad5)*%
X163855938Y-73380948D03*
%TO.P,U3,4,I_36_SENSOR_VP*%
%TO.N,Net-(U3-Pad4)*%
X161315938Y-70840948D03*
%TO.P,U3,14,IO5*%
%TO.N,Net-(U3-Pad14)*%
X161315938Y-83540948D03*
%TO.P,U3,2,EN*%
%TO.N,Net-(U3-Pad2)*%
X161315938Y-68300948D03*
%TO.P,U3,12,IO23*%
%TO.N,Net-(U3-Pad12)*%
X161315938Y-81000948D03*
%TO.P,U3,7,I_35*%
%TO.N,Net-(U3-Pad7)*%
X163855938Y-75920948D03*
%TO.P,U3,13,IO14*%
%TO.N,Net-(U3-Pad13)*%
X163855938Y-83540948D03*
%TO.P,U3,11,I_34*%
%TO.N,ESP_AUDIO*%
X163855938Y-81000948D03*
%TO.P,U3,21,RXD0*%
%TO.N,Net-(U3-Pad21)*%
X138455938Y-70840948D03*
%TO.P,U3,36,LED_OUT*%
%TO.N,LED_DATA*%
X135915938Y-88620948D03*
%TO.P,U3,33,5v*%
%TO.N,+5V*%
X138455938Y-86080948D03*
%TO.P,U3,26,IO32_CRYSTAL_P*%
%TO.N,Net-(U3-Pad26)*%
X135915938Y-75920948D03*
%TO.P,U3,19,TXD0*%
%TO.N,Net-(U3-Pad19)*%
X138455938Y-68300948D03*
%TO.P,U3,24,IO25*%
%TO.N,Net-(U3-Pad24)*%
X135915938Y-73380948D03*
%TO.P,U3,35,LED_IO15*%
%TO.N,Net-(U3-Pad35)*%
X138455938Y-88620948D03*
%TO.P,U3,28,IO12*%
%TO.N,Net-(U3-Pad28)*%
X135915938Y-78460948D03*
%TO.P,U3,34,IO2*%
%TO.N,Net-(U3-Pad34)*%
X135915938Y-86080948D03*
%TO.P,U3,27,NC*%
%TO.N,Net-(U3-Pad27)*%
X138455938Y-78460948D03*
%TO.P,U3,23,IO22*%
%TO.N,Net-(U3-Pad23)*%
X138455938Y-73380948D03*
%TO.P,U3,22,IO27*%
%TO.N,ESP_RESET*%
X135915938Y-70840948D03*
%TO.P,U3,32,IO0*%
%TO.N,Net-(U3-Pad32)*%
X135915938Y-83540948D03*
%TO.P,U3,20,GND*%
%TO.N,GND*%
X135915938Y-68300948D03*
%TO.P,U3,30,IO4*%
%TO.N,Net-(U3-Pad30)*%
X135915938Y-81000948D03*
%TO.P,U3,25,IO21*%
%TO.N,Net-(U3-Pad25)*%
X138455938Y-75920948D03*
%TO.P,U3,31,GND*%
%TO.N,GND*%
X138455938Y-83540948D03*
%TO.P,U3,29,NC*%
%TO.N,Net-(U3-Pad29)*%
X138455938Y-81000948D03*
%TD*%
%TO.P,R2,2*%
%TO.N,Net-(C2-Pad1)*%
%TA.AperFunction,SMDPad,CuDef*%
G36*
G01*
X146970000Y-83309750D02*
X146970000Y-83822250D01*
G75*
G02*
X146751250Y-84041000I-218750J0D01*
G01*
X146313750Y-84041000D01*
G75*
G02*
X146095000Y-83822250I0J218750D01*
G01*
X146095000Y-83309750D01*
G75*
G02*
X146313750Y-83091000I218750J0D01*
G01*
X146751250Y-83091000D01*
G75*
G02*
X146970000Y-83309750I0J-218750D01*
G01*
G37*
%TD.AperFunction*%
%TO.P,R2,1*%
%TO.N,AUDIO*%
%TA.AperFunction,SMDPad,CuDef*%
G36*
G01*
X148545000Y-83309750D02*
X148545000Y-83822250D01*
G75*
G02*
X148326250Y-84041000I-218750J0D01*
G01*
X147888750Y-84041000D01*
G75*
G02*
X147670000Y-83822250I0J218750D01*
G01*
X147670000Y-83309750D01*
G75*
G02*
X147888750Y-83091000I218750J0D01*
G01*
X148326250Y-83091000D01*
G75*
G02*
X148545000Y-83309750I0J-218750D01*
G01*
G37*
%TD.AperFunction*%
%TD*%
%TO.P,R1,2*%
%TO.N,Net-(C1-Pad1)*%
%TA.AperFunction,SMDPad,CuDef*%
G36*
G01*
X158498250Y-78898000D02*
X157985750Y-78898000D01*
G75*
G02*
X157767000Y-78679250I0J218750D01*
G01*
X157767000Y-78241750D01*
G75*
G02*
X157985750Y-78023000I218750J0D01*
G01*
X158498250Y-78023000D01*
G75*
G02*
X158717000Y-78241750I0J-218750D01*
G01*
X158717000Y-78679250D01*
G75*
G02*
X158498250Y-78898000I-218750J0D01*
G01*
G37*
%TD.AperFunction*%
%TO.P,R1,1*%
%TO.N,+3V3*%
%TA.AperFunction,SMDPad,CuDef*%
G36*
G01*
X158498250Y-80473000D02*
X157985750Y-80473000D01*
G75*
G02*
X157767000Y-80254250I0J218750D01*
G01*
X157767000Y-79816750D01*
G75*
G02*
X157985750Y-79598000I218750J0D01*
G01*
X158498250Y-79598000D01*
G75*
G02*
X158717000Y-79816750I0J-218750D01*
G01*
X158717000Y-80254250D01*
G75*
G02*
X158498250Y-80473000I-218750J0D01*
G01*
G37*
%TD.AperFunction*%
%TD*%
%TO.P,C4,2*%
%TO.N,GND*%
%TA.AperFunction,SMDPad,CuDef*%
G36*
G01*
X155860000Y-70626988D02*
X155860000Y-71139488D01*
G75*
G02*
X155641250Y-71358238I-218750J0D01*
G01*
X155203750Y-71358238D01*
G75*
G02*
X154985000Y-71139488I0J218750D01*
G01*
X154985000Y-70626988D01*
G75*
G02*
X155203750Y-70408238I218750J0D01*
G01*
X155641250Y-70408238D01*
G75*
G02*
X155860000Y-70626988I0J-218750D01*
G01*
G37*
%TD.AperFunction*%
%TO.P,C4,1*%
%TO.N,+3V3*%
%TA.AperFunction,SMDPad,CuDef*%
G36*
G01*
X157435000Y-70626988D02*
X157435000Y-71139488D01*
G75*
G02*
X157216250Y-71358238I-218750J0D01*
G01*
X156778750Y-71358238D01*
G75*
G02*
X156560000Y-71139488I0J218750D01*
G01*
X156560000Y-70626988D01*
G75*
G02*
X156778750Y-70408238I218750J0D01*
G01*
X157216250Y-70408238D01*
G75*
G02*
X157435000Y-70626988I0J-218750D01*
G01*
G37*
%TD.AperFunction*%
%TD*%
%TO.P,C3,2*%
%TO.N,GND*%
%TA.AperFunction,SMDPad,CuDef*%
G36*
G01*
X153512000Y-74449302D02*
X153512000Y-73936802D01*
G75*
G02*
X153730750Y-73718052I218750J0D01*
G01*
X154168250Y-73718052D01*
G75*
G02*
X154387000Y-73936802I0J-218750D01*
G01*
X154387000Y-74449302D01*
G75*
G02*
X154168250Y-74668052I-218750J0D01*
G01*
X153730750Y-74668052D01*
G75*
G02*
X153512000Y-74449302I0J218750D01*
G01*
G37*
%TD.AperFunction*%
%TO.P,C3,1*%
%TO.N,Net-(C3-Pad1)*%
%TA.AperFunction,SMDPad,CuDef*%
G36*
G01*
X151937000Y-74449302D02*
X151937000Y-73936802D01*
G75*
G02*
X152155750Y-73718052I218750J0D01*
G01*
X152593250Y-73718052D01*
G75*
G02*
X152812000Y-73936802I0J-218750D01*
G01*
X152812000Y-74449302D01*
G75*
G02*
X152593250Y-74668052I-218750J0D01*
G01*
X152155750Y-74668052D01*
G75*
G02*
X151937000Y-74449302I0J218750D01*
G01*
G37*
%TD.AperFunction*%
%TD*%
%TO.P,C2,2*%
%TO.N,Net-(C2-Pad2)*%
%TA.AperFunction,SMDPad,CuDef*%
G36*
G01*
X142369250Y-77247000D02*
X141856750Y-77247000D01*
G75*
G02*
X141638000Y-77028250I0J218750D01*
G01*
X141638000Y-76590750D01*
G75*
G02*
X141856750Y-76372000I218750J0D01*
G01*
X142369250Y-76372000D01*
G75*
G02*
X142588000Y-76590750I0J-218750D01*
G01*
X142588000Y-77028250D01*
G75*
G02*
X142369250Y-77247000I-218750J0D01*
G01*
G37*
%TD.AperFunction*%
%TO.P,C2,1*%
%TO.N,Net-(C2-Pad1)*%
%TA.AperFunction,SMDPad,CuDef*%
G36*
G01*
X142369250Y-78822000D02*
X141856750Y-78822000D01*
G75*
G02*
X141638000Y-78603250I0J218750D01*
G01*
X141638000Y-78165750D01*
G75*
G02*
X141856750Y-77947000I218750J0D01*
G01*
X142369250Y-77947000D01*
G75*
G02*
X142588000Y-78165750I0J-218750D01*
G01*
X142588000Y-78603250D01*
G75*
G02*
X142369250Y-78822000I-218750J0D01*
G01*
G37*
%TD.AperFunction*%
%TD*%
%TO.P,C1,2*%
%TO.N,GND*%
%TA.AperFunction,SMDPad,CuDef*%
G36*
G01*
X155860000Y-73912858D02*
X155860000Y-74425358D01*
G75*
G02*
X155641250Y-74644108I-218750J0D01*
G01*
X155203750Y-74644108D01*
G75*
G02*
X154985000Y-74425358I0J218750D01*
G01*
X154985000Y-73912858D01*
G75*
G02*
X155203750Y-73694108I218750J0D01*
G01*
X155641250Y-73694108D01*
G75*
G02*
X155860000Y-73912858I0J-218750D01*
G01*
G37*
%TD.AperFunction*%
%TO.P,C1,1*%
%TO.N,Net-(C1-Pad1)*%
%TA.AperFunction,SMDPad,CuDef*%
G36*
G01*
X157435000Y-73912858D02*
X157435000Y-74425358D01*
G75*
G02*
X157216250Y-74644108I-218750J0D01*
G01*
X156778750Y-74644108D01*
G75*
G02*
X156560000Y-74425358I0J218750D01*
G01*
X156560000Y-73912858D01*
G75*
G02*
X156778750Y-73694108I218750J0D01*
G01*
X157216250Y-73694108D01*
G75*
G02*
X157435000Y-73912858I0J-218750D01*
G01*
G37*
%TD.AperFunction*%
%TD*%
D16*
%TO.N,ESP_RESET*%
X154940000Y-76238250D02*
X154940000Y-76708000D01*
X154940000Y-76708000D02*
X153924000Y-77724000D01*
X153924000Y-77724000D02*
X152146000Y-77724000D01*
X151130000Y-75184000D02*
X147711958Y-71765958D01*
X152146000Y-77724000D02*
X151130000Y-76708000D01*
X151130000Y-76708000D02*
X151130000Y-75184000D01*
%TO.N,Net-(C1-Pad1)*%
X158242000Y-78460500D02*
X158242000Y-77000250D01*
X158242000Y-77000250D02*
X157480000Y-76238250D01*
X156997500Y-74169108D02*
X156997500Y-75755750D01*
X156997500Y-75755750D02*
X157480000Y-76238250D01*
%TO.N,Net-(C3-Pad1)*%
X152374500Y-74193052D02*
X152374500Y-76212750D01*
X152374500Y-76212750D02*
X152400000Y-76238250D01*
%TO.N,GND*%
X155422500Y-74169108D02*
X153973444Y-74169108D01*
X153973444Y-74169108D02*
X153949500Y-74193052D01*
X155422500Y-74169108D02*
X155422500Y-70883238D01*
X155422500Y-70883238D02*
X155422500Y-69100750D01*
X155422500Y-69100750D02*
X154940000Y-68618250D01*
%TO.N,Net-(C3-Pad1)*%
X152400000Y-75967589D02*
X152400000Y-76238250D01*
X152425500Y-75942089D02*
X152400000Y-75967589D01*
%TO.N,ESP_AUDIO*%
X165354000Y-68090849D02*
X164485730Y-67222579D01*
X153795671Y-67222579D02*
X152400000Y-68618250D01*
X164485730Y-67222579D02*
X153795671Y-67222579D01*
%TO.N,+3V3*%
X156997500Y-69100750D02*
X157480000Y-68618250D01*
%TO.N,ESP_AUDIO*%
X165354000Y-79502886D02*
X165354000Y-68090849D01*
%TO.N,Net-(C2-Pad2)*%
X142113000Y-76809500D02*
X149288750Y-76809500D01*
%TO.N,ESP_AUDIO*%
X163855938Y-81000948D02*
X165354000Y-79502886D01*
%TO.N,Net-(C2-Pad2)*%
X149288750Y-76809500D02*
X149860000Y-76238250D01*
%TO.N,+3V3*%
X156997500Y-70883238D02*
X156997500Y-69100750D01*
X157480000Y-68618250D02*
X158026250Y-68618250D01*
X158026250Y-68618250D02*
X159042010Y-69634010D01*
X159042010Y-69634010D02*
X159042010Y-83807020D01*
X159042010Y-83807020D02*
X161315938Y-86080948D01*
%TO.N,ESP_RESET*%
X147711958Y-71765958D02*
X148844000Y-72898000D01*
X148844000Y-72898000D02*
X148590000Y-72644000D01*
X135915938Y-70840948D02*
X136840948Y-71765958D01*
X136840948Y-71765958D02*
X147711958Y-71765958D01*
%TO.N,Net-(C2-Pad1)*%
X146532500Y-83566000D02*
X145288000Y-83566000D01*
X145288000Y-83566000D02*
X142113000Y-80391000D01*
X142113000Y-80391000D02*
X142113000Y-78384500D01*
%TO.N,AUDIO*%
X152400000Y-80772000D02*
X149606000Y-83566000D01*
X149606000Y-83566000D02*
X148107500Y-83566000D01*
%TO.N,+3V3*%
X147320000Y-80772000D02*
X147320000Y-84026164D01*
X147320000Y-84026164D02*
X149374784Y-86080948D01*
X149374784Y-86080948D02*
X161315938Y-86080948D01*
%TO.N,GND*%
X149860000Y-80772000D02*
X149860000Y-80264000D01*
%TO.N,+3V3*%
X158242000Y-80035500D02*
X158242000Y-83007010D01*
X158242000Y-83007010D02*
X161315938Y-86080948D01*
%TD*%
%TO.N,GND*%
D17*
X134280557Y-70932380D02*
X134281464Y-70943898D01*
X134317906Y-71155979D01*
X134320896Y-71167139D01*
X134395377Y-71369028D01*
X134400351Y-71379457D01*
X134510376Y-71564392D01*
X134517167Y-71573738D01*
X134659051Y-71735526D01*
X134667432Y-71743479D01*
X134836424Y-71876701D01*
X134846113Y-71882994D01*
X135036554Y-71983189D01*
X135047228Y-71987610D01*
X135253132Y-72051546D01*
X135265258Y-72054041D01*
X135460893Y-72074603D01*
X135467483Y-72074948D01*
X136073723Y-72074948D01*
X136145723Y-72146948D01*
X135461401Y-72146948D01*
X135455634Y-72147212D01*
X135295874Y-72161892D01*
X135284514Y-72163998D01*
X135077404Y-72222409D01*
X135066617Y-72226549D01*
X134873620Y-72321725D01*
X134863769Y-72327762D01*
X134691348Y-72456515D01*
X134682763Y-72464246D01*
X134536691Y-72622264D01*
X134529658Y-72631430D01*
X134414830Y-72813422D01*
X134409585Y-72823716D01*
X134329844Y-73023586D01*
X134326563Y-73034664D01*
X134284582Y-73245718D01*
X134283374Y-73257208D01*
X134280557Y-73472380D01*
X134281464Y-73483898D01*
X134317906Y-73695979D01*
X134320896Y-73707139D01*
X134395377Y-73909028D01*
X134400351Y-73919457D01*
X134510376Y-74104392D01*
X134517167Y-74113738D01*
X134659051Y-74275526D01*
X134667432Y-74283479D01*
X134836424Y-74416701D01*
X134846113Y-74422994D01*
X135036554Y-74523189D01*
X135047228Y-74527610D01*
X135253132Y-74591546D01*
X135265258Y-74594041D01*
X135460893Y-74614603D01*
X135467483Y-74614948D01*
X136370475Y-74614948D01*
X136376242Y-74614684D01*
X136536002Y-74600004D01*
X136547362Y-74597898D01*
X136754472Y-74539487D01*
X136765259Y-74535347D01*
X136958256Y-74440171D01*
X136968107Y-74434134D01*
X137140528Y-74305381D01*
X137149113Y-74297650D01*
X137184696Y-74259157D01*
X137199051Y-74275526D01*
X137207432Y-74283479D01*
X137376424Y-74416701D01*
X137386113Y-74422994D01*
X137576554Y-74523189D01*
X137587228Y-74527610D01*
X137793132Y-74591546D01*
X137805258Y-74594041D01*
X138000893Y-74614603D01*
X138007483Y-74614948D01*
X138910475Y-74614948D01*
X138916242Y-74614684D01*
X139076002Y-74600004D01*
X139087362Y-74597898D01*
X139294472Y-74539487D01*
X139305259Y-74535347D01*
X139498256Y-74440171D01*
X139508107Y-74434134D01*
X139680528Y-74305381D01*
X139689113Y-74297650D01*
X139835185Y-74139632D01*
X139842218Y-74130466D01*
X139957046Y-73948474D01*
X139962291Y-73938180D01*
X140042032Y-73738310D01*
X140045313Y-73727232D01*
X140087294Y-73516178D01*
X140088502Y-73504688D01*
X140091319Y-73289516D01*
X140090412Y-73277998D01*
X140053970Y-73065917D01*
X140050980Y-73054757D01*
X139976499Y-72852868D01*
X139971525Y-72842439D01*
X139861500Y-72657504D01*
X139854709Y-72648158D01*
X139748420Y-72526958D01*
X147396744Y-72526958D01*
X147957454Y-73087668D01*
X149683105Y-74813320D01*
X149492874Y-74846863D01*
X149482247Y-74849710D01*
X149256840Y-74931752D01*
X149246868Y-74936402D01*
X149039132Y-75056338D01*
X149030119Y-75062649D01*
X148846366Y-75216837D01*
X148838587Y-75224616D01*
X148684399Y-75408369D01*
X148678088Y-75417382D01*
X148558152Y-75625118D01*
X148553502Y-75635090D01*
X148471460Y-75860497D01*
X148468613Y-75871124D01*
X148437336Y-76048500D01*
X143039622Y-76048500D01*
X143028722Y-76031539D01*
X143016919Y-76017918D01*
X142843736Y-75867854D01*
X142828574Y-75858110D01*
X142620128Y-75762916D01*
X142602835Y-75757838D01*
X142432990Y-75733418D01*
X142424013Y-75732776D01*
X141817538Y-75732776D01*
X141804108Y-75734220D01*
X141513054Y-75797535D01*
X141492220Y-75806165D01*
X141297539Y-75931278D01*
X141283918Y-75943081D01*
X141133854Y-76116264D01*
X141124110Y-76131426D01*
X141028916Y-76339872D01*
X141023838Y-76357165D01*
X140999418Y-76527010D01*
X140998776Y-76535987D01*
X140998776Y-77067462D01*
X141000220Y-77080892D01*
X141063535Y-77371946D01*
X141072165Y-77392780D01*
X141197278Y-77587461D01*
X141209081Y-77601082D01*
X141210747Y-77602525D01*
X141133854Y-77691264D01*
X141124110Y-77706426D01*
X141028916Y-77914872D01*
X141023838Y-77932165D01*
X140999418Y-78102010D01*
X140998776Y-78110987D01*
X140998776Y-78642462D01*
X141000220Y-78655892D01*
X141063535Y-78946946D01*
X141072165Y-78967780D01*
X141197278Y-79162461D01*
X141209081Y-79176082D01*
X141352001Y-79299923D01*
X141352000Y-80446178D01*
X141352001Y-80446190D01*
X141352001Y-80501489D01*
X141355103Y-80521077D01*
X141370736Y-80569191D01*
X141378653Y-80619176D01*
X141384782Y-80638037D01*
X141407753Y-80683120D01*
X141423390Y-80731245D01*
X141432394Y-80748917D01*
X141462138Y-80789855D01*
X141485106Y-80834933D01*
X141496763Y-80850978D01*
X141653190Y-81007406D01*
X141653197Y-81007411D01*
X144678776Y-84032991D01*
X144828021Y-84182237D01*
X144844066Y-84193894D01*
X144889144Y-84216862D01*
X144930082Y-84246606D01*
X144947754Y-84255610D01*
X144995879Y-84271247D01*
X145040962Y-84294218D01*
X145059823Y-84300347D01*
X145109808Y-84308264D01*
X145157922Y-84323897D01*
X145177510Y-84326999D01*
X145232809Y-84326999D01*
X145232821Y-84327000D01*
X145619279Y-84327000D01*
X145654278Y-84381461D01*
X145666081Y-84395082D01*
X145839264Y-84545146D01*
X145854426Y-84554890D01*
X146062872Y-84650084D01*
X146080165Y-84655162D01*
X146250010Y-84679582D01*
X146258987Y-84680224D01*
X146790462Y-84680224D01*
X146803892Y-84678780D01*
X146879873Y-84662251D01*
X148875173Y-86657554D01*
X148875188Y-86657567D01*
X148914804Y-86697184D01*
X148930850Y-86708842D01*
X148975934Y-86731814D01*
X149016868Y-86761554D01*
X149034538Y-86770558D01*
X149082657Y-86786193D01*
X149127745Y-86809166D01*
X149146607Y-86815294D01*
X149196589Y-86823211D01*
X149244704Y-86838845D01*
X149264293Y-86841947D01*
X149319593Y-86841947D01*
X149319605Y-86841948D01*
X159941906Y-86841948D01*
X160059051Y-86975526D01*
X160067432Y-86983479D01*
X160236424Y-87116701D01*
X160246113Y-87122994D01*
X160436554Y-87223189D01*
X160447228Y-87227610D01*
X160653132Y-87291546D01*
X160665258Y-87294041D01*
X160860893Y-87314603D01*
X160867483Y-87314948D01*
X161770475Y-87314948D01*
X161776242Y-87314684D01*
X161936002Y-87300004D01*
X161947362Y-87297898D01*
X162154472Y-87239487D01*
X162165259Y-87235347D01*
X162358256Y-87140171D01*
X162368107Y-87134134D01*
X162540528Y-87005381D01*
X162549113Y-86997650D01*
X162584696Y-86959157D01*
X162599051Y-86975526D01*
X162607432Y-86983479D01*
X162776424Y-87116701D01*
X162786113Y-87122994D01*
X162976554Y-87223189D01*
X162987228Y-87227610D01*
X163193132Y-87291546D01*
X163205258Y-87294041D01*
X163400893Y-87314603D01*
X163407483Y-87314948D01*
X164310475Y-87314948D01*
X164316242Y-87314684D01*
X164476002Y-87300004D01*
X164487362Y-87297898D01*
X164694472Y-87239487D01*
X164705259Y-87235347D01*
X164898256Y-87140171D01*
X164908107Y-87134134D01*
X165080528Y-87005381D01*
X165089113Y-86997650D01*
X165228000Y-86847405D01*
X165228000Y-87857702D01*
X165112825Y-87726370D01*
X165104444Y-87718417D01*
X164935452Y-87585195D01*
X164925763Y-87578902D01*
X164735322Y-87478707D01*
X164724648Y-87474286D01*
X164518744Y-87410350D01*
X164506618Y-87407855D01*
X164310983Y-87387293D01*
X164304393Y-87386948D01*
X163401401Y-87386948D01*
X163395634Y-87387212D01*
X163235874Y-87401892D01*
X163224514Y-87403998D01*
X163017404Y-87462409D01*
X163006617Y-87466549D01*
X162813620Y-87561725D01*
X162803769Y-87567762D01*
X162631348Y-87696515D01*
X162622763Y-87704246D01*
X162587180Y-87742739D01*
X162572825Y-87726370D01*
X162564444Y-87718417D01*
X162395452Y-87585195D01*
X162385763Y-87578902D01*
X162195322Y-87478707D01*
X162184648Y-87474286D01*
X161978744Y-87410350D01*
X161966618Y-87407855D01*
X161770983Y-87387293D01*
X161764393Y-87386948D01*
X160861401Y-87386948D01*
X160855634Y-87387212D01*
X160695874Y-87401892D01*
X160684514Y-87403998D01*
X160477404Y-87462409D01*
X160466617Y-87466549D01*
X160273620Y-87561725D01*
X160263769Y-87567762D01*
X160091348Y-87696515D01*
X160082763Y-87704246D01*
X159936691Y-87862264D01*
X159929658Y-87871430D01*
X159814830Y-88053422D01*
X159809585Y-88063716D01*
X159729844Y-88263586D01*
X159726563Y-88274664D01*
X159684582Y-88485718D01*
X159683374Y-88497208D01*
X159680557Y-88712380D01*
X159681464Y-88723898D01*
X159717906Y-88935979D01*
X159720896Y-88947139D01*
X159795377Y-89149028D01*
X159800351Y-89159457D01*
X159910376Y-89344392D01*
X159917167Y-89353738D01*
X160059051Y-89515526D01*
X160067432Y-89523479D01*
X160236424Y-89656701D01*
X160246113Y-89662994D01*
X160436554Y-89763189D01*
X160447228Y-89767610D01*
X160653132Y-89831546D01*
X160665258Y-89834041D01*
X160860893Y-89854603D01*
X160867483Y-89854948D01*
X161770475Y-89854948D01*
X161776242Y-89854684D01*
X161936002Y-89840004D01*
X161947362Y-89837898D01*
X162154472Y-89779487D01*
X162165259Y-89775347D01*
X162358256Y-89680171D01*
X162368107Y-89674134D01*
X162540528Y-89545381D01*
X162549113Y-89537650D01*
X162584696Y-89499157D01*
X162599051Y-89515526D01*
X162607432Y-89523479D01*
X162776424Y-89656701D01*
X162786113Y-89662994D01*
X162976554Y-89763189D01*
X162987228Y-89767610D01*
X163193132Y-89831546D01*
X163205258Y-89834041D01*
X163400893Y-89854603D01*
X163407483Y-89854948D01*
X164310475Y-89854948D01*
X164316242Y-89854684D01*
X164476002Y-89840004D01*
X164487362Y-89837898D01*
X164694472Y-89779487D01*
X164705259Y-89775347D01*
X164898256Y-89680171D01*
X164908107Y-89674134D01*
X165080528Y-89545381D01*
X165089113Y-89537650D01*
X165228000Y-89387405D01*
X165228000Y-89834438D01*
X165227145Y-89841403D01*
X165227099Y-89841784D01*
X165215269Y-89943250D01*
X165205910Y-89969036D01*
X165190869Y-89991977D01*
X165170953Y-90010843D01*
X165147228Y-90024624D01*
X165112601Y-90035111D01*
X165038712Y-90041705D01*
X165029861Y-90043135D01*
X165026187Y-90044000D01*
X129621562Y-90044000D01*
X129614597Y-90043145D01*
X129614216Y-90043099D01*
X129512750Y-90031269D01*
X129486964Y-90021910D01*
X129464023Y-90006869D01*
X129445157Y-89986953D01*
X129431376Y-89963228D01*
X129420889Y-89928601D01*
X129414295Y-89854712D01*
X129412865Y-89845861D01*
X129412000Y-89842187D01*
X129412000Y-88712380D01*
X134280557Y-88712380D01*
X134281464Y-88723898D01*
X134317906Y-88935979D01*
X134320896Y-88947139D01*
X134395377Y-89149028D01*
X134400351Y-89159457D01*
X134510376Y-89344392D01*
X134517167Y-89353738D01*
X134659051Y-89515526D01*
X134667432Y-89523479D01*
X134836424Y-89656701D01*
X134846113Y-89662994D01*
X135036554Y-89763189D01*
X135047228Y-89767610D01*
X135253132Y-89831546D01*
X135265258Y-89834041D01*
X135460893Y-89854603D01*
X135467483Y-89854948D01*
X136370475Y-89854948D01*
X136376242Y-89854684D01*
X136536002Y-89840004D01*
X136547362Y-89837898D01*
X136754472Y-89779487D01*
X136765259Y-89775347D01*
X136958256Y-89680171D01*
X136968107Y-89674134D01*
X137140528Y-89545381D01*
X137149113Y-89537650D01*
X137184696Y-89499157D01*
X137199051Y-89515526D01*
X137207432Y-89523479D01*
X137376424Y-89656701D01*
X137386113Y-89662994D01*
X137576554Y-89763189D01*
X137587228Y-89767610D01*
X137793132Y-89831546D01*
X137805258Y-89834041D01*
X138000893Y-89854603D01*
X138007483Y-89854948D01*
X138910475Y-89854948D01*
X138916242Y-89854684D01*
X139076002Y-89840004D01*
X139087362Y-89837898D01*
X139294472Y-89779487D01*
X139305259Y-89775347D01*
X139498256Y-89680171D01*
X139508107Y-89674134D01*
X139680528Y-89545381D01*
X139689113Y-89537650D01*
X139835185Y-89379632D01*
X139842218Y-89370466D01*
X139957046Y-89188474D01*
X139962291Y-89178180D01*
X140042032Y-88978310D01*
X140045313Y-88967232D01*
X140087294Y-88756178D01*
X140088502Y-88744688D01*
X140091319Y-88529516D01*
X140090412Y-88517998D01*
X140053970Y-88305917D01*
X140050980Y-88294757D01*
X139976499Y-88092868D01*
X139971525Y-88082439D01*
X139861500Y-87897504D01*
X139854709Y-87888158D01*
X139712825Y-87726370D01*
X139704444Y-87718417D01*
X139535452Y-87585195D01*
X139525763Y-87578902D01*
X139335322Y-87478707D01*
X139324648Y-87474286D01*
X139118744Y-87410350D01*
X139106618Y-87407855D01*
X138910983Y-87387293D01*
X138904393Y-87386948D01*
X138001401Y-87386948D01*
X137995634Y-87387212D01*
X137835874Y-87401892D01*
X137824514Y-87403998D01*
X137617404Y-87462409D01*
X137606617Y-87466549D01*
X137413620Y-87561725D01*
X137403769Y-87567762D01*
X137231348Y-87696515D01*
X137222763Y-87704246D01*
X137187180Y-87742739D01*
X137172825Y-87726370D01*
X137164444Y-87718417D01*
X136995452Y-87585195D01*
X136985763Y-87578902D01*
X136795322Y-87478707D01*
X136784648Y-87474286D01*
X136578744Y-87410350D01*
X136566618Y-87407855D01*
X136370983Y-87387293D01*
X136364393Y-87386948D01*
X135461401Y-87386948D01*
X135455634Y-87387212D01*
X135295874Y-87401892D01*
X135284514Y-87403998D01*
X135077404Y-87462409D01*
X135066617Y-87466549D01*
X134873620Y-87561725D01*
X134863769Y-87567762D01*
X134691348Y-87696515D01*
X134682763Y-87704246D01*
X134536691Y-87862264D01*
X134529658Y-87871430D01*
X134414830Y-88053422D01*
X134409585Y-88063716D01*
X134329844Y-88263586D01*
X134326563Y-88274664D01*
X134284582Y-88485718D01*
X134283374Y-88497208D01*
X134280557Y-88712380D01*
X129412000Y-88712380D01*
X129412000Y-86172380D01*
X134280557Y-86172380D01*
X134281464Y-86183898D01*
X134317906Y-86395979D01*
X134320896Y-86407139D01*
X134395377Y-86609028D01*
X134400351Y-86619457D01*
X134510376Y-86804392D01*
X134517167Y-86813738D01*
X134659051Y-86975526D01*
X134667432Y-86983479D01*
X134836424Y-87116701D01*
X134846113Y-87122994D01*
X135036554Y-87223189D01*
X135047228Y-87227610D01*
X135253132Y-87291546D01*
X135265258Y-87294041D01*
X135460893Y-87314603D01*
X135467483Y-87314948D01*
X136370475Y-87314948D01*
X136376242Y-87314684D01*
X136536002Y-87300004D01*
X136547362Y-87297898D01*
X136754472Y-87239487D01*
X136765259Y-87235347D01*
X136958256Y-87140171D01*
X136968107Y-87134134D01*
X137140528Y-87005381D01*
X137149113Y-86997650D01*
X137184696Y-86959157D01*
X137199051Y-86975526D01*
X137207432Y-86983479D01*
X137376424Y-87116701D01*
X137386113Y-87122994D01*
X137576554Y-87223189D01*
X137587228Y-87227610D01*
X137793132Y-87291546D01*
X137805258Y-87294041D01*
X138000893Y-87314603D01*
X138007483Y-87314948D01*
X138910475Y-87314948D01*
X138916242Y-87314684D01*
X139076002Y-87300004D01*
X139087362Y-87297898D01*
X139294472Y-87239487D01*
X139305259Y-87235347D01*
X139498256Y-87140171D01*
X139508107Y-87134134D01*
X139680528Y-87005381D01*
X139689113Y-86997650D01*
X139835185Y-86839632D01*
X139842218Y-86830466D01*
X139957046Y-86648474D01*
X139962291Y-86638180D01*
X140042032Y-86438310D01*
X140045313Y-86427232D01*
X140087294Y-86216178D01*
X140088502Y-86204688D01*
X140091319Y-85989516D01*
X140090412Y-85977998D01*
X140053970Y-85765917D01*
X140050980Y-85754757D01*
X139976499Y-85552868D01*
X139971525Y-85542439D01*
X139861500Y-85357504D01*
X139854709Y-85348158D01*
X139712825Y-85186370D01*
X139704444Y-85178417D01*
X139535452Y-85045195D01*
X139525763Y-85038902D01*
X139335322Y-84938707D01*
X139324648Y-84934286D01*
X139118744Y-84870350D01*
X139106618Y-84867855D01*
X138910983Y-84847293D01*
X138904393Y-84846948D01*
X138001401Y-84846948D01*
X137995634Y-84847212D01*
X137835874Y-84861892D01*
X137824514Y-84863998D01*
X137617404Y-84922409D01*
X137606617Y-84926549D01*
X137413620Y-85021725D01*
X137403769Y-85027762D01*
X137231348Y-85156515D01*
X137222763Y-85164246D01*
X137187180Y-85202739D01*
X137172825Y-85186370D01*
X137164444Y-85178417D01*
X136995452Y-85045195D01*
X136985763Y-85038902D01*
X136795322Y-84938707D01*
X136784648Y-84934286D01*
X136578744Y-84870350D01*
X136566618Y-84867855D01*
X136370983Y-84847293D01*
X136364393Y-84846948D01*
X135461401Y-84846948D01*
X135455634Y-84847212D01*
X135295874Y-84861892D01*
X135284514Y-84863998D01*
X135077404Y-84922409D01*
X135066617Y-84926549D01*
X134873620Y-85021725D01*
X134863769Y-85027762D01*
X134691348Y-85156515D01*
X134682763Y-85164246D01*
X134536691Y-85322264D01*
X134529658Y-85331430D01*
X134414830Y-85513422D01*
X134409585Y-85523716D01*
X134329844Y-85723586D01*
X134326563Y-85734664D01*
X134284582Y-85945718D01*
X134283374Y-85957208D01*
X134280557Y-86172380D01*
X129412000Y-86172380D01*
X129412000Y-83632380D01*
X134280557Y-83632380D01*
X134281464Y-83643898D01*
X134317906Y-83855979D01*
X134320896Y-83867139D01*
X134395377Y-84069028D01*
X134400351Y-84079457D01*
X134510376Y-84264392D01*
X134517167Y-84273738D01*
X134659051Y-84435526D01*
X134667432Y-84443479D01*
X134836424Y-84576701D01*
X134846113Y-84582994D01*
X135036554Y-84683189D01*
X135047228Y-84687610D01*
X135253132Y-84751546D01*
X135265258Y-84754041D01*
X135460893Y-84774603D01*
X135467483Y-84774948D01*
X136370475Y-84774948D01*
X136376242Y-84774684D01*
X136536002Y-84760004D01*
X136547362Y-84757898D01*
X136754472Y-84699487D01*
X136765259Y-84695347D01*
X136958256Y-84600171D01*
X136968107Y-84594134D01*
X137140528Y-84465381D01*
X137149113Y-84457650D01*
X137184696Y-84419157D01*
X137199051Y-84435526D01*
X137207432Y-84443479D01*
X137376424Y-84576701D01*
X137386113Y-84582994D01*
X137576554Y-84683189D01*
X137587228Y-84687610D01*
X137793132Y-84751546D01*
X137805258Y-84754041D01*
X138000893Y-84774603D01*
X138007483Y-84774948D01*
X138254129Y-84774948D01*
X138327938Y-84701139D01*
X138583937Y-84701139D01*
X138657746Y-84774948D01*
X138910475Y-84774948D01*
X138916242Y-84774684D01*
X139076002Y-84760004D01*
X139087362Y-84757898D01*
X139294472Y-84699487D01*
X139305259Y-84695347D01*
X139498256Y-84600171D01*
X139508107Y-84594134D01*
X139680528Y-84465381D01*
X139689113Y-84457650D01*
X139835185Y-84299632D01*
X139842218Y-84290466D01*
X139957046Y-84108474D01*
X139962291Y-84098180D01*
X140042032Y-83898310D01*
X140045313Y-83887232D01*
X140070406Y-83761081D01*
X139994795Y-83668948D01*
X138657747Y-83668947D01*
X138583938Y-83742756D01*
X138583937Y-84701139D01*
X138327938Y-84701139D01*
X138327939Y-83742756D01*
X138327938Y-83742755D01*
X138327938Y-83339139D01*
X138583937Y-83339139D01*
X138657746Y-83412948D01*
X139995197Y-83412949D01*
X140070711Y-83323353D01*
X140053970Y-83225918D01*
X140050980Y-83214757D01*
X139976499Y-83012868D01*
X139971525Y-83002439D01*
X139861500Y-82817504D01*
X139854709Y-82808158D01*
X139712825Y-82646370D01*
X139704444Y-82638417D01*
X139535452Y-82505195D01*
X139525763Y-82498902D01*
X139335322Y-82398707D01*
X139324648Y-82394286D01*
X139118744Y-82330350D01*
X139106618Y-82327855D01*
X138910983Y-82307293D01*
X138904393Y-82306948D01*
X138657747Y-82306948D01*
X138583938Y-82380757D01*
X138583937Y-83339139D01*
X138327938Y-83339139D01*
X138327939Y-82380757D01*
X138254130Y-82306948D01*
X138001401Y-82306948D01*
X137995634Y-82307212D01*
X137835874Y-82321892D01*
X137824514Y-82323998D01*
X137617404Y-82382409D01*
X137606617Y-82386549D01*
X137413620Y-82481725D01*
X137403769Y-82487762D01*
X137231348Y-82616515D01*
X137222763Y-82624246D01*
X137187180Y-82662739D01*
X137172825Y-82646370D01*
X137164444Y-82638417D01*
X136995452Y-82505195D01*
X136985763Y-82498902D01*
X136795322Y-82398707D01*
X136784648Y-82394286D01*
X136578744Y-82330350D01*
X136566618Y-82327855D01*
X136370983Y-82307293D01*
X136364393Y-82306948D01*
X135461401Y-82306948D01*
X135455634Y-82307212D01*
X135295874Y-82321892D01*
X135284514Y-82323998D01*
X135077404Y-82382409D01*
X135066617Y-82386549D01*
X134873620Y-82481725D01*
X134863769Y-82487762D01*
X134691348Y-82616515D01*
X134682763Y-82624246D01*
X134536691Y-82782264D01*
X134529658Y-82791430D01*
X134414830Y-82973422D01*
X134409585Y-82983716D01*
X134329844Y-83183586D01*
X134326563Y-83194664D01*
X134284582Y-83405718D01*
X134283374Y-83417208D01*
X134280557Y-83632380D01*
X129412000Y-83632380D01*
X129412000Y-81092380D01*
X134280557Y-81092380D01*
X134281464Y-81103898D01*
X134317906Y-81315979D01*
X134320896Y-81327139D01*
X134395377Y-81529028D01*
X134400351Y-81539457D01*
X134510376Y-81724392D01*
X134517167Y-81733738D01*
X134659051Y-81895526D01*
X134667432Y-81903479D01*
X134836424Y-82036701D01*
X134846113Y-82042994D01*
X135036554Y-82143189D01*
X135047228Y-82147610D01*
X135253132Y-82211546D01*
X135265258Y-82214041D01*
X135460893Y-82234603D01*
X135467483Y-82234948D01*
X136370475Y-82234948D01*
X136376242Y-82234684D01*
X136536002Y-82220004D01*
X136547362Y-82217898D01*
X136754472Y-82159487D01*
X136765259Y-82155347D01*
X136958256Y-82060171D01*
X136968107Y-82054134D01*
X137140528Y-81925381D01*
X137149113Y-81917650D01*
X137184696Y-81879157D01*
X137199051Y-81895526D01*
X137207432Y-81903479D01*
X137376424Y-82036701D01*
X137386113Y-82042994D01*
X137576554Y-82143189D01*
X137587228Y-82147610D01*
X137793132Y-82211546D01*
X137805258Y-82214041D01*
X138000893Y-82234603D01*
X138007483Y-82234948D01*
X138910475Y-82234948D01*
X138916242Y-82234684D01*
X139076002Y-82220004D01*
X139087362Y-82217898D01*
X139294472Y-82159487D01*
X139305259Y-82155347D01*
X139498256Y-82060171D01*
X139508107Y-82054134D01*
X139680528Y-81925381D01*
X139689113Y-81917650D01*
X139835185Y-81759632D01*
X139842218Y-81750466D01*
X139957046Y-81568474D01*
X139962291Y-81558180D01*
X140042032Y-81358310D01*
X140045313Y-81347232D01*
X140087294Y-81136178D01*
X140088502Y-81124688D01*
X140091319Y-80909516D01*
X140090412Y-80897998D01*
X140053970Y-80685917D01*
X140050980Y-80674757D01*
X139976499Y-80472868D01*
X139971525Y-80462439D01*
X139861500Y-80277504D01*
X139854709Y-80268158D01*
X139712825Y-80106370D01*
X139704444Y-80098417D01*
X139535452Y-79965195D01*
X139525763Y-79958902D01*
X139335322Y-79858707D01*
X139324648Y-79854286D01*
X139118744Y-79790350D01*
X139106618Y-79787855D01*
X138910983Y-79767293D01*
X138904393Y-79766948D01*
X138001401Y-79766948D01*
X137995634Y-79767212D01*
X137835874Y-79781892D01*
X137824514Y-79783998D01*
X137617404Y-79842409D01*
X137606617Y-79846549D01*
X137413620Y-79941725D01*
X137403769Y-79947762D01*
X137231348Y-80076515D01*
X137222763Y-80084246D01*
X137187180Y-80122739D01*
X137172825Y-80106370D01*
X137164444Y-80098417D01*
X136995452Y-79965195D01*
X136985763Y-79958902D01*
X136795322Y-79858707D01*
X136784648Y-79854286D01*
X136578744Y-79790350D01*
X136566618Y-79787855D01*
X136370983Y-79767293D01*
X136364393Y-79766948D01*
X135461401Y-79766948D01*
X135455634Y-79767212D01*
X135295874Y-79781892D01*
X135284514Y-79783998D01*
X135077404Y-79842409D01*
X135066617Y-79846549D01*
X134873620Y-79941725D01*
X134863769Y-79947762D01*
X134691348Y-80076515D01*
X134682763Y-80084246D01*
X134536691Y-80242264D01*
X134529658Y-80251430D01*
X134414830Y-80433422D01*
X134409585Y-80443716D01*
X134329844Y-80643586D01*
X134326563Y-80654664D01*
X134284582Y-80865718D01*
X134283374Y-80877208D01*
X134280557Y-81092380D01*
X129412000Y-81092380D01*
X129412000Y-78552380D01*
X134280557Y-78552380D01*
X134281464Y-78563898D01*
X134317906Y-78775979D01*
X134320896Y-78787139D01*
X134395377Y-78989028D01*
X134400351Y-78999457D01*
X134510376Y-79184392D01*
X134517167Y-79193738D01*
X134659051Y-79355526D01*
X134667432Y-79363479D01*
X134836424Y-79496701D01*
X134846113Y-79502994D01*
X135036554Y-79603189D01*
X135047228Y-79607610D01*
X135253132Y-79671546D01*
X135265258Y-79674041D01*
X135460893Y-79694603D01*
X135467483Y-79694948D01*
X136370475Y-79694948D01*
X136376242Y-79694684D01*
X136536002Y-79680004D01*
X136547362Y-79677898D01*
X136754472Y-79619487D01*
X136765259Y-79615347D01*
X136958256Y-79520171D01*
X136968107Y-79514134D01*
X137140528Y-79385381D01*
X137149113Y-79377650D01*
X137184696Y-79339157D01*
X137199051Y-79355526D01*
X137207432Y-79363479D01*
X137376424Y-79496701D01*
X137386113Y-79502994D01*
X137576554Y-79603189D01*
X137587228Y-79607610D01*
X137793132Y-79671546D01*
X137805258Y-79674041D01*
X138000893Y-79694603D01*
X138007483Y-79694948D01*
X138910475Y-79694948D01*
X138916242Y-79694684D01*
X139076002Y-79680004D01*
X139087362Y-79677898D01*
X139294472Y-79619487D01*
X139305259Y-79615347D01*
X139498256Y-79520171D01*
X139508107Y-79514134D01*
X139680528Y-79385381D01*
X139689113Y-79377650D01*
X139835185Y-79219632D01*
X139842218Y-79210466D01*
X139957046Y-79028474D01*
X139962291Y-79018180D01*
X140042032Y-78818310D01*
X140045313Y-78807232D01*
X140087294Y-78596178D01*
X140088502Y-78584688D01*
X140091319Y-78369516D01*
X140090412Y-78357998D01*
X140053970Y-78145917D01*
X140050980Y-78134757D01*
X139976499Y-77932868D01*
X139971525Y-77922439D01*
X139861500Y-77737504D01*
X139854709Y-77728158D01*
X139712825Y-77566370D01*
X139704444Y-77558417D01*
X139535452Y-77425195D01*
X139525763Y-77418902D01*
X139335322Y-77318707D01*
X139324648Y-77314286D01*
X139118744Y-77250350D01*
X139106618Y-77247855D01*
X138910983Y-77227293D01*
X138904393Y-77226948D01*
X138001401Y-77226948D01*
X137995634Y-77227212D01*
X137835874Y-77241892D01*
X137824514Y-77243998D01*
X137617404Y-77302409D01*
X137606617Y-77306549D01*
X137413620Y-77401725D01*
X137403769Y-77407762D01*
X137231348Y-77536515D01*
X137222763Y-77544246D01*
X137187180Y-77582739D01*
X137172825Y-77566370D01*
X137164444Y-77558417D01*
X136995452Y-77425195D01*
X136985763Y-77418902D01*
X136795322Y-77318707D01*
X136784648Y-77314286D01*
X136578744Y-77250350D01*
X136566618Y-77247855D01*
X136370983Y-77227293D01*
X136364393Y-77226948D01*
X135461401Y-77226948D01*
X135455634Y-77227212D01*
X135295874Y-77241892D01*
X135284514Y-77243998D01*
X135077404Y-77302409D01*
X135066617Y-77306549D01*
X134873620Y-77401725D01*
X134863769Y-77407762D01*
X134691348Y-77536515D01*
X134682763Y-77544246D01*
X134536691Y-77702264D01*
X134529658Y-77711430D01*
X134414830Y-77893422D01*
X134409585Y-77903716D01*
X134329844Y-78103586D01*
X134326563Y-78114664D01*
X134284582Y-78325718D01*
X134283374Y-78337208D01*
X134280557Y-78552380D01*
X129412000Y-78552380D01*
X129412000Y-76012380D01*
X134280557Y-76012380D01*
X134281464Y-76023898D01*
X134317906Y-76235979D01*
X134320896Y-76247139D01*
X134395377Y-76449028D01*
X134400351Y-76459457D01*
X134510376Y-76644392D01*
X134517167Y-76653738D01*
X134659051Y-76815526D01*
X134667432Y-76823479D01*
X134836424Y-76956701D01*
X134846113Y-76962994D01*
X135036554Y-77063189D01*
X135047228Y-77067610D01*
X135253132Y-77131546D01*
X135265258Y-77134041D01*
X135460893Y-77154603D01*
X135467483Y-77154948D01*
X136370475Y-77154948D01*
X136376242Y-77154684D01*
X136536002Y-77140004D01*
X136547362Y-77137898D01*
X136754472Y-77079487D01*
X136765259Y-77075347D01*
X136958256Y-76980171D01*
X136968107Y-76974134D01*
X137140528Y-76845381D01*
X137149113Y-76837650D01*
X137184696Y-76799157D01*
X137199051Y-76815526D01*
X137207432Y-76823479D01*
X137376424Y-76956701D01*
X137386113Y-76962994D01*
X137576554Y-77063189D01*
X137587228Y-77067610D01*
X137793132Y-77131546D01*
X137805258Y-77134041D01*
X138000893Y-77154603D01*
X138007483Y-77154948D01*
X138910475Y-77154948D01*
X138916242Y-77154684D01*
X139076002Y-77140004D01*
X139087362Y-77137898D01*
X139294472Y-77079487D01*
X139305259Y-77075347D01*
X139498256Y-76980171D01*
X139508107Y-76974134D01*
X139680528Y-76845381D01*
X139689113Y-76837650D01*
X139835185Y-76679632D01*
X139842218Y-76670466D01*
X139957046Y-76488474D01*
X139962291Y-76478180D01*
X140042032Y-76278310D01*
X140045313Y-76267232D01*
X140087294Y-76056178D01*
X140088502Y-76044688D01*
X140091319Y-75829516D01*
X140090412Y-75817998D01*
X140053970Y-75605917D01*
X140050980Y-75594757D01*
X139976499Y-75392868D01*
X139971525Y-75382439D01*
X139861500Y-75197504D01*
X139854709Y-75188158D01*
X139712825Y-75026370D01*
X139704444Y-75018417D01*
X139535452Y-74885195D01*
X139525763Y-74878902D01*
X139335322Y-74778707D01*
X139324648Y-74774286D01*
X139118744Y-74710350D01*
X139106618Y-74707855D01*
X138910983Y-74687293D01*
X138904393Y-74686948D01*
X138001401Y-74686948D01*
X137995634Y-74687212D01*
X137835874Y-74701892D01*
X137824514Y-74703998D01*
X137617404Y-74762409D01*
X137606617Y-74766549D01*
X137413620Y-74861725D01*
X137403769Y-74867762D01*
X137231348Y-74996515D01*
X137222763Y-75004246D01*
X137187180Y-75042739D01*
X137172825Y-75026370D01*
X137164444Y-75018417D01*
X136995452Y-74885195D01*
X136985763Y-74878902D01*
X136795322Y-74778707D01*
X136784648Y-74774286D01*
X136578744Y-74710350D01*
X136566618Y-74707855D01*
X136370983Y-74687293D01*
X136364393Y-74686948D01*
X135461401Y-74686948D01*
X135455634Y-74687212D01*
X135295874Y-74701892D01*
X135284514Y-74703998D01*
X135077404Y-74762409D01*
X135066617Y-74766549D01*
X134873620Y-74861725D01*
X134863769Y-74867762D01*
X134691348Y-74996515D01*
X134682763Y-75004246D01*
X134536691Y-75162264D01*
X134529658Y-75171430D01*
X134414830Y-75353422D01*
X134409585Y-75363716D01*
X134329844Y-75563586D01*
X134326563Y-75574664D01*
X134284582Y-75785718D01*
X134283374Y-75797208D01*
X134280557Y-76012380D01*
X129412000Y-76012380D01*
X129412000Y-70920470D01*
X129527071Y-71091713D01*
X129531675Y-71097746D01*
X129753926Y-71355227D01*
X129759222Y-71360664D01*
X130010796Y-71589578D01*
X130016706Y-71594339D01*
X130293961Y-71791373D01*
X130300400Y-71795389D01*
X130599317Y-71957688D01*
X130606192Y-71960901D01*
X130922441Y-72086113D01*
X130929653Y-72088477D01*
X131258654Y-72174789D01*
X131266097Y-72176269D01*
X131603085Y-72222431D01*
X131610653Y-72223007D01*
X131950746Y-72228349D01*
X131958328Y-72228011D01*
X132296599Y-72192457D01*
X132304085Y-72191211D01*
X132635636Y-72115277D01*
X132642919Y-72113140D01*
X132962944Y-71997924D01*
X132969917Y-71994928D01*
X133273784Y-71842099D01*
X133280347Y-71838287D01*
X133563653Y-71650059D01*
X133569710Y-71645487D01*
X133828350Y-71424587D01*
X133833814Y-71419320D01*
X134064044Y-71168947D01*
X134068835Y-71163062D01*
X134267318Y-70886844D01*
X134271368Y-70880425D01*
X134281478Y-70862035D01*
X134280557Y-70932380D01*
%TA.AperFunction,Conductor*%
G36*
X134280557Y-70932380D02*
G01*
X134281464Y-70943898D01*
X134317906Y-71155979D01*
X134320896Y-71167139D01*
X134395377Y-71369028D01*
X134400351Y-71379457D01*
X134510376Y-71564392D01*
X134517167Y-71573738D01*
X134659051Y-71735526D01*
X134667432Y-71743479D01*
X134836424Y-71876701D01*
X134846113Y-71882994D01*
X135036554Y-71983189D01*
X135047228Y-71987610D01*
X135253132Y-72051546D01*
X135265258Y-72054041D01*
X135460893Y-72074603D01*
X135467483Y-72074948D01*
X136073723Y-72074948D01*
X136145723Y-72146948D01*
X135461401Y-72146948D01*
X135455634Y-72147212D01*
X135295874Y-72161892D01*
X135284514Y-72163998D01*
X135077404Y-72222409D01*
X135066617Y-72226549D01*
X134873620Y-72321725D01*
X134863769Y-72327762D01*
X134691348Y-72456515D01*
X134682763Y-72464246D01*
X134536691Y-72622264D01*
X134529658Y-72631430D01*
X134414830Y-72813422D01*
X134409585Y-72823716D01*
X134329844Y-73023586D01*
X134326563Y-73034664D01*
X134284582Y-73245718D01*
X134283374Y-73257208D01*
X134280557Y-73472380D01*
X134281464Y-73483898D01*
X134317906Y-73695979D01*
X134320896Y-73707139D01*
X134395377Y-73909028D01*
X134400351Y-73919457D01*
X134510376Y-74104392D01*
X134517167Y-74113738D01*
X134659051Y-74275526D01*
X134667432Y-74283479D01*
X134836424Y-74416701D01*
X134846113Y-74422994D01*
X135036554Y-74523189D01*
X135047228Y-74527610D01*
X135253132Y-74591546D01*
X135265258Y-74594041D01*
X135460893Y-74614603D01*
X135467483Y-74614948D01*
X136370475Y-74614948D01*
X136376242Y-74614684D01*
X136536002Y-74600004D01*
X136547362Y-74597898D01*
X136754472Y-74539487D01*
X136765259Y-74535347D01*
X136958256Y-74440171D01*
X136968107Y-74434134D01*
X137140528Y-74305381D01*
X137149113Y-74297650D01*
X137184696Y-74259157D01*
X137199051Y-74275526D01*
X137207432Y-74283479D01*
X137376424Y-74416701D01*
X137386113Y-74422994D01*
X137576554Y-74523189D01*
X137587228Y-74527610D01*
X137793132Y-74591546D01*
X137805258Y-74594041D01*
X138000893Y-74614603D01*
X138007483Y-74614948D01*
X138910475Y-74614948D01*
X138916242Y-74614684D01*
X139076002Y-74600004D01*
X139087362Y-74597898D01*
X139294472Y-74539487D01*
X139305259Y-74535347D01*
X139498256Y-74440171D01*
X139508107Y-74434134D01*
X139680528Y-74305381D01*
X139689113Y-74297650D01*
X139835185Y-74139632D01*
X139842218Y-74130466D01*
X139957046Y-73948474D01*
X139962291Y-73938180D01*
X140042032Y-73738310D01*
X140045313Y-73727232D01*
X140087294Y-73516178D01*
X140088502Y-73504688D01*
X140091319Y-73289516D01*
X140090412Y-73277998D01*
X140053970Y-73065917D01*
X140050980Y-73054757D01*
X139976499Y-72852868D01*
X139971525Y-72842439D01*
X139861500Y-72657504D01*
X139854709Y-72648158D01*
X139748420Y-72526958D01*
X147396744Y-72526958D01*
X147957454Y-73087668D01*
X149683105Y-74813320D01*
X149492874Y-74846863D01*
X149482247Y-74849710D01*
X149256840Y-74931752D01*
X149246868Y-74936402D01*
X149039132Y-75056338D01*
X149030119Y-75062649D01*
X148846366Y-75216837D01*
X148838587Y-75224616D01*
X148684399Y-75408369D01*
X148678088Y-75417382D01*
X148558152Y-75625118D01*
X148553502Y-75635090D01*
X148471460Y-75860497D01*
X148468613Y-75871124D01*
X148437336Y-76048500D01*
X143039622Y-76048500D01*
X143028722Y-76031539D01*
X143016919Y-76017918D01*
X142843736Y-75867854D01*
X142828574Y-75858110D01*
X142620128Y-75762916D01*
X142602835Y-75757838D01*
X142432990Y-75733418D01*
X142424013Y-75732776D01*
X141817538Y-75732776D01*
X141804108Y-75734220D01*
X141513054Y-75797535D01*
X141492220Y-75806165D01*
X141297539Y-75931278D01*
X141283918Y-75943081D01*
X141133854Y-76116264D01*
X141124110Y-76131426D01*
X141028916Y-76339872D01*
X141023838Y-76357165D01*
X140999418Y-76527010D01*
X140998776Y-76535987D01*
X140998776Y-77067462D01*
X141000220Y-77080892D01*
X141063535Y-77371946D01*
X141072165Y-77392780D01*
X141197278Y-77587461D01*
X141209081Y-77601082D01*
X141210747Y-77602525D01*
X141133854Y-77691264D01*
X141124110Y-77706426D01*
X141028916Y-77914872D01*
X141023838Y-77932165D01*
X140999418Y-78102010D01*
X140998776Y-78110987D01*
X140998776Y-78642462D01*
X141000220Y-78655892D01*
X141063535Y-78946946D01*
X141072165Y-78967780D01*
X141197278Y-79162461D01*
X141209081Y-79176082D01*
X141352001Y-79299923D01*
X141352000Y-80446178D01*
X141352001Y-80446190D01*
X141352001Y-80501489D01*
X141355103Y-80521077D01*
X141370736Y-80569191D01*
X141378653Y-80619176D01*
X141384782Y-80638037D01*
X141407753Y-80683120D01*
X141423390Y-80731245D01*
X141432394Y-80748917D01*
X141462138Y-80789855D01*
X141485106Y-80834933D01*
X141496763Y-80850978D01*
X141653190Y-81007406D01*
X141653197Y-81007411D01*
X144678776Y-84032991D01*
X144828021Y-84182237D01*
X144844066Y-84193894D01*
X144889144Y-84216862D01*
X144930082Y-84246606D01*
X144947754Y-84255610D01*
X144995879Y-84271247D01*
X145040962Y-84294218D01*
X145059823Y-84300347D01*
X145109808Y-84308264D01*
X145157922Y-84323897D01*
X145177510Y-84326999D01*
X145232809Y-84326999D01*
X145232821Y-84327000D01*
X145619279Y-84327000D01*
X145654278Y-84381461D01*
X145666081Y-84395082D01*
X145839264Y-84545146D01*
X145854426Y-84554890D01*
X146062872Y-84650084D01*
X146080165Y-84655162D01*
X146250010Y-84679582D01*
X146258987Y-84680224D01*
X146790462Y-84680224D01*
X146803892Y-84678780D01*
X146879873Y-84662251D01*
X148875173Y-86657554D01*
X148875188Y-86657567D01*
X148914804Y-86697184D01*
X148930850Y-86708842D01*
X148975934Y-86731814D01*
X149016868Y-86761554D01*
X149034538Y-86770558D01*
X149082657Y-86786193D01*
X149127745Y-86809166D01*
X149146607Y-86815294D01*
X149196589Y-86823211D01*
X149244704Y-86838845D01*
X149264293Y-86841947D01*
X149319593Y-86841947D01*
X149319605Y-86841948D01*
X159941906Y-86841948D01*
X160059051Y-86975526D01*
X160067432Y-86983479D01*
X160236424Y-87116701D01*
X160246113Y-87122994D01*
X160436554Y-87223189D01*
X160447228Y-87227610D01*
X160653132Y-87291546D01*
X160665258Y-87294041D01*
X160860893Y-87314603D01*
X160867483Y-87314948D01*
X161770475Y-87314948D01*
X161776242Y-87314684D01*
X161936002Y-87300004D01*
X161947362Y-87297898D01*
X162154472Y-87239487D01*
X162165259Y-87235347D01*
X162358256Y-87140171D01*
X162368107Y-87134134D01*
X162540528Y-87005381D01*
X162549113Y-86997650D01*
X162584696Y-86959157D01*
X162599051Y-86975526D01*
X162607432Y-86983479D01*
X162776424Y-87116701D01*
X162786113Y-87122994D01*
X162976554Y-87223189D01*
X162987228Y-87227610D01*
X163193132Y-87291546D01*
X163205258Y-87294041D01*
X163400893Y-87314603D01*
X163407483Y-87314948D01*
X164310475Y-87314948D01*
X164316242Y-87314684D01*
X164476002Y-87300004D01*
X164487362Y-87297898D01*
X164694472Y-87239487D01*
X164705259Y-87235347D01*
X164898256Y-87140171D01*
X164908107Y-87134134D01*
X165080528Y-87005381D01*
X165089113Y-86997650D01*
X165228000Y-86847405D01*
X165228000Y-87857702D01*
X165112825Y-87726370D01*
X165104444Y-87718417D01*
X164935452Y-87585195D01*
X164925763Y-87578902D01*
X164735322Y-87478707D01*
X164724648Y-87474286D01*
X164518744Y-87410350D01*
X164506618Y-87407855D01*
X164310983Y-87387293D01*
X164304393Y-87386948D01*
X163401401Y-87386948D01*
X163395634Y-87387212D01*
X163235874Y-87401892D01*
X163224514Y-87403998D01*
X163017404Y-87462409D01*
X163006617Y-87466549D01*
X162813620Y-87561725D01*
X162803769Y-87567762D01*
X162631348Y-87696515D01*
X162622763Y-87704246D01*
X162587180Y-87742739D01*
X162572825Y-87726370D01*
X162564444Y-87718417D01*
X162395452Y-87585195D01*
X162385763Y-87578902D01*
X162195322Y-87478707D01*
X162184648Y-87474286D01*
X161978744Y-87410350D01*
X161966618Y-87407855D01*
X161770983Y-87387293D01*
X161764393Y-87386948D01*
X160861401Y-87386948D01*
X160855634Y-87387212D01*
X160695874Y-87401892D01*
X160684514Y-87403998D01*
X160477404Y-87462409D01*
X160466617Y-87466549D01*
X160273620Y-87561725D01*
X160263769Y-87567762D01*
X160091348Y-87696515D01*
X160082763Y-87704246D01*
X159936691Y-87862264D01*
X159929658Y-87871430D01*
X159814830Y-88053422D01*
X159809585Y-88063716D01*
X159729844Y-88263586D01*
X159726563Y-88274664D01*
X159684582Y-88485718D01*
X159683374Y-88497208D01*
X159680557Y-88712380D01*
X159681464Y-88723898D01*
X159717906Y-88935979D01*
X159720896Y-88947139D01*
X159795377Y-89149028D01*
X159800351Y-89159457D01*
X159910376Y-89344392D01*
X159917167Y-89353738D01*
X160059051Y-89515526D01*
X160067432Y-89523479D01*
X160236424Y-89656701D01*
X160246113Y-89662994D01*
X160436554Y-89763189D01*
X160447228Y-89767610D01*
X160653132Y-89831546D01*
X160665258Y-89834041D01*
X160860893Y-89854603D01*
X160867483Y-89854948D01*
X161770475Y-89854948D01*
X161776242Y-89854684D01*
X161936002Y-89840004D01*
X161947362Y-89837898D01*
X162154472Y-89779487D01*
X162165259Y-89775347D01*
X162358256Y-89680171D01*
X162368107Y-89674134D01*
X162540528Y-89545381D01*
X162549113Y-89537650D01*
X162584696Y-89499157D01*
X162599051Y-89515526D01*
X162607432Y-89523479D01*
X162776424Y-89656701D01*
X162786113Y-89662994D01*
X162976554Y-89763189D01*
X162987228Y-89767610D01*
X163193132Y-89831546D01*
X163205258Y-89834041D01*
X163400893Y-89854603D01*
X163407483Y-89854948D01*
X164310475Y-89854948D01*
X164316242Y-89854684D01*
X164476002Y-89840004D01*
X164487362Y-89837898D01*
X164694472Y-89779487D01*
X164705259Y-89775347D01*
X164898256Y-89680171D01*
X164908107Y-89674134D01*
X165080528Y-89545381D01*
X165089113Y-89537650D01*
X165228000Y-89387405D01*
X165228000Y-89834438D01*
X165227145Y-89841403D01*
X165227099Y-89841784D01*
X165215269Y-89943250D01*
X165205910Y-89969036D01*
X165190869Y-89991977D01*
X165170953Y-90010843D01*
X165147228Y-90024624D01*
X165112601Y-90035111D01*
X165038712Y-90041705D01*
X165029861Y-90043135D01*
X165026187Y-90044000D01*
X129621562Y-90044000D01*
X129614597Y-90043145D01*
X129614216Y-90043099D01*
X129512750Y-90031269D01*
X129486964Y-90021910D01*
X129464023Y-90006869D01*
X129445157Y-89986953D01*
X129431376Y-89963228D01*
X129420889Y-89928601D01*
X129414295Y-89854712D01*
X129412865Y-89845861D01*
X129412000Y-89842187D01*
X129412000Y-88712380D01*
X134280557Y-88712380D01*
X134281464Y-88723898D01*
X134317906Y-88935979D01*
X134320896Y-88947139D01*
X134395377Y-89149028D01*
X134400351Y-89159457D01*
X134510376Y-89344392D01*
X134517167Y-89353738D01*
X134659051Y-89515526D01*
X134667432Y-89523479D01*
X134836424Y-89656701D01*
X134846113Y-89662994D01*
X135036554Y-89763189D01*
X135047228Y-89767610D01*
X135253132Y-89831546D01*
X135265258Y-89834041D01*
X135460893Y-89854603D01*
X135467483Y-89854948D01*
X136370475Y-89854948D01*
X136376242Y-89854684D01*
X136536002Y-89840004D01*
X136547362Y-89837898D01*
X136754472Y-89779487D01*
X136765259Y-89775347D01*
X136958256Y-89680171D01*
X136968107Y-89674134D01*
X137140528Y-89545381D01*
X137149113Y-89537650D01*
X137184696Y-89499157D01*
X137199051Y-89515526D01*
X137207432Y-89523479D01*
X137376424Y-89656701D01*
X137386113Y-89662994D01*
X137576554Y-89763189D01*
X137587228Y-89767610D01*
X137793132Y-89831546D01*
X137805258Y-89834041D01*
X138000893Y-89854603D01*
X138007483Y-89854948D01*
X138910475Y-89854948D01*
X138916242Y-89854684D01*
X139076002Y-89840004D01*
X139087362Y-89837898D01*
X139294472Y-89779487D01*
X139305259Y-89775347D01*
X139498256Y-89680171D01*
X139508107Y-89674134D01*
X139680528Y-89545381D01*
X139689113Y-89537650D01*
X139835185Y-89379632D01*
X139842218Y-89370466D01*
X139957046Y-89188474D01*
X139962291Y-89178180D01*
X140042032Y-88978310D01*
X140045313Y-88967232D01*
X140087294Y-88756178D01*
X140088502Y-88744688D01*
X140091319Y-88529516D01*
X140090412Y-88517998D01*
X140053970Y-88305917D01*
X140050980Y-88294757D01*
X139976499Y-88092868D01*
X139971525Y-88082439D01*
X139861500Y-87897504D01*
X139854709Y-87888158D01*
X139712825Y-87726370D01*
X139704444Y-87718417D01*
X139535452Y-87585195D01*
X139525763Y-87578902D01*
X139335322Y-87478707D01*
X139324648Y-87474286D01*
X139118744Y-87410350D01*
X139106618Y-87407855D01*
X138910983Y-87387293D01*
X138904393Y-87386948D01*
X138001401Y-87386948D01*
X137995634Y-87387212D01*
X137835874Y-87401892D01*
X137824514Y-87403998D01*
X137617404Y-87462409D01*
X137606617Y-87466549D01*
X137413620Y-87561725D01*
X137403769Y-87567762D01*
X137231348Y-87696515D01*
X137222763Y-87704246D01*
X137187180Y-87742739D01*
X137172825Y-87726370D01*
X137164444Y-87718417D01*
X136995452Y-87585195D01*
X136985763Y-87578902D01*
X136795322Y-87478707D01*
X136784648Y-87474286D01*
X136578744Y-87410350D01*
X136566618Y-87407855D01*
X136370983Y-87387293D01*
X136364393Y-87386948D01*
X135461401Y-87386948D01*
X135455634Y-87387212D01*
X135295874Y-87401892D01*
X135284514Y-87403998D01*
X135077404Y-87462409D01*
X135066617Y-87466549D01*
X134873620Y-87561725D01*
X134863769Y-87567762D01*
X134691348Y-87696515D01*
X134682763Y-87704246D01*
X134536691Y-87862264D01*
X134529658Y-87871430D01*
X134414830Y-88053422D01*
X134409585Y-88063716D01*
X134329844Y-88263586D01*
X134326563Y-88274664D01*
X134284582Y-88485718D01*
X134283374Y-88497208D01*
X134280557Y-88712380D01*
X129412000Y-88712380D01*
X129412000Y-86172380D01*
X134280557Y-86172380D01*
X134281464Y-86183898D01*
X134317906Y-86395979D01*
X134320896Y-86407139D01*
X134395377Y-86609028D01*
X134400351Y-86619457D01*
X134510376Y-86804392D01*
X134517167Y-86813738D01*
X134659051Y-86975526D01*
X134667432Y-86983479D01*
X134836424Y-87116701D01*
X134846113Y-87122994D01*
X135036554Y-87223189D01*
X135047228Y-87227610D01*
X135253132Y-87291546D01*
X135265258Y-87294041D01*
X135460893Y-87314603D01*
X135467483Y-87314948D01*
X136370475Y-87314948D01*
X136376242Y-87314684D01*
X136536002Y-87300004D01*
X136547362Y-87297898D01*
X136754472Y-87239487D01*
X136765259Y-87235347D01*
X136958256Y-87140171D01*
X136968107Y-87134134D01*
X137140528Y-87005381D01*
X137149113Y-86997650D01*
X137184696Y-86959157D01*
X137199051Y-86975526D01*
X137207432Y-86983479D01*
X137376424Y-87116701D01*
X137386113Y-87122994D01*
X137576554Y-87223189D01*
X137587228Y-87227610D01*
X137793132Y-87291546D01*
X137805258Y-87294041D01*
X138000893Y-87314603D01*
X138007483Y-87314948D01*
X138910475Y-87314948D01*
X138916242Y-87314684D01*
X139076002Y-87300004D01*
X139087362Y-87297898D01*
X139294472Y-87239487D01*
X139305259Y-87235347D01*
X139498256Y-87140171D01*
X139508107Y-87134134D01*
X139680528Y-87005381D01*
X139689113Y-86997650D01*
X139835185Y-86839632D01*
X139842218Y-86830466D01*
X139957046Y-86648474D01*
X139962291Y-86638180D01*
X140042032Y-86438310D01*
X140045313Y-86427232D01*
X140087294Y-86216178D01*
X140088502Y-86204688D01*
X140091319Y-85989516D01*
X140090412Y-85977998D01*
X140053970Y-85765917D01*
X140050980Y-85754757D01*
X139976499Y-85552868D01*
X139971525Y-85542439D01*
X139861500Y-85357504D01*
X139854709Y-85348158D01*
X139712825Y-85186370D01*
X139704444Y-85178417D01*
X139535452Y-85045195D01*
X139525763Y-85038902D01*
X139335322Y-84938707D01*
X139324648Y-84934286D01*
X139118744Y-84870350D01*
X139106618Y-84867855D01*
X138910983Y-84847293D01*
X138904393Y-84846948D01*
X138001401Y-84846948D01*
X137995634Y-84847212D01*
X137835874Y-84861892D01*
X137824514Y-84863998D01*
X137617404Y-84922409D01*
X137606617Y-84926549D01*
X137413620Y-85021725D01*
X137403769Y-85027762D01*
X137231348Y-85156515D01*
X137222763Y-85164246D01*
X137187180Y-85202739D01*
X137172825Y-85186370D01*
X137164444Y-85178417D01*
X136995452Y-85045195D01*
X136985763Y-85038902D01*
X136795322Y-84938707D01*
X136784648Y-84934286D01*
X136578744Y-84870350D01*
X136566618Y-84867855D01*
X136370983Y-84847293D01*
X136364393Y-84846948D01*
X135461401Y-84846948D01*
X135455634Y-84847212D01*
X135295874Y-84861892D01*
X135284514Y-84863998D01*
X135077404Y-84922409D01*
X135066617Y-84926549D01*
X134873620Y-85021725D01*
X134863769Y-85027762D01*
X134691348Y-85156515D01*
X134682763Y-85164246D01*
X134536691Y-85322264D01*
X134529658Y-85331430D01*
X134414830Y-85513422D01*
X134409585Y-85523716D01*
X134329844Y-85723586D01*
X134326563Y-85734664D01*
X134284582Y-85945718D01*
X134283374Y-85957208D01*
X134280557Y-86172380D01*
X129412000Y-86172380D01*
X129412000Y-83632380D01*
X134280557Y-83632380D01*
X134281464Y-83643898D01*
X134317906Y-83855979D01*
X134320896Y-83867139D01*
X134395377Y-84069028D01*
X134400351Y-84079457D01*
X134510376Y-84264392D01*
X134517167Y-84273738D01*
X134659051Y-84435526D01*
X134667432Y-84443479D01*
X134836424Y-84576701D01*
X134846113Y-84582994D01*
X135036554Y-84683189D01*
X135047228Y-84687610D01*
X135253132Y-84751546D01*
X135265258Y-84754041D01*
X135460893Y-84774603D01*
X135467483Y-84774948D01*
X136370475Y-84774948D01*
X136376242Y-84774684D01*
X136536002Y-84760004D01*
X136547362Y-84757898D01*
X136754472Y-84699487D01*
X136765259Y-84695347D01*
X136958256Y-84600171D01*
X136968107Y-84594134D01*
X137140528Y-84465381D01*
X137149113Y-84457650D01*
X137184696Y-84419157D01*
X137199051Y-84435526D01*
X137207432Y-84443479D01*
X137376424Y-84576701D01*
X137386113Y-84582994D01*
X137576554Y-84683189D01*
X137587228Y-84687610D01*
X137793132Y-84751546D01*
X137805258Y-84754041D01*
X138000893Y-84774603D01*
X138007483Y-84774948D01*
X138254129Y-84774948D01*
X138327938Y-84701139D01*
X138583937Y-84701139D01*
X138657746Y-84774948D01*
X138910475Y-84774948D01*
X138916242Y-84774684D01*
X139076002Y-84760004D01*
X139087362Y-84757898D01*
X139294472Y-84699487D01*
X139305259Y-84695347D01*
X139498256Y-84600171D01*
X139508107Y-84594134D01*
X139680528Y-84465381D01*
X139689113Y-84457650D01*
X139835185Y-84299632D01*
X139842218Y-84290466D01*
X139957046Y-84108474D01*
X139962291Y-84098180D01*
X140042032Y-83898310D01*
X140045313Y-83887232D01*
X140070406Y-83761081D01*
X139994795Y-83668948D01*
X138657747Y-83668947D01*
X138583938Y-83742756D01*
X138583937Y-84701139D01*
X138327938Y-84701139D01*
X138327939Y-83742756D01*
X138327938Y-83742755D01*
X138327938Y-83339139D01*
X138583937Y-83339139D01*
X138657746Y-83412948D01*
X139995197Y-83412949D01*
X140070711Y-83323353D01*
X140053970Y-83225918D01*
X140050980Y-83214757D01*
X139976499Y-83012868D01*
X139971525Y-83002439D01*
X139861500Y-82817504D01*
X139854709Y-82808158D01*
X139712825Y-82646370D01*
X139704444Y-82638417D01*
X139535452Y-82505195D01*
X139525763Y-82498902D01*
X139335322Y-82398707D01*
X139324648Y-82394286D01*
X139118744Y-82330350D01*
X139106618Y-82327855D01*
X138910983Y-82307293D01*
X138904393Y-82306948D01*
X138657747Y-82306948D01*
X138583938Y-82380757D01*
X138583937Y-83339139D01*
X138327938Y-83339139D01*
X138327939Y-82380757D01*
X138254130Y-82306948D01*
X138001401Y-82306948D01*
X137995634Y-82307212D01*
X137835874Y-82321892D01*
X137824514Y-82323998D01*
X137617404Y-82382409D01*
X137606617Y-82386549D01*
X137413620Y-82481725D01*
X137403769Y-82487762D01*
X137231348Y-82616515D01*
X137222763Y-82624246D01*
X137187180Y-82662739D01*
X137172825Y-82646370D01*
X137164444Y-82638417D01*
X136995452Y-82505195D01*
X136985763Y-82498902D01*
X136795322Y-82398707D01*
X136784648Y-82394286D01*
X136578744Y-82330350D01*
X136566618Y-82327855D01*
X136370983Y-82307293D01*
X136364393Y-82306948D01*
X135461401Y-82306948D01*
X135455634Y-82307212D01*
X135295874Y-82321892D01*
X135284514Y-82323998D01*
X135077404Y-82382409D01*
X135066617Y-82386549D01*
X134873620Y-82481725D01*
X134863769Y-82487762D01*
X134691348Y-82616515D01*
X134682763Y-82624246D01*
X134536691Y-82782264D01*
X134529658Y-82791430D01*
X134414830Y-82973422D01*
X134409585Y-82983716D01*
X134329844Y-83183586D01*
X134326563Y-83194664D01*
X134284582Y-83405718D01*
X134283374Y-83417208D01*
X134280557Y-83632380D01*
X129412000Y-83632380D01*
X129412000Y-81092380D01*
X134280557Y-81092380D01*
X134281464Y-81103898D01*
X134317906Y-81315979D01*
X134320896Y-81327139D01*
X134395377Y-81529028D01*
X134400351Y-81539457D01*
X134510376Y-81724392D01*
X134517167Y-81733738D01*
X134659051Y-81895526D01*
X134667432Y-81903479D01*
X134836424Y-82036701D01*
X134846113Y-82042994D01*
X135036554Y-82143189D01*
X135047228Y-82147610D01*
X135253132Y-82211546D01*
X135265258Y-82214041D01*
X135460893Y-82234603D01*
X135467483Y-82234948D01*
X136370475Y-82234948D01*
X136376242Y-82234684D01*
X136536002Y-82220004D01*
X136547362Y-82217898D01*
X136754472Y-82159487D01*
X136765259Y-82155347D01*
X136958256Y-82060171D01*
X136968107Y-82054134D01*
X137140528Y-81925381D01*
X137149113Y-81917650D01*
X137184696Y-81879157D01*
X137199051Y-81895526D01*
X137207432Y-81903479D01*
X137376424Y-82036701D01*
X137386113Y-82042994D01*
X137576554Y-82143189D01*
X137587228Y-82147610D01*
X137793132Y-82211546D01*
X137805258Y-82214041D01*
X138000893Y-82234603D01*
X138007483Y-82234948D01*
X138910475Y-82234948D01*
X138916242Y-82234684D01*
X139076002Y-82220004D01*
X139087362Y-82217898D01*
X139294472Y-82159487D01*
X139305259Y-82155347D01*
X139498256Y-82060171D01*
X139508107Y-82054134D01*
X139680528Y-81925381D01*
X139689113Y-81917650D01*
X139835185Y-81759632D01*
X139842218Y-81750466D01*
X139957046Y-81568474D01*
X139962291Y-81558180D01*
X140042032Y-81358310D01*
X140045313Y-81347232D01*
X140087294Y-81136178D01*
X140088502Y-81124688D01*
X140091319Y-80909516D01*
X140090412Y-80897998D01*
X140053970Y-80685917D01*
X140050980Y-80674757D01*
X139976499Y-80472868D01*
X139971525Y-80462439D01*
X139861500Y-80277504D01*
X139854709Y-80268158D01*
X139712825Y-80106370D01*
X139704444Y-80098417D01*
X139535452Y-79965195D01*
X139525763Y-79958902D01*
X139335322Y-79858707D01*
X139324648Y-79854286D01*
X139118744Y-79790350D01*
X139106618Y-79787855D01*
X138910983Y-79767293D01*
X138904393Y-79766948D01*
X138001401Y-79766948D01*
X137995634Y-79767212D01*
X137835874Y-79781892D01*
X137824514Y-79783998D01*
X137617404Y-79842409D01*
X137606617Y-79846549D01*
X137413620Y-79941725D01*
X137403769Y-79947762D01*
X137231348Y-80076515D01*
X137222763Y-80084246D01*
X137187180Y-80122739D01*
X137172825Y-80106370D01*
X137164444Y-80098417D01*
X136995452Y-79965195D01*
X136985763Y-79958902D01*
X136795322Y-79858707D01*
X136784648Y-79854286D01*
X136578744Y-79790350D01*
X136566618Y-79787855D01*
X136370983Y-79767293D01*
X136364393Y-79766948D01*
X135461401Y-79766948D01*
X135455634Y-79767212D01*
X135295874Y-79781892D01*
X135284514Y-79783998D01*
X135077404Y-79842409D01*
X135066617Y-79846549D01*
X134873620Y-79941725D01*
X134863769Y-79947762D01*
X134691348Y-80076515D01*
X134682763Y-80084246D01*
X134536691Y-80242264D01*
X134529658Y-80251430D01*
X134414830Y-80433422D01*
X134409585Y-80443716D01*
X134329844Y-80643586D01*
X134326563Y-80654664D01*
X134284582Y-80865718D01*
X134283374Y-80877208D01*
X134280557Y-81092380D01*
X129412000Y-81092380D01*
X129412000Y-78552380D01*
X134280557Y-78552380D01*
X134281464Y-78563898D01*
X134317906Y-78775979D01*
X134320896Y-78787139D01*
X134395377Y-78989028D01*
X134400351Y-78999457D01*
X134510376Y-79184392D01*
X134517167Y-79193738D01*
X134659051Y-79355526D01*
X134667432Y-79363479D01*
X134836424Y-79496701D01*
X134846113Y-79502994D01*
X135036554Y-79603189D01*
X135047228Y-79607610D01*
X135253132Y-79671546D01*
X135265258Y-79674041D01*
X135460893Y-79694603D01*
X135467483Y-79694948D01*
X136370475Y-79694948D01*
X136376242Y-79694684D01*
X136536002Y-79680004D01*
X136547362Y-79677898D01*
X136754472Y-79619487D01*
X136765259Y-79615347D01*
X136958256Y-79520171D01*
X136968107Y-79514134D01*
X137140528Y-79385381D01*
X137149113Y-79377650D01*
X137184696Y-79339157D01*
X137199051Y-79355526D01*
X137207432Y-79363479D01*
X137376424Y-79496701D01*
X137386113Y-79502994D01*
X137576554Y-79603189D01*
X137587228Y-79607610D01*
X137793132Y-79671546D01*
X137805258Y-79674041D01*
X138000893Y-79694603D01*
X138007483Y-79694948D01*
X138910475Y-79694948D01*
X138916242Y-79694684D01*
X139076002Y-79680004D01*
X139087362Y-79677898D01*
X139294472Y-79619487D01*
X139305259Y-79615347D01*
X139498256Y-79520171D01*
X139508107Y-79514134D01*
X139680528Y-79385381D01*
X139689113Y-79377650D01*
X139835185Y-79219632D01*
X139842218Y-79210466D01*
X139957046Y-79028474D01*
X139962291Y-79018180D01*
X140042032Y-78818310D01*
X140045313Y-78807232D01*
X140087294Y-78596178D01*
X140088502Y-78584688D01*
X140091319Y-78369516D01*
X140090412Y-78357998D01*
X140053970Y-78145917D01*
X140050980Y-78134757D01*
X139976499Y-77932868D01*
X139971525Y-77922439D01*
X139861500Y-77737504D01*
X139854709Y-77728158D01*
X139712825Y-77566370D01*
X139704444Y-77558417D01*
X139535452Y-77425195D01*
X139525763Y-77418902D01*
X139335322Y-77318707D01*
X139324648Y-77314286D01*
X139118744Y-77250350D01*
X139106618Y-77247855D01*
X138910983Y-77227293D01*
X138904393Y-77226948D01*
X138001401Y-77226948D01*
X137995634Y-77227212D01*
X137835874Y-77241892D01*
X137824514Y-77243998D01*
X137617404Y-77302409D01*
X137606617Y-77306549D01*
X137413620Y-77401725D01*
X137403769Y-77407762D01*
X137231348Y-77536515D01*
X137222763Y-77544246D01*
X137187180Y-77582739D01*
X137172825Y-77566370D01*
X137164444Y-77558417D01*
X136995452Y-77425195D01*
X136985763Y-77418902D01*
X136795322Y-77318707D01*
X136784648Y-77314286D01*
X136578744Y-77250350D01*
X136566618Y-77247855D01*
X136370983Y-77227293D01*
X136364393Y-77226948D01*
X135461401Y-77226948D01*
X135455634Y-77227212D01*
X135295874Y-77241892D01*
X135284514Y-77243998D01*
X135077404Y-77302409D01*
X135066617Y-77306549D01*
X134873620Y-77401725D01*
X134863769Y-77407762D01*
X134691348Y-77536515D01*
X134682763Y-77544246D01*
X134536691Y-77702264D01*
X134529658Y-77711430D01*
X134414830Y-77893422D01*
X134409585Y-77903716D01*
X134329844Y-78103586D01*
X134326563Y-78114664D01*
X134284582Y-78325718D01*
X134283374Y-78337208D01*
X134280557Y-78552380D01*
X129412000Y-78552380D01*
X129412000Y-76012380D01*
X134280557Y-76012380D01*
X134281464Y-76023898D01*
X134317906Y-76235979D01*
X134320896Y-76247139D01*
X134395377Y-76449028D01*
X134400351Y-76459457D01*
X134510376Y-76644392D01*
X134517167Y-76653738D01*
X134659051Y-76815526D01*
X134667432Y-76823479D01*
X134836424Y-76956701D01*
X134846113Y-76962994D01*
X135036554Y-77063189D01*
X135047228Y-77067610D01*
X135253132Y-77131546D01*
X135265258Y-77134041D01*
X135460893Y-77154603D01*
X135467483Y-77154948D01*
X136370475Y-77154948D01*
X136376242Y-77154684D01*
X136536002Y-77140004D01*
X136547362Y-77137898D01*
X136754472Y-77079487D01*
X136765259Y-77075347D01*
X136958256Y-76980171D01*
X136968107Y-76974134D01*
X137140528Y-76845381D01*
X137149113Y-76837650D01*
X137184696Y-76799157D01*
X137199051Y-76815526D01*
X137207432Y-76823479D01*
X137376424Y-76956701D01*
X137386113Y-76962994D01*
X137576554Y-77063189D01*
X137587228Y-77067610D01*
X137793132Y-77131546D01*
X137805258Y-77134041D01*
X138000893Y-77154603D01*
X138007483Y-77154948D01*
X138910475Y-77154948D01*
X138916242Y-77154684D01*
X139076002Y-77140004D01*
X139087362Y-77137898D01*
X139294472Y-77079487D01*
X139305259Y-77075347D01*
X139498256Y-76980171D01*
X139508107Y-76974134D01*
X139680528Y-76845381D01*
X139689113Y-76837650D01*
X139835185Y-76679632D01*
X139842218Y-76670466D01*
X139957046Y-76488474D01*
X139962291Y-76478180D01*
X140042032Y-76278310D01*
X140045313Y-76267232D01*
X140087294Y-76056178D01*
X140088502Y-76044688D01*
X140091319Y-75829516D01*
X140090412Y-75817998D01*
X140053970Y-75605917D01*
X140050980Y-75594757D01*
X139976499Y-75392868D01*
X139971525Y-75382439D01*
X139861500Y-75197504D01*
X139854709Y-75188158D01*
X139712825Y-75026370D01*
X139704444Y-75018417D01*
X139535452Y-74885195D01*
X139525763Y-74878902D01*
X139335322Y-74778707D01*
X139324648Y-74774286D01*
X139118744Y-74710350D01*
X139106618Y-74707855D01*
X138910983Y-74687293D01*
X138904393Y-74686948D01*
X138001401Y-74686948D01*
X137995634Y-74687212D01*
X137835874Y-74701892D01*
X137824514Y-74703998D01*
X137617404Y-74762409D01*
X137606617Y-74766549D01*
X137413620Y-74861725D01*
X137403769Y-74867762D01*
X137231348Y-74996515D01*
X137222763Y-75004246D01*
X137187180Y-75042739D01*
X137172825Y-75026370D01*
X137164444Y-75018417D01*
X136995452Y-74885195D01*
X136985763Y-74878902D01*
X136795322Y-74778707D01*
X136784648Y-74774286D01*
X136578744Y-74710350D01*
X136566618Y-74707855D01*
X136370983Y-74687293D01*
X136364393Y-74686948D01*
X135461401Y-74686948D01*
X135455634Y-74687212D01*
X135295874Y-74701892D01*
X135284514Y-74703998D01*
X135077404Y-74762409D01*
X135066617Y-74766549D01*
X134873620Y-74861725D01*
X134863769Y-74867762D01*
X134691348Y-74996515D01*
X134682763Y-75004246D01*
X134536691Y-75162264D01*
X134529658Y-75171430D01*
X134414830Y-75353422D01*
X134409585Y-75363716D01*
X134329844Y-75563586D01*
X134326563Y-75574664D01*
X134284582Y-75785718D01*
X134283374Y-75797208D01*
X134280557Y-76012380D01*
X129412000Y-76012380D01*
X129412000Y-70920470D01*
X129527071Y-71091713D01*
X129531675Y-71097746D01*
X129753926Y-71355227D01*
X129759222Y-71360664D01*
X130010796Y-71589578D01*
X130016706Y-71594339D01*
X130293961Y-71791373D01*
X130300400Y-71795389D01*
X130599317Y-71957688D01*
X130606192Y-71960901D01*
X130922441Y-72086113D01*
X130929653Y-72088477D01*
X131258654Y-72174789D01*
X131266097Y-72176269D01*
X131603085Y-72222431D01*
X131610653Y-72223007D01*
X131950746Y-72228349D01*
X131958328Y-72228011D01*
X132296599Y-72192457D01*
X132304085Y-72191211D01*
X132635636Y-72115277D01*
X132642919Y-72113140D01*
X132962944Y-71997924D01*
X132969917Y-71994928D01*
X133273784Y-71842099D01*
X133280347Y-71838287D01*
X133563653Y-71650059D01*
X133569710Y-71645487D01*
X133828350Y-71424587D01*
X133833814Y-71419320D01*
X134064044Y-71168947D01*
X134068835Y-71163062D01*
X134267318Y-70886844D01*
X134271368Y-70880425D01*
X134281478Y-70862035D01*
X134280557Y-70932380D01*
G37*
%TD.AperFunction*%
X156298088Y-77059118D02*
X156304399Y-77068131D01*
X156458587Y-77251884D01*
X156466366Y-77259663D01*
X156650119Y-77413851D01*
X156659132Y-77420162D01*
X156866868Y-77540098D01*
X156876840Y-77544748D01*
X157102247Y-77626790D01*
X157112874Y-77629637D01*
X157346424Y-77670819D01*
X157262854Y-77767264D01*
X157253110Y-77782426D01*
X157157916Y-77990872D01*
X157152838Y-78008165D01*
X157128418Y-78178010D01*
X157127776Y-78186987D01*
X157127776Y-78718462D01*
X157129220Y-78731892D01*
X157192535Y-79022946D01*
X157201165Y-79043780D01*
X157326278Y-79238461D01*
X157338081Y-79252082D01*
X157339747Y-79253525D01*
X157262854Y-79342264D01*
X157253110Y-79357426D01*
X157157916Y-79565872D01*
X157152838Y-79583165D01*
X157128418Y-79753010D01*
X157127776Y-79761987D01*
X157127776Y-80293462D01*
X157129220Y-80306892D01*
X157192535Y-80597946D01*
X157201165Y-80618780D01*
X157326278Y-80813461D01*
X157338081Y-80827082D01*
X157481000Y-80950922D01*
X157481001Y-82906437D01*
X157481001Y-83117499D01*
X157484104Y-83137088D01*
X157499739Y-83185208D01*
X157507654Y-83235187D01*
X157513783Y-83254050D01*
X157536753Y-83299128D01*
X157552389Y-83347253D01*
X157561393Y-83364925D01*
X157591138Y-83405866D01*
X157614108Y-83450945D01*
X157625765Y-83466990D01*
X157668556Y-83509780D01*
X159478723Y-85319948D01*
X149690001Y-85319948D01*
X148864953Y-84494901D01*
X148885461Y-84481722D01*
X148899082Y-84469919D01*
X149022922Y-84327000D01*
X149661179Y-84327000D01*
X149661191Y-84326999D01*
X149716489Y-84326999D01*
X149736078Y-84323897D01*
X149784193Y-84308263D01*
X149834176Y-84300347D01*
X149853039Y-84294218D01*
X149898126Y-84271245D01*
X149946244Y-84255611D01*
X149963916Y-84246606D01*
X150004847Y-84216867D01*
X150049934Y-84193894D01*
X150065980Y-84182236D01*
X150222407Y-84025809D01*
X150222412Y-84025802D01*
X152034819Y-82213395D01*
X152061134Y-82221844D01*
X152071535Y-82224236D01*
X152310262Y-82258212D01*
X152320917Y-82258817D01*
X152561956Y-82252084D01*
X152572561Y-82250885D01*
X152809019Y-82203636D01*
X152819270Y-82200667D01*
X153044387Y-82114253D01*
X153053991Y-82109600D01*
X153261330Y-81986491D01*
X153270012Y-81980286D01*
X153453645Y-81824004D01*
X153461158Y-81816424D01*
X153615833Y-81631435D01*
X153621962Y-81622698D01*
X153743256Y-81414294D01*
X153747825Y-81404650D01*
X153832272Y-81178787D01*
X153835151Y-81168511D01*
X153880392Y-80931351D01*
X153881507Y-80920128D01*
X153884077Y-80652341D01*
X153883178Y-80641099D01*
X153842499Y-80403114D01*
X153839817Y-80392784D01*
X153759723Y-80165343D01*
X153755339Y-80155612D01*
X153638067Y-79944916D01*
X153632107Y-79936064D01*
X153481013Y-79748140D01*
X153473647Y-79740417D01*
X153293049Y-79580638D01*
X153284486Y-79574267D01*
X153079549Y-79447202D01*
X153070036Y-79442365D01*
X152846619Y-79351645D01*
X152836427Y-79348480D01*
X152600919Y-79296700D01*
X152590340Y-79295298D01*
X152349475Y-79283939D01*
X152338809Y-79284339D01*
X152099474Y-79313727D01*
X152089030Y-79315918D01*
X151858068Y-79385210D01*
X151848142Y-79389130D01*
X151632155Y-79496346D01*
X151623032Y-79501882D01*
X151428199Y-79643957D01*
X151420138Y-79650952D01*
X151252029Y-79823822D01*
X151245263Y-79832074D01*
X151129229Y-80000903D01*
X151098067Y-79944916D01*
X151092107Y-79936064D01*
X150941013Y-79748140D01*
X150933647Y-79740417D01*
X150753049Y-79580638D01*
X150744486Y-79574267D01*
X150539549Y-79447202D01*
X150530036Y-79442365D01*
X150306619Y-79351645D01*
X150296427Y-79348480D01*
X150082096Y-79301356D01*
X149988000Y-79377011D01*
X149987999Y-80570192D01*
X149988000Y-80570193D01*
X149987999Y-82107787D01*
X149290786Y-82805000D01*
X149020721Y-82805000D01*
X148985722Y-82750539D01*
X148973919Y-82736918D01*
X148800736Y-82586854D01*
X148785574Y-82577110D01*
X148577128Y-82481916D01*
X148559835Y-82476838D01*
X148389990Y-82452418D01*
X148381013Y-82451776D01*
X148081000Y-82451776D01*
X148081000Y-82046062D01*
X148181330Y-81986491D01*
X148190012Y-81980286D01*
X148373645Y-81824004D01*
X148381158Y-81816424D01*
X148535833Y-81631435D01*
X148541962Y-81622698D01*
X148589486Y-81541043D01*
X148687430Y-81689584D01*
X148694038Y-81697965D01*
X148858798Y-81874032D01*
X148866722Y-81881180D01*
X149058792Y-82026968D01*
X149067808Y-82032679D01*
X149281696Y-82144021D01*
X149291545Y-82148131D01*
X149521134Y-82221845D01*
X149531535Y-82224236D01*
X149645162Y-82240407D01*
X149732000Y-82165052D01*
X149732001Y-80973808D01*
X149732000Y-80973807D01*
X149732001Y-79378201D01*
X149646981Y-79302982D01*
X149559474Y-79313726D01*
X149549030Y-79315918D01*
X149318068Y-79385210D01*
X149308142Y-79389130D01*
X149092155Y-79496346D01*
X149083032Y-79501882D01*
X148888199Y-79643957D01*
X148880138Y-79650952D01*
X148712029Y-79823822D01*
X148705263Y-79832074D01*
X148589229Y-80000903D01*
X148558067Y-79944916D01*
X148552107Y-79936064D01*
X148401013Y-79748140D01*
X148393647Y-79740417D01*
X148213049Y-79580638D01*
X148204486Y-79574267D01*
X147999549Y-79447202D01*
X147990036Y-79442365D01*
X147766619Y-79351645D01*
X147756427Y-79348480D01*
X147520919Y-79296700D01*
X147510340Y-79295298D01*
X147269475Y-79283939D01*
X147258809Y-79284339D01*
X147019474Y-79313727D01*
X147009030Y-79315918D01*
X146778068Y-79385210D01*
X146768142Y-79389130D01*
X146552155Y-79496346D01*
X146543032Y-79501882D01*
X146348199Y-79643957D01*
X146340138Y-79650952D01*
X146172029Y-79823822D01*
X146165263Y-79832074D01*
X146028683Y-80030798D01*
X146023403Y-80040073D01*
X145922260Y-80258968D01*
X145918618Y-80269000D01*
X145855802Y-80501807D01*
X145853903Y-80512309D01*
X145831211Y-80752372D01*
X145831109Y-80763043D01*
X145849188Y-81003497D01*
X145850885Y-81014034D01*
X145909221Y-81248005D01*
X145912669Y-81258104D01*
X146009591Y-81478900D01*
X146014692Y-81488275D01*
X146147430Y-81689584D01*
X146154038Y-81697965D01*
X146318798Y-81874032D01*
X146326722Y-81881180D01*
X146518792Y-82026968D01*
X146527807Y-82032678D01*
X146559000Y-82048916D01*
X146559001Y-82451776D01*
X146274538Y-82451776D01*
X146261108Y-82453220D01*
X145970054Y-82516535D01*
X145949220Y-82525165D01*
X145754539Y-82650278D01*
X145740918Y-82662081D01*
X145617078Y-82805000D01*
X145603215Y-82805000D01*
X142874000Y-80075786D01*
X142874000Y-79297721D01*
X142928461Y-79262722D01*
X142942082Y-79250919D01*
X143092146Y-79077736D01*
X143101890Y-79062574D01*
X143197084Y-78854128D01*
X143202162Y-78836835D01*
X143226582Y-78666990D01*
X143227224Y-78658013D01*
X143227224Y-78126538D01*
X143225780Y-78113108D01*
X143162465Y-77822054D01*
X143153835Y-77801220D01*
X143028722Y-77606539D01*
X143016919Y-77592918D01*
X143015253Y-77591475D01*
X143033428Y-77570500D01*
X149327594Y-77570500D01*
X149482247Y-77626790D01*
X149492874Y-77629637D01*
X149729103Y-77671291D01*
X149740064Y-77672250D01*
X149979936Y-77672250D01*
X149990897Y-77671291D01*
X150227126Y-77629637D01*
X150237753Y-77626790D01*
X150463160Y-77544748D01*
X150473132Y-77540098D01*
X150680868Y-77420162D01*
X150689881Y-77413851D01*
X150727810Y-77382025D01*
X151536775Y-78190991D01*
X151686021Y-78340237D01*
X151702066Y-78351894D01*
X151747144Y-78374862D01*
X151788082Y-78404606D01*
X151805754Y-78413610D01*
X151853879Y-78429247D01*
X151898962Y-78452218D01*
X151917823Y-78458347D01*
X151967808Y-78466264D01*
X152015922Y-78481897D01*
X152035510Y-78484999D01*
X152090809Y-78484999D01*
X152090821Y-78485000D01*
X153979179Y-78485000D01*
X153979191Y-78484999D01*
X154034489Y-78484999D01*
X154054078Y-78481897D01*
X154102193Y-78466263D01*
X154152176Y-78458347D01*
X154171039Y-78452218D01*
X154216126Y-78429245D01*
X154264244Y-78413611D01*
X154281916Y-78404606D01*
X154322847Y-78374867D01*
X154367934Y-78351894D01*
X154383980Y-78340236D01*
X154540407Y-78183809D01*
X154540410Y-78183805D01*
X155051966Y-77672250D01*
X155059936Y-77672250D01*
X155070897Y-77671291D01*
X155307126Y-77629637D01*
X155317753Y-77626790D01*
X155543160Y-77544748D01*
X155553132Y-77540098D01*
X155760868Y-77420162D01*
X155769881Y-77413851D01*
X155953634Y-77259663D01*
X155961413Y-77251884D01*
X156115601Y-77068131D01*
X156121912Y-77059118D01*
X156210000Y-76906545D01*
X156298088Y-77059118D01*
%TA.AperFunction,Conductor*%
G36*
X156298088Y-77059118D02*
G01*
X156304399Y-77068131D01*
X156458587Y-77251884D01*
X156466366Y-77259663D01*
X156650119Y-77413851D01*
X156659132Y-77420162D01*
X156866868Y-77540098D01*
X156876840Y-77544748D01*
X157102247Y-77626790D01*
X157112874Y-77629637D01*
X157346424Y-77670819D01*
X157262854Y-77767264D01*
X157253110Y-77782426D01*
X157157916Y-77990872D01*
X157152838Y-78008165D01*
X157128418Y-78178010D01*
X157127776Y-78186987D01*
X157127776Y-78718462D01*
X157129220Y-78731892D01*
X157192535Y-79022946D01*
X157201165Y-79043780D01*
X157326278Y-79238461D01*
X157338081Y-79252082D01*
X157339747Y-79253525D01*
X157262854Y-79342264D01*
X157253110Y-79357426D01*
X157157916Y-79565872D01*
X157152838Y-79583165D01*
X157128418Y-79753010D01*
X157127776Y-79761987D01*
X157127776Y-80293462D01*
X157129220Y-80306892D01*
X157192535Y-80597946D01*
X157201165Y-80618780D01*
X157326278Y-80813461D01*
X157338081Y-80827082D01*
X157481000Y-80950922D01*
X157481001Y-82906437D01*
X157481001Y-83117499D01*
X157484104Y-83137088D01*
X157499739Y-83185208D01*
X157507654Y-83235187D01*
X157513783Y-83254050D01*
X157536753Y-83299128D01*
X157552389Y-83347253D01*
X157561393Y-83364925D01*
X157591138Y-83405866D01*
X157614108Y-83450945D01*
X157625765Y-83466990D01*
X157668556Y-83509780D01*
X159478723Y-85319948D01*
X149690001Y-85319948D01*
X148864953Y-84494901D01*
X148885461Y-84481722D01*
X148899082Y-84469919D01*
X149022922Y-84327000D01*
X149661179Y-84327000D01*
X149661191Y-84326999D01*
X149716489Y-84326999D01*
X149736078Y-84323897D01*
X149784193Y-84308263D01*
X149834176Y-84300347D01*
X149853039Y-84294218D01*
X149898126Y-84271245D01*
X149946244Y-84255611D01*
X149963916Y-84246606D01*
X150004847Y-84216867D01*
X150049934Y-84193894D01*
X150065980Y-84182236D01*
X150222407Y-84025809D01*
X150222412Y-84025802D01*
X152034819Y-82213395D01*
X152061134Y-82221844D01*
X152071535Y-82224236D01*
X152310262Y-82258212D01*
X152320917Y-82258817D01*
X152561956Y-82252084D01*
X152572561Y-82250885D01*
X152809019Y-82203636D01*
X152819270Y-82200667D01*
X153044387Y-82114253D01*
X153053991Y-82109600D01*
X153261330Y-81986491D01*
X153270012Y-81980286D01*
X153453645Y-81824004D01*
X153461158Y-81816424D01*
X153615833Y-81631435D01*
X153621962Y-81622698D01*
X153743256Y-81414294D01*
X153747825Y-81404650D01*
X153832272Y-81178787D01*
X153835151Y-81168511D01*
X153880392Y-80931351D01*
X153881507Y-80920128D01*
X153884077Y-80652341D01*
X153883178Y-80641099D01*
X153842499Y-80403114D01*
X153839817Y-80392784D01*
X153759723Y-80165343D01*
X153755339Y-80155612D01*
X153638067Y-79944916D01*
X153632107Y-79936064D01*
X153481013Y-79748140D01*
X153473647Y-79740417D01*
X153293049Y-79580638D01*
X153284486Y-79574267D01*
X153079549Y-79447202D01*
X153070036Y-79442365D01*
X152846619Y-79351645D01*
X152836427Y-79348480D01*
X152600919Y-79296700D01*
X152590340Y-79295298D01*
X152349475Y-79283939D01*
X152338809Y-79284339D01*
X152099474Y-79313727D01*
X152089030Y-79315918D01*
X151858068Y-79385210D01*
X151848142Y-79389130D01*
X151632155Y-79496346D01*
X151623032Y-79501882D01*
X151428199Y-79643957D01*
X151420138Y-79650952D01*
X151252029Y-79823822D01*
X151245263Y-79832074D01*
X151129229Y-80000903D01*
X151098067Y-79944916D01*
X151092107Y-79936064D01*
X150941013Y-79748140D01*
X150933647Y-79740417D01*
X150753049Y-79580638D01*
X150744486Y-79574267D01*
X150539549Y-79447202D01*
X150530036Y-79442365D01*
X150306619Y-79351645D01*
X150296427Y-79348480D01*
X150082096Y-79301356D01*
X149988000Y-79377011D01*
X149987999Y-80570192D01*
X149988000Y-80570193D01*
X149987999Y-82107787D01*
X149290786Y-82805000D01*
X149020721Y-82805000D01*
X148985722Y-82750539D01*
X148973919Y-82736918D01*
X148800736Y-82586854D01*
X148785574Y-82577110D01*
X148577128Y-82481916D01*
X148559835Y-82476838D01*
X148389990Y-82452418D01*
X148381013Y-82451776D01*
X148081000Y-82451776D01*
X148081000Y-82046062D01*
X148181330Y-81986491D01*
X148190012Y-81980286D01*
X148373645Y-81824004D01*
X148381158Y-81816424D01*
X148535833Y-81631435D01*
X148541962Y-81622698D01*
X148589486Y-81541043D01*
X148687430Y-81689584D01*
X148694038Y-81697965D01*
X148858798Y-81874032D01*
X148866722Y-81881180D01*
X149058792Y-82026968D01*
X149067808Y-82032679D01*
X149281696Y-82144021D01*
X149291545Y-82148131D01*
X149521134Y-82221845D01*
X149531535Y-82224236D01*
X149645162Y-82240407D01*
X149732000Y-82165052D01*
X149732001Y-80973808D01*
X149732000Y-80973807D01*
X149732001Y-79378201D01*
X149646981Y-79302982D01*
X149559474Y-79313726D01*
X149549030Y-79315918D01*
X149318068Y-79385210D01*
X149308142Y-79389130D01*
X149092155Y-79496346D01*
X149083032Y-79501882D01*
X148888199Y-79643957D01*
X148880138Y-79650952D01*
X148712029Y-79823822D01*
X148705263Y-79832074D01*
X148589229Y-80000903D01*
X148558067Y-79944916D01*
X148552107Y-79936064D01*
X148401013Y-79748140D01*
X148393647Y-79740417D01*
X148213049Y-79580638D01*
X148204486Y-79574267D01*
X147999549Y-79447202D01*
X147990036Y-79442365D01*
X147766619Y-79351645D01*
X147756427Y-79348480D01*
X147520919Y-79296700D01*
X147510340Y-79295298D01*
X147269475Y-79283939D01*
X147258809Y-79284339D01*
X147019474Y-79313727D01*
X147009030Y-79315918D01*
X146778068Y-79385210D01*
X146768142Y-79389130D01*
X146552155Y-79496346D01*
X146543032Y-79501882D01*
X146348199Y-79643957D01*
X146340138Y-79650952D01*
X146172029Y-79823822D01*
X146165263Y-79832074D01*
X146028683Y-80030798D01*
X146023403Y-80040073D01*
X145922260Y-80258968D01*
X145918618Y-80269000D01*
X145855802Y-80501807D01*
X145853903Y-80512309D01*
X145831211Y-80752372D01*
X145831109Y-80763043D01*
X145849188Y-81003497D01*
X145850885Y-81014034D01*
X145909221Y-81248005D01*
X145912669Y-81258104D01*
X146009591Y-81478900D01*
X146014692Y-81488275D01*
X146147430Y-81689584D01*
X146154038Y-81697965D01*
X146318798Y-81874032D01*
X146326722Y-81881180D01*
X146518792Y-82026968D01*
X146527807Y-82032678D01*
X146559000Y-82048916D01*
X146559001Y-82451776D01*
X146274538Y-82451776D01*
X146261108Y-82453220D01*
X145970054Y-82516535D01*
X145949220Y-82525165D01*
X145754539Y-82650278D01*
X145740918Y-82662081D01*
X145617078Y-82805000D01*
X145603215Y-82805000D01*
X142874000Y-80075786D01*
X142874000Y-79297721D01*
X142928461Y-79262722D01*
X142942082Y-79250919D01*
X143092146Y-79077736D01*
X143101890Y-79062574D01*
X143197084Y-78854128D01*
X143202162Y-78836835D01*
X143226582Y-78666990D01*
X143227224Y-78658013D01*
X143227224Y-78126538D01*
X143225780Y-78113108D01*
X143162465Y-77822054D01*
X143153835Y-77801220D01*
X143028722Y-77606539D01*
X143016919Y-77592918D01*
X143015253Y-77591475D01*
X143033428Y-77570500D01*
X149327594Y-77570500D01*
X149482247Y-77626790D01*
X149492874Y-77629637D01*
X149729103Y-77671291D01*
X149740064Y-77672250D01*
X149979936Y-77672250D01*
X149990897Y-77671291D01*
X150227126Y-77629637D01*
X150237753Y-77626790D01*
X150463160Y-77544748D01*
X150473132Y-77540098D01*
X150680868Y-77420162D01*
X150689881Y-77413851D01*
X150727810Y-77382025D01*
X151536775Y-78190991D01*
X151686021Y-78340237D01*
X151702066Y-78351894D01*
X151747144Y-78374862D01*
X151788082Y-78404606D01*
X151805754Y-78413610D01*
X151853879Y-78429247D01*
X151898962Y-78452218D01*
X151917823Y-78458347D01*
X151967808Y-78466264D01*
X152015922Y-78481897D01*
X152035510Y-78484999D01*
X152090809Y-78484999D01*
X152090821Y-78485000D01*
X153979179Y-78485000D01*
X153979191Y-78484999D01*
X154034489Y-78484999D01*
X154054078Y-78481897D01*
X154102193Y-78466263D01*
X154152176Y-78458347D01*
X154171039Y-78452218D01*
X154216126Y-78429245D01*
X154264244Y-78413611D01*
X154281916Y-78404606D01*
X154322847Y-78374867D01*
X154367934Y-78351894D01*
X154383980Y-78340236D01*
X154540407Y-78183809D01*
X154540410Y-78183805D01*
X155051966Y-77672250D01*
X155059936Y-77672250D01*
X155070897Y-77671291D01*
X155307126Y-77629637D01*
X155317753Y-77626790D01*
X155543160Y-77544748D01*
X155553132Y-77540098D01*
X155760868Y-77420162D01*
X155769881Y-77413851D01*
X155953634Y-77259663D01*
X155961413Y-77251884D01*
X156115601Y-77068131D01*
X156121912Y-77059118D01*
X156210000Y-76906545D01*
X156298088Y-77059118D01*
G37*
%TD.AperFunction*%
X152722960Y-67219075D02*
X152530897Y-67185209D01*
X152519936Y-67184250D01*
X152280064Y-67184250D01*
X152269103Y-67185209D01*
X152032874Y-67226863D01*
X152022247Y-67229710D01*
X151796840Y-67311752D01*
X151786868Y-67316402D01*
X151579132Y-67436338D01*
X151570119Y-67442649D01*
X151386366Y-67596837D01*
X151378587Y-67604616D01*
X151224399Y-67788369D01*
X151218088Y-67797382D01*
X151130000Y-67949955D01*
X151041912Y-67797382D01*
X151035601Y-67788369D01*
X150881413Y-67604616D01*
X150873634Y-67596837D01*
X150689881Y-67442649D01*
X150680868Y-67436338D01*
X150473132Y-67316402D01*
X150463160Y-67311752D01*
X150237753Y-67229710D01*
X150227126Y-67226863D01*
X149990897Y-67185209D01*
X149979936Y-67184250D01*
X149740064Y-67184250D01*
X149729103Y-67185209D01*
X149492874Y-67226863D01*
X149482247Y-67229710D01*
X149256840Y-67311752D01*
X149246868Y-67316402D01*
X149039132Y-67436338D01*
X149030119Y-67442649D01*
X148846366Y-67596837D01*
X148838587Y-67604616D01*
X148684399Y-67788369D01*
X148678088Y-67797382D01*
X148558152Y-68005118D01*
X148553502Y-68015090D01*
X148471460Y-68240497D01*
X148468613Y-68251124D01*
X148426959Y-68487353D01*
X148426000Y-68498314D01*
X148426000Y-68738186D01*
X148426959Y-68749147D01*
X148468613Y-68985376D01*
X148471460Y-68996003D01*
X148553502Y-69221410D01*
X148558152Y-69231382D01*
X148678088Y-69439118D01*
X148684399Y-69448131D01*
X148838587Y-69631884D01*
X148846366Y-69639663D01*
X149030119Y-69793851D01*
X149039132Y-69800162D01*
X149246868Y-69920098D01*
X149256840Y-69924748D01*
X149482247Y-70006790D01*
X149492874Y-70009637D01*
X149729103Y-70051291D01*
X149740064Y-70052250D01*
X149979936Y-70052250D01*
X149990897Y-70051291D01*
X150227126Y-70009637D01*
X150237753Y-70006790D01*
X150463160Y-69924748D01*
X150473132Y-69920098D01*
X150680868Y-69800162D01*
X150689881Y-69793851D01*
X150873634Y-69639663D01*
X150881413Y-69631884D01*
X151035601Y-69448131D01*
X151041912Y-69439118D01*
X151130000Y-69286545D01*
X151218088Y-69439118D01*
X151224399Y-69448131D01*
X151378587Y-69631884D01*
X151386366Y-69639663D01*
X151570119Y-69793851D01*
X151579132Y-69800162D01*
X151786868Y-69920098D01*
X151796840Y-69924748D01*
X152022247Y-70006790D01*
X152032874Y-70009637D01*
X152269103Y-70051291D01*
X152280064Y-70052250D01*
X152519936Y-70052250D01*
X152530897Y-70051291D01*
X152767126Y-70009637D01*
X152777753Y-70006790D01*
X153003160Y-69924748D01*
X153013132Y-69920098D01*
X153220868Y-69800162D01*
X153229881Y-69793851D01*
X153413634Y-69639663D01*
X153421413Y-69631884D01*
X153575601Y-69448131D01*
X153581912Y-69439118D01*
X153670000Y-69286545D01*
X153758088Y-69439118D01*
X153764399Y-69448131D01*
X153918587Y-69631884D01*
X153926366Y-69639663D01*
X154110119Y-69793851D01*
X154119132Y-69800162D01*
X154326868Y-69920098D01*
X154336840Y-69924748D01*
X154562247Y-70006790D01*
X154572874Y-70009637D01*
X154600436Y-70014497D01*
X154480854Y-70152502D01*
X154471110Y-70167664D01*
X154375916Y-70376110D01*
X154370838Y-70393403D01*
X154346418Y-70563248D01*
X154345776Y-70572225D01*
X154345776Y-70681429D01*
X154419585Y-70755238D01*
X155220692Y-70755239D01*
X155220693Y-70755238D01*
X155550500Y-70755239D01*
X155550499Y-71931138D01*
X155644377Y-72006790D01*
X155984946Y-71932703D01*
X156005780Y-71924073D01*
X156200461Y-71798960D01*
X156214082Y-71787157D01*
X156215525Y-71785491D01*
X156304264Y-71862384D01*
X156319426Y-71872128D01*
X156527872Y-71967322D01*
X156545165Y-71972400D01*
X156715010Y-71996820D01*
X156723987Y-71997462D01*
X157255462Y-71997462D01*
X157268892Y-71996018D01*
X157559946Y-71932703D01*
X157580780Y-71924073D01*
X157775461Y-71798960D01*
X157789082Y-71787157D01*
X157939146Y-71613974D01*
X157948890Y-71598812D01*
X158044084Y-71390366D01*
X158049162Y-71373073D01*
X158073582Y-71203228D01*
X158074224Y-71194251D01*
X158074224Y-70587776D01*
X158072780Y-70574346D01*
X158009465Y-70283292D01*
X158000835Y-70262458D01*
X157875722Y-70067777D01*
X157869058Y-70060087D01*
X158281010Y-70060087D01*
X158281010Y-75044873D01*
X158093132Y-74936402D01*
X158083160Y-74931752D01*
X157949595Y-74883138D01*
X158044084Y-74676236D01*
X158049162Y-74658943D01*
X158073582Y-74489098D01*
X158074224Y-74480121D01*
X158074224Y-73873646D01*
X158072780Y-73860216D01*
X158009465Y-73569162D01*
X158000835Y-73548328D01*
X157875722Y-73353647D01*
X157863919Y-73340026D01*
X157690736Y-73189962D01*
X157675574Y-73180218D01*
X157467128Y-73085024D01*
X157449835Y-73079946D01*
X157279990Y-73055526D01*
X157271013Y-73054884D01*
X156739538Y-73054884D01*
X156726108Y-73056328D01*
X156435054Y-73119643D01*
X156414220Y-73128273D01*
X156219539Y-73253386D01*
X156205918Y-73265189D01*
X156204475Y-73266855D01*
X156115736Y-73189962D01*
X156100574Y-73180218D01*
X155892128Y-73085024D01*
X155874835Y-73079946D01*
X155704990Y-73055526D01*
X155696013Y-73054884D01*
X155624309Y-73054884D01*
X155550500Y-73128693D01*
X155550499Y-73967300D01*
X155550500Y-73967301D01*
X155550499Y-74297108D01*
X154882809Y-74297107D01*
X154858864Y-74321052D01*
X153821500Y-74321052D01*
X153821500Y-73152637D01*
X154077500Y-73152637D01*
X154077500Y-73991243D01*
X154151309Y-74065052D01*
X154489191Y-74065052D01*
X154513135Y-74041108D01*
X155220691Y-74041109D01*
X155294500Y-73967300D01*
X155294501Y-73121208D01*
X155200623Y-73045556D01*
X154860054Y-73119643D01*
X154839220Y-73128273D01*
X154669664Y-73237239D01*
X154642735Y-73213906D01*
X154627574Y-73204162D01*
X154419128Y-73108968D01*
X154401835Y-73103890D01*
X154231990Y-73079470D01*
X154223013Y-73078828D01*
X154151309Y-73078828D01*
X154077500Y-73152637D01*
X153821500Y-73152637D01*
X153821500Y-73145152D01*
X153727622Y-73069500D01*
X153387054Y-73143587D01*
X153366220Y-73152217D01*
X153171539Y-73277330D01*
X153157918Y-73289133D01*
X153156475Y-73290799D01*
X153067736Y-73213906D01*
X153052574Y-73204162D01*
X152844128Y-73108968D01*
X152826835Y-73103890D01*
X152656990Y-73079470D01*
X152648013Y-73078828D01*
X152116538Y-73078828D01*
X152103108Y-73080272D01*
X151812054Y-73143587D01*
X151791220Y-73152217D01*
X151596539Y-73277330D01*
X151582918Y-73289133D01*
X151432854Y-73462316D01*
X151423110Y-73477478D01*
X151327916Y-73685924D01*
X151322838Y-73703217D01*
X151298418Y-73873062D01*
X151297776Y-73882039D01*
X151297776Y-74275560D01*
X149076974Y-72054759D01*
X148328370Y-71306156D01*
X148328365Y-71306149D01*
X148171938Y-71149722D01*
X148155892Y-71138064D01*
X148110805Y-71115091D01*
X148069874Y-71085352D01*
X148069274Y-71085046D01*
X154345776Y-71085046D01*
X154345776Y-71178700D01*
X154347220Y-71192130D01*
X154410535Y-71483184D01*
X154419165Y-71504018D01*
X154544278Y-71698699D01*
X154556081Y-71712320D01*
X154729264Y-71862384D01*
X154744426Y-71872128D01*
X154952872Y-71967322D01*
X154970165Y-71972400D01*
X155140010Y-71996820D01*
X155148987Y-71997462D01*
X155220691Y-71997462D01*
X155294500Y-71923653D01*
X155294501Y-71085047D01*
X155220692Y-71011238D01*
X154419585Y-71011237D01*
X154345776Y-71085046D01*
X148069274Y-71085046D01*
X148052202Y-71076347D01*
X148004084Y-71060713D01*
X147958997Y-71037740D01*
X147940134Y-71031611D01*
X147890151Y-71023695D01*
X147842036Y-71008061D01*
X147822447Y-71004959D01*
X147767149Y-71004959D01*
X147767137Y-71004958D01*
X140081569Y-71004958D01*
X140087294Y-70976178D01*
X140088502Y-70964688D01*
X140091319Y-70749516D01*
X140090412Y-70737998D01*
X140053970Y-70525917D01*
X140050980Y-70514757D01*
X139976499Y-70312868D01*
X139971525Y-70302439D01*
X139861500Y-70117504D01*
X139854709Y-70108158D01*
X139712825Y-69946370D01*
X139704444Y-69938417D01*
X139535452Y-69805195D01*
X139525763Y-69798902D01*
X139335322Y-69698707D01*
X139324648Y-69694286D01*
X139118744Y-69630350D01*
X139106618Y-69627855D01*
X138910983Y-69607293D01*
X138904393Y-69606948D01*
X138001401Y-69606948D01*
X137995634Y-69607212D01*
X137835874Y-69621892D01*
X137824514Y-69623998D01*
X137617404Y-69682409D01*
X137606617Y-69686549D01*
X137413620Y-69781725D01*
X137403769Y-69787762D01*
X137231348Y-69916515D01*
X137222763Y-69924246D01*
X137187180Y-69962739D01*
X137172825Y-69946370D01*
X137164444Y-69938417D01*
X136995452Y-69805195D01*
X136985763Y-69798902D01*
X136795322Y-69698707D01*
X136784648Y-69694286D01*
X136578744Y-69630350D01*
X136566618Y-69627855D01*
X136370983Y-69607293D01*
X136364393Y-69606948D01*
X135461401Y-69606948D01*
X135455634Y-69607212D01*
X135295874Y-69621892D01*
X135284514Y-69623998D01*
X135077404Y-69682409D01*
X135066617Y-69686549D01*
X134873620Y-69781725D01*
X134863769Y-69787762D01*
X134691348Y-69916515D01*
X134682763Y-69924246D01*
X134644736Y-69965383D01*
X134655779Y-69924170D01*
X134657298Y-69916734D01*
X134705270Y-69579666D01*
X134705896Y-69571440D01*
X134709403Y-69236566D01*
X134836424Y-69336701D01*
X134846113Y-69342994D01*
X135036554Y-69443189D01*
X135047228Y-69447610D01*
X135253132Y-69511546D01*
X135265258Y-69514041D01*
X135460893Y-69534603D01*
X135467483Y-69534948D01*
X135714129Y-69534948D01*
X135787938Y-69461139D01*
X135787939Y-68502756D01*
X135787938Y-68502755D01*
X135787938Y-68099140D01*
X136043937Y-68099140D01*
X136043938Y-68099141D01*
X136043937Y-69461139D01*
X136117746Y-69534948D01*
X136370475Y-69534948D01*
X136376242Y-69534684D01*
X136536002Y-69520004D01*
X136547362Y-69517898D01*
X136754472Y-69459487D01*
X136765259Y-69455347D01*
X136958256Y-69360171D01*
X136968107Y-69354134D01*
X137140528Y-69225381D01*
X137149113Y-69217650D01*
X137184696Y-69179157D01*
X137199051Y-69195526D01*
X137207432Y-69203479D01*
X137376424Y-69336701D01*
X137386113Y-69342994D01*
X137576554Y-69443189D01*
X137587228Y-69447610D01*
X137793132Y-69511546D01*
X137805258Y-69514041D01*
X138000893Y-69534603D01*
X138007483Y-69534948D01*
X138910475Y-69534948D01*
X138916242Y-69534684D01*
X139076002Y-69520004D01*
X139087362Y-69517898D01*
X139294472Y-69459487D01*
X139305259Y-69455347D01*
X139498256Y-69360171D01*
X139508107Y-69354134D01*
X139680528Y-69225381D01*
X139689113Y-69217650D01*
X139835185Y-69059632D01*
X139842218Y-69050466D01*
X139957046Y-68868474D01*
X139962291Y-68858180D01*
X140042032Y-68658310D01*
X140045313Y-68647232D01*
X140087294Y-68436178D01*
X140088502Y-68424688D01*
X140091319Y-68209516D01*
X140090412Y-68197998D01*
X140053970Y-67985917D01*
X140050980Y-67974757D01*
X139976499Y-67772868D01*
X139971525Y-67762439D01*
X139861500Y-67577504D01*
X139854709Y-67568158D01*
X139712825Y-67406370D01*
X139704444Y-67398417D01*
X139535452Y-67265195D01*
X139525763Y-67258902D01*
X139335322Y-67158707D01*
X139324648Y-67154286D01*
X139118744Y-67090350D01*
X139106618Y-67087855D01*
X138910983Y-67067293D01*
X138904393Y-67066948D01*
X138001401Y-67066948D01*
X137995634Y-67067212D01*
X137835874Y-67081892D01*
X137824514Y-67083998D01*
X137617404Y-67142409D01*
X137606617Y-67146549D01*
X137413620Y-67241725D01*
X137403769Y-67247762D01*
X137231348Y-67376515D01*
X137222763Y-67384246D01*
X137187180Y-67422739D01*
X137172825Y-67406370D01*
X137164444Y-67398417D01*
X136995452Y-67265195D01*
X136985763Y-67258902D01*
X136795322Y-67158707D01*
X136784648Y-67154286D01*
X136578744Y-67090350D01*
X136566618Y-67087855D01*
X136370983Y-67067293D01*
X136364393Y-67066948D01*
X136117747Y-67066948D01*
X136043938Y-67140757D01*
X136043937Y-68099140D01*
X135787938Y-68099140D01*
X135787939Y-67140757D01*
X135714130Y-67066948D01*
X135461401Y-67066948D01*
X135455634Y-67067212D01*
X135295874Y-67081892D01*
X135284514Y-67083998D01*
X135077404Y-67142409D01*
X135066617Y-67146549D01*
X134873620Y-67241725D01*
X134863769Y-67247762D01*
X134691348Y-67376515D01*
X134682763Y-67384246D01*
X134536691Y-67542264D01*
X134529658Y-67551430D01*
X134414830Y-67733422D01*
X134409585Y-67743716D01*
X134338264Y-67922482D01*
X134303050Y-67855124D01*
X134299135Y-67848622D01*
X134106481Y-67568308D01*
X134101813Y-67562324D01*
X133876877Y-67307185D01*
X133871525Y-67301805D01*
X133617568Y-67075536D01*
X133611608Y-67070838D01*
X133406091Y-66928000D01*
X153014035Y-66928000D01*
X152722960Y-67219075D01*
%TA.AperFunction,Conductor*%
G36*
X152722960Y-67219075D02*
G01*
X152530897Y-67185209D01*
X152519936Y-67184250D01*
X152280064Y-67184250D01*
X152269103Y-67185209D01*
X152032874Y-67226863D01*
X152022247Y-67229710D01*
X151796840Y-67311752D01*
X151786868Y-67316402D01*
X151579132Y-67436338D01*
X151570119Y-67442649D01*
X151386366Y-67596837D01*
X151378587Y-67604616D01*
X151224399Y-67788369D01*
X151218088Y-67797382D01*
X151130000Y-67949955D01*
X151041912Y-67797382D01*
X151035601Y-67788369D01*
X150881413Y-67604616D01*
X150873634Y-67596837D01*
X150689881Y-67442649D01*
X150680868Y-67436338D01*
X150473132Y-67316402D01*
X150463160Y-67311752D01*
X150237753Y-67229710D01*
X150227126Y-67226863D01*
X149990897Y-67185209D01*
X149979936Y-67184250D01*
X149740064Y-67184250D01*
X149729103Y-67185209D01*
X149492874Y-67226863D01*
X149482247Y-67229710D01*
X149256840Y-67311752D01*
X149246868Y-67316402D01*
X149039132Y-67436338D01*
X149030119Y-67442649D01*
X148846366Y-67596837D01*
X148838587Y-67604616D01*
X148684399Y-67788369D01*
X148678088Y-67797382D01*
X148558152Y-68005118D01*
X148553502Y-68015090D01*
X148471460Y-68240497D01*
X148468613Y-68251124D01*
X148426959Y-68487353D01*
X148426000Y-68498314D01*
X148426000Y-68738186D01*
X148426959Y-68749147D01*
X148468613Y-68985376D01*
X148471460Y-68996003D01*
X148553502Y-69221410D01*
X148558152Y-69231382D01*
X148678088Y-69439118D01*
X148684399Y-69448131D01*
X148838587Y-69631884D01*
X148846366Y-69639663D01*
X149030119Y-69793851D01*
X149039132Y-69800162D01*
X149246868Y-69920098D01*
X149256840Y-69924748D01*
X149482247Y-70006790D01*
X149492874Y-70009637D01*
X149729103Y-70051291D01*
X149740064Y-70052250D01*
X149979936Y-70052250D01*
X149990897Y-70051291D01*
X150227126Y-70009637D01*
X150237753Y-70006790D01*
X150463160Y-69924748D01*
X150473132Y-69920098D01*
X150680868Y-69800162D01*
X150689881Y-69793851D01*
X150873634Y-69639663D01*
X150881413Y-69631884D01*
X151035601Y-69448131D01*
X151041912Y-69439118D01*
X151130000Y-69286545D01*
X151218088Y-69439118D01*
X151224399Y-69448131D01*
X151378587Y-69631884D01*
X151386366Y-69639663D01*
X151570119Y-69793851D01*
X151579132Y-69800162D01*
X151786868Y-69920098D01*
X151796840Y-69924748D01*
X152022247Y-70006790D01*
X152032874Y-70009637D01*
X152269103Y-70051291D01*
X152280064Y-70052250D01*
X152519936Y-70052250D01*
X152530897Y-70051291D01*
X152767126Y-70009637D01*
X152777753Y-70006790D01*
X153003160Y-69924748D01*
X153013132Y-69920098D01*
X153220868Y-69800162D01*
X153229881Y-69793851D01*
X153413634Y-69639663D01*
X153421413Y-69631884D01*
X153575601Y-69448131D01*
X153581912Y-69439118D01*
X153670000Y-69286545D01*
X153758088Y-69439118D01*
X153764399Y-69448131D01*
X153918587Y-69631884D01*
X153926366Y-69639663D01*
X154110119Y-69793851D01*
X154119132Y-69800162D01*
X154326868Y-69920098D01*
X154336840Y-69924748D01*
X154562247Y-70006790D01*
X154572874Y-70009637D01*
X154600436Y-70014497D01*
X154480854Y-70152502D01*
X154471110Y-70167664D01*
X154375916Y-70376110D01*
X154370838Y-70393403D01*
X154346418Y-70563248D01*
X154345776Y-70572225D01*
X154345776Y-70681429D01*
X154419585Y-70755238D01*
X155220692Y-70755239D01*
X155220693Y-70755238D01*
X155550500Y-70755239D01*
X155550499Y-71931138D01*
X155644377Y-72006790D01*
X155984946Y-71932703D01*
X156005780Y-71924073D01*
X156200461Y-71798960D01*
X156214082Y-71787157D01*
X156215525Y-71785491D01*
X156304264Y-71862384D01*
X156319426Y-71872128D01*
X156527872Y-71967322D01*
X156545165Y-71972400D01*
X156715010Y-71996820D01*
X156723987Y-71997462D01*
X157255462Y-71997462D01*
X157268892Y-71996018D01*
X157559946Y-71932703D01*
X157580780Y-71924073D01*
X157775461Y-71798960D01*
X157789082Y-71787157D01*
X157939146Y-71613974D01*
X157948890Y-71598812D01*
X158044084Y-71390366D01*
X158049162Y-71373073D01*
X158073582Y-71203228D01*
X158074224Y-71194251D01*
X158074224Y-70587776D01*
X158072780Y-70574346D01*
X158009465Y-70283292D01*
X158000835Y-70262458D01*
X157875722Y-70067777D01*
X157869058Y-70060087D01*
X158281010Y-70060087D01*
X158281010Y-75044873D01*
X158093132Y-74936402D01*
X158083160Y-74931752D01*
X157949595Y-74883138D01*
X158044084Y-74676236D01*
X158049162Y-74658943D01*
X158073582Y-74489098D01*
X158074224Y-74480121D01*
X158074224Y-73873646D01*
X158072780Y-73860216D01*
X158009465Y-73569162D01*
X158000835Y-73548328D01*
X157875722Y-73353647D01*
X157863919Y-73340026D01*
X157690736Y-73189962D01*
X157675574Y-73180218D01*
X157467128Y-73085024D01*
X157449835Y-73079946D01*
X157279990Y-73055526D01*
X157271013Y-73054884D01*
X156739538Y-73054884D01*
X156726108Y-73056328D01*
X156435054Y-73119643D01*
X156414220Y-73128273D01*
X156219539Y-73253386D01*
X156205918Y-73265189D01*
X156204475Y-73266855D01*
X156115736Y-73189962D01*
X156100574Y-73180218D01*
X155892128Y-73085024D01*
X155874835Y-73079946D01*
X155704990Y-73055526D01*
X155696013Y-73054884D01*
X155624309Y-73054884D01*
X155550500Y-73128693D01*
X155550499Y-73967300D01*
X155550500Y-73967301D01*
X155550499Y-74297108D01*
X154882809Y-74297107D01*
X154858864Y-74321052D01*
X153821500Y-74321052D01*
X153821500Y-73152637D01*
X154077500Y-73152637D01*
X154077500Y-73991243D01*
X154151309Y-74065052D01*
X154489191Y-74065052D01*
X154513135Y-74041108D01*
X155220691Y-74041109D01*
X155294500Y-73967300D01*
X155294501Y-73121208D01*
X155200623Y-73045556D01*
X154860054Y-73119643D01*
X154839220Y-73128273D01*
X154669664Y-73237239D01*
X154642735Y-73213906D01*
X154627574Y-73204162D01*
X154419128Y-73108968D01*
X154401835Y-73103890D01*
X154231990Y-73079470D01*
X154223013Y-73078828D01*
X154151309Y-73078828D01*
X154077500Y-73152637D01*
X153821500Y-73152637D01*
X153821500Y-73145152D01*
X153727622Y-73069500D01*
X153387054Y-73143587D01*
X153366220Y-73152217D01*
X153171539Y-73277330D01*
X153157918Y-73289133D01*
X153156475Y-73290799D01*
X153067736Y-73213906D01*
X153052574Y-73204162D01*
X152844128Y-73108968D01*
X152826835Y-73103890D01*
X152656990Y-73079470D01*
X152648013Y-73078828D01*
X152116538Y-73078828D01*
X152103108Y-73080272D01*
X151812054Y-73143587D01*
X151791220Y-73152217D01*
X151596539Y-73277330D01*
X151582918Y-73289133D01*
X151432854Y-73462316D01*
X151423110Y-73477478D01*
X151327916Y-73685924D01*
X151322838Y-73703217D01*
X151298418Y-73873062D01*
X151297776Y-73882039D01*
X151297776Y-74275560D01*
X149076974Y-72054759D01*
X148328370Y-71306156D01*
X148328365Y-71306149D01*
X148171938Y-71149722D01*
X148155892Y-71138064D01*
X148110805Y-71115091D01*
X148069874Y-71085352D01*
X148069274Y-71085046D01*
X154345776Y-71085046D01*
X154345776Y-71178700D01*
X154347220Y-71192130D01*
X154410535Y-71483184D01*
X154419165Y-71504018D01*
X154544278Y-71698699D01*
X154556081Y-71712320D01*
X154729264Y-71862384D01*
X154744426Y-71872128D01*
X154952872Y-71967322D01*
X154970165Y-71972400D01*
X155140010Y-71996820D01*
X155148987Y-71997462D01*
X155220691Y-71997462D01*
X155294500Y-71923653D01*
X155294501Y-71085047D01*
X155220692Y-71011238D01*
X154419585Y-71011237D01*
X154345776Y-71085046D01*
X148069274Y-71085046D01*
X148052202Y-71076347D01*
X148004084Y-71060713D01*
X147958997Y-71037740D01*
X147940134Y-71031611D01*
X147890151Y-71023695D01*
X147842036Y-71008061D01*
X147822447Y-71004959D01*
X147767149Y-71004959D01*
X147767137Y-71004958D01*
X140081569Y-71004958D01*
X140087294Y-70976178D01*
X140088502Y-70964688D01*
X140091319Y-70749516D01*
X140090412Y-70737998D01*
X140053970Y-70525917D01*
X140050980Y-70514757D01*
X139976499Y-70312868D01*
X139971525Y-70302439D01*
X139861500Y-70117504D01*
X139854709Y-70108158D01*
X139712825Y-69946370D01*
X139704444Y-69938417D01*
X139535452Y-69805195D01*
X139525763Y-69798902D01*
X139335322Y-69698707D01*
X139324648Y-69694286D01*
X139118744Y-69630350D01*
X139106618Y-69627855D01*
X138910983Y-69607293D01*
X138904393Y-69606948D01*
X138001401Y-69606948D01*
X137995634Y-69607212D01*
X137835874Y-69621892D01*
X137824514Y-69623998D01*
X137617404Y-69682409D01*
X137606617Y-69686549D01*
X137413620Y-69781725D01*
X137403769Y-69787762D01*
X137231348Y-69916515D01*
X137222763Y-69924246D01*
X137187180Y-69962739D01*
X137172825Y-69946370D01*
X137164444Y-69938417D01*
X136995452Y-69805195D01*
X136985763Y-69798902D01*
X136795322Y-69698707D01*
X136784648Y-69694286D01*
X136578744Y-69630350D01*
X136566618Y-69627855D01*
X136370983Y-69607293D01*
X136364393Y-69606948D01*
X135461401Y-69606948D01*
X135455634Y-69607212D01*
X135295874Y-69621892D01*
X135284514Y-69623998D01*
X135077404Y-69682409D01*
X135066617Y-69686549D01*
X134873620Y-69781725D01*
X134863769Y-69787762D01*
X134691348Y-69916515D01*
X134682763Y-69924246D01*
X134644736Y-69965383D01*
X134655779Y-69924170D01*
X134657298Y-69916734D01*
X134705270Y-69579666D01*
X134705896Y-69571440D01*
X134709403Y-69236566D01*
X134836424Y-69336701D01*
X134846113Y-69342994D01*
X135036554Y-69443189D01*
X135047228Y-69447610D01*
X135253132Y-69511546D01*
X135265258Y-69514041D01*
X135460893Y-69534603D01*
X135467483Y-69534948D01*
X135714129Y-69534948D01*
X135787938Y-69461139D01*
X135787939Y-68502756D01*
X135787938Y-68502755D01*
X135787938Y-68099140D01*
X136043937Y-68099140D01*
X136043938Y-68099141D01*
X136043937Y-69461139D01*
X136117746Y-69534948D01*
X136370475Y-69534948D01*
X136376242Y-69534684D01*
X136536002Y-69520004D01*
X136547362Y-69517898D01*
X136754472Y-69459487D01*
X136765259Y-69455347D01*
X136958256Y-69360171D01*
X136968107Y-69354134D01*
X137140528Y-69225381D01*
X137149113Y-69217650D01*
X137184696Y-69179157D01*
X137199051Y-69195526D01*
X137207432Y-69203479D01*
X137376424Y-69336701D01*
X137386113Y-69342994D01*
X137576554Y-69443189D01*
X137587228Y-69447610D01*
X137793132Y-69511546D01*
X137805258Y-69514041D01*
X138000893Y-69534603D01*
X138007483Y-69534948D01*
X138910475Y-69534948D01*
X138916242Y-69534684D01*
X139076002Y-69520004D01*
X139087362Y-69517898D01*
X139294472Y-69459487D01*
X139305259Y-69455347D01*
X139498256Y-69360171D01*
X139508107Y-69354134D01*
X139680528Y-69225381D01*
X139689113Y-69217650D01*
X139835185Y-69059632D01*
X139842218Y-69050466D01*
X139957046Y-68868474D01*
X139962291Y-68858180D01*
X140042032Y-68658310D01*
X140045313Y-68647232D01*
X140087294Y-68436178D01*
X140088502Y-68424688D01*
X140091319Y-68209516D01*
X140090412Y-68197998D01*
X140053970Y-67985917D01*
X140050980Y-67974757D01*
X139976499Y-67772868D01*
X139971525Y-67762439D01*
X139861500Y-67577504D01*
X139854709Y-67568158D01*
X139712825Y-67406370D01*
X139704444Y-67398417D01*
X139535452Y-67265195D01*
X139525763Y-67258902D01*
X139335322Y-67158707D01*
X139324648Y-67154286D01*
X139118744Y-67090350D01*
X139106618Y-67087855D01*
X138910983Y-67067293D01*
X138904393Y-67066948D01*
X138001401Y-67066948D01*
X137995634Y-67067212D01*
X137835874Y-67081892D01*
X137824514Y-67083998D01*
X137617404Y-67142409D01*
X137606617Y-67146549D01*
X137413620Y-67241725D01*
X137403769Y-67247762D01*
X137231348Y-67376515D01*
X137222763Y-67384246D01*
X137187180Y-67422739D01*
X137172825Y-67406370D01*
X137164444Y-67398417D01*
X136995452Y-67265195D01*
X136985763Y-67258902D01*
X136795322Y-67158707D01*
X136784648Y-67154286D01*
X136578744Y-67090350D01*
X136566618Y-67087855D01*
X136370983Y-67067293D01*
X136364393Y-67066948D01*
X136117747Y-67066948D01*
X136043938Y-67140757D01*
X136043937Y-68099140D01*
X135787938Y-68099140D01*
X135787939Y-67140757D01*
X135714130Y-67066948D01*
X135461401Y-67066948D01*
X135455634Y-67067212D01*
X135295874Y-67081892D01*
X135284514Y-67083998D01*
X135077404Y-67142409D01*
X135066617Y-67146549D01*
X134873620Y-67241725D01*
X134863769Y-67247762D01*
X134691348Y-67376515D01*
X134682763Y-67384246D01*
X134536691Y-67542264D01*
X134529658Y-67551430D01*
X134414830Y-67733422D01*
X134409585Y-67743716D01*
X134338264Y-67922482D01*
X134303050Y-67855124D01*
X134299135Y-67848622D01*
X134106481Y-67568308D01*
X134101813Y-67562324D01*
X133876877Y-67307185D01*
X133871525Y-67301805D01*
X133617568Y-67075536D01*
X133611608Y-67070838D01*
X133406091Y-66928000D01*
X153014035Y-66928000D01*
X152722960Y-67219075D01*
G37*
%TD.AperFunction*%
X159684582Y-68165718D02*
X159683374Y-68177208D01*
X159680557Y-68392380D01*
X159681464Y-68403898D01*
X159717906Y-68615979D01*
X159720896Y-68627139D01*
X159795377Y-68829028D01*
X159800351Y-68839457D01*
X159910376Y-69024392D01*
X159917167Y-69033738D01*
X160059051Y-69195526D01*
X160067432Y-69203479D01*
X160236424Y-69336701D01*
X160246113Y-69342994D01*
X160436554Y-69443189D01*
X160447228Y-69447610D01*
X160653132Y-69511546D01*
X160665258Y-69514041D01*
X160860893Y-69534603D01*
X160867483Y-69534948D01*
X161770475Y-69534948D01*
X161776242Y-69534684D01*
X161936002Y-69520004D01*
X161947362Y-69517898D01*
X162154472Y-69459487D01*
X162165259Y-69455347D01*
X162358256Y-69360171D01*
X162368107Y-69354134D01*
X162540528Y-69225381D01*
X162549113Y-69217650D01*
X162584696Y-69179157D01*
X162599051Y-69195526D01*
X162607432Y-69203479D01*
X162776424Y-69336701D01*
X162786113Y-69342994D01*
X162976554Y-69443189D01*
X162987228Y-69447610D01*
X163193132Y-69511546D01*
X163205258Y-69514041D01*
X163400893Y-69534603D01*
X163407483Y-69534948D01*
X163654129Y-69534948D01*
X163727938Y-69461139D01*
X163727939Y-68172948D01*
X163983938Y-68172949D01*
X163983937Y-69461139D01*
X164057746Y-69534948D01*
X164310475Y-69534948D01*
X164316242Y-69534684D01*
X164476002Y-69520004D01*
X164487362Y-69517898D01*
X164593001Y-69488105D01*
X164593001Y-69653408D01*
X164518744Y-69630350D01*
X164506618Y-69627855D01*
X164310983Y-69607293D01*
X164304393Y-69606948D01*
X163401401Y-69606948D01*
X163395634Y-69607212D01*
X163235874Y-69621892D01*
X163224514Y-69623998D01*
X163017404Y-69682409D01*
X163006617Y-69686549D01*
X162813620Y-69781725D01*
X162803769Y-69787762D01*
X162631348Y-69916515D01*
X162622763Y-69924246D01*
X162587180Y-69962739D01*
X162572825Y-69946370D01*
X162564444Y-69938417D01*
X162395452Y-69805195D01*
X162385763Y-69798902D01*
X162195322Y-69698707D01*
X162184648Y-69694286D01*
X161978744Y-69630350D01*
X161966618Y-69627855D01*
X161770983Y-69607293D01*
X161764393Y-69606948D01*
X160861401Y-69606948D01*
X160855634Y-69607212D01*
X160695874Y-69621892D01*
X160684514Y-69623998D01*
X160477404Y-69682409D01*
X160466617Y-69686549D01*
X160273620Y-69781725D01*
X160263769Y-69787762D01*
X160091348Y-69916515D01*
X160082763Y-69924246D01*
X159936691Y-70082264D01*
X159929658Y-70091430D01*
X159814830Y-70273422D01*
X159809585Y-70283716D01*
X159803010Y-70300196D01*
X159803010Y-69578831D01*
X159803009Y-69578819D01*
X159803009Y-69523520D01*
X159799907Y-69503932D01*
X159784274Y-69455818D01*
X159776357Y-69405833D01*
X159770228Y-69386972D01*
X159747258Y-69341889D01*
X159731621Y-69293765D01*
X159722617Y-69276094D01*
X159692873Y-69235155D01*
X159669903Y-69190074D01*
X159658245Y-69174029D01*
X159620926Y-69136711D01*
X159620919Y-69136702D01*
X158921837Y-68437621D01*
X158921837Y-67983579D01*
X159720811Y-67983579D01*
X159684582Y-68165718D01*
%TA.AperFunction,Conductor*%
G36*
X159684582Y-68165718D02*
G01*
X159683374Y-68177208D01*
X159680557Y-68392380D01*
X159681464Y-68403898D01*
X159717906Y-68615979D01*
X159720896Y-68627139D01*
X159795377Y-68829028D01*
X159800351Y-68839457D01*
X159910376Y-69024392D01*
X159917167Y-69033738D01*
X160059051Y-69195526D01*
X160067432Y-69203479D01*
X160236424Y-69336701D01*
X160246113Y-69342994D01*
X160436554Y-69443189D01*
X160447228Y-69447610D01*
X160653132Y-69511546D01*
X160665258Y-69514041D01*
X160860893Y-69534603D01*
X160867483Y-69534948D01*
X161770475Y-69534948D01*
X161776242Y-69534684D01*
X161936002Y-69520004D01*
X161947362Y-69517898D01*
X162154472Y-69459487D01*
X162165259Y-69455347D01*
X162358256Y-69360171D01*
X162368107Y-69354134D01*
X162540528Y-69225381D01*
X162549113Y-69217650D01*
X162584696Y-69179157D01*
X162599051Y-69195526D01*
X162607432Y-69203479D01*
X162776424Y-69336701D01*
X162786113Y-69342994D01*
X162976554Y-69443189D01*
X162987228Y-69447610D01*
X163193132Y-69511546D01*
X163205258Y-69514041D01*
X163400893Y-69534603D01*
X163407483Y-69534948D01*
X163654129Y-69534948D01*
X163727938Y-69461139D01*
X163727939Y-68172948D01*
X163983938Y-68172949D01*
X163983937Y-69461139D01*
X164057746Y-69534948D01*
X164310475Y-69534948D01*
X164316242Y-69534684D01*
X164476002Y-69520004D01*
X164487362Y-69517898D01*
X164593001Y-69488105D01*
X164593001Y-69653408D01*
X164518744Y-69630350D01*
X164506618Y-69627855D01*
X164310983Y-69607293D01*
X164304393Y-69606948D01*
X163401401Y-69606948D01*
X163395634Y-69607212D01*
X163235874Y-69621892D01*
X163224514Y-69623998D01*
X163017404Y-69682409D01*
X163006617Y-69686549D01*
X162813620Y-69781725D01*
X162803769Y-69787762D01*
X162631348Y-69916515D01*
X162622763Y-69924246D01*
X162587180Y-69962739D01*
X162572825Y-69946370D01*
X162564444Y-69938417D01*
X162395452Y-69805195D01*
X162385763Y-69798902D01*
X162195322Y-69698707D01*
X162184648Y-69694286D01*
X161978744Y-69630350D01*
X161966618Y-69627855D01*
X161770983Y-69607293D01*
X161764393Y-69606948D01*
X160861401Y-69606948D01*
X160855634Y-69607212D01*
X160695874Y-69621892D01*
X160684514Y-69623998D01*
X160477404Y-69682409D01*
X160466617Y-69686549D01*
X160273620Y-69781725D01*
X160263769Y-69787762D01*
X160091348Y-69916515D01*
X160082763Y-69924246D01*
X159936691Y-70082264D01*
X159929658Y-70091430D01*
X159814830Y-70273422D01*
X159809585Y-70283716D01*
X159803010Y-70300196D01*
X159803010Y-69578831D01*
X159803009Y-69578819D01*
X159803009Y-69523520D01*
X159799907Y-69503932D01*
X159784274Y-69455818D01*
X159776357Y-69405833D01*
X159770228Y-69386972D01*
X159747258Y-69341889D01*
X159731621Y-69293765D01*
X159722617Y-69276094D01*
X159692873Y-69235155D01*
X159669903Y-69190074D01*
X159658245Y-69174029D01*
X159620926Y-69136711D01*
X159620919Y-69136702D01*
X158921837Y-68437621D01*
X158921837Y-67983579D01*
X159720811Y-67983579D01*
X159684582Y-68165718D01*
G37*
%TD.AperFunction*%
%TD*%
M02*
